<svg width="99" height="40" viewBox="0 0 99 40" fill="none" xmlns="http://www.w3.org/2000/svg">
<path d="M34.1014 14.6725C32.0347 14.6725 29.7288 15.4758 29.2453 18.12C29.1944 18.4017 29.3781 18.5349 29.5562 18.575L31.6737 18.8318C31.8693 18.8206 32.0029 18.6071 32.0403 18.4041C32.2216 17.4941 32.9627 17.0647 33.7904 17.0647C34.2381 17.0647 34.7391 17.2196 35.0047 17.6345C35.3076 18.0967 35.2861 18.7251 35.2861 19.2588V19.5725C34.0282 19.7186 32.3711 19.8069 31.1934 20.3413C29.8345 20.9512 28.8779 22.1927 28.8779 24.0168C28.8779 26.3545 30.2973 27.5205 32.1246 27.5205C33.6672 27.5205 34.5204 27.1546 35.71 25.8978C36.1052 26.4901 36.2316 26.7589 36.952 27.3793C37.032 27.4249 37.1242 27.444 37.2156 27.4338C37.3069 27.4236 37.3928 27.3845 37.4609 27.3223V27.3504C37.8943 26.9515 38.6815 26.2261 39.126 25.8409C39.3025 25.6908 39.2643 25.4452 39.126 25.2422C38.7284 24.6748 38.3078 24.2182 38.3078 23.1621V19.6584C38.3078 18.1738 38.4318 16.8047 37.3758 15.7839C36.5441 14.9566 35.1565 14.6725 34.1014 14.6725ZM62.557 14.6725C60.4896 14.6725 58.1852 15.4758 57.7018 18.12C57.6509 18.4017 57.8338 18.5349 58.0119 18.575L60.1302 18.8318C60.3258 18.8206 60.4602 18.6071 60.4968 18.4041C60.6789 17.4941 61.42 17.0647 62.2469 17.0647C62.6954 17.0647 63.1956 17.2196 63.4603 17.6345C63.7633 18.0967 63.714 18.7251 63.714 19.2588V19.5725C62.4561 19.7186 60.8276 19.8069 59.6491 20.3413C58.2886 20.9512 57.3352 22.1927 57.3352 24.0168C57.3352 26.3545 58.7546 27.5205 60.5811 27.5205C62.1221 27.5205 62.9753 27.1546 64.1665 25.8978C64.5601 26.4901 64.6881 26.7589 65.4093 27.3793C65.4891 27.425 65.5812 27.4441 65.6725 27.4339C65.7637 27.4236 65.8495 27.3846 65.9174 27.3223V27.3504C66.3516 26.9515 67.1396 26.2261 67.5833 25.8409C67.7598 25.6908 67.7192 25.4452 67.5833 25.2422C67.1857 24.6748 66.7642 24.2182 66.7642 23.1621V19.6584C66.7642 18.1738 66.8597 16.8047 65.8053 15.7839C64.9704 14.9566 63.6114 14.6725 62.557 14.6725ZM46.5504 14.7864C45.2145 14.7864 44.2254 15.467 43.6998 16.9235H43.6711V15.4132C43.6643 15.3098 43.6205 15.2125 43.548 15.1392C43.4755 15.0658 43.3791 15.0215 43.2767 15.0143H41.2435C41.1315 15.0158 41.0246 15.0613 40.9454 15.1412C40.8662 15.2211 40.8211 15.3291 40.8197 15.4421V26.9804C40.8297 27.0829 40.8747 27.1787 40.9469 27.2514C41.0191 27.3242 41.1141 27.3693 41.2157 27.3793H43.3889C43.5009 27.3782 43.608 27.3328 43.6871 27.2528C43.7662 27.1728 43.8111 27.0646 43.8119 26.9515V20.826C43.8119 19.4907 43.7483 17.6642 45.3084 17.6642C46.8486 17.6642 46.6347 19.5412 46.6347 20.826V26.9515C46.6347 27.169 46.8112 27.3648 47.0307 27.3793H49.2039C49.4345 27.3793 49.6269 27.1843 49.6269 26.9515V20.826C49.6269 20.1712 49.6007 19.2162 49.8241 18.6328C50.0475 18.0494 50.5962 17.6642 51.1234 17.6642C51.7508 17.6642 52.2319 17.8849 52.3941 18.6609C52.4943 19.1223 52.4505 20.3413 52.4505 20.826V26.9515C52.4505 27.169 52.6271 27.3648 52.8449 27.3793H55.0189C55.2495 27.3793 55.4419 27.1843 55.4419 26.9515V19.6584C55.4419 18.4186 55.5644 17.0118 54.8774 16.0399C54.2691 15.1668 53.2751 14.7856 52.3646 14.7856C51.0884 14.7856 49.8988 15.4662 49.3725 16.9227C48.7649 15.467 47.9078 14.7864 46.5504 14.7864ZM83.5032 14.7864C80.3631 14.7864 78.6193 17.5735 78.6193 21.1687C78.6193 24.7382 80.3424 27.6064 83.5032 27.6064C86.5431 27.6064 88.4722 24.804 88.4722 21.2819C88.4722 17.6409 86.7244 14.7864 83.5032 14.7864ZM95.8958 14.7864C94.3954 14.7864 93.5374 15.5432 92.9315 17.1225H92.9036V15.3562C92.8647 15.1781 92.6985 15.0537 92.5084 15.0432H90.5038C90.4003 15.0409 90.2996 15.0774 90.2213 15.1458C90.143 15.2142 90.0926 15.3095 90.08 15.4132V26.9515C90.08 27.169 90.2589 27.3648 90.4752 27.3793H92.6213C92.733 27.3774 92.8396 27.3317 92.9184 27.2518C92.9972 27.172 93.0422 27.0642 93.0436 26.9515V20.741C93.0436 19.9626 93.1096 19.2523 93.4117 18.5478C93.6551 17.9884 94.1266 17.6353 94.6538 17.6353C96.1511 17.6353 96.0079 19.477 96.0079 20.741V27.0093C96.0226 27.1072 96.0698 27.1972 96.1417 27.2646C96.2136 27.3319 96.3061 27.3726 96.4039 27.3801H98.5771C98.6801 27.3801 98.7796 27.3426 98.8573 27.2745C98.935 27.2064 98.9858 27.1122 99.0001 27.0093V19.7443C99.0001 18.6272 99.0025 17.0768 98.4356 16.1539C97.8281 15.158 96.8651 14.7864 95.8958 14.7864ZM69.8121 14.9863C69.591 14.9863 69.4169 15.1628 69.4161 15.4132V17.0655C69.4169 17.3143 69.5855 17.4917 69.8121 17.4933H73.5382L69.2754 23.8459C69.0162 24.2559 68.9939 24.7198 68.9939 24.9862V26.6674C68.9939 26.9098 69.2547 27.173 69.502 27.0374C71.932 25.6988 74.8431 25.8176 77.0393 27.0093C77.3065 27.1562 77.5761 26.8809 77.5761 26.6386V24.8714C77.5699 24.7413 77.5301 24.6151 77.4608 24.5052C77.3915 24.3953 77.295 24.3055 77.1809 24.2447C75.9341 23.5216 74.4869 23.2994 73.1168 23.3331L76.8143 17.864C77.1562 17.3721 77.3471 17.0768 77.3503 16.8376V15.414C77.3503 15.1684 77.1841 14.9871 76.9558 14.9871H69.8121V14.9863ZM83.5032 17.1514C84.191 17.1514 84.6991 17.4612 84.9433 18.2621C85.2247 19.1865 85.2542 20.3389 85.2542 21.3108C85.2542 22.7922 85.1858 25.2422 83.504 25.2422C81.8032 25.2422 81.8103 22.2088 81.8103 20.798C81.8095 19.3912 81.9034 17.1514 83.5032 17.1514ZM35.2583 21.3677V21.8524C35.2583 22.7288 35.2901 23.4655 34.8631 24.2447C34.518 24.8787 33.9757 25.2711 33.3674 25.2711C32.5365 25.2711 32.0411 24.5898 32.0411 23.6179C32.0403 21.7024 33.6903 21.3677 35.2583 21.3677ZM63.714 21.3677V21.8524C63.714 22.7288 63.7458 23.4655 63.3196 24.2447C62.9737 24.8787 62.4354 25.2711 61.8231 25.2711C60.9906 25.2711 60.496 24.5898 60.496 23.6179C60.496 21.7024 62.1444 21.3677 63.714 21.3677Z" fill="#201C1D"/>
<path d="M77.8003 27.749V29.4022H78.9024V27.749H77.8003ZM45.8729 28.0347V39.801H46.8892V38.7465C47.1054 39.1646 47.3519 39.4767 47.6509 39.6862C47.9499 39.8965 48.2918 40 48.6663 40C49.413 40 50.0579 39.6156 50.6145 38.8323C51.1719 38.0483 51.4613 36.9128 51.4613 35.4707C51.4613 34.5253 51.3413 33.7421 51.094 33.0784C50.8467 32.4156 50.5175 31.922 50.1064 31.5962C49.6937 31.2704 49.2261 31.0834 48.7236 31.0834C48.3642 31.0834 48.0286 31.1781 47.7344 31.3675C47.4418 31.5569 47.2048 31.8666 46.9727 32.251V28.0347H45.8729ZM56.3174 30.7977C55.5525 30.7977 54.9434 31.0264 54.5116 31.4814C54.0798 31.9365 53.8635 32.5215 53.8635 33.2486C53.8635 33.6699 53.955 34.0286 54.1164 34.3592C54.277 34.6906 54.506 34.9595 54.7939 35.1569C55.0833 35.3543 55.6606 35.6143 56.5162 35.8976C57.1086 36.0902 57.4624 36.2539 57.6175 36.3823C57.8409 36.5693 57.957 36.8141 57.957 37.1519C57.957 37.5419 57.8219 37.8677 57.561 38.1205C57.3002 38.3749 56.936 38.4905 56.4597 38.4905C55.9826 38.4905 55.5898 38.3557 55.3028 38.0635C55.0149 37.7714 54.8599 37.3269 54.7939 36.725L53.6934 36.9521C53.9423 38.7802 54.8456 39.6886 56.4033 39.687C57.2342 39.687 57.8696 39.4503 58.3506 38.9463C58.8309 38.4423 59.0854 37.7658 59.0854 36.9521C59.0854 36.5123 59.0074 36.1319 58.8595 35.8133C58.7232 35.5135 58.5082 35.2571 58.2377 35.0718C57.9705 34.8881 57.3718 34.6417 56.4597 34.3311C55.7966 34.0968 55.4093 33.9251 55.2749 33.8175C55.0491 33.6378 54.9354 33.3922 54.9354 33.0776C54.9354 32.7566 55.0412 32.4846 55.2749 32.2791C55.5087 32.0745 55.8689 31.9662 56.3476 31.9662C57.1889 31.9662 57.6596 32.4324 57.7582 33.3617L58.8317 33.1908C58.757 32.6033 58.6305 32.1379 58.4373 31.8225C58.2298 31.4931 57.937 31.2272 57.5905 31.0537C57.2207 30.8675 56.8017 30.7977 56.3174 30.7977ZM63.0652 30.7977C62.1833 30.7977 61.4383 31.1645 60.8626 31.9373C60.2877 32.7101 60.0173 33.8296 60.0173 35.2989C60.0173 36.7145 60.294 37.8236 60.8626 38.5755C61.4335 39.3251 62.1714 39.6862 63.0938 39.6862C63.8261 39.6862 64.4336 39.4647 64.9282 39.0025C65.4244 38.541 65.7846 37.8605 65.9723 36.9505L64.8431 36.7515C64.5195 37.9159 63.9207 38.4873 63.0938 38.4889C62.5658 38.4889 62.1348 38.2634 61.7667 37.7771C61.3977 37.2899 61.1894 36.5677 61.1464 35.6119H66.0009V35.2131C66.0009 33.775 65.717 32.6956 65.154 31.9365C64.5903 31.1781 63.9064 30.7977 63.0652 30.7977ZM69.7557 30.7977C69.4925 30.7977 69.2619 30.8876 69.0495 31.0826C68.8372 31.2768 68.5987 31.6797 68.3434 32.2783V30.9678H67.3551V39.4864H68.4564V35.0421C68.4564 34.4226 68.5152 33.8255 68.6544 33.2758C68.7339 32.9597 68.8842 32.7117 69.0774 32.5351C69.2714 32.3578 69.4932 32.2783 69.7262 32.2783C69.9855 32.2783 70.2431 32.3835 70.5166 32.5921L70.884 31.2535C70.5007 30.9438 70.1246 30.7977 69.7557 30.7977ZM83.2488 30.7977C82.3773 30.7977 81.6592 31.1685 81.1026 31.9092C80.5492 32.6499 80.2574 33.7621 80.2574 35.242C80.2574 36.7113 80.5532 37.8244 81.1026 38.5755C81.6537 39.3251 82.3423 39.6862 83.1923 39.6862C83.8952 39.6862 84.498 39.423 84.9989 38.8885C85.4999 38.3549 85.8052 37.5676 85.9309 36.5524L84.8574 36.3815C84.7771 37.1078 84.5902 37.631 84.2928 37.9769C83.9962 38.322 83.6384 38.4897 83.2201 38.4897C82.6874 38.4897 82.2333 38.2385 81.8922 37.7209C81.5527 37.2025 81.3849 36.3727 81.3849 35.2139C81.3849 34.0904 81.5654 33.2798 81.9208 32.7638C82.2771 32.247 82.7327 31.9662 83.2758 31.9662C83.6392 31.9662 83.9493 32.1082 84.2077 32.3923C84.4678 32.678 84.6395 33.129 84.7437 33.7036L85.8179 33.4765C85.6891 32.5785 85.4037 31.902 84.9417 31.4534C84.4805 31.004 83.9207 30.7977 83.2488 30.7977ZM89.5441 30.7977C88.6614 30.7977 87.9172 31.1645 87.3415 31.9373C86.7666 32.7101 86.4946 33.8296 86.4946 35.2989C86.4946 36.7145 86.7721 37.8236 87.3415 38.5755C87.9132 39.3251 88.6503 39.6862 89.5719 39.6862C90.3019 39.6862 90.9117 39.4647 91.4071 39.0025C91.9017 38.541 92.2619 37.8605 92.452 36.9505L91.3228 36.7515C90.9968 37.9159 90.4259 38.4873 89.6005 38.4889C89.0725 38.4889 88.6137 38.2634 88.2456 37.7771C87.8774 37.2899 87.6691 36.5677 87.6245 35.6119H92.4798V35.2131C92.4798 33.775 92.1959 32.6956 91.633 31.9365C91.0716 31.1781 90.3861 30.7977 89.5441 30.7977ZM96.066 30.7977C95.2979 30.7977 94.6912 31.0264 94.2594 31.4814C93.826 31.9357 93.6097 32.5215 93.6097 33.2486C93.6097 33.6699 93.6749 34.0286 93.8356 34.3592C93.9946 34.6906 94.2244 34.9595 94.5138 35.1569C94.8009 35.3543 95.3806 35.6143 96.2362 35.8976C96.827 36.0902 97.211 36.2539 97.3653 36.3823C97.5887 36.5693 97.704 36.8141 97.704 37.1519C97.704 37.5419 97.5704 37.8677 97.3088 38.1205C97.0496 38.3749 96.6846 38.4905 96.2083 38.4905C95.7296 38.4905 95.3384 38.3557 95.0506 38.0635C94.7635 37.7714 94.5774 37.3269 94.5138 36.725L93.4133 36.9521C93.6622 38.7802 94.5631 39.6886 96.1225 39.687C96.955 39.687 97.6181 39.4503 98.0984 38.9463C98.5787 38.4423 98.8316 37.7658 98.8316 36.9521C98.8316 36.5123 98.7552 36.1319 98.6073 35.8133C98.461 35.5116 98.2365 35.2554 97.9577 35.0718C97.6905 34.8881 97.1196 34.6417 96.2083 34.3311C95.5444 34.0968 95.1293 33.9251 94.9941 33.8175C94.7691 33.6378 94.6554 33.3922 94.6554 33.0776C94.6554 32.7566 94.7882 32.4846 95.0227 32.2791C95.2565 32.0745 95.6191 31.9662 96.0962 31.9662C96.9375 31.9662 97.4074 32.4324 97.5068 33.3617L98.5795 33.1908C98.5048 32.6033 98.3791 32.1379 98.1843 31.8225C97.9771 31.4931 97.6845 31.2272 97.3382 31.0537C96.9701 30.8675 96.5479 30.7977 96.066 30.7977ZM70.8848 30.9687L73.3418 39.4872H74.3859L76.8421 30.9687H75.713L74.273 36.1825C74.0988 36.8125 73.9446 37.3574 73.8492 37.8059C73.7299 37.2402 73.6138 36.6455 73.4548 36.0677L72.0433 30.9687H70.8848ZM77.8003 30.9687V39.4872H78.9024V30.9687H77.8003ZM41.6101 31.0834C40.737 31.0834 40.0349 31.4782 39.4655 32.251C38.8954 33.0239 38.5893 34.1433 38.5893 35.6127C38.5893 37.0291 38.8715 38.1109 39.4361 38.8604C39.9999 39.6108 40.7537 40 41.6673 40C42.3917 40 42.9833 39.7496 43.4731 39.2874C43.963 38.8259 44.3017 38.1454 44.4902 37.2362L43.3889 37.0652C43.0676 38.2297 42.4855 38.801 41.6673 38.8027C41.1433 38.8027 40.7052 38.5771 40.3402 38.09C39.9744 37.6037 39.7621 36.8815 39.7192 35.9257H44.518L44.5466 35.5268C44.5466 34.0888 44.2572 32.9813 43.6998 32.2214C43.1424 31.463 42.4426 31.0834 41.6101 31.0834ZM29.2183 31.2824L31.1942 39.801H32.3512L33.6505 33.2486L33.8763 34.7011L34.9204 39.801H36.0495L38.0541 31.2824H37.0101L35.908 36.2106L35.5406 37.8637L35.2019 36.2106L34.2421 31.2816H33.113L32.0967 36.2676L31.758 38.0339L31.3636 36.2106L30.3466 31.2816H29.2183V31.2824ZM63.0365 31.9662C63.5852 31.9662 64.0368 32.2334 64.3915 32.7638C64.6348 33.1266 64.7938 33.6787 64.8423 34.4162H61.2005C61.2355 33.6683 61.4446 33.0921 61.7945 32.6499C62.1444 32.2085 62.5443 31.9662 63.0365 31.9662ZM89.5154 31.9662C90.0625 31.9662 90.5158 32.2334 90.8704 32.7638C91.1153 33.1266 91.2728 33.6787 91.3228 34.4162H87.6802C87.7152 33.6683 87.9251 33.0921 88.2734 32.6499C88.6209 32.2085 89.0232 31.9662 89.5154 31.9662ZM41.6101 32.2791C42.1524 32.2791 42.5881 32.5472 42.938 33.0776C43.1797 33.4403 43.3396 33.9925 43.3889 34.73H39.8027C39.8369 33.982 40.0213 33.3762 40.368 32.9356C40.7131 32.4926 41.1218 32.2791 41.6101 32.2791ZM48.6115 32.2791C49.1005 32.2791 49.518 32.5536 49.8543 33.0776C50.1907 33.6008 50.3346 34.409 50.3346 35.5276C50.3346 36.6166 50.1756 37.4296 49.8257 37.9777C49.4766 38.5266 49.0623 38.8035 48.6123 38.8035C48.2815 38.8035 47.9809 38.6911 47.709 38.4616C47.4354 38.2321 47.2359 37.903 47.0872 37.4649C46.9393 37.0267 46.8621 36.3518 46.8621 35.4707C46.8621 34.4322 47.0458 33.6546 47.3981 33.1057C47.7503 32.5568 48.1614 32.2791 48.6115 32.2791Z" fill="black"/>
<path d="M13.3953 23.2484L9.1889 25.0709L13.0844 26.7521L17.6017 25.0709L13.3953 23.2484ZM7.07218 25.5267L6.93064 33.7331L13.0852 36.468V27.9486L7.07218 25.5267ZM19.7184 25.5267L14.1571 27.6638V35.6984L19.7184 33.4193V25.5267ZM26.3525 0L22.1174 1.82248L26.0416 3.50371L30.5589 1.82248L26.3525 0ZM20.4802 2.42194V10.6267L25.7315 12.1651L25.9008 4.70024L20.4802 2.42194ZM32.224 2.87696L27.255 5.01402V13.0767L32.224 10.7976V2.87696ZM6.46388 11.548L2.25747 13.3712L6.15297 15.0525L10.6695 13.3712L6.46388 11.548ZM0.141539 13.8279L0 22.0326L6.15376 24.7675V16.249L0.141539 13.8279ZM12.7878 13.8279L7.22644 15.9641V23.9987L12.7878 21.7196V13.8279ZM20.0142 11.2454L15.8078 13.0679L19.7033 14.7483L24.2199 13.0679L20.0142 11.2454ZM13.6911 13.5237L13.5504 21.7293L19.7041 24.4642V15.9457L13.6911 13.5237ZM26.3382 13.5237L20.7768 15.6608V23.6954L26.3382 21.4155V13.5237ZM39.5872 0L35.3816 1.82248L39.2771 3.50371L43.7944 1.82248L39.5872 0ZM33.264 2.2791L33.1225 10.4847L39.2771 13.2188V4.70104L33.264 2.2791ZM45.9103 2.2791L40.3489 4.41616V12.45L45.9103 10.1709V2.2791Z" fill="#F7A80D"/>
</svg>
