<svg width="51" height="20" viewBox="0 0 51 20" fill="none" xmlns="http://www.w3.org/2000/svg">
<path d="M18.0307 7.33621C16.9973 7.33621 15.8444 7.73786 15.6026 9.05998C15.5772 9.20082 15.669 9.26743 15.7581 9.28749L16.8168 9.41589C16.9146 9.41027 16.9814 9.30354 17.0001 9.20202C17.0908 8.74701 17.4613 8.53234 17.8752 8.53234C18.099 8.53234 18.3495 8.60978 18.4823 8.81722C18.6338 9.04834 18.6231 9.36252 18.6231 9.62935V9.78624C17.9941 9.85927 17.1655 9.90341 16.5767 10.1706C15.8972 10.4756 15.4189 11.0963 15.4189 12.0084C15.4189 13.1772 16.1286 13.7602 17.0423 13.7602C17.8136 13.7602 18.2402 13.5772 18.835 12.9489C19.0326 13.245 19.0958 13.3794 19.456 13.6896C19.496 13.7124 19.5421 13.722 19.5878 13.7169C19.6335 13.7117 19.6764 13.6922 19.7104 13.6611V13.6752C19.9271 13.4757 20.3207 13.113 20.543 12.9204C20.6312 12.8454 20.6122 12.7226 20.543 12.6211C20.3442 12.3374 20.1339 12.1091 20.1339 11.581V9.82918C20.1339 9.08686 20.1959 8.40233 19.6679 7.89194C19.252 7.47825 18.5582 7.33621 18.0307 7.33621ZM32.2585 7.33621C31.2248 7.33621 30.0726 7.73786 29.8309 9.05998C29.8054 9.20082 29.8969 9.26743 29.9859 9.28749L31.0451 9.41589C31.1429 9.41027 31.2101 9.30354 31.2284 9.20202C31.3194 8.74701 31.69 8.53234 32.1034 8.53234C32.3277 8.53234 32.5778 8.60978 32.7102 8.81722C32.8616 9.04834 32.837 9.36252 32.837 9.62935V9.78624C32.208 9.85927 31.3938 9.90341 30.8045 10.1706C30.1243 10.4756 29.6476 11.0963 29.6476 12.0084C29.6476 13.1772 30.3573 13.7602 31.2705 13.7602C32.041 13.7602 32.4676 13.5772 33.0632 12.9489C33.26 13.245 33.324 13.3794 33.6846 13.6896C33.7246 13.7125 33.7706 13.722 33.8162 13.7169C33.8619 13.7118 33.9047 13.6923 33.9387 13.6611V13.6752C34.1558 13.4757 34.5498 13.113 34.7716 12.9204C34.8599 12.8454 34.8396 12.7226 34.7716 12.6211C34.5728 12.3374 34.3621 12.1091 34.3621 11.581V9.82918C34.3621 9.08686 34.4098 8.40233 33.8826 7.89194C33.4652 7.47825 32.7857 7.33621 32.2585 7.33621ZM24.2552 7.39319C23.5873 7.39319 23.0927 7.73345 22.8299 8.46172H22.8155V7.70657C22.8121 7.65488 22.7902 7.60621 22.754 7.56955C22.7177 7.53288 22.6695 7.51071 22.6183 7.50714H21.6017C21.5458 7.50787 21.4923 7.53064 21.4527 7.57059C21.4131 7.61054 21.3905 7.66452 21.3898 7.72101V13.4902C21.3948 13.5414 21.4173 13.5893 21.4534 13.6257C21.4895 13.6621 21.537 13.6846 21.5878 13.6896H22.6744C22.7304 13.6891 22.784 13.6664 22.8235 13.6264C22.8631 13.5863 22.8855 13.5323 22.8859 13.4757V10.413C22.8859 9.74531 22.8541 8.83207 23.6342 8.83207C24.4043 8.83207 24.2973 9.77059 24.2973 10.413V13.4757C24.2973 13.5845 24.3856 13.6824 24.4953 13.6896H25.5819C25.6972 13.6896 25.7934 13.5921 25.7934 13.4757V10.413C25.7934 10.0856 25.7803 9.60809 25.892 9.31638C26.0038 9.02467 26.2781 8.83207 26.5417 8.83207C26.8554 8.83207 27.0959 8.94241 27.177 9.33042C27.2271 9.56114 27.2052 10.1706 27.2052 10.413V13.4757C27.2052 13.5845 27.2935 13.6824 27.4024 13.6896H28.4894C28.6047 13.6896 28.7009 13.5921 28.7009 13.4757V9.82918C28.7009 9.20925 28.7622 8.50585 28.4187 8.01994C28.1145 7.58338 27.6175 7.39279 27.1623 7.39279C26.5242 7.39279 25.9294 7.73305 25.6662 8.46132C25.3625 7.73345 24.9339 7.39319 24.2552 7.39319ZM42.7316 7.39319C41.1615 7.39319 40.2896 8.78673 40.2896 10.5843C40.2896 12.3691 41.1512 13.8032 42.7316 13.8032C44.2515 13.8032 45.2161 12.402 45.2161 10.6409C45.2161 8.82043 44.3422 7.39319 42.7316 7.39319ZM48.9279 7.39319C48.1777 7.39319 47.7487 7.77157 47.4457 8.56123H47.4318V7.67808C47.4123 7.589 47.3292 7.52681 47.2342 7.52159H46.2319C46.1801 7.52041 46.1298 7.53868 46.0906 7.57286C46.0515 7.60705 46.0263 7.6547 46.02 7.70657V13.4757C46.02 13.5845 46.1094 13.6824 46.2176 13.6896H47.2907C47.3465 13.6887 47.3998 13.6658 47.4392 13.6259C47.4786 13.5859 47.5011 13.5321 47.5018 13.4757V10.3705C47.5018 9.98125 47.5348 9.62614 47.6859 9.27385C47.8075 8.99418 48.0433 8.81763 48.3069 8.81763C49.0555 8.81763 48.984 9.73849 48.984 10.3705V13.5046C48.9913 13.5536 49.0149 13.5986 49.0508 13.6323C49.0868 13.6659 49.133 13.6863 49.1819 13.69H50.2685C50.32 13.69 50.3698 13.6713 50.4086 13.6372C50.4475 13.6032 50.4729 13.5561 50.4801 13.5046V9.87211C50.4801 9.31357 50.4812 8.53836 50.1978 8.07692C49.894 7.57897 49.4125 7.39319 48.9279 7.39319ZM35.886 7.4931C35.7755 7.4931 35.6884 7.58138 35.688 7.70657V8.53274C35.6884 8.65713 35.7727 8.7458 35.886 8.7466H37.7491L35.6177 11.9229C35.4881 12.1279 35.4769 12.3599 35.4769 12.4931V13.3337C35.4769 13.4549 35.6073 13.5865 35.731 13.5187C36.946 12.8494 38.4015 12.9088 39.4997 13.5046C39.6332 13.5781 39.768 13.4404 39.768 13.3192V12.4357C39.7649 12.3706 39.745 12.3075 39.7104 12.2526C39.6757 12.1976 39.6275 12.1527 39.5704 12.1223C38.947 11.7608 38.2234 11.6496 37.5384 11.6665L39.3871 8.93198C39.5581 8.68602 39.6535 8.53836 39.6551 8.41878V7.70697C39.6551 7.58418 39.572 7.4935 39.4579 7.4935H35.886V7.4931ZM42.7316 8.57567C43.0755 8.57567 43.3295 8.73055 43.4516 9.131C43.5924 9.59324 43.6071 10.1694 43.6071 10.6554C43.6071 11.3961 43.5729 12.6211 42.732 12.6211C41.8816 12.6211 41.8851 11.1043 41.8851 10.399C41.8847 9.69556 41.9317 8.57567 42.7316 8.57567ZM18.6091 10.6838V10.9262C18.6091 11.3644 18.625 11.7327 18.4115 12.1223C18.239 12.4393 17.9678 12.6355 17.6637 12.6355C17.2482 12.6355 17.0005 12.2949 17.0005 11.8089C17.0001 10.8512 17.8251 10.6838 18.6091 10.6838ZM32.837 10.6838V10.9262C32.837 11.3644 32.8529 11.7327 32.6398 12.1223C32.4668 12.4393 32.1977 12.6355 31.8915 12.6355C31.4753 12.6355 31.228 12.2949 31.228 11.8089C31.228 10.8512 32.0522 10.6838 32.837 10.6838Z" fill="#201C1D"/>
<path d="M39.8809 13.8745V14.7011H40.4319V13.8745H39.8809ZM23.9172 14.0174V19.9005H24.4253V19.3732C24.5334 19.5823 24.6567 19.7384 24.8062 19.8431C24.9557 19.9482 25.1266 20 25.3139 20C25.6872 20 26.0097 19.8078 26.288 19.4162C26.5667 19.0242 26.7114 18.4564 26.7114 17.7353C26.7114 17.2627 26.6514 16.871 26.5277 16.5392C26.4041 16.2078 26.2395 15.961 26.0339 15.7981C25.8276 15.6352 25.5938 15.5417 25.3425 15.5417C25.1628 15.5417 24.995 15.5891 24.8479 15.6837C24.7016 15.7784 24.5831 15.9333 24.467 16.1255V14.0174H23.9172ZM29.1394 15.3989C28.7569 15.3989 28.4524 15.5132 28.2365 15.7407C28.0206 15.9682 27.9125 16.2607 27.9125 16.6243C27.9125 16.8349 27.9582 17.0143 28.0389 17.1796C28.1192 17.3453 28.2337 17.4797 28.3776 17.5784C28.5224 17.6772 28.811 17.8072 29.2388 17.9488C29.535 18.0451 29.7119 18.127 29.7895 18.1912C29.9012 18.2846 29.9592 18.407 29.9592 18.576C29.9592 18.771 29.8916 18.9339 29.7612 19.0603C29.6308 19.1875 29.4487 19.2452 29.2106 19.2452C28.972 19.2452 28.7756 19.1778 28.6321 19.0318C28.4882 18.8857 28.4106 18.6634 28.3776 18.3625L27.8274 18.476C27.9518 19.3901 28.4035 19.8443 29.1824 19.8435C29.5978 19.8435 29.9155 19.7251 30.156 19.4731C30.3962 19.2212 30.5234 18.8829 30.5234 18.476C30.5234 18.2562 30.4844 18.066 30.4105 17.9067C30.3423 17.7568 30.2348 17.6285 30.0996 17.5359C29.966 17.444 29.6666 17.3208 29.2106 17.1656C28.879 17.0484 28.6854 16.9625 28.6182 16.9088C28.5053 16.8189 28.4484 16.6961 28.4484 16.5388C28.4484 16.3783 28.5013 16.2423 28.6182 16.1396C28.7351 16.0372 28.9152 15.9831 29.1545 15.9831C29.5752 15.9831 29.8105 16.2162 29.8598 16.6809L30.3966 16.5954C30.3592 16.3017 30.296 16.0689 30.1994 15.9113C30.0956 15.7465 29.9492 15.6136 29.7759 15.5269C29.5911 15.4338 29.3815 15.3989 29.1394 15.3989ZM32.5133 15.3989C32.0724 15.3989 31.6998 15.5822 31.412 15.9686C31.1245 16.355 30.9894 16.9148 30.9894 17.6495C30.9894 18.3573 31.1277 18.9118 31.412 19.2878C31.6975 19.6625 32.0664 19.8431 32.5276 19.8431C32.8938 19.8431 33.1975 19.7324 33.4448 19.5012C33.6929 19.2705 33.873 18.9303 33.9668 18.4752L33.4023 18.3757C33.2405 18.9579 32.9411 19.2436 32.5276 19.2444C32.2636 19.2444 32.0481 19.1317 31.864 18.8885C31.6796 18.645 31.5754 18.2838 31.5539 17.806H33.9812V17.6065C33.9812 16.8875 33.8392 16.3478 33.5577 15.9682C33.2759 15.5891 32.9339 15.3989 32.5133 15.3989ZM35.8585 15.3989C35.7269 15.3989 35.6116 15.4438 35.5055 15.5413C35.3993 15.6384 35.2801 15.8398 35.1524 16.1392V15.4839H34.6582V19.7432H35.2089V17.5211C35.2089 17.2113 35.2383 16.9128 35.3079 16.6379C35.3476 16.4798 35.4228 16.3558 35.5194 16.2676C35.6164 16.1789 35.7273 16.1392 35.8438 16.1392C35.9734 16.1392 36.1023 16.1917 36.239 16.2961L36.4227 15.6268C36.2311 15.4719 36.043 15.3989 35.8585 15.3989ZM42.6051 15.3989C42.1693 15.3989 41.8103 15.5842 41.532 15.9546C41.2553 16.3249 41.1094 16.8811 41.1094 17.621C41.1094 18.3557 41.2573 18.9122 41.532 19.2878C41.8075 19.6625 42.1519 19.8431 42.5769 19.8431C42.9283 19.8431 43.2297 19.7115 43.4802 19.4443C43.7306 19.1774 43.8833 18.7838 43.9461 18.2762L43.4094 18.1908C43.3692 18.5539 43.2758 18.8155 43.1271 18.9884C42.9788 19.161 42.7999 19.2448 42.5908 19.2448C42.3244 19.2448 42.0974 19.1192 41.9268 18.8604C41.7571 18.6012 41.6732 18.1863 41.6732 17.6069C41.6732 17.0452 41.7634 16.6399 41.9411 16.3819C42.1193 16.1235 42.3471 15.9831 42.6186 15.9831C42.8003 15.9831 42.9554 16.0541 43.0846 16.1961C43.2146 16.339 43.3005 16.5645 43.3525 16.8518L43.8897 16.7382C43.8253 16.2892 43.6825 15.951 43.4515 15.7267C43.221 15.502 42.9411 15.3989 42.6051 15.3989ZM45.7527 15.3989C45.3114 15.3989 44.9393 15.5822 44.6514 15.9686C44.364 16.355 44.228 16.9148 44.228 17.6495C44.228 18.3573 44.3668 18.9118 44.6514 19.2878C44.9373 19.6625 45.3059 19.8431 45.7667 19.8431C46.1316 19.8431 46.4366 19.7324 46.6843 19.5012C46.9316 19.2705 47.1117 18.9303 47.2067 18.4752L46.6421 18.3757C46.4791 18.9579 46.1937 19.2436 45.781 19.2444C45.517 19.2444 45.2876 19.1317 45.1035 18.8885C44.9194 18.645 44.8152 18.2838 44.793 17.806H47.2206V17.6065C47.2206 16.8875 47.0787 16.3478 46.7972 15.9682C46.5165 15.5891 46.1738 15.3989 45.7527 15.3989ZM49.0137 15.3989C48.6296 15.3989 48.3263 15.5132 48.1104 15.7407C47.8937 15.9678 47.7856 16.2607 47.7856 16.6243C47.7856 16.8349 47.8182 17.0143 47.8985 17.1796C47.978 17.3453 48.0929 17.4797 48.2376 17.5784C48.3812 17.6772 48.671 17.8072 49.0988 17.9488C49.3942 18.0451 49.5862 18.127 49.6634 18.1912C49.7751 18.2846 49.8327 18.407 49.8327 18.576C49.8327 18.771 49.7659 18.9339 49.6351 19.0603C49.5055 19.1875 49.323 19.2452 49.0849 19.2452C48.8455 19.2452 48.6499 19.1778 48.506 19.0318C48.3625 18.8857 48.2694 18.6634 48.2376 18.3625L47.6874 18.476C47.8118 19.3901 48.2623 19.8443 49.0419 19.8435C49.4582 19.8435 49.7898 19.7251 50.0299 19.4731C50.2701 19.2212 50.3965 18.8829 50.3965 18.476C50.3965 18.2562 50.3583 18.066 50.2844 17.9067C50.2112 17.7558 50.099 17.6277 49.9596 17.5359C49.826 17.444 49.5405 17.3208 49.0849 17.1656C48.7529 17.0484 48.5454 16.9625 48.4778 16.9088C48.3653 16.8189 48.3084 16.6961 48.3084 16.5388C48.3084 16.3783 48.3748 16.2423 48.4921 16.1396C48.609 16.0372 48.7903 15.9831 49.0288 15.9831C49.4495 15.9831 49.6844 16.2162 49.7341 16.6809L50.2705 16.5954C50.2331 16.3017 50.1703 16.0689 50.0729 15.9113C49.9693 15.7465 49.823 15.6136 49.6498 15.5269C49.4658 15.4338 49.2546 15.3989 49.0137 15.3989ZM36.4231 15.4843L37.6516 19.7436H38.1737L39.4018 15.4843H38.8372L38.1172 18.0912C38.0301 18.4062 37.953 18.6787 37.9053 18.903C37.8457 18.6201 37.7876 18.3228 37.7081 18.0339L37.0024 15.4843H36.4231ZM39.8809 15.4843V19.7436H40.4319V15.4843H39.8809ZM21.7858 15.5417C21.3492 15.5417 20.9981 15.7391 20.7135 16.1255C20.4284 16.5119 20.2753 17.0717 20.2753 17.8064C20.2753 18.5146 20.4165 19.0554 20.6988 19.4302C20.9806 19.8054 21.3576 20 21.8144 20C22.1766 20 22.4724 19.8748 22.7173 19.6437C22.9622 19.413 23.1316 19.0727 23.2258 18.6181L22.6751 18.5326C22.5145 19.1148 22.2235 19.4005 21.8144 19.4013C21.5524 19.4013 21.3333 19.2886 21.1508 19.045C20.9679 18.8019 20.8618 18.4407 20.8403 17.9628H23.2397L23.254 17.7634C23.254 17.0444 23.1093 16.4907 22.8306 16.1107C22.5519 15.7315 22.202 15.5417 21.7858 15.5417ZM15.5898 15.6412L16.5778 19.9005H17.1563L17.806 16.6243L17.9189 17.3505L18.4409 19.9005H19.0055L20.0078 15.6412H19.4857L18.9347 18.1053L18.751 18.9319L18.5816 18.1053L18.1018 15.6408H17.5372L17.0291 18.1338L16.8597 19.0169L16.6625 18.1053L16.154 15.6408H15.5898V15.6412ZM32.499 15.9831C32.7733 15.9831 32.9991 16.1167 33.1765 16.3819C33.2981 16.5633 33.3776 16.8393 33.4019 17.2081H31.581C31.5985 16.8341 31.703 16.546 31.878 16.3249C32.0529 16.1043 32.2529 15.9831 32.499 15.9831ZM45.7384 15.9831C46.012 15.9831 46.2386 16.1167 46.4159 16.3819C46.5384 16.5633 46.6171 16.8393 46.6421 17.2081H44.8208C44.8383 16.8341 44.9433 16.546 45.1174 16.3249C45.2912 16.1043 45.4923 15.9831 45.7384 15.9831ZM21.7858 16.1396C22.0569 16.1396 22.2748 16.2736 22.4497 16.5388C22.5706 16.7202 22.6505 16.9962 22.6751 17.365H20.882C20.8991 16.991 20.9914 16.6881 21.1647 16.4678C21.3373 16.2463 21.5416 16.1396 21.7858 16.1396ZM25.2865 16.1396C25.531 16.1396 25.7397 16.2768 25.9079 16.5388C26.0761 16.8004 26.148 17.2045 26.148 17.7638C26.148 18.3083 26.0685 18.7148 25.8936 18.9888C25.719 19.2633 25.5119 19.4017 25.2869 19.4017C25.1215 19.4017 24.9712 19.3456 24.8352 19.2308C24.6984 19.116 24.5986 18.9515 24.5243 18.7324C24.4503 18.5134 24.4118 18.1759 24.4118 17.7353C24.4118 17.2161 24.5036 16.8273 24.6797 16.5529C24.8559 16.2784 25.0614 16.1396 25.2865 16.1396Z" fill="black"/>
<path d="M7.67812 11.6242L5.57492 12.5354L7.52267 13.3761L9.78133 12.5354L7.67812 11.6242ZM4.51656 12.7634L4.44579 16.8665L7.52307 18.234V13.9743L4.51656 12.7634ZM10.8397 12.7634L8.05901 13.8319V17.8492L10.8397 16.7096V12.7634ZM14.1567 0L12.0392 0.911238L14.0013 1.75186L16.2599 0.911238L14.1567 0ZM11.2206 1.21097V5.31335L13.8462 6.08254L13.9309 2.35012L11.2206 1.21097ZM17.0924 1.43848L14.608 2.50701V6.53836L17.0924 5.39881V1.43848ZM4.21241 5.77398L2.1092 6.68562L4.05695 7.52624L6.31521 6.68562L4.21241 5.77398ZM1.05124 6.91393L0.980469 11.0163L4.05735 12.3838V8.1245L1.05124 6.91393ZM7.37437 6.91393L4.59369 7.98206V11.9994L7.37437 10.8598V6.91393ZM10.9876 5.62271L8.88439 6.53395L10.8321 7.37417L13.0904 6.53395L10.9876 5.62271ZM7.82602 6.76186L7.75565 10.8646L10.8325 12.2321V7.97283L7.82602 6.76186ZM14.1496 6.76186L11.3689 7.83039V11.8477L14.1496 10.7077V6.76186ZM20.7741 0L18.6712 0.911238L20.619 1.75186L22.8777 0.911238L20.7741 0ZM17.6125 1.13955L17.5417 5.24233L20.619 6.60938V2.35052L17.6125 1.13955ZM23.9356 1.13955L21.1549 2.20808V6.22499L23.9356 5.08544V1.13955Z" fill="#F7A80D"/>
</svg>
