<svg width="48" height="48" viewBox="0 0 48 48" fill="none" xmlns="http://www.w3.org/2000/svg">
<path d="M44.3621 17.8125C44.3621 15.7312 42.6559 14.025 40.5746 14.025C38.4934 14.025 36.7871 15.7312 36.7871 17.8125C36.7871 18.5062 36.9934 19.1625 37.3309 19.725L32.2309 24.825C31.7059 24.5625 31.1246 24.3937 30.5059 24.3937C29.7184 24.3937 29.0059 24.6375 28.3871 25.0312L23.2684 19.9312C23.6809 19.3312 23.9246 18.6 23.9246 17.8125C23.9246 15.7312 22.2184 14.025 20.1371 14.025C18.0559 14.025 16.3496 15.7312 16.3496 17.8125C16.3496 18.4312 16.5184 19.0125 16.7809 19.5187L11.3621 24.9375C10.7996 24.6 10.1434 24.3937 9.44961 24.3937C7.36836 24.3937 5.66211 26.1 5.66211 28.1812C5.66211 30.2625 7.36836 31.9687 9.44961 31.9687C11.5309 31.9687 13.2371 30.2625 13.2371 28.1812C13.2371 27.4875 13.0309 26.8312 12.6934 26.2687L18.0184 20.9437C18.6184 21.3562 19.3496 21.6 20.1371 21.6C20.7559 21.6 21.3371 21.4312 21.8434 21.1687L27.1309 26.4562C26.8684 26.9812 26.6996 27.5625 26.6996 28.1812C26.6996 30.2625 28.4059 31.9687 30.4871 31.9687C32.5684 31.9687 34.2746 30.2625 34.2746 28.1812C34.2746 27.3937 34.0309 26.6625 33.6371 26.0625L38.6434 21.0562C39.2059 21.3937 39.8621 21.6 40.5559 21.6C42.6559 21.6 44.3621 19.8937 44.3621 17.8125ZM9.44961 30.075C8.39961 30.075 7.53711 29.2125 7.53711 28.1625C7.53711 27.1125 8.39961 26.25 9.44961 26.25C9.97461 26.25 10.4434 26.4562 10.7996 26.8125C11.1371 27.15 11.3621 27.6375 11.3621 28.1625C11.3621 29.2312 10.4996 30.075 9.44961 30.075ZM20.1371 19.7062C19.0871 19.7062 18.2246 18.8437 18.2246 17.7937C18.2246 16.7437 19.0871 15.8812 20.1371 15.8812C21.1871 15.8812 22.0496 16.7437 22.0496 17.7937C22.0496 18.8625 21.1871 19.7062 20.1371 19.7062ZM30.5059 30.075C29.4559 30.075 28.5934 29.2125 28.5934 28.1625C28.5934 27.1125 29.4559 26.25 30.5059 26.25C31.5559 26.25 32.4184 27.1125 32.4184 28.1625C32.3996 29.2312 31.5559 30.075 30.5059 30.075ZM39.2246 19.1437C38.8871 18.8062 38.6621 18.3187 38.6621 17.7937C38.6621 16.7437 39.5246 15.8812 40.5746 15.8812C41.6246 15.8812 42.4871 16.7437 42.4871 17.7937C42.4871 18.8437 41.6246 19.7062 40.5746 19.7062C40.0496 19.7062 39.5621 19.5 39.2246 19.1437Z" fill="url(#paint0_linear_60_766)"/>
<path d="M1.78105 39.8812C2.34355 39.8812 2.79355 39.4312 2.79355 38.8687V4.14373C2.79355 3.58123 2.34355 3.13123 1.78105 3.13123C1.21855 3.13123 0.768555 3.58123 0.768555 4.14373V38.8687C0.768555 39.4312 1.21855 39.8812 1.78105 39.8812Z" fill="url(#paint1_linear_60_766)"/>
<path d="M7.06855 42.8438H1.78105C1.21855 42.8438 0.768555 43.2937 0.768555 43.8562C0.768555 44.4187 1.21855 44.8688 1.78105 44.8688H7.08731C7.64981 44.8688 8.0998 44.4187 8.0998 43.8562C8.0998 43.2937 7.63105 42.8438 7.06855 42.8438Z" fill="url(#paint2_linear_60_766)"/>
<path d="M16.8557 42.8438H11.5682C11.0057 42.8438 10.5557 43.2937 10.5557 43.8562C10.5557 44.4187 11.0057 44.8688 11.5682 44.8688H16.8744C17.4369 44.8688 17.8869 44.4187 17.8869 43.8562C17.8869 43.2937 17.4182 42.8438 16.8557 42.8438Z" fill="url(#paint3_linear_60_766)"/>
<path d="M26.6439 42.8438H21.3377C20.7752 42.8438 20.3252 43.2937 20.3252 43.8562C20.3252 44.4187 20.7752 44.8688 21.3377 44.8688H26.6439C27.2064 44.8688 27.6564 44.4187 27.6564 43.8562C27.6564 43.2937 27.2064 42.8438 26.6439 42.8438Z" fill="url(#paint4_linear_60_766)"/>
<path d="M36.4311 42.8438H31.1248C30.5623 42.8438 30.1123 43.2937 30.1123 43.8562C30.1123 44.4187 30.5623 44.8688 31.1248 44.8688H36.4311C36.9936 44.8688 37.4436 44.4187 37.4436 43.8562C37.4436 43.2937 36.9936 42.8438 36.4311 42.8438Z" fill="url(#paint5_linear_60_766)"/>
<path d="M46.2182 42.8438H40.9119C40.3494 42.8438 39.8994 43.2937 39.8994 43.8562C39.8994 44.4187 40.3494 44.8688 40.9119 44.8688H46.2182C46.7807 44.8688 47.2307 44.4187 47.2307 43.8562C47.2307 43.2937 46.7807 42.8438 46.2182 42.8438Z" fill="url(#paint6_linear_60_766)"/>
<defs>
<linearGradient id="paint0_linear_60_766" x1="6.21183" y1="14.258" x2="24.3443" y2="44.1226" gradientUnits="userSpaceOnUse">
<stop stop-color="#189DF8"/>
<stop offset="1" stop-color="#253E7F"/>
</linearGradient>
<linearGradient id="paint1_linear_60_766" x1="0.797319" y1="3.6085" x2="4.31366" y2="3.75646" gradientUnits="userSpaceOnUse">
<stop stop-color="#189DF8"/>
<stop offset="1" stop-color="#253E7F"/>
</linearGradient>
<linearGradient id="paint2_linear_60_766" x1="0.872692" y1="42.87" x2="2.34809" y2="46.9491" gradientUnits="userSpaceOnUse">
<stop stop-color="#189DF8"/>
<stop offset="1" stop-color="#253E7F"/>
</linearGradient>
<linearGradient id="paint3_linear_60_766" x1="10.6598" y1="42.87" x2="12.1352" y2="46.9491" gradientUnits="userSpaceOnUse">
<stop stop-color="#189DF8"/>
<stop offset="1" stop-color="#253E7F"/>
</linearGradient>
<linearGradient id="paint4_linear_60_766" x1="20.4293" y1="42.87" x2="21.9047" y2="46.9491" gradientUnits="userSpaceOnUse">
<stop stop-color="#189DF8"/>
<stop offset="1" stop-color="#253E7F"/>
</linearGradient>
<linearGradient id="paint5_linear_60_766" x1="30.2164" y1="42.87" x2="31.6918" y2="46.9491" gradientUnits="userSpaceOnUse">
<stop stop-color="#189DF8"/>
<stop offset="1" stop-color="#253E7F"/>
</linearGradient>
<linearGradient id="paint6_linear_60_766" x1="40.0036" y1="42.87" x2="41.4789" y2="46.9491" gradientUnits="userSpaceOnUse">
<stop stop-color="#189DF8"/>
<stop offset="1" stop-color="#253E7F"/>
</linearGradient>
</defs>
</svg>
