<svg width="65" height="64" viewBox="0 0 65 64" fill="none" xmlns="http://www.w3.org/2000/svg">
<path d="M21.4125 59.954C21.3195 59.954 21.2265 59.908 21.1335 59.8161L17.9258 55.6776V59.908H17.182V54.712C17.182 54.4821 17.368 54.3441 17.5539 54.3441C17.6469 54.3441 17.7864 54.3901 17.8328 54.4821L21.0406 58.6205V54.3901H21.7844V59.5862C21.7844 59.8161 21.5984 59.954 21.4125 59.954ZM27.4095 60C26.6657 60 25.9219 59.8621 25.2245 59.5862L25.4105 58.9884C26.0613 59.2183 26.7587 59.3562 27.456 59.3562C28.3858 59.3562 28.8506 59.0344 28.8506 58.5745C28.8506 58.1607 28.4787 57.9308 27.1771 57.333C25.8754 56.7352 25.4105 56.3674 25.4105 55.5857C25.4105 54.666 26.1543 54.2522 27.5025 54.2522C28.0603 54.2522 28.9436 54.3901 29.455 54.5281L29.362 55.1258C28.8042 54.9879 28.1068 54.8959 27.549 54.8959C26.5727 54.8959 26.2008 55.0799 26.2008 55.5397C26.2008 55.9995 26.4797 56.1834 27.8279 56.7812C29.269 57.425 29.6409 57.7469 29.6409 58.4366C29.5945 59.5402 28.6182 60 27.4095 60ZM33.0346 54.3901H33.7784V59.908H33.0346V54.3901ZM40.1939 57.425H38.3343V59.3103H40.1939C40.8447 59.3103 41.2166 58.8964 41.2166 58.3446C41.2166 57.8388 40.7982 57.425 40.1939 57.425ZM39.822 55.0339H38.3343V56.7812H39.822C40.4263 56.7812 40.8447 56.4134 40.8447 55.8616C40.8447 55.3558 40.4728 55.0339 39.822 55.0339ZM40.1939 59.908H37.9624C37.73 59.908 37.5905 59.7241 37.5905 59.5402V54.758C37.5905 54.5741 37.7765 54.3901 37.9624 54.3901H39.822C40.9842 54.3901 41.635 54.9419 41.635 55.8156C41.635 56.2754 41.3561 56.7352 40.9377 56.9651C41.5885 57.1491 42.0069 57.7009 42.0069 58.2986C41.9604 59.2183 41.2166 59.908 40.1939 59.908ZM45.5865 59.908C45.4006 59.908 45.2146 59.7241 45.2146 59.5402V54.3901H45.9585V59.2643H48.9337V59.954L45.5865 59.908ZM54.094 60C52.5598 60 51.6301 59.4482 51.6301 58.2986C51.6301 57.7469 51.9555 57.241 52.5134 57.0111C52.0485 56.6893 51.7695 56.2754 51.7695 55.8156C51.7695 54.804 52.5598 54.2982 54.094 54.2982C54.6053 54.2982 55.3027 54.3441 55.907 54.4821L55.814 55.0799C55.1632 54.9879 54.6053 54.9419 54.0475 54.9419C53.0712 54.9419 52.5598 55.2178 52.5598 55.8616C52.5598 56.3674 53.0247 56.7812 53.6756 56.7812H54.9772C55.1632 56.7812 55.3027 56.9192 55.3027 57.1031C55.3027 57.287 55.1632 57.425 54.9772 57.425H53.5826C52.8388 57.425 52.3739 57.7928 52.3739 58.3446C52.3739 59.1723 53.1177 59.4022 54.0475 59.4022C54.5589 59.4022 55.2562 59.3562 55.814 59.2183L55.907 59.8161C55.4421 59.908 54.6983 60 54.094 60ZM11.6034 55.4477L12.905 58.7125L10.906 57.1491L11.6034 55.4477ZM13.9278 59.4482L11.8823 54.5281C11.8358 54.3901 11.6963 54.2982 11.5569 54.2982C11.4174 54.2982 11.2779 54.3901 11.2315 54.5281L9 59.908H9.74382L10.6271 57.7009L13.277 59.8161C13.3699 59.908 13.4629 59.954 13.5559 59.954C13.7418 59.954 13.9278 59.8161 13.9278 59.5862C13.9743 59.5862 13.9743 59.4942 13.9278 59.4482ZM56 26.1752C56 38.9584 45.4936 49.3504 32.5697 49.3504C19.6459 49.3504 9.13947 38.9584 9.13947 26.1752C9.13947 13.3921 19.6459 3 32.5697 3C45.4936 3 56 13.3921 56 26.1752Z" fill="#1A1918"/>
<path d="M32.8542 17.0686L39.0411 32.1805L29.7372 24.9061L32.8542 17.0686ZM43.8111 35.6534L34.3655 12.9856C34.0821 12.3285 33.5626 12 32.9014 12C32.2402 12 31.6735 12.3285 31.3901 12.9856L21 37.8592H24.5421L28.6509 27.5812L40.9302 37.4368C41.4025 37.8123 41.7803 38 42.2526 38C43.1971 38 44 37.296 44 36.3105C44 36.1697 43.9055 35.935 43.8111 35.6534Z" fill="white"/>
</svg>
