<svg width="26" height="28" viewBox="0 0 26 28" fill="none" xmlns="http://www.w3.org/2000/svg">
<g clip-path="url(#clip0_392_8768)">
<path d="M16.7837 27.9517H17.1399L22.9555 25.1774L23.0523 25.0469V2.90309L22.9555 2.7719L17.1399 0H16.7793L16.7837 27.9517Z" fill="#5294CF"/>
<path d="M9.2158 27.9517H8.85454L3.04395 25.1774L2.92603 24.9839L2.86621 3.01586L3.04395 2.7719L8.85454 0H9.22027L9.2158 27.9517Z" fill="#1F5B98"/>
<path d="M8.86523 0H17.1351V27.9517H8.86523V0Z" fill="#2D72B8"/>
<path d="M26 13.3479L25.8035 13.3063L22.9975 13.0567L22.9559 13.0765L17.1351 12.8544H8.86488L3.04403 13.0765V8.84218L3.03794 8.84528L3.04403 8.83288L8.86488 7.54624H17.1351L22.9559 8.83288L25.0957 9.9179V9.22033L26 9.12596L25.9064 8.95176L23.0431 6.99864L22.9559 7.02567L17.1351 5.30507H8.86488L3.04403 7.02567V2.7719L0 6.17385V9.14495L0.0235625 9.12867L0.904313 9.22033V9.93224L0 10.3939V13.3502L0.0235625 13.3479L0.904313 13.3603V14.6011L0.144422 14.6119L0 14.5987V17.5562L0.904313 18.0201V18.7402L0.0378828 18.8315L0 18.8044V21.775L3.04403 25.1774V20.924L8.86488 22.6446H17.1351L22.973 20.919L23.0506 20.9515L25.8762 19.0271L26 18.8354L25.0957 18.7402V18.0345L24.9772 17.9894L23.0431 18.9839L22.973 19.1234L17.1351 20.4026V20.4041H8.86488V20.4026L3.04403 19.118V14.8682L8.86488 15.0895V15.0949H17.1351L22.9559 14.8682L23.0884 14.9263L25.8081 14.7029L26 14.6135L25.0957 14.6011V13.3603L26 13.3479Z" fill="#1A476F"/>
<path d="M22.9561 20.924V25.1774L26.0002 21.775V18.8237L22.9736 20.919L22.9561 20.924Z" fill="#2D72B8"/>
<path d="M22.9561 19.1273L22.9736 19.1234L26.0002 17.5705V14.6011L22.9561 14.8682V19.1273Z" fill="#2D72B8"/>
<path d="M22.9736 8.83676L22.9561 8.83289V13.0765L26.0002 13.3479V10.3799L22.9736 8.83676Z" fill="#2D72B8"/>
<path d="M22.9736 7.04233L26.0002 9.12596V6.17462L22.9561 2.7719V7.02567L22.9736 7.03148V7.04233Z" fill="#2D72B8"/>
</g>
<defs>
<clipPath id="clip0_392_8768">
<rect width="26" height="28" fill="white"/>
</clipPath>
</defs>
</svg>
