<svg width="94" height="30" viewBox="0 0 94 30" fill="none" xmlns="http://www.w3.org/2000/svg">
<path d="M67.0661 24.2609C65.0157 24.1291 63.8238 22.9591 63.5083 20.7707C63.4242 20.1883 63.4242 20.1732 63.4152 16.3937L63.4069 12.7354H65.2215L65.2282 16.2739C65.235 19.4628 65.2388 19.8373 65.2696 20.061C65.3927 20.9718 65.6383 21.5843 66.0574 22.0235C66.3924 22.3753 66.7845 22.5809 67.3275 22.6902C67.5828 22.7422 68.3121 22.7422 68.5457 22.6902C69.0699 22.5831 69.5505 22.3219 69.9262 21.9398C70.37 21.4954 70.6983 20.8648 70.8575 20.1521L70.9101 19.9118L70.9161 16.344L70.9221 12.7746H72.775V23.995H70.9416V23.1045C70.9416 22.5003 70.9348 22.2171 70.9206 22.2216C70.8789 22.2703 70.8438 22.3242 70.8162 22.3821C70.4819 22.9777 69.9912 23.4699 69.3974 23.8051C68.7064 24.1856 68.0132 24.3212 67.0661 24.2609ZM87.8706 24.2519C87.1239 24.1896 86.402 23.9533 85.7624 23.5618C84.4495 22.7482 83.6729 21.4072 83.4461 19.563C83.3672 18.9242 83.3575 18.0669 83.4236 17.5245C83.57 16.3116 84.0454 15.1213 84.7229 14.2723C84.8956 14.0538 85.29 13.6598 85.507 13.4858C86.0925 13.017 86.7776 12.6894 87.5094 12.5283C87.9345 12.4356 88.6825 12.3919 89.1339 12.4333C90.268 12.5388 91.306 13.0737 92.012 13.9152C92.73 14.7702 93.1236 15.965 93.1746 17.4363C93.1827 17.7358 93.184 18.0355 93.1784 18.3351L93.1686 18.8142L89.1985 18.8187L85.2284 18.824V19.0018C85.2284 19.5419 85.3591 20.1574 85.5859 20.6818C85.7812 21.133 86.1184 21.6257 86.3933 21.8645C86.9582 22.3538 87.6625 22.6522 88.4061 22.7173C88.687 22.7437 89.402 22.7158 89.7212 22.6668C90.6338 22.526 91.5013 22.1674 92.2005 21.6423C92.2831 21.5797 92.362 21.5217 92.3763 21.5135C92.3965 21.5006 92.4018 21.6619 92.401 22.3421V23.1859L92.2125 23.3027C91.4026 23.7995 90.4951 24.1146 89.5523 24.2263C89.2653 24.2617 88.2131 24.2775 87.8699 24.2519H87.8706ZM91.3255 17.129C91.3255 16.2242 90.9447 15.2185 90.4062 14.7009C90.0219 14.3315 89.5312 14.0932 89.004 14.0199C88.7426 13.9792 88.1921 13.995 87.9164 14.05C87.3533 14.1576 86.8358 14.4333 86.4316 14.841C85.9866 15.2829 85.65 15.8224 85.4484 16.417C85.3733 16.6355 85.2862 16.9934 85.2584 17.1922L85.2456 17.2872H91.3255V17.129ZM37.4704 23.9694L40.4664 16.0841L43.4541 8.22363H45.3738L45.4534 8.42704C45.6968 9.05307 51.4342 23.9777 51.4342 23.9852C51.4342 23.9905 50.9745 23.9942 50.4127 23.9942H49.3913L48.5651 21.7884L47.7374 19.5826H41.0785L41.0499 19.658C41.0342 19.6986 40.6804 20.6915 40.2643 21.863L39.5088 23.9942H38.4851C37.6754 23.9942 37.4636 23.9897 37.4704 23.9694ZM47.1298 17.8996C47.1298 17.8959 46.574 16.3847 45.8936 14.5397C44.6213 11.0909 44.5499 10.883 44.4493 10.3292C44.402 10.0701 44.3779 10.0626 44.3501 10.2991C44.3105 10.5558 44.2527 10.8093 44.1774 11.0577C44.1436 11.1624 43.5705 12.7377 42.9036 14.5593C42.4957 15.6679 42.0914 16.7779 41.6906 17.8891C41.6906 17.8981 42.9148 17.9057 44.4102 17.9057C45.9063 17.9057 47.1298 17.9027 47.1298 17.8996ZM52.0516 23.708V23.4202L55.369 18.8511L58.6865 14.2821L55.6822 14.2723L52.6794 14.2625L52.6742 13.4986L52.6689 12.7354H61.3573V13.2507L58.0398 17.8446C56.2147 20.3714 54.7216 22.4431 54.7216 22.4476C54.7216 22.4529 56.1967 22.4574 57.9992 22.4574H61.2776V23.9942H52.0516V23.708ZM76.3943 23.9814C76.3868 23.9739 76.3816 21.4404 76.3816 18.3516V12.7347H78.1946V13.8926C78.1946 14.5299 78.2021 15.0505 78.2112 15.0505C78.2209 15.0505 78.2652 14.9465 78.3096 14.8192C78.5198 14.2254 78.867 13.6897 79.3227 13.256C79.7147 12.8747 80.2153 12.6254 80.755 12.5426C80.9105 12.5177 81.0419 12.5124 81.3529 12.5207C81.7434 12.5313 81.947 12.5599 82.1843 12.6375L82.2594 12.6616V14.548L82.0454 14.441C81.6744 14.2525 81.2591 14.1691 80.8444 14.1999C80.5522 14.215 80.3607 14.2527 80.1271 14.3401C79.6532 14.5155 79.2512 14.8445 78.9848 15.275C78.5783 15.9401 78.3196 16.6852 78.2262 17.4597C78.2112 17.593 78.2029 18.6816 78.1991 20.8264L78.1939 23.9957H77.3009C76.8097 23.9957 76.4018 23.9897 76.3943 23.9822V23.9814Z" fill="#0089D6"/>
<path d="M11.1406 0.367395H20.3035L10.7917 28.6353C10.6941 28.9258 10.508 29.1783 10.2596 29.3572C10.0113 29.536 9.71329 29.6322 9.40758 29.6322H2.27684C2.04525 29.6321 1.817 29.5768 1.61094 29.4708C1.40488 29.3648 1.22692 29.2111 1.09176 29.0225C0.956639 28.8338 0.868267 28.6156 0.833959 28.3858C0.799651 28.1561 0.820394 27.9215 0.894471 27.7014L9.75643 1.36406C9.85416 1.07351 10.0403 0.82102 10.2886 0.642144C10.5369 0.463269 10.8349 0.367018 11.1406 0.366943V0.367395Z" fill="url(#paint0_linear_1311_7306)"/>
<path d="M24.4551 19.3279H9.92572C9.7906 19.3276 9.65852 19.3681 9.54671 19.4442C9.4349 19.5203 9.34855 19.6284 9.29893 19.7545C9.2493 19.8806 9.23871 20.0187 9.26852 20.1509C9.29834 20.2831 9.36718 20.4032 9.46607 20.4956L18.8026 29.2367C19.0746 29.491 19.4326 29.6323 19.8045 29.6322H28.0317L24.4551 19.3279Z" fill="#0078D4"/>
<path d="M11.141 0.367198C10.8319 0.366033 10.5306 0.464007 10.281 0.646811C10.0314 0.829614 9.84662 1.08767 9.75363 1.38329L0.905856 27.6773C0.826868 27.8981 0.802078 28.1349 0.833581 28.3674C0.865085 28.5999 0.951955 28.8214 1.08684 29.0132C1.22173 29.2049 1.40068 29.3612 1.60854 29.469C1.8164 29.5767 2.04706 29.6326 2.28102 29.632H9.59598C9.86842 29.5832 10.1231 29.4627 10.3339 29.2829C10.5447 29.103 10.7041 28.8703 10.7959 28.6084L12.5603 23.3926L18.8629 29.2888C19.1269 29.508 19.4582 29.6292 19.8009 29.632H27.9978L24.4027 19.3274L13.9228 19.3298L20.3369 0.367198H11.141Z" fill="url(#paint1_linear_1311_7306)"/>
<path d="M22.844 1.3625C22.7465 1.07235 22.5606 0.820235 22.3126 0.641673C22.0646 0.46311 21.767 0.367105 21.4617 0.367188H11.25C11.5552 0.36722 11.8528 0.463273 12.1007 0.641823C12.3486 0.820373 12.5345 1.07243 12.6321 1.3625L21.4943 27.701C21.5685 27.9211 21.5894 28.1558 21.5551 28.3856C21.5209 28.6154 21.4326 28.8338 21.2975 29.0225C21.1624 29.2113 20.9845 29.3651 20.7783 29.4711C20.5722 29.5772 20.3439 29.6325 20.1122 29.6324H30.3243C30.5559 29.6322 30.7841 29.5768 30.9901 29.4707C31.1961 29.3646 31.3739 29.2108 31.509 29.0221C31.644 28.8334 31.7323 28.6151 31.7666 28.3854C31.8009 28.1557 31.7802 27.9211 31.7062 27.701L22.844 1.3625Z" fill="url(#paint2_linear_1311_7306)"/>
<defs>
<linearGradient id="paint0_linear_1311_7306" x1="14.4803" y1="2.53603" x2="4.9126" y2="30.7153" gradientUnits="userSpaceOnUse">
<stop stop-color="#114A8B"/>
<stop offset="1" stop-color="#0669BC"/>
</linearGradient>
<linearGradient id="paint1_linear_1311_7306" x1="17.453" y1="15.6764" x2="15.2506" y2="16.4189" gradientUnits="userSpaceOnUse">
<stop stop-opacity="0.3"/>
<stop offset="0.071" stop-opacity="0.2"/>
<stop offset="0.321" stop-opacity="0.1"/>
<stop offset="0.623" stop-opacity="0.05"/>
<stop offset="1" stop-opacity="0"/>
</linearGradient>
<linearGradient id="paint2_linear_1311_7306" x1="16.2423" y1="1.71332" x2="26.7435" y2="29.6053" gradientUnits="userSpaceOnUse">
<stop stop-color="#3CCBF4"/>
<stop offset="1" stop-color="#2892DF"/>
</linearGradient>
</defs>
</svg>
