<svg width="58" height="18" viewBox="0 0 58 18" fill="none" xmlns="http://www.w3.org/2000/svg">
<path d="M41.0963 14.5565C39.8399 14.4774 39.1095 13.7755 38.9162 12.4624C38.8646 12.113 38.8646 12.1039 38.8591 9.83621L38.8541 7.64125H39.966L39.9701 9.76434C39.9743 11.6777 39.9766 11.9023 39.9954 12.0366C40.0709 12.5831 40.2214 12.9506 40.4782 13.2141C40.6835 13.4252 40.9237 13.5486 41.2564 13.6141C41.4129 13.6453 41.8598 13.6453 42.0029 13.6141C42.3242 13.5499 42.6186 13.3931 42.8488 13.1639C43.1208 12.8972 43.3219 12.5189 43.4195 12.0913L43.4517 11.9471L43.4554 9.80638L43.4591 7.66476H44.5945V14.397H43.4711V13.8627C43.4711 13.5002 43.4669 13.3302 43.4582 13.333C43.4327 13.3622 43.4112 13.3945 43.3942 13.4292C43.1894 13.7866 42.8887 14.0819 42.5248 14.2831C42.1014 14.5113 41.6766 14.5927 41.0963 14.5565ZM53.8446 14.5511C53.387 14.5137 52.9447 14.372 52.5527 14.1371C51.7483 13.6489 51.2724 12.8443 51.1334 11.7378C51.0851 11.3545 51.0791 10.8401 51.1196 10.5147C51.2093 9.78694 51.5006 9.07277 51.9158 8.56335C52.0216 8.43227 52.2632 8.19587 52.3962 8.09146C52.755 7.81019 53.1748 7.61363 53.6232 7.51695C53.8837 7.46136 54.3421 7.43514 54.6187 7.46C55.3136 7.52328 55.9497 7.84421 56.3823 8.3491C56.8223 8.86213 57.0634 9.57902 57.0947 10.4618C57.0997 10.6415 57.1004 10.8213 57.097 11.001L57.091 11.2885L54.6583 11.2912L52.2255 11.2944V11.4011C52.2255 11.7252 52.3056 12.0944 52.4446 12.409C52.5642 12.6798 52.7709 12.9754 52.9393 13.1187C53.2855 13.4123 53.7171 13.5913 54.1727 13.6304C54.3449 13.6462 54.783 13.6295 54.9786 13.6001C55.5378 13.5156 56.0693 13.3004 56.4978 12.9854C56.5484 12.9478 56.5967 12.913 56.6055 12.9081C56.6179 12.9004 56.6211 12.9971 56.6207 13.4053V13.9115L56.5052 13.9816C56.0089 14.2797 55.4528 14.4687 54.875 14.5357C54.6992 14.557 54.0545 14.5665 53.8441 14.5511H53.8446ZM55.9616 10.2774C55.9616 9.73451 55.7283 9.13108 55.3983 8.82055C55.1628 8.5989 54.8621 8.4559 54.5391 8.41193C54.3789 8.38752 54.0416 8.39701 53.8727 8.43001C53.5276 8.49455 53.2105 8.65998 52.9628 8.90462C52.6901 9.16974 52.4839 9.49345 52.3604 9.85022C52.3143 9.9813 52.2609 10.196 52.2439 10.3153L52.2361 10.3723H55.9616V10.2774ZM22.961 14.3816L24.7969 9.65044L26.6277 4.93417H27.804L27.8528 5.05622C28.0019 5.43184 31.5176 14.3866 31.5176 14.3911C31.5176 14.3943 31.2359 14.3965 30.8917 14.3965H30.2658L29.7595 13.073L29.2523 11.7496H25.172L25.1545 11.7948C25.1448 11.8192 24.928 12.4149 24.6731 13.1178L24.2101 14.3965H23.5828C23.0867 14.3965 22.9569 14.3938 22.961 14.3816ZM28.88 10.7398C28.88 10.7375 28.5394 9.83079 28.1225 8.72382C27.3429 6.65452 27.2991 6.52976 27.2375 6.19754C27.2085 6.04205 27.1937 6.03753 27.1767 6.17946C27.1524 6.33344 27.117 6.48555 27.0709 6.63463C27.0502 6.69746 26.699 7.64261 26.2903 8.73557C26.0404 9.40075 25.7926 10.0667 25.547 10.7334C25.547 10.7389 26.2972 10.7434 27.2135 10.7434C28.1303 10.7434 28.88 10.7416 28.88 10.7398ZM31.8959 14.2248V14.0521L33.9287 11.3107L35.9615 8.56923L34.1206 8.56335L32.2806 8.55748L32.2774 8.09914L32.2742 7.64125H37.5981V7.95043L35.5653 10.7068C34.4469 12.2228 33.532 13.4658 33.532 13.4686C33.532 13.4717 34.4359 13.4744 35.5404 13.4744H37.5493V14.3965H31.8959V14.2248ZM46.8123 14.3888C46.8077 14.3843 46.8045 12.8642 46.8045 11.011V7.6408H47.9155V8.33554C47.9155 8.71794 47.9201 9.03028 47.9256 9.03028C47.9316 9.03028 47.9587 8.9679 47.9859 8.89151C48.1147 8.53521 48.3275 8.21384 48.6067 7.95359C48.8469 7.72483 49.1537 7.57522 49.4844 7.52554C49.5797 7.51062 49.6602 7.50746 49.8507 7.51243C50.0901 7.51876 50.2148 7.53594 50.3602 7.58249L50.4062 7.59696V8.72879L50.2751 8.6646C50.0478 8.55147 49.7933 8.50145 49.5392 8.51996C49.3601 8.529 49.2428 8.5516 49.0996 8.60403C48.8092 8.70927 48.5629 8.90668 48.3996 9.16498C48.1506 9.56404 47.9921 10.0111 47.9348 10.4758C47.9256 10.5558 47.9205 11.209 47.9182 12.4958L47.915 14.3974H47.3678C47.0668 14.3974 46.8169 14.3938 46.8123 14.3893V14.3888Z" fill="#0089D6"/>
<path d="M6.82639 0.220455H12.4411L6.61263 17.1812C6.55277 17.3555 6.43873 17.507 6.28656 17.6143C6.1344 17.7216 5.95178 17.7793 5.76446 17.7793H1.39498C1.25307 17.7793 1.11321 17.7461 0.986941 17.6825C0.860673 17.6189 0.751626 17.5267 0.668805 17.4135C0.586009 17.3003 0.531858 17.1694 0.510835 17.0315C0.489812 16.8937 0.502523 16.7529 0.547914 16.6209L5.97822 0.818455C6.03811 0.644124 6.15215 0.49263 6.30431 0.385305C6.45647 0.27798 6.63906 0.220229 6.82639 0.220184V0.220455Z" fill="url(#paint0_linear_392_8170)"/>
<path d="M14.9849 11.5968H6.08181C5.99901 11.5966 5.91808 11.6209 5.84956 11.6666C5.78105 11.7123 5.72814 11.7771 5.69773 11.8528C5.66732 11.9284 5.66083 12.0113 5.6791 12.0906C5.69737 12.1699 5.73955 12.242 5.80015 12.2974L11.5212 17.5421C11.6879 17.6947 11.9073 17.7795 12.1352 17.7794H17.1765L14.9849 11.5968Z" fill="#0078D4"/>
<path d="M6.82707 0.220252C6.63769 0.219553 6.45305 0.278337 6.30011 0.388019C6.14717 0.497701 6.03394 0.652535 5.97696 0.829908L0.555348 16.6063C0.506947 16.7388 0.491756 16.8809 0.51106 17.0204C0.530365 17.1599 0.583596 17.2928 0.666252 17.4078C0.748908 17.5229 0.858557 17.6167 0.985926 17.6813C1.1133 17.7459 1.25464 17.7795 1.398 17.7791H5.88036C6.0473 17.7498 6.20333 17.6775 6.33252 17.5697C6.4617 17.4618 6.5594 17.3221 6.61564 17.165L7.69676 14.0355L11.5588 17.5732C11.7206 17.7047 11.9236 17.7774 12.1336 17.7791H17.1564L14.9534 11.5963L8.53169 11.5978L12.462 0.220252H6.82707Z" fill="url(#paint1_linear_392_8170)"/>
<path d="M13.998 0.817432C13.9382 0.643345 13.8243 0.492074 13.6723 0.384936C13.5204 0.277799 13.338 0.220196 13.1509 0.220245H6.89355C7.08059 0.220265 7.2629 0.277897 7.41483 0.385027C7.56677 0.492157 7.68066 0.643389 7.74048 0.817432L13.1709 16.6205C13.2164 16.7526 13.2292 16.8934 13.2082 17.0313C13.1872 17.1692 13.1331 17.3002 13.0503 17.4135C12.9676 17.5267 12.8585 17.619 12.7322 17.6826C12.6059 17.7463 12.466 17.7794 12.324 17.7794H18.5816C18.7235 17.7793 18.8634 17.746 18.9896 17.6823C19.1158 17.6187 19.2248 17.5264 19.3076 17.4132C19.3903 17.2999 19.4444 17.169 19.4654 17.0312C19.4864 16.8933 19.4738 16.7526 19.4284 16.6205L13.998 0.817432Z" fill="url(#paint2_linear_392_8170)"/>
<defs>
<linearGradient id="paint0_linear_392_8170" x1="8.87285" y1="1.52163" x2="3.22776" y2="18.5016" gradientUnits="userSpaceOnUse">
<stop stop-color="#114A8B"/>
<stop offset="1" stop-color="#0669BC"/>
</linearGradient>
<linearGradient id="paint1_linear_392_8170" x1="10.6949" y1="9.40576" x2="9.35125" y2="9.86841" gradientUnits="userSpaceOnUse">
<stop stop-opacity="0.3"/>
<stop offset="0.071" stop-opacity="0.2"/>
<stop offset="0.321" stop-opacity="0.1"/>
<stop offset="0.623" stop-opacity="0.05"/>
<stop offset="1" stop-opacity="0"/>
</linearGradient>
<linearGradient id="paint2_linear_392_8170" x1="9.95268" y1="1.02792" x2="16.1539" y2="17.8492" gradientUnits="userSpaceOnUse">
<stop stop-color="#3CCBF4"/>
<stop offset="1" stop-color="#2892DF"/>
</linearGradient>
</defs>
</svg>
