<svg width="44" height="30" viewBox="0 0 44 30" fill="none" xmlns="http://www.w3.org/2000/svg">
<path d="M5.40936 24.7722C5.78228 24.7722 6.1213 24.857 6.30777 25.0265C6.34167 25.2977 6.0874 25.7384 5.93484 25.7384C5.74838 25.6706 5.57887 25.6367 5.35851 25.6367C4.47705 25.6367 4.03633 26.5521 4.03633 27.4505C4.03633 28.0099 4.22279 28.3489 4.68047 28.3489C5.15509 28.3489 5.62972 28.0268 5.90094 27.7895C5.96874 27.8404 6.0535 27.9929 6.0535 28.1624C6.0535 28.3489 6.00265 28.5354 5.81618 28.7218C5.51107 29.0269 4.98558 29.2982 4.22279 29.2982C3.35828 29.2982 2.74805 28.8066 2.74805 27.6539C2.78195 26.1283 3.76511 24.7722 5.40936 24.7722Z" fill="#373535"/>
<path d="M8.25714 28.298C8.73176 28.298 9.59627 27.4674 9.83358 25.874C9.85053 25.7723 9.85053 25.7554 9.86748 25.6537C9.76578 25.6198 9.61322 25.5859 9.47761 25.5859C9.12164 25.5859 8.74872 25.6876 8.42665 26.1453C8.08762 26.6199 7.93507 27.2132 7.93507 27.6878C7.93507 28.0777 8.05372 28.298 8.25714 28.298ZM6.69764 27.8573C6.69764 27.281 6.8841 26.2978 7.613 25.5689C8.24018 24.9248 8.98603 24.7722 9.68102 24.7722C10.1387 24.7722 10.7489 24.9248 11.1388 24.9926C11.0371 25.4164 10.8167 27.0267 10.6981 27.959C10.6472 28.3489 10.6303 28.9083 10.6472 29.1117C10.3252 29.2473 9.73188 29.2812 9.56237 29.2812C9.47761 29.2812 9.46066 28.8913 9.47761 28.5015C9.49456 28.3828 9.51151 28.1963 9.51151 28.1116C9.13859 28.7388 8.39274 29.2643 7.613 29.2643C7.05361 29.2812 6.69764 28.8066 6.69764 27.8573Z" fill="#373535"/>
<path d="M13.5459 24.7722C13.9357 24.7722 14.3256 24.9248 14.4951 25.0943C14.4782 25.3655 14.2748 25.8232 13.9357 25.6876C13.7832 25.6367 13.6476 25.6028 13.4442 25.6028C13.1899 25.6028 12.9526 25.7215 12.9526 25.9588C12.9526 26.1453 13.0882 26.2809 13.7323 26.7385C14.19 27.0776 14.3765 27.3827 14.3765 27.8065C14.3765 28.5184 13.7154 29.2812 12.5457 29.2812C12.0711 29.2812 11.6473 29.0947 11.5287 28.9083C11.3592 28.6201 11.4948 28.0438 11.6812 28.1455C11.9355 28.2641 12.3423 28.3997 12.6814 28.3997C13.0034 28.3997 13.2068 28.2472 13.2068 28.0607C13.2068 27.8912 13.0543 27.7556 12.4779 27.3318C11.9864 26.9589 11.8338 26.6199 11.8338 26.247C11.8338 25.4333 12.5288 24.7722 13.5459 24.7722Z" fill="#373535"/>
<path d="M16.8852 24.7722C17.2751 24.7722 17.665 24.9248 17.8345 25.0943C17.8175 25.3655 17.6141 25.8232 17.2751 25.6876C17.1225 25.6367 16.9869 25.6028 16.7835 25.6028C16.5292 25.6028 16.2919 25.7215 16.2919 25.9588C16.2919 26.1453 16.4275 26.2809 17.0717 26.7385C17.5294 27.0776 17.7158 27.3827 17.7158 27.8065C17.7158 28.5184 17.0547 29.2812 15.8851 29.2812C15.4105 29.2812 15.0037 29.0947 14.868 28.9083C14.6985 28.6201 14.8341 28.0438 15.0206 28.1455C15.2749 28.2641 15.6817 28.3997 16.0207 28.3997C16.3428 28.3997 16.5462 28.2472 16.5462 28.0607C16.5462 27.8912 16.3936 27.7556 15.8173 27.3318C15.3257 26.9589 15.1732 26.6199 15.1732 26.247C15.1732 25.4333 15.8682 24.7722 16.8852 24.7722Z" fill="#373535"/>
<path d="M19.9195 28.298C20.3941 28.298 21.2586 27.4674 21.4959 25.874C21.5128 25.7723 21.5128 25.7554 21.5298 25.6537C21.4281 25.6198 21.2755 25.5859 21.1399 25.5859C20.784 25.5859 20.411 25.6876 20.089 26.1453C19.7499 26.6199 19.5974 27.2132 19.5974 27.6878C19.6143 28.0777 19.716 28.298 19.9195 28.298ZM18.36 27.8573C18.36 27.281 18.5464 26.2978 19.2753 25.5689C19.9025 24.9248 20.6483 24.7722 21.3433 24.7722C21.801 24.7722 22.4113 24.9248 22.8011 24.9926C22.6994 25.4164 22.4791 27.0267 22.3604 27.959C22.3095 28.3489 22.2926 28.9083 22.3095 29.1117C21.9875 29.2473 21.3942 29.2812 21.2247 29.2812C21.1399 29.2812 21.123 28.8913 21.1399 28.5015C21.1569 28.3828 21.1738 28.1963 21.1738 28.1116C20.8009 28.7388 20.0551 29.2643 19.2753 29.2643C18.7329 29.2812 18.36 28.8066 18.36 27.8573Z" fill="#373535"/>
<path d="M24.9878 26.0266C25.4285 25.3147 26.0049 24.7722 26.8185 24.7722C27.5135 24.7722 27.7339 25.4164 27.5983 26.3148C27.5305 26.7385 27.4118 27.3488 27.344 27.9082C27.2762 28.3828 27.2253 28.8066 27.2423 29.0947C26.988 29.2134 26.2591 29.2643 26.0896 29.2643C26.0218 29.2643 26.0049 28.7388 26.1066 28.1794C26.1913 27.7217 26.3439 26.8742 26.4286 26.3826C26.4795 26.0944 26.4626 25.7554 26.1913 25.7554C25.8354 25.7554 24.9878 26.3317 24.564 28.671C24.5301 28.8574 24.4623 28.9761 24.3437 29.0439C24.1911 29.1286 23.886 29.2134 23.2588 29.2134C23.3775 28.6201 23.5639 27.4166 23.6995 26.5182C23.8182 25.7045 23.869 25.1791 23.8521 24.9756C24.0216 24.9248 24.8861 24.7383 24.9709 24.7383C25.0726 24.7383 25.0895 25.0434 25.0048 25.7554C24.9878 25.8232 24.9878 25.9249 24.9709 25.9927H24.9878V26.0266Z" fill="#373535"/>
<path d="M29.9036 28.2811C30.3274 28.2811 31.1919 27.4844 31.4292 26.0775C31.4462 25.9927 31.4631 25.8571 31.4801 25.7723C31.3614 25.6537 31.1919 25.5859 30.9207 25.5859C29.9375 25.5859 29.5137 26.7555 29.5137 27.6031C29.5307 28.0438 29.6833 28.2811 29.9036 28.2811ZM29.2764 29.2812C28.6492 29.2812 28.2763 28.7218 28.2763 27.7895C28.2763 26.23 29.2595 24.7892 30.9037 24.7892C31.1919 24.7892 31.4631 24.8739 31.6157 24.9587C31.7004 24.518 31.9038 23.1449 31.9208 22.7381C32.192 22.6872 32.7683 22.6025 33.0396 22.6025C33.1413 22.6025 33.1752 22.7042 33.1413 22.9585C32.9039 24.4163 32.4971 27.1962 32.4124 27.8065C32.3615 28.3319 32.3446 28.8405 32.3615 29.1286C32.0564 29.2643 31.4292 29.2982 31.2597 29.2982C31.1919 29.2982 31.158 28.8574 31.1749 28.4506C31.1919 28.3319 31.2088 28.1455 31.2088 28.1116C30.6834 28.8913 30.0223 29.2812 29.2764 29.2812Z" fill="#373535"/>
<path d="M34.9381 26.1622C35.4466 25.0265 36.0568 24.7722 36.4637 24.7722C36.5823 24.7722 36.7857 24.857 36.8705 24.9417C36.9044 25.2638 36.6501 25.891 36.4298 26.1453C36.3111 26.0944 36.1755 26.0266 36.006 26.0266C35.6839 26.0266 35.0228 26.5351 34.616 28.7388C34.5821 28.9252 34.5312 28.993 34.4295 29.0439C34.26 29.1456 33.6159 29.2134 33.3108 29.2304C33.4633 28.4337 33.7006 26.8233 33.8024 25.874C33.8363 25.6367 33.8363 25.1791 33.8193 25.0095C34.0058 24.9248 34.7347 24.7553 34.8872 24.7553C34.972 24.7553 35.0398 25.2808 34.9042 26.1453H34.9381V26.1622Z" fill="#373535"/>
<path d="M38.3452 28.298C38.8199 28.298 39.6844 27.4674 39.9217 25.874C39.9386 25.7723 39.9386 25.7554 39.9556 25.6537C39.8539 25.6198 39.7013 25.5859 39.5657 25.5859C39.2097 25.5859 38.8368 25.6876 38.5147 26.1453C38.1757 26.6199 38.0232 27.2132 38.0232 27.6878C38.0401 28.0777 38.1418 28.298 38.3452 28.298ZM36.7857 27.8573C36.7857 27.281 36.9722 26.2978 37.7011 25.5689C38.3283 24.9248 39.0741 24.7722 39.7691 24.7722C40.2268 24.7722 40.837 24.9248 41.2269 24.9926C41.1252 25.4164 40.9048 27.0267 40.7862 27.959C40.7353 28.3489 40.7184 28.9083 40.7353 29.1117C40.4133 29.2473 39.82 29.2812 39.6505 29.2812C39.5657 29.2812 39.5488 28.8913 39.5657 28.5015C39.5827 28.3828 39.5996 28.1963 39.5996 28.1116C39.2267 28.7388 38.4808 29.2643 37.7011 29.2643C37.1587 29.2812 36.7857 28.8066 36.7857 27.8573Z" fill="#373535"/>
<path d="M35.006 8.38069C35.3281 12.093 29.48 15.6357 21.9368 16.2799C14.3935 16.924 8.03691 14.4322 7.71484 10.7199C7.39277 7.00766 13.2409 3.46489 20.7841 2.82075C28.3104 2.17661 34.6839 4.65147 35.006 8.38069Z" fill="#BBE6FB"/>
<path d="M20.9875 3.24445C18.1059 3.1936 14.7496 4.34627 12.2408 5.41419C11.9865 6.16003 11.834 6.95673 11.834 7.78733C11.834 12.1946 15.8175 15.7713 20.7333 15.7713C25.6491 15.7713 29.6495 12.2116 29.6495 7.78733C29.6495 6.39735 29.2427 5.07516 28.5477 3.93944C26.5475 3.63433 23.7845 3.29531 20.9875 3.24445Z" fill="white"/>
<path d="M20.7504 3.24449C19.157 3.14278 16.4109 3.97338 14.1225 4.80398C13.7665 5.61763 13.5801 6.51604 13.5801 7.4653C13.5801 11.3301 17.0889 14.4661 20.7843 14.4661C24.4626 14.4661 27.7172 11.3301 27.9885 7.4653C28.0732 6.21092 27.6494 5.02435 27.0392 4.00728C24.683 3.60046 22.1743 3.34619 20.7504 3.24449Z" fill="white"/>
<path d="M16.6647 6.97375C16.8682 6.53302 17.1563 6.32961 17.4445 5.97364C17.4106 5.88888 17.3428 5.60071 17.3428 5.51596C17.3428 5.07523 17.6988 4.73621 18.1225 4.73621C18.2242 4.73621 18.3259 4.75316 18.4107 4.78706C19.7159 3.78695 21.428 3.36318 23.157 3.75305C23.3095 3.78695 23.4621 3.83781 23.6147 3.87171C21.9196 3.63439 19.9871 4.24463 18.6819 5.2956C18.7158 5.3973 18.8345 5.65157 18.8345 5.77022C18.8345 6.21095 18.5463 6.31266 18.1225 6.31266C18.0208 6.31266 17.9361 6.29571 17.8344 6.2618C17.5462 6.65168 17.1733 7.41448 17.0038 7.8891C17.7327 8.53324 18.3768 8.77056 19.2243 9.09263C19.2243 9.05873 19.2582 9.00787 19.2582 8.97397C19.2582 7.66874 20.4109 6.60083 21.7161 6.60083C22.8858 6.60083 23.8689 7.44838 24.0554 8.56715C24.6487 8.19422 25.2081 7.90606 25.6318 7.36362C25.5301 7.24497 25.4284 6.88899 25.4284 6.71948C25.4284 6.32961 25.7505 6.00754 26.1404 6.00754C26.1912 6.00754 26.2421 6.00754 26.3099 6.02449C26.5302 5.56681 26.6998 5.09218 26.8015 4.6006C24.7504 3.07501 20.7838 3.29537 20.7838 3.29537C20.7838 3.29537 17.6309 3.12586 15.4951 4.17683C15.6477 5.15999 16.0545 6.14315 16.6647 6.97375Z" fill="#373535"/>
<path d="M26.4623 6.38033C26.6149 6.51594 26.6827 6.61764 26.7505 6.7363C26.9369 7.07532 26.564 7.39739 26.1572 7.39739C26.1233 7.39739 26.0724 7.39739 26.0385 7.38044C25.5978 8.07543 24.818 8.95689 24.123 9.41456C25.191 9.58407 26.1911 10.0079 26.9708 10.6689C27.5472 9.63493 27.9879 8.12628 27.9879 6.85496C27.9879 5.88875 27.5641 5.1768 26.92 4.65132C26.903 5.1768 26.6149 5.9057 26.4623 6.38033Z" fill="#373535"/>
<path d="M17.8513 12.9575C18.2073 11.9743 19.0718 11.2285 19.9024 10.5674C19.7838 10.3979 19.5973 9.99104 19.5295 9.80458C18.5294 9.49946 17.6479 8.92312 16.9529 8.17728C16.9529 8.19423 16.936 8.22813 16.936 8.24508C16.8004 8.82142 16.7834 9.4147 16.8512 9.97409C17.3259 10.0588 17.6988 10.4826 17.6988 10.9912C17.6988 11.2963 17.4276 11.72 17.2242 11.9235C17.4276 12.3642 17.5801 12.6015 17.8513 12.9575Z" fill="#373535"/>
<path d="M17.7839 13.7711C17.3602 13.3473 17.072 12.5167 16.8008 11.9912C16.7499 11.9912 16.6991 12.0082 16.6482 12.0082C16.0719 12.0082 15.4786 11.5335 15.6142 10.9741C15.682 10.669 15.9024 10.4656 16.2414 10.2961C16.1566 9.65196 16.1397 8.75355 16.2922 8.09246C16.3261 7.906 16.4279 7.82125 16.4787 7.63478C15.8515 6.71943 15.4447 5.49895 15.4447 4.29543V4.15982C14.3768 4.70225 13.5801 5.53285 13.5801 6.85504C13.5801 9.78757 15.2752 12.6692 17.7839 13.788V13.7711Z" fill="#373535"/>
<path d="M23.9712 9.71982C23.6491 10.6352 22.7677 11.3132 21.7337 11.3132C21.1743 11.3132 20.6658 11.1268 20.2759 10.8047C19.4453 11.4488 18.6825 12.5845 18.3096 13.5847C18.4791 13.7711 18.5977 13.9237 18.8012 14.0932C19.3775 14.2457 20.1911 14.0932 20.8183 14.0932C23.344 14.0932 25.5985 12.9744 26.8868 10.9911C26.0053 10.3809 24.9883 9.80457 23.9712 9.71982Z" fill="#373535"/>
<path d="M16.5976 7.31266C16.801 6.87193 17.0384 6.48206 17.3265 6.10913C17.2926 6.02438 17.2757 5.92267 17.2757 5.83792C17.2757 5.39719 17.6316 5.05817 18.0554 5.05817C18.1571 5.05817 18.2588 5.07512 18.3436 5.10902C19.6488 4.10891 21.3609 3.68513 23.0899 4.07501C23.2424 4.10891 23.395 4.15976 23.5476 4.19367C21.8525 3.95635 20.0895 4.48183 18.7843 5.5328C18.8182 5.6345 18.8521 5.73621 18.8521 5.83792C18.8521 6.27864 18.4962 6.61766 18.0724 6.61766C17.9707 6.61766 17.8859 6.60071 17.7842 6.56681C17.496 6.95669 17.2418 7.39741 17.0723 7.87204C17.6995 8.53313 18.4622 9.07557 19.3098 9.38068V9.26203C19.3098 7.9568 20.3777 6.88888 21.6829 6.88888C22.8526 6.88888 23.8357 7.73643 24.0222 8.8552C24.6155 8.48228 25.124 8.00765 25.5647 7.44827C25.463 7.32961 25.3952 7.17705 25.3952 7.00754C25.3952 6.61766 25.7173 6.29559 26.1072 6.29559C26.158 6.29559 26.2089 6.29559 26.2767 6.31255C26.497 5.85487 26.6666 5.38024 26.7683 4.88866C24.7172 3.36306 20.7506 3.58343 20.7506 3.58343C20.7506 3.58343 17.5977 3.41392 15.4619 4.46488C15.5806 5.4989 15.9874 6.48206 16.5976 7.31266Z" fill="#1287B1"/>
<path d="M26.5645 6.49912C26.717 6.63473 26.8018 6.82119 26.8018 7.0246C26.8018 7.41448 26.4797 7.73655 26.0899 7.73655C26.0559 7.73655 26.0051 7.73655 25.9712 7.7196C25.5305 8.41459 24.9372 9.00787 24.2422 9.4486C25.2593 9.60116 26.2255 10.0419 27.0222 10.703C27.5985 9.66897 27.9375 8.46544 27.9375 7.19411C27.9375 6.2279 27.5137 5.51596 26.8696 4.99048C26.8357 5.51596 26.734 6.02449 26.5645 6.49912Z" fill="#1287B1"/>
<path d="M17.9535 13.1778C18.3094 12.1946 18.9197 11.3301 19.7503 10.669C19.6316 10.4995 19.5299 10.33 19.4621 10.1266C18.462 9.82145 17.5806 9.24511 16.8856 8.49927C16.8856 8.51622 16.8686 8.55012 16.8686 8.56707C16.733 9.14341 16.7161 9.73669 16.7839 10.2961C17.2585 10.3808 17.6314 10.8046 17.6314 11.3131C17.6314 11.6183 17.4958 11.8895 17.2924 12.0759C17.4619 12.4658 17.6992 12.8387 17.9535 13.1778Z" fill="#1287B1"/>
<path d="M17.7834 13.7541C17.3596 13.3303 17.0036 12.8557 16.7324 12.3302C16.6816 12.3302 16.6307 12.3472 16.5799 12.3472C16.0035 12.3472 15.5458 11.8895 15.5458 11.3132C15.5458 10.9063 15.7832 10.5504 16.1222 10.3809C16.0374 9.73671 16.0713 9.09257 16.2239 8.43148C16.2578 8.24502 16.3256 8.05856 16.3764 7.8721C15.7493 6.95674 15.3763 5.83797 15.3763 4.63445V4.49884C14.3084 5.04127 13.5117 5.87187 13.5117 7.19406C13.5117 10.1266 15.2577 12.6523 17.7664 13.7711C17.7834 13.7711 17.7834 13.7711 17.7834 13.7541Z" fill="#1287B1"/>
<path d="M23.9033 10.0588C23.5813 10.9742 22.6998 11.6522 21.6658 11.6522C21.1064 11.6522 20.5979 11.4658 20.208 11.1437C19.3774 11.7878 18.7502 12.6693 18.3604 13.6694C18.5299 13.8559 18.7163 14.0254 18.9028 14.1949C19.4791 14.3475 20.0894 14.4322 20.7165 14.4322C23.2423 14.4322 25.4798 13.127 26.7681 11.1437C25.9205 10.5335 24.9204 10.1436 23.9033 10.0588Z" fill="#1287B1"/>
<path d="M23.9879 9.4486L26.1746 8.92312L23.9709 8.80446L25.7677 7.44838L23.7336 8.17727L25.1066 6.2618L23.1912 7.53313L23.8523 5.29559L22.547 7.14326L22.5131 4.80401L21.6486 6.88899L20.9367 4.78706L20.9706 7.26192L19.7332 5.04133L20.4112 7.39752L18.394 5.93973L19.9705 7.92301L17.4617 7.00765L19.428 8.46544L16.9023 8.55019L19.4959 9.21129L16.9023 9.77067L19.462 9.95713L17.3092 11.3302L19.5298 10.5335L17.9872 12.4828L19.9366 10.9064L19.2416 13.5168L20.7502 11.381L20.5468 13.8898L21.3944 11.6014L22.1233 13.9915L22.2928 11.5844L23.3776 13.6355L22.7335 11.2963L24.6998 12.8219L23.4285 10.8725L25.5982 11.72L23.937 10.0927L26.1576 10.2622L23.9879 9.4486Z" fill="white"/>
<path d="M0.646484 13.6355C7.44385 6.83809 12.8682 4.73616 17.8009 3.7869C18.4451 3.66824 18.5807 2.2274 18.5807 2.2274C18.5807 2.2274 18.6654 3.27837 19.1231 3.41398C19.5808 3.54958 20.1741 1.76972 20.1741 1.76972C20.1741 1.76972 19.6316 3.36312 20.1741 3.46483C20.7165 3.54958 21.7336 1.90533 21.7336 1.90533C21.7336 1.90533 21.3268 3.31227 21.598 3.41398C21.8692 3.49873 23.2422 1.3629 23.2422 1.3629C23.2422 1.3629 22.4286 2.76984 23.1914 2.92239C23.9711 3.058 25.1068 1.95619 25.1068 1.95619C25.1068 1.95619 24.2254 2.9563 24.6153 3.10886C26.3104 3.70214 27.6664 1.51546 27.6664 1.51546C27.6664 1.51546 27.3444 2.48167 26.5307 3.53263C28.3106 3.99031 29.6328 1.31205 29.6328 1.31205L28.3106 3.99031C28.9886 4.32933 31.7177 1.17644 31.7177 1.17644C31.7177 1.17644 30.3108 3.63434 29.4802 4.14287C29.9379 4.51579 31.5821 3.04105 31.5821 3.04105C31.5821 3.04105 30.26 4.6853 30.7685 4.77006C31.4974 5.36335 34.1926 1.71887 34.1926 1.71887C34.1926 1.71887 33.1416 3.87165 31.5991 5.54981C32.8874 6.2109 36.1081 2.05789 36.1081 2.05789C36.1081 2.05789 36.0233 3.38007 33.6841 5.482C35.4131 5.26164 37.6506 1.97314 37.6506 1.97314C37.6506 1.97314 36.837 4.43104 34.8706 6.17699C36.5657 6.00748 39.2949 1.80363 39.2949 1.80363C39.2949 1.80363 38.2439 4.71921 36.1081 6.41431C38.4812 6.93979 41.9053 3.39702 41.9053 3.39702C41.9053 3.39702 40.5662 5.90578 38.8033 6.93979C40.7696 7.68564 43.4648 4.5836 43.4648 4.5836C43.4648 4.5836 40.7696 8.7366 36.481 8.55014C35.074 8.48234 30.8193 4.27848 21.6997 4.6175C9.63054 5.05823 7.08788 10.1774 0.646484 13.6355Z" fill="#373535" fill-opacity="0.35"/>
<path d="M0.917969 13.1269C7.71534 6.32957 13.1397 4.22764 18.0724 3.27839C18.7166 3.15973 18.8522 1.71889 18.8522 1.71889C18.8522 1.71889 18.9369 2.76986 19.3946 2.90546C19.8523 3.04107 20.4456 1.26121 20.4456 1.26121C20.4456 1.26121 19.9031 2.85461 20.4456 2.95632C20.988 3.04107 22.0051 1.39682 22.0051 1.39682C22.0051 1.39682 21.5982 2.80376 21.8695 2.90546C22.1407 2.99022 23.5137 0.854387 23.5137 0.854387C23.5137 0.854387 22.7001 2.26132 23.4629 2.41388C24.2426 2.54949 25.3783 1.44767 25.3783 1.44767C25.3783 1.44767 24.4969 2.44779 24.8867 2.60034C26.5818 3.19363 27.9379 1.00695 27.9379 1.00695C27.9379 1.00695 27.6159 1.97316 26.8022 3.02412C28.5821 3.4818 29.9043 0.803534 29.9043 0.803534L28.5821 3.4818C29.2601 3.85472 32.0062 0.701828 32.0062 0.701828C32.0062 0.701828 30.5992 3.15973 29.7686 3.66826C30.2263 3.99033 31.8706 2.53254 31.8706 2.53254C31.8706 2.53254 30.5484 4.17679 31.0569 4.26155C31.7858 4.85483 34.481 1.21036 34.481 1.21036C34.481 1.21036 33.4131 3.36314 31.8706 5.04129C33.1589 5.68543 36.3965 1.53243 36.3965 1.53243C36.3965 1.53243 36.3117 2.85461 33.9725 4.95654C35.7015 4.73618 37.939 1.44767 37.939 1.44767C37.939 1.44767 37.1254 3.90557 35.1591 5.65153C36.8542 5.48202 39.5833 1.27816 39.5833 1.27816C39.5833 1.27816 38.5323 4.19374 36.3965 5.88885C38.7696 6.41433 42.1938 2.87156 42.1938 2.87156C42.1938 2.87156 40.8546 5.38032 39.0917 6.41433C41.058 7.16017 43.7533 4.05813 43.7533 4.05813C43.7533 4.05813 41.058 8.21114 36.7694 8.02468C35.3625 7.95687 31.1078 3.75302 21.9881 4.09204C9.91897 4.54971 7.35936 9.65198 0.917969 13.1269Z" fill="#373535"/>
<path d="M0.476562 14.3812C4.07018 16.178 7.35869 14.11 11.4947 15.2796C14.6476 16.1611 18.4786 17.2629 23.6825 16.5001C28.8865 15.7543 33.3277 13.4828 35.4635 9.44848C36.1246 7.65167 38.8198 9.85531 38.8198 9.85531C38.8198 9.85531 36.8535 9.04166 36.9044 9.41458C36.9552 9.80445 39.8538 11.1436 39.8538 11.1436C39.8538 11.1436 37.2264 10.3299 37.3959 10.9402C37.5485 11.5504 40.6844 14.0253 40.6844 14.0253C40.6844 14.0253 37.1078 11.347 36.8196 11.7199C36.5145 12.0928 38.3282 13.5676 38.3282 13.5676C38.3282 13.5676 35.3449 11.7199 34.2939 12.2624C33.5311 12.6522 37.3959 15.1779 37.3959 15.1779C37.3959 15.1779 34.8872 13.2625 34.2939 13.771C33.7006 14.2795 37.1247 18.3817 37.1247 18.3817C37.1247 18.3817 33.226 14.1778 32.8361 14.3812C32.4462 14.5846 33.904 16.6018 33.904 16.6018C33.904 16.6018 32.0055 14.4999 31.48 14.8559C30.9545 15.2288 34.2261 20.6701 34.2261 20.6701C34.2261 20.6701 30.6833 15.0932 29.2086 16.0255C31.497 21.0599 30.6494 21.7719 30.6494 21.7719C30.6494 21.7719 30.3612 16.6357 27.4965 16.7713C26.0557 16.8391 28.1746 20.6023 28.1746 20.6023C28.1746 20.6023 26.2252 17.1612 24.92 17.229C27.3101 21.7719 26.4625 23.6026 26.4625 23.6026C26.4625 23.6026 26.8524 19.7208 23.6147 17.568C24.8522 18.6698 22.835 23.6026 22.835 23.6026C22.835 23.6026 24.5979 16.3306 21.5298 17.7206C21.0382 17.941 21.4959 21.3481 21.4959 21.3481C21.4959 21.3481 20.8856 17.4494 19.9533 17.6528C19.4109 17.7714 16.5292 23.0602 16.5292 23.0602C16.5292 23.0602 18.8854 17.3477 18.1735 17.585C17.648 17.7545 16.6648 20.1107 16.6648 20.1107C16.6648 20.1107 17.1394 17.7884 16.6648 17.6528C16.1902 17.5172 13.5119 20.1107 13.5119 20.1107C13.5119 20.1107 15.4952 17.7884 15.1562 17.2968C14.6307 16.5679 14.0374 16.534 13.3085 16.8222C12.2575 17.229 10.8506 19.1445 10.8506 19.1445C10.8506 19.1445 12.2575 17.1951 12.0202 16.4832C11.6303 15.3135 7.57905 18.7377 7.57905 18.7377C7.57905 18.7377 9.96915 16.4832 9.42671 15.9916C8.88428 15.517 5.9009 15.6526 4.98554 15.6526C2.25642 15.6865 1.30716 15.0423 0.476562 14.3812Z" fill="#373535" fill-opacity="0.35"/>
<path d="M0.324219 13.9744C3.91784 15.7712 7.20634 13.7032 11.3424 14.8728C14.4953 15.7543 18.3262 16.8561 23.5302 16.0933C28.7342 15.3475 33.1753 13.076 35.3112 9.04168C35.9723 7.24487 38.6675 9.44851 38.6675 9.44851C38.6675 9.44851 36.7012 8.63486 36.752 9.00778C36.8029 9.39765 39.7015 10.7368 39.7015 10.7368C39.7015 10.7368 37.0741 9.92314 37.2436 10.5334C37.3961 11.1436 40.5321 13.6185 40.5321 13.6185C40.5321 13.6185 36.9893 10.9232 36.7012 11.2962C36.413 11.6691 38.2098 13.1438 38.2098 13.1438C38.2098 13.1438 35.2264 11.2962 34.1754 11.8386C33.4127 12.2285 37.2775 14.7542 37.2775 14.7542C37.2775 14.7542 34.7687 12.8387 34.1754 13.3472C33.5822 13.8558 37.0063 17.9579 37.0063 17.9579C37.0063 17.9579 33.1245 13.7541 32.7346 13.9575C32.3447 14.1609 33.8025 16.1781 33.8025 16.1781C33.8025 16.1781 31.8701 14.0931 31.3446 14.4491C30.8191 14.822 34.0737 20.2633 34.0737 20.2633C34.0737 20.2633 30.531 14.6694 29.0732 15.6017C31.3785 20.6531 30.514 21.3651 30.514 21.3651C30.514 21.3651 30.2259 16.2289 27.3611 16.3645C25.9203 16.4323 28.0392 20.1955 28.0392 20.1955C28.0392 20.1955 26.1068 16.7714 24.8015 16.8392C27.1916 21.382 26.3441 23.2128 26.3441 23.2128C26.3441 23.2128 26.7339 19.331 23.4963 17.1782C24.7337 18.28 22.7165 23.2128 22.7165 23.2128C22.7165 23.2128 24.4795 15.9408 21.4113 17.3307C20.9197 17.5511 21.3774 20.9583 21.3774 20.9583C21.3774 20.9583 20.7672 17.0595 19.8349 17.2629C19.2924 17.3816 16.4108 22.6703 16.4108 22.6703C16.4108 22.6703 18.767 16.9578 18.055 17.1951C17.5295 17.3646 16.5464 19.7208 16.5464 19.7208C16.5464 19.7208 17.021 17.3985 16.5464 17.2629C16.0717 17.1273 13.3935 19.7208 13.3935 19.7208C13.3935 19.7208 15.3767 17.3985 15.0377 16.907C14.5122 16.1781 13.919 16.1442 13.1901 16.4323C12.1391 16.8392 10.7322 18.7546 10.7322 18.7546C10.7322 18.7546 12.1391 16.8053 11.9018 16.0933C11.5119 14.9237 7.46061 18.3478 7.46061 18.3478C7.46061 18.3478 9.8507 16.0933 9.30827 15.6017C8.76584 15.1271 5.78245 15.2627 4.8671 15.2627C2.10408 15.2797 1.15482 14.6355 0.324219 13.9744Z" fill="#373535"/>
</svg>
