<svg width="55" height="58" viewBox="0 0 55 58" fill="none" xmlns="http://www.w3.org/2000/svg">
<path d="M0.239258 51.0994V51.0634C0.239258 47.4715 2.94636 44.5297 6.82702 44.5297C9.21013 44.5297 10.6357 45.3245 11.8085 46.4786L10.0395 48.5183C9.0647 47.6342 8.07185 47.0928 6.8083 47.0928C4.67862 47.0928 3.14435 48.8617 3.14435 51.0281V51.0641C3.14435 53.2305 4.64262 55.0355 6.8083 55.0355C8.25257 55.0355 9.13669 54.4574 10.1295 53.5553L11.8985 55.3422C10.5997 56.7311 9.15613 57.5979 6.71902 57.5979C3.00108 57.5979 0.239258 54.7281 0.239258 51.0994Z" fill="#435363"/>
<path d="M15.5381 44.7465H18.3172V49.746H23.4434V44.7465H26.2239V57.3813H23.4434V52.3091H18.3172V57.3813H15.5381V44.7465Z" fill="#435363"/>
<path d="M30.6958 44.75H40.3787V47.262H33.5015V49.8654H39.5529V52.3781H33.5015V55.0737H40.4702V57.5857H30.6958V44.75Z" fill="#435363"/>
<path d="M44.5176 44.7465H54.1371V47.2736H47.296V49.9627H53.325V52.4898H47.296V57.3813H44.5176V44.7465Z" fill="#435363"/>
<path d="M27.5731 26.9292C22.9624 26.9292 19.2106 23.1782 19.2106 18.5674C19.2106 13.956 22.9624 10.2042 27.5731 10.2042C31.3796 10.2042 34.5971 12.7609 35.6058 16.2463H38.8414C37.7643 11.0113 33.1219 7.06299 27.5731 7.06299C21.2301 7.06299 16.0693 12.2238 16.0693 18.5674C16.0693 24.9104 21.2301 30.0712 27.5731 30.0712C33.1219 30.0712 37.7643 26.1236 38.8414 20.8886H35.6058C34.5971 24.3733 31.3796 26.9292 27.5731 26.9292Z" fill="#435363"/>
<path d="M21.9355 24.2042C23.3798 25.6484 25.3741 26.5434 27.5729 26.5434V23.2092C26.2914 23.2092 25.1308 22.6886 24.2906 21.8491L21.9355 24.2042Z" fill="#435363"/>
<path d="M19.5972 18.5667C19.5972 19.7078 19.8405 20.7936 20.2739 21.7763L23.3238 20.435C23.0718 19.8634 22.9306 19.2319 22.9306 18.5667C22.9306 16.0029 25.0092 13.925 27.5723 13.925V10.5908C23.1747 10.5908 19.5972 14.1691 19.5972 18.5667Z" fill="#F38B00"/>
<path d="M30.4639 11.1343L29.2544 14.2424C30.2422 14.6276 31.0666 15.3382 31.5907 16.2454H35.2021C34.4893 13.9047 32.7268 12.0177 30.4639 11.1343Z" fill="#435363"/>
<path d="M29.2554 22.8908L30.4642 25.9989C32.7271 25.1155 34.4896 23.2277 35.2031 20.8871H31.5917C31.0661 21.795 30.2425 22.5063 29.2554 22.8908Z" fill="#F38B00"/>
<path d="M12.8172 23.0283C12.7646 22.8541 12.7142 22.6784 12.6674 22.5013C12.6645 22.4905 12.6616 22.4797 12.6588 22.4689C12.6156 22.3047 12.576 22.1406 12.5378 21.975C12.5299 21.9412 12.5227 21.9073 12.5155 21.8735C12.4838 21.7316 12.455 21.5884 12.4269 21.4451C12.4147 21.381 12.4039 21.3169 12.3931 21.2529C12.3729 21.1384 12.3528 21.0246 12.3348 20.9087C12.3196 20.8101 12.3067 20.7122 12.2937 20.6135C12.203 19.9411 12.1541 19.2578 12.1548 18.5659H9.00489C9.00417 19.3205 9.05169 20.0656 9.14025 20.8014C9.14169 20.8173 9.14457 20.8331 9.14673 20.849C9.1712 21.0491 9.19856 21.2493 9.22952 21.4473C9.23816 21.502 9.24752 21.5567 9.25688 21.6121C9.28424 21.7748 9.31232 21.9376 9.344 22.0995C9.35984 22.1859 9.37856 22.2709 9.39656 22.3566C9.4232 22.4855 9.45055 22.6143 9.48007 22.7425C9.50599 22.8548 9.53407 22.9671 9.56287 23.0794C9.58807 23.1795 9.61255 23.2796 9.63919 23.3797C9.67519 23.5121 9.71334 23.6432 9.7515 23.7749C9.76734 23.8296 9.78174 23.8858 9.7983 23.9398H9.79974C10.0172 24.6591 10.2749 25.361 10.5744 26.0407L13.4608 24.7714C13.2124 24.2084 12.9979 23.6252 12.8172 23.0283Z" fill="#435363"/>
<path d="M27.5733 33.9857C23.3226 33.9857 19.4693 32.2549 16.678 29.4628L14.4468 31.694C17.8069 35.0542 22.4464 37.1349 27.5733 37.1349C37.0417 37.1349 44.8534 30.0475 45.996 20.8887H42.8173C41.6942 28.2922 35.2864 33.9857 27.5733 33.9857Z" fill="#F38B00"/>
<path d="M27.5731 3.14916C31.0268 3.14916 34.217 4.29032 36.7902 6.21625L38.6773 3.68699C35.5799 1.37155 31.7367 0 27.5731 0C19.6944 0 12.9627 4.90734 10.2671 11.8328L13.2053 12.9761C15.448 7.22998 21.0429 3.14916 27.5731 3.14916Z" fill="#F38B00"/>
<path d="M42.816 16.2461H45.9947C45.6542 13.5138 44.7196 10.9658 43.3243 8.73535L40.6475 10.4057C41.7404 12.1502 42.4942 14.128 42.816 16.2461Z" fill="#435363"/>
<path d="M39.2352 16.2462H42.4247C41.5924 10.8982 37.9299 6.47615 33.0218 4.5603L31.8828 7.48916C35.6152 8.94638 38.4382 12.2345 39.2352 16.2462Z" fill="#F38B00"/>
<path d="M27.5732 6.67629L27.574 3.53577H27.5732C21.2065 3.53577 15.7527 7.51434 13.5654 13.1165L16.4921 14.2555C18.2229 9.82402 22.537 6.67629 27.5732 6.67629Z" fill="#435363"/>
<path d="M15.683 18.5668H12.5425C12.5425 24.8831 16.4599 30.2995 21.9921 32.5199L23.1585 29.6047C18.7818 27.848 15.683 23.5634 15.683 18.5668Z" fill="#F38B00"/>
<path d="M27.5723 30.457V33.5982C35.0715 33.5982 41.305 28.0775 42.4246 20.8871H39.2344C38.1523 26.3373 33.3349 30.457 27.5723 30.457Z" fill="#435363"/>
</svg>
