<svg width="51" height="48" viewBox="0 0 51 48" fill="none" xmlns="http://www.w3.org/2000/svg">
<path fill-rule="evenodd" clip-rule="evenodd" d="M28.7144 25.9V15H22.0144V25.9L12.5894 31.35L15.9394 37.15L25.3644 31.7L34.7894 37.15L38.1394 31.35L28.7144 25.9Z" fill="#669DF6"/>
<path fill-rule="evenodd" clip-rule="evenodd" d="M28.7142 25.9V15H25.3642V27.8L14.2642 34.25L15.9392 37.15L25.3642 31.7L34.7892 37.15L38.1392 31.35L28.7142 25.9Z" fill="#4285F4"/>
<path fill-rule="evenodd" clip-rule="evenodd" d="M21.9891 0.925049L16.9141 3.97505V13.3L25.3641 17.875V10.1L21.9891 8.55005V0.925049Z" fill="#AECBFA"/>
<path fill-rule="evenodd" clip-rule="evenodd" d="M28.7393 8.55005L25.3643 10.1V17.875L33.8143 13.3V3.97505L28.7393 0.925049V8.55005Z" fill="#669DF6"/>
<path fill-rule="evenodd" clip-rule="evenodd" d="M40.7144 36.7L40.5144 40.175L47.2644 44L41.8144 47L33.7144 42.325L33.9894 32.75L42.1644 27.75L50.3644 32.45V38.675L43.6394 34.8L40.7144 36.7Z" fill="#669DF6"/>
<path fill-rule="evenodd" clip-rule="evenodd" d="M10.0143 36.7L7.08926 34.8L0.364258 38.675V32.45L8.43926 27.775L16.6143 32.775L16.8893 42.35L8.91426 47.075L3.46426 44L10.2143 40.1L10.0143 36.7Z" fill="#669DF6"/>
<path fill-rule="evenodd" clip-rule="evenodd" d="M50.3643 38.675L50.2393 32.45L42.1643 27.8L33.9893 32.825L40.7143 36.7L43.6143 34.8L50.3643 38.675Z" fill="#AECBFA"/>
<path fill-rule="evenodd" clip-rule="evenodd" d="M0.364258 38.675L7.11426 34.8L10.0143 36.7L16.7393 32.825L8.56426 27.8L0.489258 32.45L0.364258 38.675Z" fill="#AECBFA"/>
</svg>
