<svg width="148" height="28" viewBox="0 0 148 28" fill="none" xmlns="http://www.w3.org/2000/svg">
<path fill-rule="evenodd" clip-rule="evenodd" d="M46.2088 22.3316C44.8703 23.1222 42.6011 23.5389 40.5362 23.5389C34.8875 23.5389 32.5723 20.3568 32.5723 15.2666C32.5723 10.5914 35.3634 7.1029 41.013 7.1029C42.8965 7.1029 44.9154 7.56408 46.1637 8.35302V12.6543L43.6671 12.4567L43.3053 10.3073C43.2593 10.0874 43.169 9.97785 42.9417 9.91196C42.4427 9.75796 41.6712 9.64843 40.9219 9.64843C38.0405 9.64843 36.203 11.5343 36.203 15.2666C36.203 19.1503 37.9503 21.037 40.7636 21.037C41.5129 21.037 42.4427 20.9275 43.0319 20.7521C43.3044 20.6862 43.3725 20.6203 43.4406 20.2909L43.7812 18.251H46.2088V22.3316ZM55.8527 17.5041C55.8527 14.9149 55.0353 13.9926 53.5614 13.9926C52.0628 13.9926 51.0648 14.8935 51.0648 17.5255C51.0648 20.1814 51.9504 21.2347 53.4703 21.2347C54.9451 21.2347 55.8527 20.2464 55.8527 17.5041ZM47.4801 17.6358C47.4801 13.9926 49.4547 11.6233 53.6065 11.6233C57.8035 11.6233 59.4375 14.037 59.4375 17.3946C59.4375 21.1251 57.4859 23.5381 53.3111 23.5381C49.1592 23.5381 47.4801 21.0807 47.4801 17.6358ZM70.9871 22.4642C69.9431 23.0786 68.3321 23.5389 66.676 23.5389C62.5693 23.5389 60.7318 21.0601 60.7318 17.7231C60.7318 13.6203 63.3186 11.6233 66.9485 11.6233C68.7179 11.6233 70.2837 12.1058 70.9871 12.5456V15.9904L68.5595 15.8801L68.287 14.4315C68.264 14.2783 68.2189 14.1474 68.0145 14.0807C67.742 13.9926 67.3112 13.9275 66.8574 13.9275C65.4967 13.9275 64.3395 14.8268 64.3395 17.3946C64.3395 20.2473 65.6551 21.0593 67.2661 21.0593C68.4011 21.0593 69.4212 20.7076 70.1024 20.4227L70.9871 22.4642ZM80.8575 23.2754L77.9761 17.6803L76.7508 18.9749V20.9497C76.7508 21.3006 76.7738 21.345 77.1144 21.3887L78.4759 21.5418V23.2754H71.8275V21.5418L72.9625 21.3887C73.2793 21.345 73.3244 21.2783 73.3244 20.9497V9.36267C73.3244 9.12138 73.2563 8.96738 73.0298 8.90149L71.7823 8.48561L72.0318 6.70679H76.7508V16.0777L80.9035 11.8423H84.0344V13.5767L82.8542 13.7957C82.5588 13.8394 82.4915 13.9053 82.2871 14.1251L80.6761 15.7706L83.5797 21.0148C83.7389 21.3228 83.8981 21.3664 84.2609 21.4101L85.2597 21.5641V23.2754H80.8575ZM86.3044 23.2754V21.4982L87.3254 21.3664C87.643 21.3228 87.6881 21.2569 87.6881 20.9275V14.4982C87.6881 14.2561 87.62 14.1029 87.3926 14.037L86.1682 13.6203L86.4168 11.8423H90.4103L90.6828 13.5981H90.819C91.5683 12.4781 92.5663 11.6233 94.018 11.6233C94.54 11.6233 95.5839 11.7114 95.9926 11.8209V15.815L93.2696 15.7269L93.0431 14.5633C92.998 14.3656 92.929 14.3228 92.7476 14.3228C92.1576 14.3228 91.4534 14.8046 91.1145 15.0903V20.9053C91.1145 21.2569 91.1375 21.3228 91.4772 21.345L93.7234 21.5204V23.2754H86.3044ZM105.386 17.5041C105.386 14.9149 104.569 13.9926 103.096 13.9926C101.597 13.9926 100.599 14.8935 100.599 17.5255C100.599 20.1814 101.484 21.2347 103.004 21.2347C104.479 21.2347 105.386 20.2464 105.386 17.5041ZM97.0144 17.6358C97.0144 13.9926 98.9882 11.6233 103.14 11.6233C107.338 11.6233 108.971 14.037 108.971 17.3946C108.971 21.1251 107.02 23.5381 102.845 23.5381C98.6936 23.5381 97.0144 21.0807 97.0144 17.6358ZM116.777 18.5574L115.234 18.6669C113.895 18.755 113.419 19.0844 113.419 19.9615C113.419 20.8402 113.964 21.1688 114.713 21.1688C115.484 21.1688 116.255 20.7521 116.777 20.379V18.5574ZM117.39 23.2762L117.162 22.0903L117.049 22.0689C116.187 22.8801 115.053 23.5389 113.237 23.5389C110.379 23.5389 109.925 21.6514 109.925 20.2909C109.925 18.0962 111.331 17.0874 114.168 16.912L116.777 16.7366V15.5293C116.777 14.4982 116.663 13.7957 115.257 13.7957C114.168 13.7957 113.601 13.9497 113.601 15.2666L110.401 15.0022C110.401 12.04 113.192 11.6233 115.28 11.6233C118.728 11.6233 120.113 12.5234 120.113 15.5951V20.9275C120.113 21.2783 120.135 21.3228 120.475 21.3664L121.565 21.5418V23.2754H117.39V23.2762ZM132.32 22.4642C131.277 23.0786 129.666 23.5389 128.009 23.5389C123.902 23.5389 122.064 21.0601 122.064 17.7231C122.064 13.6203 124.651 11.6233 128.282 11.6233C130.051 11.6233 131.617 12.1058 132.32 12.5456V15.9904L129.893 15.8801L129.62 14.4315C129.597 14.2783 129.552 14.1474 129.348 14.0807C129.075 13.9926 128.644 13.9275 128.19 13.9275C126.829 13.9275 125.672 14.8268 125.672 17.3946C125.672 20.2473 126.988 21.0593 128.599 21.0593C129.734 21.0593 130.755 20.7076 131.435 20.4227L132.32 22.4642" fill="#151F34"/>
<mask id="mask0_1311_7183" style="mask-type:alpha" maskUnits="userSpaceOnUse" x="0" y="0" width="148" height="28">
<path d="M74.0275 0H0.845703V28H147.209V0H74.0275Z" fill="white"/>
</mask>
<g mask="url(#mask0_1311_7183)">
<path fill-rule="evenodd" clip-rule="evenodd" d="M142.286 23.2754V16.1214C142.286 15.4626 142.218 14.2561 141.084 14.2561C140.244 14.2561 139.291 14.6736 138.724 15.0689V20.9497C138.724 21.3006 138.747 21.345 139.086 21.3887L140.176 21.5418V23.2754H133.914V21.5418L134.935 21.3887C135.252 21.345 135.297 21.2783 135.297 20.9497V9.36267C135.297 9.12138 135.229 8.96738 135.003 8.90149L133.754 8.48561L134.005 6.70679H138.678V12.9178L138.792 12.9393C139.813 12.1281 140.993 11.6233 142.422 11.6233C144.827 11.6233 145.712 12.8956 145.712 15.1776V20.9497C145.712 21.3006 145.735 21.345 146.075 21.3887L147.21 21.5418V23.2754H142.285" fill="#151F34"/>
<path fill-rule="evenodd" clip-rule="evenodd" d="M18.233 8.37528C17.254 8.59548 16.252 8.70601 15.2469 8.70469C14.2208 8.70469 13.2186 8.59269 12.2564 8.37528C13.058 7.14553 14.0691 6.05597 15.2469 5.15281C16.4226 6.05711 17.4324 7.14651 18.2339 8.37528H18.233ZM27.2673 1.29622C26.0334 0.980117 24.7622 0.821205 23.4858 0.823511C20.5524 0.819618 17.6838 1.65797 15.2434 3.23233C12.8036 1.65701 9.93465 0.818577 7.00106 0.823511C5.69403 0.823511 4.42361 0.984923 3.21876 1.29622C2.71552 1.42199 2.22002 1.57513 1.73462 1.75492C1.72722 1.7578 1.72049 1.76209 1.71484 1.76753C1.70918 1.77297 1.70471 1.77946 1.70169 1.7866C1.69868 1.79374 1.69717 1.8014 1.69727 1.80911C1.69737 1.81683 1.69907 1.82444 1.70226 1.83151C1.91343 2.27457 2.14844 2.70363 2.40133 3.11869C2.41496 3.14175 2.44391 3.15163 2.46945 3.14257C3.92111 2.63145 5.45451 2.37164 6.99936 2.37504C9.5155 2.37504 11.869 3.05528 13.8794 4.22798C12.6011 5.27448 11.5141 6.52173 10.6642 7.91739C10.2173 8.64255 9.83971 9.40554 9.53594 10.1969C8.91855 11.8016 8.60307 13.5001 8.60441 15.2122C8.60441 19.287 10.367 22.9715 13.1914 25.5936C13.411 25.8028 13.6392 25.9996 13.8794 26.1923C14.0667 26.3488 14.254 26.4954 14.4499 26.637C14.6959 26.8265 14.9522 27.0002 15.2102 27.1666C15.2199 27.173 15.2313 27.1764 15.243 27.1764C15.2547 27.1764 15.2662 27.173 15.2758 27.1666C15.533 26.9961 15.7867 26.8223 16.0328 26.637C16.232 26.4954 16.4193 26.3488 16.6067 26.1923C16.8425 25.9996 17.0793 25.7987 17.2989 25.5936C20.1191 22.9715 21.8825 19.2829 21.8825 15.213C21.8841 13.1751 21.4359 11.1603 20.5678 9.30339C20.4791 9.11143 20.3866 8.92116 20.2902 8.73269C20.1421 8.45669 19.986 8.18481 19.8219 7.91739C18.9706 6.52261 17.8839 5.27556 16.6067 4.22798C18.6818 3.01438 21.0609 2.37355 23.4858 2.37504C25.0307 2.37164 26.5641 2.63145 28.0157 3.14257C28.0421 3.15081 28.0711 3.14092 28.0847 3.11786C28.3382 2.70021 28.5712 2.27122 28.7829 1.83233C28.7863 1.82522 28.7881 1.81753 28.7882 1.80973C28.7884 1.80192 28.7869 1.79416 28.7839 1.78692C28.7809 1.77968 28.7764 1.77311 28.7706 1.76761C28.7649 1.76211 28.7581 1.7578 28.7506 1.75492C28.2652 1.57869 27.7714 1.42057 27.2673 1.29622Z" fill="#151F34"/>
<path fill-rule="evenodd" clip-rule="evenodd" d="M20.2781 15.2139C20.2781 18.6184 18.9013 21.7157 16.6551 24.0158C16.251 22.7679 16.0454 21.4677 16.0454 20.16C16.0454 16.7556 17.4223 13.6525 19.6685 11.3582C20.0636 12.5762 20.2781 13.8716 20.2781 15.2139Z" fill="#348540"/>
<path fill-rule="evenodd" clip-rule="evenodd" d="M14.4408 20.16C14.4408 21.4999 14.2279 22.7953 13.8311 24.0158C11.5018 21.6393 10.2049 18.4885 10.208 15.2139C10.208 13.8716 10.4251 12.5762 10.8228 11.3582C13.1515 13.7346 14.4468 16.8858 14.4408 20.16Z" fill="#7DBC42"/>
</g>
</svg>
