<svg width="74" height="14" viewBox="0 0 74 14" fill="none" xmlns="http://www.w3.org/2000/svg">
<path fill-rule="evenodd" clip-rule="evenodd" d="M22.6816 11.1658C22.0123 11.5611 20.8777 11.7695 19.8453 11.7695C17.0209 11.7695 15.8633 10.1784 15.8633 7.63329C15.8633 5.2957 17.2589 3.55147 20.0837 3.55147C21.0254 3.55147 22.0349 3.78206 22.659 4.17653V6.32717L21.4107 6.22835L21.2298 5.15364C21.2068 5.0437 21.1617 4.98894 21.048 4.956C20.7985 4.879 20.4128 4.82423 20.0381 4.82423C18.5974 4.82423 17.6786 5.76717 17.6786 7.63329C17.6786 9.57517 18.5523 10.5185 19.9589 10.5185C20.3336 10.5185 20.7985 10.4638 21.0931 10.3761C21.2293 10.3431 21.2634 10.3102 21.2975 10.1455L21.4678 9.12553H22.6816V11.1658ZM27.5035 8.75206C27.5035 7.45747 27.0948 6.99629 26.3578 6.99629C25.6085 6.99629 25.1096 7.44676 25.1096 8.76276C25.1096 10.0907 25.5523 10.6174 26.3123 10.6174C27.0497 10.6174 27.5035 10.1232 27.5035 8.75206ZM23.3172 8.81794C23.3172 6.99629 24.3045 5.81164 26.3804 5.81164C28.4789 5.81164 29.2959 7.01853 29.2959 8.69729C29.2959 10.5626 28.3201 11.7691 26.2327 11.7691C24.1568 11.7691 23.3172 10.5404 23.3172 8.81794ZM35.0707 11.2321C34.5487 11.5393 33.7432 11.7695 32.9151 11.7695C30.8618 11.7695 29.943 10.5301 29.943 8.86159C29.943 6.81017 31.2364 5.81164 33.0514 5.81164C33.9361 5.81164 34.719 6.05294 35.0707 6.27282V7.99523L33.8569 7.94006L33.7206 7.21576C33.7092 7.13917 33.6866 7.0737 33.5844 7.04035C33.4482 6.99629 33.2327 6.96376 33.0058 6.96376C32.3255 6.96376 31.7469 7.41341 31.7469 8.69729C31.7469 10.1236 32.4047 10.5296 33.2102 10.5296C33.7777 10.5296 34.2877 10.3538 34.6283 10.2113L35.0707 11.2321ZM40.0059 11.6377L38.5652 8.84017L37.9525 9.48747V10.4749C37.9525 10.6503 37.964 10.6725 38.1343 10.6944L38.8151 10.7709V11.6377H35.4909V10.7709L36.0584 10.6944C36.2168 10.6725 36.2393 10.6392 36.2393 10.4749V4.68135C36.2393 4.5607 36.2053 4.4837 36.092 4.45076L35.4683 4.24282L35.5931 3.35341H37.9525V8.03888L40.0289 5.92117H41.5943V6.78835L41.0043 6.89788C40.8565 6.9197 40.8229 6.95264 40.7207 7.06259L39.9152 7.88529L41.367 10.5074C41.4466 10.6614 41.5262 10.6832 41.7076 10.7051L42.207 10.7821V11.6377H40.0059ZM42.7294 11.6377V10.7491L43.2398 10.6832C43.3986 10.6614 43.4212 10.6285 43.4212 10.4638V7.24911C43.4212 7.12806 43.3871 7.05147 43.2735 7.01853L42.6613 6.81017L42.7856 5.92117H44.7823L44.9185 6.79906H44.9867C45.3613 6.23906 45.8603 5.81164 46.5862 5.81164C46.8472 5.81164 47.3691 5.8557 47.5735 5.91047V7.90753L46.2119 7.86347L46.0987 7.28164C46.0761 7.18282 46.0417 7.16141 45.951 7.16141C45.6559 7.16141 45.3038 7.40229 45.1344 7.54517V10.4526C45.1344 10.6285 45.1459 10.6614 45.3158 10.6725L46.4389 10.7602V11.6377H42.7294ZM52.2703 8.75206C52.2703 7.45747 51.8616 6.99629 51.125 6.99629C50.3757 6.99629 49.8767 7.44676 49.8767 8.76276C49.8767 10.0907 50.3191 10.6174 51.079 10.6174C51.8164 10.6174 52.2703 10.1232 52.2703 8.75206ZM48.0844 8.81794C48.0844 6.99629 49.0712 5.81164 51.1472 5.81164C53.2461 5.81164 54.0626 7.01853 54.0626 8.69729C54.0626 10.5626 53.0873 11.7691 50.9999 11.7691C48.9239 11.7691 48.0844 10.5404 48.0844 8.81794ZM57.9659 9.2787L57.194 9.33347C56.5247 9.37753 56.2867 9.54223 56.2867 9.98076C56.2867 10.4201 56.5592 10.5844 56.9334 10.5844C57.3192 10.5844 57.7049 10.3761 57.9659 10.1895V9.2787ZM58.272 11.6381L58.1583 11.0452L58.1017 11.0345C57.6708 11.4401 57.1037 11.7695 56.1956 11.7695C54.7664 11.7695 54.5395 10.8257 54.5395 10.1455C54.5395 9.04811 55.2428 8.5437 56.661 8.456L57.9659 8.36829V7.76464C57.9659 7.24912 57.9088 6.89788 57.2055 6.89788C56.661 6.89788 56.3774 6.97488 56.3774 7.63329L54.7779 7.50111C54.7779 6.02 56.1731 5.81164 57.217 5.81164C58.9412 5.81164 59.6335 6.2617 59.6335 7.79759V10.4638C59.6335 10.6392 59.6446 10.6614 59.8149 10.6832L60.3598 10.7709V11.6377H58.272V11.6381ZM65.7369 11.2321C65.2154 11.5393 64.4099 11.7695 63.5818 11.7695C61.5281 11.7695 60.6093 10.5301 60.6093 8.86159C60.6093 6.81017 61.9027 5.81164 63.7181 5.81164C64.6028 5.81164 65.3857 6.05294 65.7369 6.27282V7.99523L64.5236 7.94006L64.3873 7.21576C64.3758 7.13917 64.3533 7.0737 64.2511 7.04035C64.1149 6.99629 63.899 6.96376 63.6721 6.96376C62.9918 6.96376 62.4132 7.41341 62.4132 8.69729C62.4132 10.1236 63.0714 10.5296 63.8769 10.5296C64.444 10.5296 64.9544 10.3538 65.2946 10.2113L65.7374 11.2321" fill="#151F34"/>
<mask id="mask0_392_8779" style="mask-type:alpha" maskUnits="userSpaceOnUse" x="0" y="0" width="74" height="14">
<path d="M36.5909 0H0V14H73.1818V0H36.5909Z" fill="white"/>
</mask>
<g mask="url(#mask0_392_8779)">
<path fill-rule="evenodd" clip-rule="evenodd" d="M70.72 11.6377V8.0607C70.72 7.73129 70.686 7.12806 70.1189 7.12806C69.6991 7.12806 69.2223 7.33682 68.9387 7.53447V10.4749C68.9387 10.6503 68.9502 10.6725 69.1201 10.6943L69.6651 10.7709V11.6377H66.5337V10.7709L67.0446 10.6943C67.203 10.6725 67.2255 10.6392 67.2255 10.4749V4.68135C67.2255 4.5607 67.1915 4.4837 67.0782 4.45076L66.4541 4.24282L66.5793 3.35341H68.9157V6.45894L68.9728 6.46964C69.4833 6.06406 70.0733 5.81164 70.7877 5.81164C71.9905 5.81164 72.4328 6.44782 72.4328 7.58882V10.4749C72.4328 10.6503 72.4443 10.6725 72.6146 10.6943L73.1817 10.7709V11.6377H70.7196" fill="#151F34"/>
<path fill-rule="evenodd" clip-rule="evenodd" d="M8.69366 4.18765C8.20414 4.29776 7.70315 4.35302 7.20057 4.35236C6.68755 4.35236 6.18645 4.29636 5.70537 4.18765C6.10614 3.57278 6.61169 3.028 7.20057 2.57642C7.78843 3.02857 8.29333 3.57327 8.69408 4.18765H8.69366ZM13.2108 0.648124C12.5939 0.490074 11.9583 0.410618 11.3201 0.411771C9.85335 0.409824 8.41904 0.828998 7.19887 1.61618C5.97893 0.828522 4.54447 0.409304 3.07768 0.411771C2.42416 0.411771 1.78895 0.492477 1.18653 0.648124C0.934907 0.711009 0.687156 0.787581 0.444459 0.877477C0.440758 0.878917 0.437394 0.88106 0.434567 0.883781C0.431739 0.886501 0.429504 0.889743 0.427995 0.893314C0.426487 0.896885 0.425735 0.900713 0.425783 0.904571C0.425832 0.908428 0.426682 0.912237 0.42828 0.915771C0.533865 1.1373 0.65137 1.35183 0.777815 1.55936C0.784627 1.57089 0.799103 1.57583 0.811875 1.5713C1.5377 1.31574 2.3044 1.18584 3.07683 1.18754C4.3349 1.18754 5.51165 1.52765 6.51683 2.11401C5.87768 2.63726 5.33421 3.26088 4.90923 3.95871C4.68582 4.32129 4.497 4.70279 4.34512 5.09848C4.03642 5.90079 3.87868 6.75006 3.87935 7.60612C3.87935 9.64354 4.76064 11.4858 6.17283 12.7968C6.28267 12.9014 6.39677 12.9998 6.51683 13.0962C6.6105 13.1744 6.70416 13.2477 6.80208 13.3185C6.92512 13.4132 7.05327 13.5001 7.18227 13.5833C7.18709 13.5865 7.19281 13.5882 7.19866 13.5882C7.20451 13.5882 7.21023 13.5865 7.21505 13.5833C7.34362 13.4981 7.4705 13.4112 7.59354 13.3185C7.69316 13.2477 7.78682 13.1744 7.88049 13.0962C7.99842 12.9998 8.11677 12.8994 8.22662 12.7968C9.63668 11.4858 10.5184 9.64148 10.5184 7.60654C10.5192 6.58757 10.2951 5.58018 9.86104 4.65171C9.81671 4.55573 9.77043 4.46059 9.72225 4.36636C9.64821 4.22836 9.57012 4.09242 9.48809 3.95871C9.06246 3.26132 8.51908 2.63779 7.88049 2.11401C8.91803 1.5072 10.1076 1.18679 11.3201 1.18754C12.0925 1.18584 12.8592 1.31574 13.585 1.5713C13.5982 1.57542 13.6127 1.57048 13.6195 1.55895C13.7463 1.35012 13.8628 1.13563 13.9686 0.916183C13.9703 0.912627 13.9712 0.908781 13.9713 0.904878C13.9713 0.900975 13.9706 0.897096 13.9691 0.893476C13.9676 0.889857 13.9653 0.886572 13.9625 0.883822C13.9596 0.881072 13.9562 0.878913 13.9524 0.877477C13.7098 0.789359 13.4628 0.7103 13.2108 0.648124Z" fill="#151F34"/>
<path fill-rule="evenodd" clip-rule="evenodd" d="M9.71598 7.60694C9.71598 9.30918 9.02755 10.8578 7.90444 12.0079C7.70239 11.3839 7.5996 10.7339 7.59961 10.08C7.59961 8.37777 8.28804 6.82624 9.41115 5.67906C9.60869 6.28806 9.71598 6.93577 9.71598 7.60694Z" fill="#348540"/>
<path fill-rule="evenodd" clip-rule="evenodd" d="M6.79704 10.08C6.79704 10.7499 6.6906 11.3977 6.4922 12.0079C5.32757 10.8196 4.67911 9.24424 4.68067 7.60694C4.68067 6.93577 4.78923 6.28806 4.98805 5.67906C6.15243 6.8673 6.80007 8.4429 6.79704 10.08Z" fill="#7DBC42"/>
</g>
</svg>
