<svg width="65" height="64" viewBox="0 0 65 64" fill="none" xmlns="http://www.w3.org/2000/svg">
<g clip-path="url(#clip0_1311_7158)">
<path d="M32.3643 0C14.7208 0 0.364258 14.3082 0.364258 32C0.364258 49.6435 14.6724 64 32.3643 64C50.0078 64 64.3643 49.6918 64.3643 32C64.3643 14.3082 50.0078 0 32.3643 0ZM53.9715 37.6073C53.9715 39.5408 52.8597 41.2326 50.6845 41.6193C46.9141 42.2961 38.9866 42.6828 32.3643 42.6828C25.7419 42.6828 17.8144 42.2961 14.044 41.6193C11.8688 41.2326 10.757 39.5408 10.757 37.6073V25.136C10.757 23.2024 12.2555 21.4139 14.044 21.1239C15.1558 20.9305 17.7661 20.7372 19.7963 20.7372C20.5697 20.7372 21.1981 21.3172 21.1981 22.2356V30.9849L32.4126 30.7432L43.6271 30.9849V22.2356C43.6271 21.3172 44.2555 20.7372 45.0289 20.7372C47.0591 20.7372 49.6694 20.9305 50.7812 21.1239C52.618 21.4139 54.0682 23.2024 54.0682 25.136C53.9715 29.2447 53.9715 33.4501 53.9715 37.6073Z" fill="#ED2226"/>
</g>
<defs>
<clipPath id="clip0_1311_7158">
<rect width="64" height="64" fill="white" transform="translate(0.364258)"/>
</clipPath>
</defs>
</svg>
