<svg width="64" height="65" viewBox="0 0 64 65" fill="none" xmlns="http://www.w3.org/2000/svg">
<path d="M58.75 16.7658L58.9 16.6658C58.6 16.1158 58.15 15.6158 57.7 15.3658L33.55 1.46584C33.15 1.21584 32.6 1.11584 32 1.11584C31.4 1.11584 30.85 1.26584 30.45 1.46584L6.45 15.4158C5.6 15.9158 5 17.1658 5 18.1158V45.9658C5 46.5158 5.1 47.1158 5.45 47.6658L5.35 47.7158C5.6 48.1158 5.95 48.4658 6.3 48.6658L30.4 62.6158C30.8 62.8658 31.35 62.9658 31.95 62.9658C32.55 62.9658 33.1 62.8158 33.5 62.6158L57.5 48.6658C58.35 48.1658 58.95 46.9158 58.95 45.9658V18.0658C59 17.6658 58.95 17.2158 58.75 16.7658ZM41 33.0158V31.0158H43.5V28.5158H46V31.0158H48.5V33.0158H46V35.5158H43.5V33.0158H41ZM42.65 26.0158C40.55 22.2658 36.55 19.7658 32 19.7658C25.25 19.7658 19.75 25.2658 19.75 32.0158C19.75 38.7658 25.25 44.2658 32 44.2658C36.55 44.2658 40.55 41.7658 42.65 38.0658L49.1 41.8658C45.7 47.7658 39.3 51.7658 32 51.7658C21.1 51.7658 12.25 42.9158 12.25 32.0158C12.25 21.1158 21.1 12.2658 32 12.2658C39.35 12.2658 45.75 16.3158 49.15 22.2658L42.65 26.0158ZM57.5 33.0158H55V35.5158H53V33.0158H50V31.0158H53V28.5158H55V31.0158H57.5V33.0158Z" fill="#9C033A"/>
</svg>
