<svg width="105" height="29" viewBox="0 0 105 29" fill="none" xmlns="http://www.w3.org/2000/svg">
<path d="M53.5664 6.87707C55.8633 9.00593 57.0117 11.8717 57.0117 15.5563C57.0117 19.2409 55.8633 22.1885 53.6484 24.3993C51.4336 26.5281 47.9883 27.6744 43.4766 27.6744H35.4375V3.84753H43.7227C47.9883 3.84753 51.2695 4.83009 53.5664 6.87707ZM49.6289 21.0422C50.9414 19.814 51.5977 18.0127 51.5977 15.6382C51.5977 13.2637 50.9414 11.4623 49.6289 10.1522C48.3164 8.92405 46.2656 8.18714 43.5586 8.18714H40.4414V22.9254H43.8867C46.4297 22.9254 48.3164 22.2704 49.6289 21.0422ZM75.9609 27.6744H71.2031V25.3818C69.8086 27.0194 68.25 27.8382 66.2813 27.8382C64.3125 27.8382 62.6719 27.265 61.3594 26.1187C60.0469 24.9724 59.3906 23.4986 59.3906 21.6154C59.3906 19.7321 60.0469 18.3402 61.4414 17.4395C62.8359 16.5388 64.7227 16.0476 67.1016 16.0476H70.875V15.8838C70.875 13.9187 69.8906 12.9361 67.7578 12.9361C66.8555 12.9361 65.9531 13.0999 64.9687 13.4274C63.9844 13.7549 63.1641 14.2462 62.4258 14.7375L60.1289 11.3804C62.5898 9.57909 65.2969 8.76029 68.4141 8.76029C70.6289 8.76029 72.4336 9.33345 73.8281 10.4798C75.2227 11.6261 75.8789 13.3455 75.8789 15.8019V27.6744H75.9609ZM70.793 20.6328V19.8959H67.5938C65.543 19.8959 64.4766 20.469 64.4766 21.6972C64.4766 22.3523 64.7227 22.8435 65.2148 23.1711C65.707 23.4986 66.3633 23.6623 67.3477 23.6623C68.25 23.6623 69.0703 23.4167 69.7266 22.8435C70.4648 22.2704 70.793 21.5335 70.793 20.6328ZM89.4961 13.7549C87.9375 13.7549 86.707 14.2462 85.9688 15.3925C85.2305 16.457 84.7383 17.9308 84.7383 19.7321V27.7563H79.6523V9.33345H84.7383V11.708C85.3945 10.971 86.3789 10.316 87.3633 9.82473C88.3477 9.33345 89.4961 9.00593 90.5625 9.00593V13.8368L89.4961 13.7549ZM98.7656 13.018V21.1241C98.7656 21.861 98.9297 22.3523 99.3398 22.7617C99.668 23.1711 100.16 23.3348 100.652 23.3348C101.637 23.3348 102.457 22.9254 103.113 22.0247L105 25.6274C103.441 27.1013 101.719 27.8382 99.9961 27.8382C98.1914 27.8382 96.7148 27.265 95.4844 26.1187C94.2539 24.9724 93.6797 23.3348 93.6797 21.3697V3.84753H98.7656V9.00593H104.18L101.391 13.0999L98.7656 13.018Z" fill="#231F20"/>
<path d="M7.62891 7.6136L5.82422 5.81226V19.2405C5.82422 19.4861 5.90625 19.8136 5.98828 20.1411L20.1797 25.1358L23.707 23.5801L7.62891 7.6136Z" fill="#00C4B3"/>
<path d="M23.707 23.6623L20.1797 25.218L5.98828 20.2234C6.23437 21.2878 6.80859 22.4341 7.46484 23.0892L12.0586 27.6744H22.3125L23.707 23.6623Z" fill="#22D3C5"/>
<path d="M0.410362 14.0821C-0.0818256 14.5733 0.164268 15.5559 0.90255 16.3747L4.10177 19.568L6.07052 20.3049C5.98849 19.9774 5.90646 19.6499 5.90646 19.4042V18.8311L5.82442 5.81226" fill="#0075C9"/>
<path d="M23.707 23.662L25.2656 20.1411L20.2617 5.97602C19.9336 5.89414 19.6055 5.81226 19.3594 5.81226H5.82422" fill="#0075C9"/>
<path d="M23.707 23.6623L27.5625 22.4341V11.8716L23.1328 7.45015C22.4766 6.79511 21.3281 6.22196 20.2617 5.97632L25.2656 20.1414" fill="#00A8E1"/>
<path d="M19.6055 4.01121L16.3242 0.817911C15.5859 0.0809969 14.6016 -0.16464 14.1094 0.326636L5.82422 5.81255H19.3594C19.6055 5.81255 19.9336 5.89443 20.2617 5.97631L19.6055 4.01121Z" fill="#00C4B3"/>
</svg>
