<svg width="48" height="42" viewBox="0 0 48 42" fill="none" xmlns="http://www.w3.org/2000/svg">
<g clip-path="url(#clip0_60_765)">
<path d="M18.4546 3.37122C18.4546 4.77093 19.6057 5.90973 21.0207 5.90973C22.2169 5.90973 23.2215 5.09471 23.5046 3.99749H28.4382V8.64239H17.6785C14.6739 8.64239 12.1795 10.8423 11.7535 13.6992H9.22872V9.74286H5.37717C5.09417 8.64565 4.08943 7.83075 2.89325 7.83075C1.47826 7.83075 0.327148 8.96943 0.327148 10.3691C0.327148 11.7688 1.47826 12.9076 2.89325 12.9076C4.08943 12.9076 5.09404 12.0927 5.37717 10.9954H7.96251V14.9518H11.6887V20.3562H8.31528C8.03228 19.259 7.02754 18.444 5.83136 18.444C4.41637 18.444 3.26526 19.5828 3.26526 20.9825C3.26526 22.3822 4.41637 23.5209 5.83136 23.5209C7.02754 23.5209 8.03215 22.706 8.31528 21.6087H11.6887V27.1067H7.96251V31.0631H5.37717C5.09417 29.9658 4.08943 29.1509 2.89325 29.1509C1.47826 29.1509 0.327148 30.2896 0.327148 31.6894C0.327148 33.0891 1.47826 34.2278 2.89325 34.2278C4.08943 34.2278 5.09404 33.4129 5.37717 32.3157H9.22872V28.3593H11.7689C12.2348 31.1705 14.7068 33.3227 17.6786 33.3227H18.4073V39.1202H24.7017C24.9845 40.2175 25.9891 41.0324 27.1853 41.0324C28.6004 41.0324 29.7517 39.8937 29.7517 38.4939C29.7517 37.0942 28.6004 35.9555 27.1853 35.9555C25.9894 35.9555 24.9845 36.7704 24.7017 37.8676H19.6735V33.3227H30.6487C33.6203 33.3227 36.0923 31.1705 36.5583 28.3593H39.1416V32.3157H42.9501C43.233 33.4129 44.2379 34.2278 45.4338 34.2278C46.8489 34.2278 47.9999 33.0891 47.9999 31.6894C47.9999 30.2897 46.8489 29.1509 45.4338 29.1509C44.2376 29.1509 43.233 29.9658 42.9501 31.0631H40.4078V27.1067H36.6383V21.6087H40.1293C40.4121 22.706 41.417 23.5209 42.6129 23.5209C44.028 23.5209 45.179 22.3822 45.179 20.9825C45.179 19.5828 44.028 18.444 42.6129 18.444C41.417 18.444 40.4121 19.259 40.1293 20.3562H36.6383V14.8856H40.4078V10.9294H42.9501C43.233 12.0266 44.2379 12.8415 45.4338 12.8415C46.8489 12.8415 47.9999 11.7028 47.9999 10.3031C47.9999 8.90342 46.8489 7.76461 45.4338 7.76461C44.2379 7.76461 43.233 8.57964 42.9501 9.67685H39.1416V13.6331H36.5632C36.1089 10.8084 33.6299 8.64227 30.6487 8.64227H29.7044V2.74483H23.5046C23.2215 1.64761 22.2169 0.832714 21.0207 0.832714C19.6057 0.83284 18.4546 1.97152 18.4546 3.37122ZM2.89325 11.6551C2.17645 11.6551 1.59336 11.0783 1.59336 10.3691C1.59336 9.6602 2.17645 9.08328 2.89325 9.08328C3.61005 9.08328 4.19326 9.66007 4.19326 10.3691C4.19314 11.0782 3.61005 11.6551 2.89325 11.6551ZM5.83136 22.2684C5.11456 22.2684 4.53147 21.6917 4.53147 20.9826C4.53147 20.2735 5.11456 19.6966 5.83136 19.6966C6.54816 19.6966 7.13137 20.2734 7.13137 20.9826C7.13137 21.6918 6.54816 22.2684 5.83136 22.2684ZM2.89325 32.9752C2.17645 32.9752 1.59336 32.3984 1.59336 31.6894C1.59336 30.9803 2.17645 30.4034 2.89325 30.4034C3.61005 30.4034 4.19326 30.9802 4.19326 31.6894C4.19314 32.3984 3.61005 32.9752 2.89325 32.9752ZM27.1853 37.208C27.9023 37.208 28.4855 37.7848 28.4855 38.4939C28.4855 39.203 27.9024 39.7799 27.1853 39.7799C26.4687 39.7799 25.8854 39.2031 25.8854 38.4939C25.8856 37.7848 26.4687 37.208 27.1853 37.208ZM45.4338 30.4034C46.1505 30.4034 46.7337 30.9802 46.7337 31.6894C46.7337 32.3984 46.1506 32.9752 45.4338 32.9752C44.717 32.9752 44.1339 32.3984 44.1339 31.6894C44.134 30.9803 44.7171 30.4034 45.4338 30.4034ZM42.6131 19.6966C43.3297 19.6966 43.9129 20.2734 43.9129 20.9826C43.9129 21.6918 43.3299 22.2684 42.6131 22.2684C41.8963 22.2684 41.3132 21.6917 41.3132 20.9826C41.3132 20.2735 41.8964 19.6966 42.6131 19.6966ZM45.4338 9.01727C46.1505 9.01727 46.7337 9.59406 46.7337 10.3032C46.7337 11.0122 46.1506 11.5891 45.4338 11.5891C44.717 11.5891 44.1339 11.0123 44.1339 10.3032C44.134 9.59419 44.7171 9.01727 45.4338 9.01727ZM30.6487 9.89492C33.2533 9.89492 35.3722 11.9909 35.3722 14.5675V27.3976C35.3722 29.974 33.2534 32.0702 30.6487 32.0702H17.6785C15.0739 32.0702 12.9548 29.974 12.9548 27.3976V14.5675C12.9548 11.991 15.0738 9.89492 17.6785 9.89492H30.6487ZM22.3206 3.37122C22.3206 4.08028 21.7375 4.6572 21.0207 4.6572C20.3039 4.6572 19.7208 4.08041 19.7208 3.37122C19.7208 2.66229 20.3039 2.08537 21.0207 2.08537C21.7375 2.08537 22.3206 2.66229 22.3206 3.37122Z" fill="url(#paint0_linear_60_765)"/>
</g>
<defs>
<linearGradient id="paint0_linear_60_765" x1="0.946275" y1="40.4614" x2="32.7776" y2="-8.96973" gradientUnits="userSpaceOnUse">
<stop stop-color="#189DF8"/>
<stop offset="1" stop-color="#253E7F"/>
</linearGradient>
<clipPath id="clip0_60_765">
<rect width="41.7778" height="48" fill="white" transform="matrix(0 -1 1 0 0 41.7778)"/>
</clipPath>
</defs>
</svg>
