<svg width="29" height="26" viewBox="0 0 29 26" fill="none" xmlns="http://www.w3.org/2000/svg">
<path d="M19.1327 25.03C19.1327 24.9639 19.1549 24.8979 19.1327 24.8318C19.0883 24.7658 19.0661 24.7217 19.0217 24.6777C18.9107 24.5456 18.7996 24.4355 18.6664 24.3033L17.3563 22.9822L18.3777 21.9472L18.9329 21.3527C19.0217 21.2646 19.1327 21.0885 19.1327 20.9563V20.8683C19.1327 20.6701 19.0439 20.56 18.844 20.5159L18.8884 20.538H18.733C18.5998 20.538 18.2223 20.8903 18.1335 21.0004C17.8004 21.3307 17.5784 21.639 17.1343 21.9692V19.3489C17.1343 19.1067 17.0011 18.9966 16.7568 18.9966H16.6902C16.4459 18.9966 16.2461 19.1067 16.2461 19.3489V25.052C16.2461 25.2942 16.4459 25.3823 16.6902 25.3823H16.7568C17.0011 25.3823 17.1343 25.2722 17.1343 25.052V24.0391L17.8004 24.6777C18.0003 24.8759 18.2001 25.008 18.3777 25.1841C18.4666 25.2722 18.6442 25.3823 18.7774 25.3823H18.844C19.0661 25.3823 19.1327 25.2722 19.1771 25.096L19.1327 25.1181V25.03ZM27.8147 20.538H27.7259C27.2374 20.538 26.7933 20.6701 26.3936 20.9563C25.7275 21.4408 25.35 22.0793 25.35 22.9161V25.074C25.35 25.3162 25.4388 25.3823 25.6831 25.3823H25.7497C25.9939 25.3823 26.2382 25.2942 26.2382 25.074V23.0482C26.2382 22.6078 26.327 22.1894 26.6601 21.8591C26.9265 21.5949 27.2596 21.3747 27.6371 21.3747C27.9257 21.3747 28.2588 21.3087 28.2588 20.9563C28.2588 20.6921 28.0589 20.538 27.8147 20.538ZM24.3952 21.639C24.1509 21.2426 23.8179 20.9343 23.396 20.7361C22.6188 20.3618 21.7973 20.3178 21.0423 20.7582L20.9313 20.8242C20.6204 21.0004 20.354 21.2206 20.1541 21.5068C19.5768 22.3436 19.5102 23.2904 20.0209 24.1712L20.0653 24.2593C20.2873 24.6336 20.576 24.9419 20.9535 25.1401C21.7528 25.5805 22.6188 25.6245 23.4182 25.1841L23.4848 25.1401C23.7068 25.008 23.7513 24.7878 23.6402 24.5676C23.5958 24.4795 23.507 24.4134 23.4182 24.3694H23.3738C23.2183 24.3474 22.7965 24.5235 22.641 24.5896C22.3302 24.6336 21.9749 24.6557 21.664 24.5456L23.3516 23.0923C23.5958 22.8721 23.8623 22.6298 24.1287 22.4317C24.3508 22.2555 24.5728 22.0133 24.3952 21.705V21.639ZM22.8631 22.4317L20.9757 24.0391C20.9091 23.973 20.8647 23.885 20.8202 23.8189C20.687 23.5987 20.5982 23.3345 20.5982 23.0702C20.576 22.4096 20.8202 21.8591 21.4198 21.5289C21.8639 21.2646 22.3524 21.2206 22.8409 21.3967C23.0851 21.4848 23.3738 21.639 23.5292 21.8591C23.3072 22.0573 23.0629 22.2335 22.8631 22.4317ZM4.92176 18.9966H4.85514C4.61089 18.9966 4.47766 19.0847 4.47766 19.3269V21.1105C4.03357 20.7141 3.50066 20.56 2.87893 20.56H2.7013C2.27941 20.56 1.87972 20.626 1.50225 20.8462C0.702881 21.3087 0.258789 21.9913 0.258789 22.9161V23.0923C0.258789 23.5106 0.369812 23.8629 0.591858 24.2373C1.05815 25.03 1.79091 25.4263 2.7013 25.4263H2.87893C3.30082 25.4263 3.74491 25.3603 4.10018 25.1621C4.89955 24.6997 5.36585 24.0171 5.36585 23.1143V19.3709C5.36585 19.0847 5.16601 18.9966 4.92176 18.9966ZM4.23341 23.7969C3.90034 24.3474 3.41184 24.6557 2.76791 24.6557C2.50145 24.6557 2.235 24.5896 2.01295 24.4575C1.43563 24.1492 1.10256 23.6427 1.10256 22.9822C1.10256 22.7399 1.14697 22.5197 1.258 22.2995C1.56886 21.661 2.07957 21.3087 2.79011 21.3087C3.14539 21.3087 3.45625 21.4188 3.72271 21.6169C4.189 21.9472 4.45546 22.3876 4.45546 22.9601C4.47766 23.2684 4.38884 23.5326 4.23341 23.7969ZM8.38567 20.538H8.25245C7.83056 20.538 7.40867 20.604 7.0534 20.8242C6.25403 21.2866 5.80994 21.9692 5.80994 22.8941V23.0702C5.80994 23.4886 5.92096 23.8409 6.14301 24.2153C6.6093 25.008 7.34206 25.4043 8.27465 25.4043H8.45229C8.87417 25.4043 9.29606 25.3383 9.67354 25.1401C10.4729 24.6777 10.9392 23.9951 10.9392 23.0923V22.9161C10.9392 22.5197 10.806 22.1894 10.6283 21.8591C10.1398 20.9784 9.36267 20.538 8.38567 20.538ZM9.80677 23.7969C9.4737 24.3254 9.0074 24.6557 8.36347 24.6557C8.07481 24.6557 7.78615 24.5896 7.51969 24.4355C6.96458 24.1052 6.65371 23.6427 6.65371 23.0042C6.65371 22.762 6.69812 22.5418 6.80915 22.3216C7.12001 21.683 7.63072 21.3307 8.34126 21.3307C8.67433 21.3307 8.96299 21.4188 9.22945 21.5949C9.71795 21.9252 10.0066 22.3876 10.0066 22.9822C10.0288 23.2464 9.9622 23.5326 9.80677 23.7969ZM15.2469 20.8462L15.2247 20.8683C14.8472 20.626 14.4253 20.538 13.9812 20.538H13.8036C13.3817 20.538 12.9598 20.604 12.6045 20.8242C11.8052 21.2866 11.3611 21.9692 11.3611 22.8721V23.0482C11.3611 23.2684 11.4055 23.4666 11.4499 23.6868C11.8052 24.8979 12.76 25.5805 14.0478 25.4924C14.4031 25.4704 15.3579 25.3603 15.3579 24.8318V24.7437C15.3579 24.5456 15.2025 24.3694 15.0248 24.3254L15.0026 24.2813H14.8472L14.8028 24.3474C14.603 24.4355 14.2699 24.6116 14.0478 24.6116C13.7814 24.6116 13.4927 24.6116 13.2485 24.4795C12.6045 24.1712 12.2271 23.6648 12.2271 22.9601C12.2271 22.7179 12.2715 22.4977 12.3825 22.2775C12.6934 21.661 13.2041 21.2646 13.9146 21.2866C14.0478 21.2866 14.2921 21.3527 14.4253 21.4188C14.5363 21.4628 14.825 21.639 14.9582 21.639H15.0026L15.0248 21.5949C15.2247 21.5509 15.3801 21.3967 15.3801 21.1986V21.1105C15.3801 21.0224 15.3357 20.9563 15.2913 20.8903L15.2469 20.8462ZM1.32461 13.9761L1.34681 14.0201C3.10098 16.9708 6.16521 18.2039 9.51811 18.2039C16.0019 18.2039 21.3532 15.3193 23.7957 9.26386C25.4388 9.35194 27.1264 8.8675 27.9257 7.3041L28.1256 6.90774L27.7259 6.68755C26.7711 6.13705 25.5054 6.07099 24.4396 6.37927C24.3064 5.23424 23.5514 4.24336 22.6632 3.53872L22.308 3.25247L22.0193 3.60478C21.4198 4.2874 21.2421 5.43242 21.331 6.31321C21.3976 6.95178 21.5974 7.61238 21.9971 8.14085C21.6862 8.31701 21.3532 8.55922 21.0423 8.66932C20.4206 8.88952 19.7322 9.10972 19.0661 9.10972H17.5784V6.00493H14.6918V0.5H11.3611V3.14237H5.80994V6.00493H2.92334V9.0877H0.436426L0.392017 9.41799C0.280994 10.8273 0.45863 12.1925 1.05815 13.4916L1.32461 13.9761ZM14.6918 6.66553H17.1343V9.0877H14.6918V6.66553ZM11.8052 0.940395H14.2477V3.36257H11.8052V0.940395ZM11.8052 3.80296H14.2477V6.22513H11.8052V3.80296ZM11.8052 6.66553H14.2477V9.0877H11.8052V6.66553ZM8.91858 3.80296H11.3611V6.22513H8.91858V3.80296ZM8.91858 6.66553H11.3611V9.0877H8.91858V6.66553ZM9.16283 13.5357C9.16283 13.91 8.85197 14.2183 8.47449 14.2183C8.09701 14.2183 7.78615 13.91 7.78615 13.5357C7.78615 13.1613 8.09701 12.8531 8.47449 12.8531C8.85197 12.8751 9.16283 13.1613 9.16283 13.5357ZM6.25403 3.80296H8.47449V6.22513H6.25403V3.80296ZM6.25403 6.66553H8.47449V9.0877H6.25403V6.66553ZM3.36743 6.66553H5.80994V9.0877H3.36743V6.66553ZM3.90034 15.033C4.25562 15.033 4.61089 15.033 4.94396 15.011C5.80994 14.967 6.5649 14.8569 7.18662 14.6807C7.69733 15.8478 8.62992 16.9267 10.2953 17.7194L9.51811 17.7415C6.00978 17.7194 4.12239 16.5524 2.56807 15.011C3.03436 15.033 3.47846 15.033 3.90034 15.033ZM8.47449 14.0201C8.74095 14.0201 8.96299 13.7999 8.96299 13.5357C8.96299 13.4696 8.94079 13.4036 8.91858 13.3595C8.87417 13.4256 8.82977 13.4696 8.74095 13.4696C8.62992 13.4696 8.54111 13.3815 8.54111 13.2714C8.54111 13.2054 8.58551 13.1393 8.62992 13.0953C8.60772 13.0733 8.54111 13.0513 8.47449 13.0513C8.20804 13.0513 7.98599 13.2714 7.98599 13.5357C8.00819 13.7999 8.20804 14.0201 8.47449 14.0201Z" fill="#019BC6"/>
</svg>
