<svg width="50" height="16" viewBox="0 0 50 16" fill="none" xmlns="http://www.w3.org/2000/svg">
<path d="M6.18197 6.81045L9.998 8.52504L13.8474 5.20252C13.9057 4.92359 13.9307 4.66107 13.9307 4.36573C13.9307 2.02766 11.9977 0.12439 9.62306 0.12439C8.1983 0.12439 6.88186 0.813505 6.08199 1.97023L5.44043 5.24353L6.18197 6.81045Z" fill="#FED10A"/>
<path d="M2.23273 10.7893C2.17441 11.0682 2.14941 11.3471 2.14941 11.6343C2.14941 13.9805 4.09076 15.8756 6.46536 15.8756C7.89845 15.8756 9.23156 15.1783 10.0314 14.0216L10.6647 10.7647L9.8148 9.16494L5.98211 7.44215L2.23273 10.7893Z" fill="#24BBB1"/>
<path d="M2.20799 4.28369L4.82422 4.89077L5.39912 1.97023C5.04918 1.69951 4.59925 1.56004 4.14933 1.56004C3.01618 1.56004 2.08301 2.47066 2.08301 3.59457C2.08301 3.83248 2.133 4.07039 2.20799 4.28369Z" fill="#EF5098"/>
<path d="M1.983 4.89899C0.81653 5.27636 0 6.37566 0 7.58982C0 8.77116 0.741543 9.82124 1.85802 10.2478L5.52408 6.98274L4.85752 5.5717L1.983 4.89899Z" fill="#17A8E0"/>
<path d="M10.6982 14.0215C11.0565 14.2923 11.4981 14.4399 11.9397 14.4399C13.0728 14.4399 14.006 13.5293 14.006 12.4054C14.006 12.1593 13.9644 11.9214 13.881 11.6999L11.2731 11.101L10.6982 14.0215Z" fill="#93C83E"/>
<path d="M11.2318 10.4283L14.1064 11.0846C15.2812 10.7072 16.0894 9.60789 16.0894 8.38553C16.0894 7.21239 15.3478 6.15411 14.2313 5.73572L10.4736 8.98441L11.2318 10.4283Z" fill="#0779A1"/>
<path d="M23.7042 11.4538L24.0542 11.4209L24.0792 12.1183C23.1626 12.2413 22.3878 12.3069 21.7379 12.3069C20.8797 12.3069 20.2631 12.0608 19.9049 11.5686C19.5466 11.0764 19.3633 10.3052 19.3633 9.27155C19.3633 7.196 20.2048 6.16233 21.8795 6.16233C22.6877 6.16233 23.296 6.38383 23.6959 6.82683C24.0958 7.26984 24.2958 7.97536 24.2958 8.927L24.2458 9.5997H20.2798C20.2798 10.256 20.3964 10.74 20.6381 11.0518C20.8797 11.3635 21.2963 11.5194 21.8879 11.5194C22.4794 11.5276 23.0877 11.503 23.7042 11.4538ZM23.3793 8.89418C23.3793 8.17225 23.2626 7.65541 23.0293 7.35187C22.796 7.05654 22.4128 6.90067 21.8795 6.90067C21.3463 6.90067 20.9463 7.05654 20.6797 7.36828C20.4131 7.68002 20.2715 8.18866 20.2631 8.88598H23.3793V8.89418ZM25.5372 12.1921V3.7012H26.4371V12.1921H25.5372ZM32.1111 8.0656V10.9779C32.1111 11.2733 32.8527 11.3307 32.8527 11.3307L32.811 12.1183C32.1778 12.1183 31.6529 12.1675 31.3363 11.8721C30.6114 12.1839 29.9032 12.3151 29.1783 12.3151C28.6284 12.3151 28.2035 12.1593 27.9202 11.8475C27.6369 11.544 27.4869 11.101 27.4869 10.5185C27.4869 9.94426 27.6369 9.51767 27.9285 9.24694C28.2201 8.97622 28.6867 8.80394 29.3199 8.74651L31.203 8.57423V8.0656C31.203 7.66362 31.1113 7.37649 30.9363 7.20421C30.7614 7.03193 30.5197 6.94169 30.2115 6.94169H27.8452V6.15413H30.1531C30.828 6.15413 31.3279 6.31 31.6362 6.62174C31.9612 6.92528 32.1111 7.4093 32.1111 8.0656ZM28.4118 10.4775C28.4118 11.1994 28.7117 11.5686 29.3283 11.5686C29.8699 11.5686 30.4114 11.4784 30.9363 11.2979L31.2113 11.2076V9.25515L29.4366 9.41922C29.0783 9.45204 28.82 9.55048 28.6534 9.72276C28.4868 9.89504 28.4118 10.1494 28.4118 10.4775ZM35.6272 6.94989C34.7607 6.94989 34.3191 7.24523 34.3191 7.8523C34.3191 8.13123 34.4191 8.31992 34.6191 8.44297C34.819 8.55783 35.2773 8.67268 35.9938 8.79573C36.7104 8.91879 37.2103 9.08287 37.5019 9.31257C37.7935 9.53407 37.9435 9.94426 37.9435 10.5513C37.9435 11.1584 37.7435 11.6014 37.3436 11.8886C36.9437 12.1757 36.3688 12.3151 35.6022 12.3151C35.1106 12.3151 33.4526 12.1347 33.4526 12.1347L33.5026 11.3635C34.4524 11.4538 35.144 11.5194 35.6106 11.5194C36.0772 11.5194 36.4271 11.4455 36.6687 11.2979C36.9103 11.1502 37.0353 10.9041 37.0353 10.5677C37.0353 10.2314 36.9353 9.99348 36.727 9.87043C36.5187 9.74737 36.0605 9.63252 35.3523 9.52587C34.6441 9.41922 34.1441 9.25515 33.8525 9.04185C33.5609 8.82855 33.4109 8.43477 33.4109 7.86051C33.4109 7.28624 33.6192 6.85965 34.0275 6.58072C34.4441 6.30179 34.9523 6.17053 35.5689 6.17053C36.0522 6.17053 37.7519 6.29359 37.7519 6.29359V7.07295C36.8687 7.01552 36.1355 6.94989 35.6272 6.94989ZM42.2928 7.04834H40.3848V9.87863C40.3848 10.5513 40.4348 11.0025 40.5347 11.2158C40.6347 11.4291 40.8763 11.5358 41.2513 11.5358L42.3178 11.462L42.3761 12.1921C41.8345 12.2823 41.4346 12.3233 41.1513 12.3233C40.5264 12.3233 40.1015 12.1675 39.8515 11.8721C39.6099 11.5768 39.4932 11.0025 39.4932 10.1576V7.04834H38.6351V6.27718H39.4932V4.46415H40.3848V6.26898H42.2928V7.04834ZM43.5426 4.93997V3.9145H44.4424V4.94817L43.5426 4.93997ZM43.5426 12.1921V6.27718H44.4424V12.1921H43.5426ZM48.3501 6.15413C48.6167 6.15413 49.0666 6.20335 49.6999 6.30179L49.9832 6.33461L49.9498 7.05654C49.3083 6.98271 48.8333 6.94989 48.5334 6.94989C47.8585 6.94989 47.3919 7.10576 47.1503 7.42571C46.9087 7.74566 46.7837 8.33632 46.7837 9.20592C46.7837 10.0673 46.892 10.6744 47.1253 11.0107C47.3503 11.3553 47.8252 11.5194 48.5501 11.5194L49.9665 11.4127L49.9998 12.1429C49.2583 12.2495 48.6917 12.3069 48.3251 12.3069C47.3919 12.3069 46.742 12.069 46.3838 11.5932C46.0338 11.1256 45.8422 10.3216 45.8422 9.19772C45.8422 8.0738 46.0338 7.28624 46.4171 6.83504C46.8087 6.39204 47.4502 6.15413 48.3501 6.15413Z" fill="black"/>
</svg>
