<svg width="87" height="28" viewBox="0 0 87 28" fill="none" xmlns="http://www.w3.org/2000/svg">
<g clip-path="url(#clip0_1311_7164)">
<path d="M10.6527 11.9184L17.228 14.9189L23.8608 9.10449C23.9613 8.61637 24.0043 8.15696 24.0043 7.64012C24.0043 3.5485 20.6736 0.217773 16.582 0.217773C14.127 0.217773 11.8587 1.42373 10.4805 3.448L9.375 9.17628L10.6527 11.9184Z" fill="#FED10A"/>
<path d="M3.84767 18.8814C3.74717 19.3695 3.7041 19.8577 3.7041 20.3601C3.7041 24.4661 7.04918 27.7825 11.1408 27.7825C13.6101 27.7825 15.9072 26.5622 17.2854 24.5379L18.3765 18.8383L16.9121 16.0388L10.3081 13.0239L3.84767 18.8814Z" fill="#24BBB1"/>
<path d="M3.8047 7.49661L8.31267 8.55899L9.30327 3.44805C8.7003 2.97429 7.92504 2.73022 7.14979 2.73022C5.19729 2.73022 3.58936 4.3238 3.58936 6.29065C3.58936 6.707 3.67549 7.12333 3.8047 7.49661Z" fill="#EF5098"/>
<path d="M3.41686 8.57324C1.40694 9.23364 0 11.1574 0 13.2822C0 15.3495 1.27773 17.1872 3.20152 17.9337L9.51841 12.2198L8.36988 9.75048L3.41686 8.57324Z" fill="#17A8E0"/>
<path d="M18.4341 24.5377C19.0514 25.0115 19.8123 25.2699 20.5732 25.2699C22.5257 25.2699 24.1336 23.6763 24.1336 21.7095C24.1336 21.2788 24.0619 20.8624 23.9183 20.4748L19.4247 19.4268L18.4341 24.5377Z" fill="#93C83E"/>
<path d="M19.3528 18.2496L24.3059 19.3981C26.3301 18.7377 27.7227 16.8139 27.7227 14.6748C27.7227 12.6218 26.445 10.7698 24.5212 10.0376L18.0464 15.7228L19.3528 18.2496Z" fill="#0779A1"/>
<path d="M40.8445 20.0443L41.4475 19.9868L41.4906 21.2071C39.9113 21.4225 38.5762 21.5373 37.4564 21.5373C35.9776 21.5373 34.9153 21.1066 34.2979 20.2453C33.6806 19.3839 33.3647 18.0343 33.3647 16.2254C33.3647 12.5932 34.8148 10.7843 37.7004 10.7843C39.093 10.7843 40.141 11.1719 40.8302 11.9472C41.5193 12.7224 41.8638 13.9571 41.8638 15.6224L41.7777 16.7997H34.944C34.944 17.9482 35.145 18.7952 35.5613 19.3408C35.9776 19.8863 36.6955 20.1591 37.7148 20.1591C38.7341 20.1735 39.7821 20.1304 40.8445 20.0443ZM40.2846 15.565C40.2846 14.3016 40.0836 13.3972 39.6816 12.866C39.2797 12.3491 38.6193 12.0764 37.7004 12.0764C36.7816 12.0764 36.0925 12.3491 35.6331 12.8947C35.1737 13.4402 34.9296 14.3303 34.9153 15.5507H40.2846V15.565ZM44.003 21.3363V6.47729H45.5535V21.3363H44.003ZM55.3303 14.115V19.2116C55.3303 19.7284 56.608 19.8289 56.608 19.8289L56.5363 21.2071C55.4452 21.2071 54.5407 21.2933 53.9951 20.7764C52.7461 21.322 51.5258 21.5517 50.2768 21.5517C49.3293 21.5517 48.5971 21.2789 48.1089 20.7334C47.6208 20.2022 47.3624 19.4269 47.3624 18.4076C47.3624 17.4026 47.6208 16.6561 48.1233 16.1823C48.6258 15.7086 49.4298 15.4071 50.5209 15.3066L53.7654 15.0051V14.115C53.7654 13.4115 53.6075 12.909 53.306 12.6076C53.0045 12.3061 52.5882 12.1481 52.057 12.1481H47.9797V10.7699H51.9565C53.1194 10.7699 53.9808 11.0427 54.512 11.5882C55.0719 12.1194 55.3303 12.9665 55.3303 14.115ZM48.956 18.3358C48.956 19.5992 49.4728 20.2453 50.5352 20.2453C51.4684 20.2453 52.4016 20.0873 53.306 19.7715L53.7798 19.6136V16.1967L50.7218 16.4838C50.1045 16.5413 49.6595 16.7135 49.3723 17.015C49.0852 17.3165 48.956 17.7616 48.956 18.3358ZM61.3888 12.1625C59.8957 12.1625 59.1348 12.6793 59.1348 13.7417C59.1348 14.2298 59.3071 14.56 59.6516 14.7754C59.9962 14.9764 60.7858 15.1774 62.0205 15.3927C63.2551 15.6081 64.1165 15.8952 64.619 16.2972C65.1215 16.6848 65.3799 17.4026 65.3799 18.465C65.3799 19.5274 65.0353 20.3027 64.3462 20.8052C63.6571 21.3076 62.6665 21.5517 61.3457 21.5517C60.4987 21.5517 57.6417 21.2359 57.6417 21.2359L57.7278 19.8863C59.3645 20.0443 60.5561 20.1591 61.3601 20.1591C62.164 20.1591 62.767 20.0299 63.1833 19.7715C63.5997 19.5131 63.815 19.0824 63.815 18.4937C63.815 17.9051 63.6428 17.4888 63.2838 17.2734C62.9249 17.0581 62.1353 16.8571 60.915 16.6705C59.6947 16.4838 58.8333 16.1967 58.3308 15.8234C57.8283 15.4502 57.5699 14.761 57.5699 13.7561C57.5699 12.7511 57.9288 12.0046 58.6323 11.5165C59.3501 11.0283 60.2259 10.7986 61.2883 10.7986C62.121 10.7986 65.0497 11.014 65.0497 11.014V12.3778C63.5279 12.2774 62.2645 12.1625 61.3888 12.1625ZM72.874 12.3348H69.5864V17.2878C69.5864 18.465 69.6725 19.2546 69.8448 19.6279C70.0171 20.0012 70.4334 20.1878 71.0795 20.1878L72.9171 20.0586L73.0176 21.3363C72.0844 21.4943 71.3953 21.5661 70.9072 21.5661C69.8304 21.5661 69.0983 21.2933 68.6676 20.7764C68.2512 20.2596 68.0502 19.2546 68.0502 17.7759V12.3348H66.5715V10.9853H68.0502V7.81246H69.5864V10.9709H72.874V12.3348ZM75.0275 8.64514V6.85057H76.578V8.6595L75.0275 8.64514ZM75.0275 21.3363V10.9853H76.578V21.3363H75.0275ZM83.3113 10.7699C83.7707 10.7699 84.5459 10.8561 85.637 11.0283L86.1251 11.0858L86.0677 12.3491C84.9623 12.2199 84.1439 12.1625 83.6271 12.1625C82.4642 12.1625 81.6603 12.4353 81.2439 12.9952C80.8276 13.5551 80.6122 14.5888 80.6122 16.1106C80.6122 17.618 80.7989 18.6804 81.2008 19.269C81.5885 19.872 82.4068 20.1591 83.6558 20.1591L86.0964 19.9725L86.1539 21.2502C84.8761 21.4368 83.8999 21.5373 83.2682 21.5373C81.6602 21.5373 80.5404 21.121 79.9231 20.2883C79.3201 19.47 78.9899 18.063 78.9899 16.0962C78.9899 14.1293 79.3201 12.7511 79.9805 11.9615C80.6553 11.1863 81.7607 10.7699 83.3113 10.7699Z" fill="black"/>
</g>
<defs>
<clipPath id="clip0_1311_7164">
<rect width="86.1538" height="28" fill="white"/>
</clipPath>
</defs>
</svg>
