<svg width="65" height="64" viewBox="0 0 65 64" fill="none" xmlns="http://www.w3.org/2000/svg">
<path d="M15.3223 3C8.66316 3 3.23926 8.42391 3.23926 15.083C3.23926 20.9148 7.3994 25.7999 12.9062 26.9232V44.083C12.9062 49.4163 17.2925 53.75 22.5723 53.75H22.6606C23.2506 57.8385 26.7841 61 31.0312 61C35.6884 61 39.4893 57.1992 39.4893 52.542C39.4893 47.8848 35.6884 44.083 31.0312 44.083C26.7845 44.083 23.2511 47.2445 22.6606 51.333H22.5723C18.6133 51.333 15.3223 48.0923 15.3223 44.083V31.8999C16.1043 32.6978 17.0378 33.3314 18.068 33.7637C19.0983 34.1959 20.2044 34.418 21.3217 34.417H22.6606C23.2511 38.5055 26.7841 41.667 31.0312 41.667C35.2779 41.667 38.8109 38.5055 39.4004 34.417H44.4106C45.0011 38.5055 48.5341 41.667 52.7812 41.667C57.4384 41.667 61.2393 37.8652 61.2393 33.208C61.2393 28.5508 57.4384 24.75 52.7812 24.75C48.5341 24.75 45.0006 27.9115 44.4106 32H39.4009C38.8114 27.9115 35.2784 24.75 31.0312 24.75C26.7841 24.75 23.2506 27.9115 22.6606 32H21.3217C18.4067 32 15.978 29.9206 15.4365 27.1642C22.043 27.1026 27.4062 21.7041 27.4062 15.083C27.4062 8.42391 21.9814 3 15.3223 3ZM15.3223 5.41697C16.5924 5.41446 17.8505 5.66276 19.0244 6.14763C20.1984 6.63249 21.265 7.34438 22.1631 8.24245C23.0613 9.14051 23.7733 10.2071 24.2582 11.381C24.7432 12.5548 24.9916 13.8129 24.9893 15.083C24.9916 16.3532 24.7432 17.6113 24.2583 18.7852C23.7733 19.9592 23.0613 21.0258 22.1632 21.9239C21.2651 22.8221 20.1984 23.534 19.0245 24.019C17.8506 24.504 16.5924 24.7524 15.3223 24.75C14.0522 24.7524 12.7941 24.504 11.6202 24.019C10.4463 23.534 9.37977 22.822 8.4817 21.9239C7.58364 21.0257 6.87175 19.9591 6.38689 18.7852C5.90202 17.6113 5.65372 16.3531 5.65623 15.083C5.65372 13.813 5.90203 12.5549 6.3869 11.381C6.87178 10.2072 7.58368 9.14058 8.48176 8.2425C9.37983 7.34442 10.4464 6.63252 11.6203 6.14765C12.7942 5.66277 14.0522 5.41446 15.3223 5.41697ZM12.9592 8.83398C11.6991 8.84033 10.4893 9.85261 10.4893 11.2315V18.9541C10.4893 20.7861 12.623 21.9732 14.18 21.0081L20.3579 17.1769C21.8337 16.2616 21.8414 14.0041 20.3724 13.0784L14.194 9.18606C13.8247 8.95266 13.3961 8.83044 12.9592 8.83398ZM12.9062 11.2315L19.0846 15.1229L12.9062 18.9541V11.2315ZM31.0312 27.167C31.8253 27.1645 32.6119 27.319 33.346 27.6217C34.0801 27.9244 34.747 28.3693 35.3085 28.9308C35.87 29.4922 36.3149 30.1592 36.6176 30.8932C36.9203 31.6273 37.0748 32.414 37.0723 33.208C37.0747 34.0021 36.9202 34.7888 36.6175 35.5229C36.3147 36.257 35.8699 36.924 35.3084 37.4855C34.747 38.047 34.0801 38.492 33.346 38.7948C32.612 39.0976 31.8253 39.2523 31.0312 39.25C30.2371 39.2524 29.4504 39.0977 28.7162 38.795C27.9821 38.4922 27.3151 38.0472 26.7536 37.4857C26.192 36.9242 25.7471 36.2571 25.4443 35.523C25.1415 34.7889 24.9869 34.0021 24.9893 33.208C24.9869 32.414 25.1416 31.6273 25.4444 30.8932C25.7473 30.1592 26.1922 29.4923 26.7538 28.9308C27.3153 28.3694 27.9823 27.9245 28.7164 27.6218C29.4505 27.3191 30.2372 27.1645 31.0312 27.167ZM52.7812 27.167C53.5753 27.1645 54.3619 27.319 55.096 27.6217C55.8301 27.9244 56.497 28.3693 57.0585 28.9308C57.62 29.4922 58.0649 30.1592 58.3676 30.8932C58.6703 31.6273 58.8248 32.414 58.8223 33.208C58.8247 34.0021 58.6702 34.7888 58.3675 35.5229C58.0647 36.257 57.6199 36.924 57.0584 37.4855C56.497 38.047 55.8301 38.492 55.096 38.7948C54.362 39.0976 53.5753 39.2523 52.7812 39.25C51.9871 39.2524 51.2004 39.0977 50.4662 38.795C49.7321 38.4922 49.0651 38.0472 48.5036 37.4857C47.942 36.9242 47.4971 36.2571 47.1943 35.523C46.8915 34.7889 46.7369 34.0021 46.7393 33.208C46.7369 32.414 46.8916 31.6273 47.1944 30.8932C47.4973 30.1592 47.9422 29.4923 48.5038 28.9308C49.0653 28.3694 49.7323 27.9245 50.4664 27.6218C51.2005 27.3191 51.9872 27.1645 52.7812 27.167ZM33.4926 30.3166C33.3338 30.3165 33.1766 30.3476 33.0299 30.4083C32.8832 30.4689 32.7499 30.5579 32.6376 30.6701L29.7829 33.522L28.8345 32.5777C28.6075 32.3516 28.3 32.2248 27.9795 32.2253C27.6591 32.2258 27.352 32.3536 27.1257 32.5805C27.0137 32.6929 26.925 32.8263 26.8646 32.9731C26.8041 33.1199 26.7732 33.2771 26.7735 33.4358C26.7739 33.5945 26.8055 33.7516 26.8665 33.8981C26.9276 34.0446 27.0169 34.1777 27.1294 34.2896L28.9301 36.084C29.1567 36.3098 29.4635 36.4365 29.7834 36.4365C30.1033 36.4364 30.4101 36.3095 30.6366 36.0836L34.3454 32.3797C34.4577 32.2676 34.5468 32.1344 34.6076 31.9878C34.6684 31.8412 34.6998 31.684 34.6999 31.5253C34.6999 31.3666 34.6688 31.2094 34.6081 31.0628C34.5474 30.9161 34.4585 30.7828 34.3463 30.6705C34.1198 30.4443 33.8127 30.3167 33.4926 30.3166ZM55.2426 30.3166C55.0839 30.3165 54.9266 30.3476 54.7799 30.4083C54.6332 30.4689 54.4999 30.5579 54.3876 30.6701L51.5329 33.522L50.5845 32.5777C50.3575 32.3516 50.05 32.2248 49.7295 32.2253C49.4091 32.2258 49.102 32.3536 48.8757 32.5805C48.7637 32.6929 48.675 32.8263 48.6146 32.9731C48.5541 33.1199 48.5232 33.2771 48.5235 33.4358C48.5239 33.5945 48.5555 33.7516 48.6165 33.8981C48.6776 34.0446 48.7669 34.1777 48.8794 34.2896L50.6801 36.084C50.9067 36.3098 51.2135 36.4365 51.5334 36.4365C51.8533 36.4364 52.1601 36.3095 52.3866 36.0836L56.0954 32.3797C56.2077 32.2676 56.2968 32.1344 56.3576 31.9878C56.4184 31.8412 56.4498 31.684 56.4499 31.5253C56.4499 31.3666 56.4188 31.2094 56.3581 31.0628C56.2974 30.9161 56.2085 30.7828 56.0963 30.6705C55.8698 30.4443 55.5627 30.3167 55.2426 30.3166ZM31.0312 46.5C31.8253 46.4977 32.612 46.6524 33.346 46.9552C34.0801 47.258 34.747 47.703 35.3084 48.2645C35.8699 48.826 36.3147 49.493 36.6175 50.2271C36.9202 50.9612 37.0747 51.7479 37.0723 52.542C37.0748 53.336 36.9203 54.1227 36.6176 54.8568C36.3149 55.5908 35.87 56.2578 35.3085 56.8192C34.747 57.3807 34.0801 57.8256 33.346 58.1283C32.6119 58.431 31.8253 58.5855 31.0312 58.583C30.2372 58.5855 29.4505 58.4309 28.7164 58.1282C27.9823 57.8255 27.3153 57.3806 26.7538 56.8192C26.1922 56.2577 25.7473 55.5908 25.4444 54.8568C25.1416 54.1227 24.9869 53.336 24.9893 52.542C24.9869 51.7479 25.1415 50.9611 25.4443 50.227C25.7471 49.4929 26.192 48.8258 26.7536 48.2643C27.3151 47.7028 27.9821 47.2578 28.7162 46.955C29.4504 46.6523 30.2371 46.4976 31.0312 46.5ZM28.6143 50.7295C27.6206 50.7295 26.8018 51.5483 26.8018 52.542C26.8018 53.5366 27.621 54.3545 28.6143 54.3545C29.6075 54.3545 30.4268 53.5366 30.4268 52.542C30.4268 51.5483 29.608 50.7295 28.6143 50.7295ZM33.4473 50.7295C32.4536 50.7295 31.6348 51.5483 31.6348 52.542C31.6348 53.5366 32.454 54.3545 33.4473 54.3545C34.4405 54.3545 35.2598 53.5366 35.2598 52.542C35.2598 51.5483 34.441 50.7295 33.4473 50.7295ZM28.6143 51.9375C28.9541 51.9375 29.2187 52.2026 29.2187 52.542C29.2187 52.8832 28.9546 53.1455 28.6143 53.1455C28.2744 53.1455 28.0098 52.8827 28.0098 52.542C28.0098 52.2021 28.2749 51.9375 28.6143 51.9375ZM33.4473 51.9375C33.7871 51.9375 34.0518 52.2026 34.0518 52.542C34.0518 52.8832 33.7876 53.1455 33.4473 53.1455C33.1074 53.1455 32.8437 52.8827 32.8437 52.542C32.8437 52.2021 33.1079 51.9375 33.4473 51.9375Z" fill="#2088FF"/>
<path d="M52.9311 44C48.7547 44 45.2808 47.1843 44.707 51.2997C44.6678 51.296 44.6285 51.2944 44.5891 51.2947L43.3873 51.3357C43.0728 51.3463 42.7753 51.4841 42.5601 51.719C42.345 51.9539 42.2298 52.2666 42.2399 52.5883C42.2502 52.9102 42.385 53.2146 42.6147 53.4347C42.8444 53.6549 43.1502 53.7727 43.4648 53.7622L44.6665 53.7226C44.6809 53.722 44.6953 53.7211 44.7097 53.7199C45.2914 57.8258 48.761 61 52.9311 61C57.5058 61 61.2393 57.1805 61.2393 52.5005C61.2393 47.8204 57.5058 44 52.9311 44ZM52.9311 46.4288C53.7111 46.4265 54.4838 46.5819 55.2049 46.8862C55.9259 47.1906 56.581 47.6377 57.1325 48.202C57.684 48.7663 58.121 49.4365 58.4183 50.1742C58.7157 50.9119 58.8675 51.7025 58.8651 52.5005C58.8676 53.2984 58.7158 54.0889 58.4184 54.8266C58.1211 55.5643 57.6841 56.2345 57.1326 56.7987C56.5811 57.363 55.9259 57.81 55.2049 58.1142C54.4838 58.4184 53.711 58.5737 52.9311 58.5712C52.1511 58.5736 51.3783 58.4183 50.6573 58.1141C49.9362 57.8099 49.281 57.3628 48.7294 56.7986C48.1778 56.2345 47.7407 55.5642 47.4433 54.8266C47.1458 54.0889 46.9939 53.2984 46.9962 52.5005C46.9938 51.7024 47.1457 50.9118 47.4431 50.1741C47.7406 49.4364 48.1776 48.7661 48.7292 48.2018C49.2808 47.6375 49.936 47.1904 50.6571 46.8861C51.3782 46.5818 52.151 46.4264 52.9311 46.4288Z" fill="#79B8FF"/>
</svg>
