<svg width="33" height="32" viewBox="0 0 33 32" fill="none" xmlns="http://www.w3.org/2000/svg">
<path d="M25.946 12.72L24.9108 9.54157L22.8591 3.2432C22.7538 2.91893 22.2942 2.91893 22.1884 3.2432L20.1368 9.54177H13.3242L11.2725 3.2432C11.167 2.91893 10.7074 2.91893 10.6018 3.2432L8.55018 9.54177L7.51498 12.7202C7.46896 12.8615 7.46897 13.0137 7.51499 13.155C7.56101 13.2963 7.65068 13.4194 7.77116 13.5068L16.7305 20L25.6898 13.5065C25.8103 13.4192 25.8999 13.2961 25.946 13.1548C25.992 13.0135 25.992 12.8613 25.946 12.72Z" fill="#FC6D26"/>
<path d="M16.7305 20L19.9805 9.5H13.4805L16.7305 20Z" fill="#E24329"/>
<path d="M16.9805 20L13.4411 9.5H8.48047L16.9805 20Z" fill="#FC6D26"/>
<path d="M8.57904 9.5L7.51586 12.6911C7.46865 12.8329 7.46867 12.9857 7.51594 13.1275C7.5632 13.2693 7.65527 13.3929 7.77896 13.4806L16.9805 20L8.57904 9.5Z" fill="#FCA326"/>
<path d="M8.48047 9.5H13.4805L11.3317 3.24149C11.2211 2.9195 10.7398 2.9195 10.6293 3.24149L8.48047 9.5Z" fill="#E24329"/>
<path d="M16.9805 20L20.3117 9.5H24.9805L16.9805 20Z" fill="#FC6D26"/>
<path d="M24.9397 9.5L25.9469 12.6911C25.9917 12.8329 25.9916 12.9857 25.9469 13.1275C25.9021 13.2693 25.8149 13.3929 25.6977 13.4806L16.9805 20L24.9397 9.5Z" fill="#FCA326"/>
<path d="M24.9805 9.5H19.9805L22.1293 3.24149C22.2398 2.9195 22.7211 2.9195 22.8317 3.24149L24.9805 9.5Z" fill="#E24329"/>
<path d="M17.0096 21.6237H16.107L16.11 28.3763H19.7606V27.5414H17.0122L17.0092 21.6237H17.0096ZM23.2366 27.1907C23.092 27.3419 22.9184 27.4618 22.7262 27.5434C22.5341 27.6249 22.3274 27.6663 22.1189 27.6649C21.4318 27.6649 21.155 27.3245 21.155 26.8812C21.155 26.2111 21.6163 25.8916 22.6007 25.8916C22.7853 25.8916 23.0826 25.9122 23.2364 25.9431V27.1903L23.2366 27.1907ZM22.3034 23.0979C21.5749 23.0979 20.9063 23.3577 20.385 23.7899L20.7041 24.3452C21.0731 24.1289 21.5242 23.9122 22.1703 23.9122C22.9087 23.9122 23.2368 24.2936 23.2368 24.933V25.2625C23.0933 25.2318 22.7959 25.2111 22.6116 25.2111C21.0321 25.2111 20.2325 25.768 20.2325 26.933C20.2325 27.974 20.8681 28.5 21.832 28.5C22.4813 28.5 23.1035 28.2008 23.3188 27.7165L23.483 28.3763H24.1189V24.9227C24.1189 23.8299 23.6471 23.0979 22.3036 23.0979H22.3034ZM27.0302 27.6959C26.6918 27.6959 26.3943 27.6546 26.1688 27.5515V24.428C26.4763 24.1703 26.8557 23.9847 27.3375 23.9847C28.2092 23.9847 28.5477 24.6033 28.5477 25.6033C28.5477 27.0258 28.0041 27.6959 27.03 27.6959M27.4091 23.0979C26.6026 23.0979 26.1688 23.6498 26.1688 23.6498V22.7786L26.1657 21.6237H25.284L25.2869 28.2115C25.7277 28.3969 26.3328 28.5 26.9889 28.5C28.6703 28.5 29.4805 27.4175 29.4805 25.5515C29.4805 24.0773 28.732 23.0979 27.4091 23.0979ZM7.20051 22.3557C8.0006 22.3557 8.51321 22.6237 8.85134 22.8918L9.23932 22.2166C8.71062 21.7505 7.99959 21.5 7.24112 21.5C5.32373 21.5 3.98047 22.6755 3.98047 25.0466C3.98047 27.5307 5.42987 28.5 7.08753 28.5C7.91817 28.5 8.62579 28.3039 9.08714 28.1082L9.06825 25.4537V24.6189H6.60708V25.4537H8.17609L8.19499 27.4691C7.98994 27.5722 7.63091 27.6546 7.14885 27.6546C5.81604 27.6546 4.92348 26.8117 4.92348 25.0361C4.92389 23.232 5.8468 22.3557 7.20031 22.3557M13.5465 21.6237H12.6646L12.6674 22.7577V26.6751C12.6674 27.768 13.1392 28.5 14.4827 28.5C14.668 28.5 14.8496 28.483 15.0259 28.4509V27.6544C14.8902 27.6753 14.7531 27.6857 14.6158 27.6856C13.8772 27.6856 13.5491 27.3043 13.5491 26.6651V23.9639H15.0257V23.2216H13.5489L13.5461 21.6237H13.5465ZM10.427 28.3763H11.3089V23.2216H10.4266V28.3763H10.427ZM10.427 22.5105H11.3089V21.6237H10.4266V22.5103L10.427 22.5105Z" fill="#5C5C5C"/>
</svg>
