<svg width="81" height="31" viewBox="0 0 81 31" fill="none" xmlns="http://www.w3.org/2000/svg">
<path fill-rule="evenodd" clip-rule="evenodd" d="M6.11316 9.06614C5.95503 9.06614 5.91599 8.98773 5.99472 8.8714L6.8231 7.81931C6.90118 7.70234 7.099 7.62458 7.25648 7.62458H21.3362C21.4943 7.62458 21.5334 7.74155 21.4547 7.85852L20.7844 8.8714C20.7057 8.98773 20.5085 9.1047 20.3901 9.1047L6.11316 9.06614ZM0.157717 12.6491C0.000241105 12.6491 -0.0394531 12.572 0.0392847 12.4544L0.867658 11.403C0.946396 11.286 1.14357 11.2082 1.30169 11.2082H19.2851C19.4426 11.2082 19.522 11.3252 19.4823 11.4422L19.1667 12.3766C19.1277 12.5328 18.9695 12.6106 18.8121 12.6106L0.157717 12.6491ZM9.70125 16.2328C9.54378 16.2328 9.50474 16.1158 9.58347 15.9989L10.1353 15.0252C10.2147 14.9082 10.3722 14.7919 10.5303 14.7919H18.4171C18.5752 14.7919 18.6539 14.9082 18.6539 15.0644L18.5758 15.9989C18.5758 16.155 18.4177 16.272 18.2993 16.272L9.70125 16.2328ZM50.6384 8.36496C48.1533 8.98837 46.4575 9.45561 44.0127 10.0784C43.4205 10.2346 43.3815 10.2731 42.8687 9.68891C42.2772 9.02693 41.8432 8.59826 41.0155 8.20878C38.5303 7.00181 36.1246 7.35208 33.877 8.79363C31.1954 10.5071 29.8152 13.0386 29.8542 16.1936C29.8933 19.31 32.0628 21.8808 35.1785 22.3095C37.8601 22.6597 40.1084 21.7246 41.8829 19.7387C42.2375 19.31 42.5531 18.8428 42.9475 18.2971H35.3359C34.5082 18.2971 34.311 17.7907 34.5869 17.1287C35.0997 15.9211 36.0459 13.896 36.5977 12.8831C36.7168 12.6491 36.9927 12.2597 37.5842 12.2597H51.9392C51.8611 13.3118 51.8611 14.3632 51.703 15.4153C51.2689 18.2194 50.2044 20.7901 48.4689 23.0492C45.6291 26.7498 41.9226 29.0475 37.2289 29.6709C33.3642 30.1773 29.7755 29.4369 26.6208 27.1001C23.7023 24.9188 22.0462 22.0363 21.6121 18.4533C21.0994 14.2077 22.3611 10.3901 24.964 7.04037C27.7641 3.41815 31.4713 1.11989 36.0068 0.301739C39.714 -0.360235 43.2631 0.0684397 46.4575 2.21053C48.5476 3.57369 50.0462 5.44328 51.0321 7.70234C51.2689 8.05325 51.1115 8.24799 50.6377 8.36432L50.6384 8.36496Z" fill="#00ACD7"/>
<path d="M63.6919 29.9048C60.1032 29.8264 56.8294 28.8142 54.069 26.4767C51.742 24.4908 50.2831 21.9586 49.81 18.9591C49.1001 14.5579 50.3221 10.6626 53.0044 7.19655C55.8832 3.45672 59.3536 1.50936 64.0472 0.691212C68.0694 -0.00932288 71.8559 0.380149 75.2866 2.67777C78.4022 4.78131 80.3342 7.62458 80.847 11.3638C81.5173 16.6223 79.9796 20.9071 76.3115 24.5685C73.7085 27.1779 70.5141 28.8142 66.8467 29.5539C65.7821 29.7486 64.7168 29.7878 63.6919 29.9048ZM73.078 14.1685C73.039 13.662 73.039 13.2726 72.9596 12.8831C72.2503 9.02694 68.6609 6.84564 64.9146 7.70299C61.2465 8.52049 58.8805 10.8188 58.0131 14.4802C57.3031 17.5182 58.8017 20.5954 61.6409 21.8416C63.8104 22.7767 65.9792 22.6597 68.0694 21.6083C71.185 20.0112 72.8808 17.5182 73.078 14.1685Z" fill="#00ACD7"/>
</svg>
