<svg width="89" height="42" viewBox="0 0 89 42" fill="none" xmlns="http://www.w3.org/2000/svg">
<path d="M48.2347 6.26038H49.1088L51.5722 3.80377L51.7311 2.77359C49.824 1.03019 47.2017 0 44.341 0C39.2552 0 34.8847 3.48679 33.6133 8.16226C33.8517 8.00377 34.4874 8.08302 34.4874 8.08302L39.4142 7.29057C39.4142 7.29057 39.6526 6.89434 39.8115 6.89434C42.0365 4.51698 45.6919 4.27925 48.2347 6.26038Z" fill="#EA4535"/>
<path d="M55.1484 8.16224C54.5127 6.10186 53.4002 4.19997 51.7315 2.77356L48.235 6.26035C49.7448 7.44903 50.5395 9.19243 50.5395 11.0943V11.7283C52.2082 11.7283 53.6386 13.0754 53.6386 14.8188C53.6386 16.483 52.2877 17.8302 50.5395 17.8302H44.3413L43.7056 18.4641V22.1887L44.3413 22.8226H50.5395C54.9895 22.8226 58.5654 19.2566 58.5654 14.8188C58.5654 12.1245 57.2145 9.6679 55.069 8.24149L55.1484 8.16224Z" fill="#557EBF"/>
<path d="M38.2223 22.7434H44.4205V17.8301H38.2223C37.7455 17.8301 37.3482 17.7509 36.9509 17.5924L36.0768 17.8301L33.6134 20.2867L33.375 21.0792C34.7259 22.1886 36.4741 22.7434 38.2223 22.7434Z" fill="#36A852"/>
<path d="M38.2222 6.73584C33.7722 6.73584 30.1963 10.3019 30.1963 14.7396C30.1963 17.2755 31.3883 19.6528 33.3749 21.1585L36.9508 17.5924C35.8383 17.0377 35.1231 16.0075 35.1231 14.7396C35.1231 13.0755 36.474 11.649 38.2222 11.649C39.4141 11.7283 40.5266 12.4415 41.0034 13.4717L44.5793 9.90565C43.149 8.00376 40.765 6.73584 38.2222 6.73584Z" fill="#F9BC15"/>
<path d="M6.2778 38.2754C4.60905 38.2754 3.1787 37.6415 1.90727 36.4528C0.635839 35.2641 0.0795898 33.9169 0.0795898 32.1735C0.0795898 30.4301 0.715304 29.083 1.90727 27.8943C3.09923 26.7056 4.60905 26.0717 6.2778 26.0717C7.78762 26.1509 9.29745 26.7056 10.4099 27.815L9.21798 29.0037C8.42334 28.2113 7.3903 27.815 6.19834 27.815C5.00638 27.815 3.97334 28.2113 3.09923 29.083C2.30459 29.8754 1.8278 31.0641 1.90727 32.1735C1.90727 33.3622 2.30459 34.4717 3.1787 35.2641C3.97334 36.2151 5.08584 36.6113 6.19834 36.6113C7.46977 36.6113 8.42334 36.215 9.29745 35.4226C9.77423 34.9471 10.0921 34.2339 10.1716 33.3622H6.2778V31.6981H11.8403C11.9198 32.0151 11.9198 32.332 11.9198 32.7283C11.9198 34.3924 11.443 35.6603 10.4894 36.6113C9.37691 37.7207 8.02602 38.3547 6.2778 38.3547V38.2754ZM19.3099 37.166C18.5153 37.8792 17.6412 38.2754 16.5287 38.2754C15.4162 38.2754 14.4626 37.8792 13.7474 37.166C13.0323 36.4528 12.6349 35.5018 12.6349 34.3924C12.6349 33.283 13.0323 32.332 13.7474 31.6188C14.4626 30.9056 15.4162 30.5094 16.5287 30.5094C17.6412 30.5094 18.5948 30.9056 19.3099 31.6188C20.0251 32.332 20.4224 33.283 20.4224 34.3924C20.4224 35.5018 20.0251 36.4528 19.3099 37.166ZM14.9394 36.0566C15.3367 36.532 15.893 36.7698 16.4492 36.7698C17.0849 36.7698 17.5617 36.532 18.0385 36.0566C18.5153 35.5811 18.6742 35.0264 18.6742 34.3924C18.6742 33.6792 18.4358 33.1245 18.0385 32.649C17.6412 32.1735 17.0849 32.0151 16.4492 32.0151C15.893 32.0151 15.2573 32.2528 14.8599 32.649C14.4626 33.1245 14.2242 33.6792 14.2242 34.3924C14.2242 35.1056 14.4626 35.6603 14.8599 36.0566H14.9394ZM27.8921 37.166C27.0974 37.8792 26.2233 38.2754 25.1108 38.2754C23.9983 38.2754 23.0448 37.8792 22.3296 37.166C21.6144 36.4528 21.2171 35.5018 21.2171 34.3924C21.2171 33.283 21.6144 32.332 22.3296 31.6188C23.0448 30.9056 23.9983 30.5094 25.1108 30.5094C26.2233 30.5094 27.1769 30.9056 27.8921 31.6188C28.6073 32.332 29.0046 33.283 29.0046 34.3924C29.0046 35.5018 28.6073 36.4528 27.8921 37.166ZM23.5216 36.0566C23.9189 36.532 24.4751 36.7698 25.0314 36.7698C25.6671 36.7698 26.1439 36.532 26.6207 36.0566C27.0974 35.5811 27.2564 35.0264 27.2564 34.3924C27.2564 33.6792 27.018 33.1245 26.6207 32.649C26.2233 32.1735 25.6671 32.0151 25.0314 32.0151C24.4751 32.0151 23.8394 32.2528 23.4421 32.649C23.0448 33.1245 22.8064 33.6792 22.8064 34.3924C22.8064 35.1056 23.0448 35.6603 23.4421 36.0566H23.5216ZM33.5341 41.7622C32.6599 41.7622 31.9448 41.5245 31.3091 41.049C30.6733 40.5735 30.276 40.0188 30.0376 39.4641L31.5474 38.8301C31.7064 39.2264 31.9448 39.5434 32.2626 39.7811C32.5805 40.0188 32.9778 40.1773 33.5341 40.1773C34.1698 40.1773 34.726 39.9396 35.0439 39.6226C35.3617 39.3056 35.6001 38.6717 35.6001 37.8792V37.3245H35.5207C35.0439 37.8792 34.3287 38.1962 33.4546 38.1962C32.4216 38.1962 31.5474 37.8 30.8323 37.0868C30.0376 36.4528 29.6403 35.4226 29.7198 34.3924C29.6403 33.3622 30.0376 32.332 30.8323 31.6188C31.5474 30.8264 32.4216 30.5094 33.4546 30.5094C33.9314 30.5094 34.3287 30.5886 34.6466 30.7471C34.9644 30.9056 35.2823 31.1434 35.5207 31.3811H35.6001V30.7471H37.2689V37.8C37.2689 39.1471 36.951 40.1773 36.2358 40.8905C35.5207 41.5245 34.6466 41.9207 33.5341 41.9207V41.7622ZM33.6135 36.6905C34.1698 36.7698 34.726 36.532 35.0439 36.0566C35.4412 35.5811 35.6796 35.0264 35.6796 34.3924C35.6796 33.6792 35.4412 33.1245 35.0439 32.649C34.726 32.2528 34.1698 32.0151 33.6135 32.0151C32.9778 32.0151 32.501 32.2528 32.1037 32.7283C31.7064 33.2037 31.468 33.7584 31.468 34.4717C31.468 35.1056 31.7064 35.7396 32.1037 36.1358C32.501 36.532 33.0573 36.849 33.6135 36.849V36.6905ZM40.1296 26.4679V37.9584H38.3814V26.4679H40.1296ZM44.818 38.1962C43.7055 38.1962 42.7519 37.8 42.0367 37.0868C41.3216 36.3735 40.9242 35.4226 40.9242 34.3132C40.9242 33.2037 41.3216 32.2528 42.0367 31.4603C42.6725 30.8264 43.626 30.4301 44.6591 30.4301C45.1358 30.4301 45.6126 30.5094 46.0099 30.6679C46.3278 30.9056 46.6457 31.0641 46.9635 31.3811C47.2019 31.6188 47.4403 31.8566 47.5992 32.1735C47.7582 32.4113 47.9171 32.649 47.9966 32.966L48.1555 33.4415L42.9108 35.5811C43.3082 36.3735 43.9439 36.7698 44.818 36.7698C45.6126 36.7698 46.2483 36.3735 46.7251 35.6603L48.076 36.532C47.7582 37.0075 47.3608 37.4037 46.8046 37.7207C46.2483 38.0377 45.6126 38.2754 44.818 38.2754V38.1962ZM42.6724 34.1547L46.1689 32.7283C46.0894 32.4905 45.851 32.2528 45.6126 32.0943C45.2948 32.0151 44.9769 31.9358 44.6591 31.9358C44.1823 31.9358 43.7055 32.1735 43.2287 32.5698C42.7519 32.966 42.593 33.5207 42.593 34.2339L42.6724 34.1547ZM57.2144 38.1962C55.6251 38.1962 54.3537 37.6415 53.2412 36.6113C52.1287 35.5811 51.6519 34.2339 51.6519 32.649C51.6519 31.0641 52.2082 29.7169 53.2412 28.6867C54.2742 27.6566 55.6251 27.1018 57.2144 27.1018C58.8037 27.1018 60.1546 27.6566 61.1082 28.8452L60.1546 29.7962C59.4394 28.9245 58.4064 28.449 57.2144 28.449C56.0224 28.449 55.0689 28.8452 54.2742 29.6377C53.4796 30.4301 53.0823 31.4603 53.0823 32.7283C53.0823 33.9962 53.4796 35.0264 54.2742 35.8188C55.0689 36.6113 56.0224 37.0075 57.2144 37.0075C58.4858 37.0075 59.5983 36.532 60.4724 35.5018L61.426 36.4528C60.9492 37.0075 60.3135 37.483 59.5983 37.8C58.8037 38.1169 58.0091 38.2754 57.2144 38.2754V38.1962ZM64.0483 37.9584H62.6974V27.4188H64.0483V37.9584ZM66.2733 31.5396C66.9885 30.8264 67.8626 30.4301 68.9751 30.4301C70.0876 30.4301 70.9617 30.8264 71.6769 31.5396C72.3921 32.2528 72.7099 33.2037 72.7099 34.3132C72.7099 35.4226 72.3921 36.3735 71.6769 37.0868C70.9617 37.8 70.0876 38.1962 68.9751 38.1962C67.8626 38.1962 66.9885 37.8 66.2733 37.0868C65.5582 36.3735 65.2403 35.4226 65.2403 34.3132C65.2403 33.2037 65.5582 32.2528 66.2733 31.5396ZM67.3064 36.215C67.7832 36.6905 68.3394 36.9283 68.9751 36.9283C69.6108 36.9283 70.1671 36.6905 70.6439 36.215C71.1207 35.7396 71.3591 35.1056 71.3591 34.3132C71.3591 33.5207 71.1207 32.8868 70.6439 32.4113C70.1671 31.9358 69.6108 31.6981 68.9751 31.6981C68.3394 31.6981 67.7832 31.9358 67.3064 32.4113C66.8296 32.8868 66.5912 33.5207 66.5912 34.3132C66.5912 35.1056 66.8296 35.7396 67.3064 36.215ZM80.2591 37.9584H78.9876V36.9283H78.9082C78.6698 37.2452 78.3519 37.5622 77.9546 37.8C77.5573 38.0377 77.0805 38.1962 76.6037 38.1962C75.7296 38.1962 75.0144 37.9584 74.5376 37.4037C74.0608 36.849 73.8224 36.1358 73.8224 35.1849V30.7471H75.1733V34.9471C75.1733 36.2943 75.8091 37.0075 77.001 37.0075C77.4778 37.0075 78.0341 36.7698 78.3519 36.3735C78.6698 35.8981 78.8287 35.3434 78.8287 34.7886V30.8264H80.1796V38.1169L80.2591 37.9584ZM84.868 38.1962C83.9144 38.1962 83.1198 37.8 82.4046 37.0868C81.6894 36.3735 81.3716 35.4226 81.3716 34.3132C81.3716 33.2037 81.6894 32.332 82.4046 31.5396C83.1198 30.7471 83.9144 30.4301 84.868 30.4301C85.4242 30.4301 85.901 30.5886 86.3778 30.7471C86.8546 30.9056 87.1724 31.3018 87.3314 31.6188H87.4108L87.3314 30.5886V27.2603H88.6823V37.8792H87.4108V36.849H87.3314C87.093 37.166 86.7751 37.483 86.3778 37.7207C85.901 37.9584 85.4242 38.0377 84.868 38.0377V38.1962ZM85.1064 36.9283C85.6626 37.0075 86.2983 36.7698 86.6957 36.2943C87.1724 35.8188 87.3314 35.1849 87.3314 34.3924C87.3314 33.6 87.093 32.966 86.6957 32.4905C86.2983 32.0943 85.6626 31.7773 85.1064 31.7773C84.4707 31.7773 83.9144 32.0151 83.4376 32.4905C82.9608 32.966 82.7225 33.6 82.7225 34.3924C82.7225 35.1849 82.9608 35.8188 83.4376 36.2943C83.8349 36.7698 84.4707 37.0868 85.1064 37.0868V36.9283Z" fill="#5F6368"/>
</svg>
