<svg width="43" height="20" viewBox="0 0 43 20" fill="none" xmlns="http://www.w3.org/2000/svg">
<path d="M23.569 2.98113H23.9853L25.1583 1.81132L25.234 1.32075C24.3258 0.490566 23.0771 0 21.7149 0C19.2931 0 17.2119 1.66038 16.6064 3.88679C16.72 3.81132 17.0227 3.84906 17.0227 3.84906L19.3688 3.4717C19.3688 3.4717 19.4823 3.28302 19.558 3.28302C20.6175 2.15094 22.3581 2.03774 23.569 2.98113Z" fill="#EA4535"/>
<path d="M26.8611 3.88678C26.5584 2.90565 26.0286 1.99999 25.234 1.32074L23.569 2.98112C24.288 3.54716 24.6664 4.37734 24.6664 5.283V5.58489C25.461 5.58489 26.1421 6.2264 26.1421 7.05659C26.1421 7.84904 25.4988 8.49055 24.6664 8.49055H21.7148L21.4121 8.79244V10.566L21.7148 10.8679H24.6664C26.7854 10.8679 28.4882 9.1698 28.4882 7.05659C28.4882 5.77357 27.8449 4.60376 26.8232 3.92451L26.8611 3.88678Z" fill="#557EBF"/>
<path d="M18.8004 10.8302H21.752V8.49056H18.8004C18.5734 8.49056 18.3842 8.45282 18.195 8.37735L17.7788 8.49056L16.6057 9.66037L16.4922 10.0377C17.1355 10.566 17.968 10.8302 18.8004 10.8302Z" fill="#36A852"/>
<path d="M18.8004 3.20755C16.6813 3.20755 14.9785 4.90566 14.9785 7.01887C14.9785 8.22642 15.5461 9.35849 16.4921 10.0755L18.1949 8.37736C17.6652 8.11321 17.3246 7.62264 17.3246 7.01887C17.3246 6.22642 17.9679 5.54717 18.8004 5.54717C19.368 5.58491 19.8977 5.92453 20.1248 6.4151L21.8276 4.71698C21.1465 3.81132 20.0113 3.20755 18.8004 3.20755Z" fill="#F9BC15"/>
<path d="M3.58923 18.2264C2.79458 18.2264 2.11346 17.9245 1.50802 17.3585C0.902576 16.7925 0.637695 16.1509 0.637695 15.3208C0.637695 14.4906 0.940416 13.8491 1.50802 13.283C2.07562 12.717 2.79458 12.4151 3.58923 12.4151C4.30819 12.4528 5.02715 12.717 5.55691 13.2453L4.98931 13.8113C4.61091 13.434 4.11899 13.2453 3.55139 13.2453C2.98378 13.2453 2.49186 13.434 2.07562 13.8491C1.69722 14.2264 1.47018 14.7925 1.50802 15.3208C1.50802 15.8868 1.69722 16.4151 2.11346 16.7925C2.49186 17.2453 3.02162 17.434 3.55139 17.434C4.15683 17.434 4.61091 17.2453 5.02715 16.8679C5.25419 16.6415 5.40555 16.3019 5.44339 15.8868H3.58923V15.0943H6.23803C6.27588 15.2453 6.27588 15.3962 6.27588 15.5849C6.27588 16.3774 6.04883 16.9811 5.59475 17.434C5.06499 17.9623 4.42171 18.2642 3.58923 18.2642V18.2264ZM9.79501 17.6981C9.41661 18.0377 9.00036 18.2264 8.4706 18.2264C7.94084 18.2264 7.48676 18.0377 7.1462 17.6981C6.80564 17.3585 6.61644 16.9057 6.61644 16.3774C6.61644 15.8491 6.80564 15.3962 7.1462 15.0566C7.48676 14.717 7.94084 14.5283 8.4706 14.5283C9.00036 14.5283 9.45445 14.717 9.79501 15.0566C10.1356 15.3962 10.3248 15.8491 10.3248 16.3774C10.3248 16.9057 10.1356 17.3585 9.79501 17.6981ZM7.7138 17.1698C7.903 17.3962 8.16788 17.5094 8.43276 17.5094C8.73548 17.5094 8.96253 17.3962 9.18957 17.1698C9.41661 16.9434 9.49229 16.6793 9.49229 16.3774C9.49229 16.0377 9.37877 15.7736 9.18957 15.5472C9.00037 15.3208 8.73548 15.2453 8.43276 15.2453C8.16788 15.2453 7.86516 15.3585 7.67596 15.5472C7.48676 15.7736 7.37324 16.0377 7.37324 16.3774C7.37324 16.717 7.48676 16.9811 7.67596 17.1698H7.7138ZM13.8817 17.6981C13.5033 18.0377 13.0871 18.2264 12.5573 18.2264C12.0276 18.2264 11.5735 18.0377 11.2329 17.6981C10.8924 17.3585 10.7032 16.9057 10.7032 16.3774C10.7032 15.8491 10.8924 15.3962 11.2329 15.0566C11.5735 14.717 12.0276 14.5283 12.5573 14.5283C13.0871 14.5283 13.5412 14.717 13.8817 15.0566C14.2223 15.3962 14.4115 15.8491 14.4115 16.3774C14.4115 16.9057 14.2223 17.3585 13.8817 17.6981ZM11.8005 17.1698C11.9897 17.3962 12.2546 17.5094 12.5195 17.5094C12.8222 17.5094 13.0493 17.3962 13.2763 17.1698C13.5033 16.9434 13.579 16.6793 13.579 16.3774C13.579 16.0377 13.4655 15.7736 13.2763 15.5472C13.0871 15.3208 12.8222 15.2453 12.5195 15.2453C12.2546 15.2453 11.9519 15.3585 11.7627 15.5472C11.5735 15.7736 11.46 16.0377 11.46 16.3774C11.46 16.717 11.5735 16.9811 11.7627 17.1698H11.8005ZM16.5684 19.8868C16.1521 19.8868 15.8116 19.7736 15.5089 19.5472C15.2061 19.3208 15.0169 19.0566 14.9034 18.7925L15.6224 18.4906C15.6981 18.6793 15.8116 18.8302 15.9629 18.9434C16.1143 19.0566 16.3035 19.1321 16.5684 19.1321C16.8711 19.1321 17.136 19.0189 17.2874 18.8679C17.4387 18.717 17.5522 18.4151 17.5522 18.0377V17.7736H17.5144C17.2874 18.0377 16.9468 18.1887 16.5306 18.1887C16.0386 18.1887 15.6224 18 15.2818 17.6604C14.9034 17.3585 14.7142 16.8679 14.7521 16.3774C14.7142 15.8868 14.9034 15.3962 15.2818 15.0566C15.6224 14.6793 16.0386 14.5283 16.5306 14.5283C16.7576 14.5283 16.9468 14.566 17.0982 14.6415C17.2495 14.717 17.4009 14.8302 17.5144 14.9434H17.5522V14.6415H18.3469V18C18.3469 18.6415 18.1955 19.1321 17.855 19.4717C17.5144 19.7736 17.0982 19.9623 16.5684 19.9623V19.8868ZM16.6062 17.4717C16.8711 17.5094 17.136 17.3962 17.2874 17.1698C17.4766 16.9434 17.5901 16.6793 17.5901 16.3774C17.5901 16.0377 17.4766 15.7736 17.2874 15.5472C17.136 15.3585 16.8711 15.2453 16.6062 15.2453C16.3035 15.2453 16.0765 15.3585 15.8873 15.5849C15.6981 15.8113 15.5845 16.0755 15.5845 16.4151C15.5845 16.717 15.6981 17.0189 15.8873 17.2076C16.0765 17.3962 16.3413 17.5472 16.6062 17.5472V17.4717ZM19.7091 12.6038V18.0755H18.8766V12.6038H19.7091ZM21.9417 18.1887C21.4119 18.1887 20.9578 18 20.6173 17.6604C20.2767 17.3208 20.0875 16.8679 20.0875 16.3396C20.0875 15.8113 20.2767 15.3585 20.6173 14.9811C20.92 14.6792 21.3741 14.4906 21.866 14.4906C22.0931 14.4906 22.3201 14.5283 22.5093 14.6038C22.6607 14.717 22.812 14.7925 22.9634 14.9434C23.0769 15.0566 23.1904 15.1698 23.2661 15.3208C23.3418 15.434 23.4175 15.5472 23.4553 15.6981L23.531 15.9245L21.0335 16.9434C21.2227 17.3208 21.5254 17.5094 21.9417 17.5094C22.3201 17.5094 22.6228 17.3208 22.8499 16.9811L23.4931 17.3962C23.3418 17.6226 23.1526 17.8113 22.8877 17.9623C22.6228 18.1132 22.3201 18.2264 21.9417 18.2264V18.1887ZM20.92 16.2642L22.585 15.5849C22.5471 15.4717 22.4336 15.3585 22.3201 15.283C22.1687 15.2453 22.0174 15.2076 21.866 15.2076C21.639 15.2076 21.4119 15.3208 21.1849 15.5094C20.9578 15.6981 20.8822 15.9623 20.8822 16.3019L20.92 16.2642ZM27.8448 18.1887C27.0879 18.1887 26.4825 17.9245 25.9527 17.434C25.423 16.9434 25.1959 16.3019 25.1959 15.5472C25.1959 14.7925 25.4608 14.1509 25.9527 13.6604C26.4447 13.1698 27.0879 12.9057 27.8448 12.9057C28.6016 12.9057 29.2448 13.1698 29.6989 13.7359L29.2448 14.1887C28.9043 13.7736 28.4124 13.5472 27.8448 13.5472C27.2772 13.5472 26.8231 13.7359 26.4447 14.1132C26.0663 14.4906 25.8771 14.9811 25.8771 15.5849C25.8771 16.1887 26.0663 16.6792 26.4447 17.0566C26.8231 17.434 27.2772 17.6226 27.8448 17.6226C28.4502 17.6226 28.98 17.3962 29.3962 16.9057L29.8503 17.3585C29.6232 17.6226 29.3205 17.8491 28.98 18C28.6016 18.1509 28.2232 18.2264 27.8448 18.2264V18.1887ZM31.099 18.0755H30.4557V13.0566H31.099V18.0755ZM32.1585 15.0189C32.4991 14.6793 32.9153 14.4906 33.4451 14.4906C33.9749 14.4906 34.3911 14.6793 34.7317 15.0189C35.0722 15.3585 35.2236 15.8113 35.2236 16.3396C35.2236 16.8679 35.0722 17.3208 34.7317 17.6604C34.3911 18 33.9749 18.1887 33.4451 18.1887C32.9153 18.1887 32.4991 18 32.1585 17.6604C31.818 17.3208 31.6666 16.8679 31.6666 16.3396C31.6666 15.8113 31.818 15.3585 32.1585 15.0189ZM32.6504 17.2453C32.8775 17.4717 33.1424 17.5849 33.4451 17.5849C33.7478 17.5849 34.0127 17.4717 34.2397 17.2453C34.4668 17.0189 34.5803 16.717 34.5803 16.3396C34.5803 15.9623 34.4668 15.6604 34.2397 15.434C34.0127 15.2076 33.7478 15.0943 33.4451 15.0943C33.1424 15.0943 32.8775 15.2076 32.6504 15.434C32.4234 15.6604 32.3099 15.9623 32.3099 16.3396C32.3099 16.717 32.4234 17.0189 32.6504 17.2453ZM38.8184 18.0755H38.2129V17.5849H38.1751C38.0616 17.7359 37.9102 17.8868 37.721 18C37.5318 18.1132 37.3048 18.1887 37.0777 18.1887C36.6615 18.1887 36.3209 18.0755 36.0939 17.8113C35.8669 17.5472 35.7533 17.2076 35.7533 16.7547V14.6415H36.3966V16.6415C36.3966 17.283 36.6993 17.6226 37.2669 17.6226C37.494 17.6226 37.7589 17.5094 37.9102 17.3208C38.0616 17.0943 38.1373 16.8302 38.1373 16.566V14.6793H38.7806V18.1509L38.8184 18.0755ZM41.0131 18.1887C40.559 18.1887 40.1806 18 39.8401 17.6604C39.4995 17.3208 39.3482 16.8679 39.3482 16.3396C39.3482 15.8113 39.4995 15.3962 39.8401 15.0189C40.1806 14.6415 40.559 14.4906 41.0131 14.4906C41.278 14.4906 41.505 14.566 41.7321 14.6415C41.9591 14.717 42.1105 14.9057 42.1862 15.0566H42.224L42.1862 14.566V12.9811H42.8294V18.0377H42.224V17.5472H42.1862C42.0726 17.6981 41.9213 17.8491 41.7321 17.9623C41.505 18.0755 41.278 18.1132 41.0131 18.1132V18.1887ZM41.1266 17.5849C41.3915 17.6226 41.6942 17.5094 41.8834 17.283C42.1105 17.0566 42.1862 16.7547 42.1862 16.3774C42.1862 16 42.0726 15.6981 41.8834 15.4717C41.6942 15.283 41.3915 15.1321 41.1266 15.1321C40.8239 15.1321 40.559 15.2453 40.332 15.4717C40.105 15.6981 39.9914 16 39.9914 16.3774C39.9914 16.7547 40.105 17.0566 40.332 17.283C40.5212 17.5094 40.8239 17.6604 41.1266 17.6604V17.5849Z" fill="#5F6368"/>
</svg>
