<svg width="21" height="24" viewBox="0 0 21 24" fill="none" xmlns="http://www.w3.org/2000/svg">
<path d="M5.2785 5.61624L5.30598 5.642L5.05345 5.89453C4.87016 6.07664 4.69032 6.26221 4.51404 6.45112C4.17562 6.81703 3.87499 7.2276 3.84579 7.34442H5.40905C5.44469 7.3461 5.48021 7.33936 5.51275 7.32474C5.54529 7.31011 5.57391 7.28801 5.5963 7.26024C6.83188 5.90164 8.54922 5.07933 10.3823 4.9686C11.4432 4.90095 12.5059 5.072 13.492 5.46918C14.4781 5.86637 15.3626 6.47957 16.0805 7.26368C16.0979 7.28813 16.1208 7.30817 16.1474 7.32219C16.1739 7.33621 16.2034 7.34382 16.2334 7.34442L17.2555 7.3427H17.7623C17.7896 7.33963 17.8166 7.33447 17.843 7.32724C17.4747 6.78512 17.0453 6.2871 16.5632 5.84299L16.5856 5.82066C17.0808 5.42898 17.5 4.94978 17.8224 4.40685C18.0543 4.04094 18.2296 3.64068 18.3378 3.22152C18.3793 3.05893 18.3921 2.89033 18.3756 2.72333C18.3532 2.49657 18.2278 2.30589 17.9255 2.34196C17.8653 2.34865 17.8059 2.3619 17.7486 2.38148C17.541 2.45665 17.3489 2.569 17.1817 2.71303C16.4622 3.30824 15.9153 4.08531 15.5978 4.96344L15.5737 5.01498L15.5634 5.03388C15.4707 4.98234 15.3779 4.92737 15.2886 4.87411C15.079 4.75386 14.8763 4.63361 14.6633 4.5271C14.354 4.37249 14.0379 4.23506 13.7133 4.11481C13.166 3.91901 12.6011 3.7769 12.0263 3.6905C11.9215 3.67332 11.8167 3.65614 11.7119 3.63552C11.9359 2.80417 11.9583 1.93137 11.7772 1.08963C11.7281 0.843728 11.643 0.606403 11.5247 0.385305C11.4616 0.253832 11.365 0.141268 11.2447 0.0589082C11.1876 0.0199515 11.12 -0.000600826 11.0509 1.33754e-05C10.9818 0.000627577 10.9145 0.022379 10.8582 0.0623441C10.8012 0.100978 10.7497 0.147215 10.7053 0.199774C10.5882 0.344749 10.4991 0.510172 10.4424 0.687651C10.3256 1.02607 10.2535 1.37824 10.2277 1.73555C10.1691 2.35361 10.2174 2.97714 10.3703 3.57884L10.3772 3.61835C9.00057 3.69436 7.66327 4.10475 6.48101 4.81399L6.46555 4.80196C6.46088 4.79867 6.45681 4.79461 6.45352 4.78994C6.20202 4.17988 5.84105 3.62096 5.38844 3.14078C5.14937 2.86375 4.86179 2.63263 4.53981 2.45878C4.45247 2.41308 4.36027 2.37735 4.26495 2.35227C3.96088 2.2784 3.75302 2.43645 3.73241 2.74738L3.73069 2.78689V2.81438C3.71866 3.05488 3.77879 3.28164 3.85781 3.50497C4.14298 4.30206 4.61196 4.97547 5.21837 5.55955L5.2785 5.61624ZM16.5632 17.8561C16.991 17.461 17.3775 17.0229 17.7142 16.5505L17.7073 16.5213H17.2023C16.8587 16.5213 16.5151 16.523 16.1715 16.5179C16.1177 16.5155 16.064 16.5249 16.0142 16.5453C15.9643 16.5658 15.9196 16.5969 15.8829 16.6364C14.251 18.2306 12.2995 18.9177 10.0336 18.6979C9.19913 18.6119 8.3881 18.3707 7.64229 17.9867C6.93754 17.6324 6.29708 17.1627 5.74748 16.5969C5.72546 16.5714 5.69795 16.5511 5.66701 16.5378C5.63607 16.5244 5.6025 16.5182 5.56882 16.5196L4.51061 16.5213H4.05193C4.01511 16.5211 3.97833 16.524 3.94199 16.5299C4.3371 17.0848 4.79577 17.5898 5.31114 18.0365C5.30644 18.0473 5.30068 18.0577 5.29396 18.0674L5.25101 18.1069L5.22696 18.131C4.68123 18.6417 4.24722 19.26 3.9523 19.9468C3.85235 20.1654 3.78242 20.3965 3.74443 20.6339C3.71017 20.8023 3.72204 20.9768 3.77879 21.139C3.79967 21.1939 3.83435 21.2425 3.87948 21.2801C3.92462 21.3177 3.97869 21.3431 4.03647 21.3537C4.14298 21.3709 4.25121 21.3606 4.35084 21.3193C4.56255 21.2445 4.75877 21.1316 4.92977 20.9861C5.57569 20.4484 6.0859 19.7664 6.41573 18.9933L6.45009 18.9177L6.46898 18.8765C7.64988 19.5884 8.98673 20.0012 10.3634 20.079L10.3686 20.0962C10.372 20.1048 10.3737 20.11 10.372 20.1134C10.2828 20.4398 10.2304 20.7751 10.2157 21.1132C10.1882 21.5392 10.2105 21.967 10.2809 22.3861C10.3359 22.6954 10.4115 22.9977 10.5592 23.2743C10.6108 23.3722 10.6743 23.4632 10.7482 23.5457C10.9337 23.7484 11.1622 23.7467 11.3546 23.5491C11.3985 23.5066 11.4361 23.458 11.4663 23.4048C11.5419 23.2691 11.6089 23.13 11.6673 22.9857C11.7875 22.6369 11.8597 22.2728 11.8803 21.9034C11.9343 21.2924 11.8808 20.6767 11.7222 20.0842L11.7154 20.0464C12.1758 19.9949 12.631 19.909 13.0777 19.7887C13.5157 19.665 13.9452 19.5087 14.3609 19.3197C14.7778 19.1252 15.1797 18.9001 15.5634 18.6463L15.5789 18.6841L15.5978 18.7356C15.9139 19.6152 16.4619 20.3917 17.1834 20.9826C17.3208 21.0926 17.4668 21.1853 17.6249 21.2626C17.7279 21.3125 17.8362 21.3451 17.9513 21.3588C18.0346 21.3734 18.1205 21.357 18.1926 21.3127C18.2648 21.2684 18.3182 21.1993 18.3429 21.1183C18.3619 21.0605 18.3735 21.0005 18.3773 20.9397C18.3918 20.7041 18.3561 20.4681 18.2725 20.2474C17.9562 19.3409 17.3956 18.5395 16.6525 17.9317L16.5632 17.8561ZM15.6081 9.32685L15.7318 9.32856C15.8228 9.33028 15.9121 9.33372 15.9998 9.32513C16.1441 9.31139 16.2471 9.36292 16.3519 9.46084C16.8089 9.88172 17.2693 10.2992 17.7297 10.7149L18.1832 11.1272C18.2021 11.1444 18.2244 11.1615 18.2467 11.1839L18.2845 11.2165L18.3189 11.1856L18.3876 11.1255L20.2773 9.40415C20.3032 9.37741 20.3345 9.35652 20.3692 9.34289C20.4039 9.32926 20.4411 9.3232 20.4783 9.32513C20.6362 9.33123 20.7944 9.3318 20.9524 9.32685V14.3946C20.5096 14.421 20.0657 14.4221 19.6228 14.398V11.8315L19.597 11.8195L18.2862 13.0151L16.9652 11.8246L16.9394 11.8332V14.4083H15.6201C15.5961 14.3224 15.5857 9.61545 15.6098 9.32685H15.6081ZM4.74595 9.332H3.43521V11.1289C2.89144 11.1536 2.34678 11.1513 1.80323 11.122V9.33544H0.480469V14.398C0.590413 14.4238 1.71047 14.4221 1.8101 14.3911V12.4809H3.43521V13.7572C3.43521 13.9737 3.4335 14.1919 3.43865 14.41H4.75111C4.77859 14.2864 4.77344 9.41618 4.74595 9.332ZM6.31781 14.4066V9.34918C6.39511 9.32513 9.27771 9.31482 9.46668 9.34059V10.4177L9.44091 10.4211H9.42717C9.39748 10.4242 9.36767 10.4259 9.33784 10.4263H7.65432V11.2663H9.25881V12.3829H7.66806C7.63927 12.6971 7.63525 13.013 7.65604 13.3278L7.69555 13.3295C7.72475 13.3329 7.75395 13.3347 7.78488 13.3347H9.46668V14.4083L6.31781 14.4066ZM10.975 9.332C10.9509 9.42648 10.9458 14.2726 10.9698 14.4083H14.117V13.0821H12.4249L12.3338 13.077L12.2823 13.0735V9.33372L10.975 9.332Z" fill="#0F1689"/>
</svg>
