<svg width="48" height="49" viewBox="0 0 48 49" fill="none" xmlns="http://www.w3.org/2000/svg">
<path fill-rule="evenodd" clip-rule="evenodd" d="M43 35.5H29.195C29.79 38.801 31.768 41.072 33.596 42.5H36C36.553 42.5 37 42.947 37 43.5C37 44.053 36.553 44.5 36 44.5H12C11.447 44.5 11 44.053 11 43.5C11 42.947 11.447 42.5 12 42.5H14.403C16.23 41.072 18.21 38.801 18.804 35.5H5C2.791 35.5 1 33.709 1 31.5V8.5C1 6.291 2.791 4.5 5 4.5H43C45.209 4.5 47 6.291 47 8.5V31.5C47 33.709 45.209 35.5 43 35.5ZM17.397 42.5H30.602C29.007 40.818 27.587 38.524 27.143 35.5H20.856C20.412 38.524 18.992 40.818 17.397 42.5ZM45 8.5C45 7.396 44.104 6.5 43 6.5H5C3.896 6.5 3 7.396 3 8.5V27.5H45V8.5ZM45 29.5H3V31.5C3 32.604 3.896 33.5 5 33.5H19H29H43C44.104 33.5 45 32.604 45 31.5V29.5ZM24 32.5C23.447 32.5 23 32.053 23 31.5C23 30.947 23.447 30.5 24 30.5C24.553 30.5 25 30.947 25 31.5C25 32.053 24.553 32.5 24 32.5Z" fill="url(#paint0_linear_839_2070)"/>
<defs>
<linearGradient id="paint0_linear_839_2070" x1="1.65341" y1="5.01948" x2="46.8297" y2="44.6939" gradientUnits="userSpaceOnUse">
<stop stop-color="#189DF8"/>
<stop offset="1" stop-color="#253E7F"/>
</linearGradient>
</defs>
</svg>
