<svg width="64" height="65" viewBox="0 0 64 65" fill="none" xmlns="http://www.w3.org/2000/svg">
<path d="M0 0.523804V64.0159H63.4921V0.523804H0ZM33.5843 54.6256C32.6471 56.5299 30.8582 57.7809 28.7853 58.3849C25.6 59.1163 22.5534 58.6993 20.287 57.339C18.7703 56.4085 17.5858 54.9761 16.7817 53.3258L21.6173 50.3646C21.6594 50.3823 21.7864 50.6119 21.9561 50.9086C22.5727 51.9417 23.1045 52.6731 24.1498 53.1867C25.1769 53.5371 27.4316 53.7611 28.3022 51.9539C28.834 51.0345 28.6649 48.0794 28.6649 44.8098C28.6644 39.672 28.6883 34.5555 28.6883 29.4762H34.6357C34.6357 35.0635 34.6662 40.3552 34.6357 45.8074C34.6484 49.1496 34.9384 52.1291 33.5843 54.6256ZM58.2568 52.9454C56.1895 60.0169 44.6634 60.2465 40.0574 55.5745C39.0842 54.4748 38.4742 53.9003 37.8936 52.631C40.3413 51.223 40.3413 51.223 42.723 49.8449C44.0168 51.8335 45.2129 52.9271 47.3651 53.3746C50.2847 53.7312 53.2221 52.728 52.5633 49.627C51.8862 47.0945 46.5849 46.4783 42.977 43.77C39.3143 41.3101 38.4559 35.3327 41.4659 31.9173C42.4691 30.6541 44.1798 29.7114 45.9749 29.2583L47.8481 29.016C51.4448 28.9434 53.693 29.8932 55.3432 31.736C55.8024 32.2013 56.1773 32.7031 56.8782 33.7906C54.9623 35.0117 54.9684 35 52.224 36.7768C51.6378 35.514 50.6651 34.7216 49.6371 34.3773C48.0411 33.8937 46.0287 34.4194 45.6112 36.1058C45.4664 36.6254 45.4964 37.1089 45.7265 37.9674C46.3731 39.4419 48.543 40.0829 50.4894 40.9774C56.0924 43.2499 57.9845 45.6865 58.4498 48.5868C58.8978 51.0838 58.3416 52.7036 58.2568 52.9454Z" fill="#F0DB4F"/>
</svg>
