<svg width="64" height="65" viewBox="0 0 64 65" fill="none" xmlns="http://www.w3.org/2000/svg">
<path d="M26.2906 33.9244C26.2906 33.9244 24.6486 34.8799 27.4611 35.2029C30.8681 35.5919 32.6096 35.5359 36.3636 34.8264C36.3636 34.8264 37.3531 35.4449 38.7311 35.9809C30.3131 39.5874 19.6791 35.7719 26.2906 33.9244ZM25.2611 29.2169C25.2611 29.2169 23.4191 30.5814 26.2336 30.8724C29.8736 31.2479 32.7471 31.2789 37.7231 30.3209C37.7231 30.3209 38.4096 31.0189 39.4911 31.3994C29.3151 34.3764 17.9806 31.6339 25.2611 29.2169Z" fill="#0074BD"/>
<path d="M33.9326 21.2313C36.0081 23.6203 33.3886 25.7683 33.3886 25.7683C33.3886 25.7683 38.6551 23.0498 36.2366 19.6443C33.9771 16.4698 32.2456 14.8933 41.6221 9.45532C41.6226 9.45532 26.9031 13.1303 33.9326 21.2313Z" fill="#EA2D2E"/>
<path d="M45.0659 37.4064C45.0659 37.4064 46.2819 38.4089 43.7269 39.1839C38.8689 40.6554 23.5049 41.0994 19.2374 39.2424C17.7044 38.5749 20.5809 37.6489 21.4854 37.4544C22.4289 37.2499 22.9679 37.2874 22.9679 37.2874C21.2619 36.0859 11.9404 39.6469 18.2334 40.6684C35.3954 43.4499 49.5169 39.4154 45.0659 37.4064ZM27.0809 24.3394C27.0809 24.3394 19.2664 26.1959 24.3139 26.8709C26.4459 27.1559 30.6929 27.0904 34.6519 26.7584C37.8864 26.4869 41.1324 25.9064 41.1324 25.9064C41.1324 25.9064 39.9929 26.3954 39.1674 26.9584C31.2304 29.0459 15.9009 28.0734 20.3144 25.9394C24.0459 24.1339 27.0809 24.3394 27.0809 24.3394ZM41.0999 32.1744C49.1674 27.9834 45.4369 23.9554 42.8334 24.4979C42.1969 24.6309 41.9109 24.7459 41.9109 24.7459C41.9109 24.7459 42.1484 24.3739 42.5999 24.2144C47.7509 22.4044 51.7114 29.5549 40.9389 32.3869C40.9389 32.3869 41.0624 32.2749 41.0999 32.1744Z" fill="#0074BD"/>
<path d="M36.2371 0.672363C36.2371 0.672363 40.7046 5.14186 31.9991 12.0134C25.0181 17.5269 30.4071 20.6699 31.9961 24.2624C27.9211 20.5854 24.9321 17.3484 26.9371 14.3364C29.8816 9.91536 38.0391 7.77086 36.2371 0.672363Z" fill="#EA2D2E"/>
<path d="M27.8744 43.5353C35.6164 44.0303 47.5089 43.2598 47.7904 39.5963C47.7904 39.5963 47.2494 40.9848 41.3909 42.0868C34.7819 43.3308 26.6294 43.1863 21.7954 42.3883C21.7954 42.3883 22.7854 43.2083 27.8744 43.5353Z" fill="#0074BD"/>
<path d="M47.4329 50.1064H47.1969V49.9744H47.832V50.1064H47.597V50.7649H47.4324L47.4329 50.1064ZM48.7005 50.1394H48.6974L48.4635 50.7649H48.3554L48.123 50.1394H48.1204V50.7649H47.9645V49.9744H48.193L48.4085 50.5339L48.6245 49.9744H48.8515V50.7649H48.7005V50.1394ZM26.6054 57.5344C25.8754 58.1674 25.1034 58.5234 24.4099 58.5234C23.4229 58.5234 22.8875 57.9304 22.8875 56.9809C22.8875 55.9534 23.4604 55.2009 25.7564 55.2009H26.6049V57.5344H26.6054ZM28.6209 59.8084V52.7699C28.6209 50.9704 27.5944 49.7834 25.1224 49.7834C23.6794 49.7834 22.4144 50.1404 21.3859 50.5944L21.6819 51.8409C22.4919 51.5434 23.5394 51.2674 24.5674 51.2674C25.9924 51.2674 26.6049 51.8409 26.6049 53.0279V53.9174H25.8929C22.4324 53.9174 20.8709 55.2599 20.8709 57.2789C20.8709 59.0184 21.8999 60.0069 23.8374 60.0069C25.0824 60.0069 26.0129 59.4929 26.8814 58.7404L27.0394 59.8089H28.6209V59.8084ZM35.347 59.8084H32.8335L29.808 49.9639H32.0035L33.8815 56.0134L34.299 57.8309C35.247 55.2019 35.919 52.5329 36.255 49.9644H38.3904C37.8189 53.2049 36.7889 56.7634 35.347 59.8084ZM44.991 57.5344C44.2585 58.1674 43.4859 58.5234 42.7949 58.5234C41.8069 58.5234 41.2719 57.9304 41.2719 56.9809C41.2719 55.9534 41.8465 55.2009 44.1399 55.2009H44.9905V57.5344H44.991ZM47.0075 59.8084V52.7699C47.0075 50.9704 45.9779 49.7834 43.5079 49.7834C42.0634 49.7834 40.799 50.1404 39.7705 50.5944L40.067 51.8409C40.877 51.5434 41.9259 51.2674 42.9539 51.2674C44.3769 51.2674 44.991 51.8409 44.991 53.0279V53.9174H44.2789C40.8174 53.9174 39.2565 55.2599 39.2565 57.2789C39.2565 59.0184 40.2845 60.0069 42.2215 60.0069C43.467 60.0069 44.3959 59.4929 45.2669 58.7404L45.4259 59.8089H47.0075V59.8084ZM18.6609 61.4814C18.0874 62.3209 17.1584 62.9854 16.1424 63.3599L15.1479 62.1874C15.9214 61.7904 16.5839 61.1499 16.8924 60.5529C17.1584 60.0214 17.2689 59.3379 17.2689 57.7024V46.4614H19.4109V57.5479C19.4109 59.7354 19.2369 60.6199 18.6609 61.4814Z" fill="#EA2D2E"/>
</svg>
