<svg width="32" height="32" viewBox="0 0 32 32" fill="none" xmlns="http://www.w3.org/2000/svg">
<path d="M16.1947 29.9701C15.8687 29.9312 15.3604 29.8365 15.0841 29.7585L14.7968 29.675L14.642 29.2462C14.5536 29.0068 14.3437 28.3497 14.1779 27.7817L13.8685 26.7515L13.4319 26.7181C12.7633 26.668 12.3821 26.5455 11.2825 26.0331C10.7354 25.777 10.205 25.5375 10.1055 25.5041C10.0116 25.4651 9.87898 25.3705 9.80714 25.2981C9.6911 25.17 9.67453 25.0921 9.63032 24.2456L9.58612 23.3268L9.27668 23.0372C7.5748 21.4223 6.431 19.1893 6.08288 16.806C5.97237 16.032 5.97237 14.5284 6.08288 13.7544C6.42547 11.3933 7.56927 9.14917 9.22695 7.5844L9.69111 7.14448L9.75741 6.68229C9.8624 5.89155 10.1442 5.31798 10.5586 5.05069C10.6802 4.96716 10.7796 4.83352 10.8404 4.67203C11.1333 3.90356 11.6085 3.48592 13.1833 2.61165C14.2111 2.03808 15.1891 1.69283 16.1395 1.55362C16.6534 1.48123 17.7364 1.48123 18.2282 1.55919C19.6372 1.77079 20.4274 2.17173 21.4385 3.18521C22.1237 3.87572 22.516 4.42144 22.7481 5.02842C22.9415 5.52959 23.1515 6.48739 23.2123 7.11664L23.2509 7.52872L23.7759 8.11899C25.5496 10.1125 26.5 12.6184 26.5 15.2802C26.5 16.973 26.1243 18.5935 25.3894 20.0525L25.1075 20.6149L25.2788 20.7486C25.533 20.949 25.6988 21.2776 25.9751 22.124C26.1795 22.7421 26.2237 22.9593 26.2237 23.2878C26.2237 23.9672 25.9806 24.68 25.627 25.0141C25.3341 25.2925 24.5605 25.4039 23.6377 25.2981C23.3338 25.2647 23.273 25.2368 23.1681 25.0921L23.0465 24.9306L22.5768 24.9584C22.0022 24.9974 21.6927 25.0921 21.6927 25.2257C21.6927 25.4095 21.6209 25.5041 21.4109 25.6155C21.2065 25.7157 21.1954 25.738 21.1954 25.9719C21.1954 26.1111 21.2562 26.512 21.3336 26.8684C21.6043 28.1325 21.4938 28.3664 20.5102 28.5891C20.3555 28.6225 20.3555 28.6225 20.3887 28.9511C20.4605 29.5859 20.129 29.8421 19.1012 29.9479C18.5818 30.0035 16.5871 30.0203 16.1947 29.9701Z" fill="#201D1E"/>
<path d="M13.4181 26.041C12.8447 25.9631 12.0598 25.6681 11.0857 25.1671C10.3787 24.8052 10.1393 24.6549 10.1282 24.5714C10.1226 24.5102 10.1004 24.1372 10.0837 23.7364C9.98903 21.7436 9.54927 19.5726 8.90355 17.9472C8.76438 17.5909 8.65862 17.2903 8.66975 17.2792C8.67532 17.2736 8.99818 17.0343 9.38227 16.7504C10.1672 16.1715 11.1803 15.5536 11.7815 15.2919L12.1823 15.1138L12.661 15.6204C13.1731 16.1715 13.4459 16.3551 14.3922 16.8116L14.9878 17.0955L15.088 17.5241C15.1437 17.7579 15.2717 18.2144 15.3719 18.5428C15.5222 19.0104 15.6002 19.1663 15.7338 19.2776C15.9175 19.4335 16.0288 19.4557 16.2514 19.3667C16.4407 19.2943 16.4351 19.3444 16.2013 19.6673C15.9731 19.9846 15.9564 20.1905 16.1345 20.352C16.257 20.4689 17.7155 21.2092 18.1497 21.3762L18.3723 21.4653L17.8435 21.4987C17.554 21.5209 16.9194 21.5599 16.4296 21.5933C15.6447 21.649 14.6761 21.7436 13.9357 21.8494C13.6852 21.8828 13.6741 21.8828 13.6296 21.7269C13.5795 21.5432 13.5739 20.6414 13.6129 19.7452C13.6407 19.144 13.6018 18.9881 13.4515 19.0828C13.3234 19.1607 13.29 19.5615 13.3513 20.3019C13.4125 21.0701 13.368 21.6378 13.2511 21.6824C13.2121 21.6991 13.0451 21.6211 12.8781 21.5154C12.7167 21.404 12.5664 21.315 12.5441 21.315C12.4606 21.315 12.4996 21.5265 12.6109 21.6657C12.6721 21.7436 12.7222 21.8438 12.7222 21.8939C12.7222 21.9885 12.5552 22.0943 12.3994 22.0943C12.2825 22.0943 12.0709 22.2947 12.1322 22.3559C12.1489 22.3782 12.4216 22.3893 12.7389 22.3838C13.0507 22.3782 13.3346 22.3893 13.3735 22.4172C13.4125 22.4394 13.4682 22.7233 13.5016 23.074C13.535 23.4136 13.6351 24.2152 13.7242 24.8553C13.8745 25.9575 13.8801 26.1134 13.791 26.0967C13.7687 26.0911 13.6017 26.0688 13.4181 26.041ZM19.8809 25.0836C19.8085 24.538 19.725 22.2502 19.7807 22.1945C19.8085 22.1667 20.0033 22.1388 20.2149 22.1333L20.5934 22.1221L20.6602 22.4227C20.6992 22.5897 20.7715 23.2132 20.8216 23.8144C20.8717 24.4156 20.9163 24.9555 20.9218 25.0168C20.933 25.1281 20.8161 25.1671 20.1202 25.284C19.9143 25.3118 19.9143 25.3118 19.8809 25.0836ZM20.2761 21.276C20.3596 21.1257 20.5878 20.7472 20.7882 20.4243C20.9886 20.1015 21.3337 19.5281 21.5564 19.1496L21.9683 18.4593L21.8069 18.2589C21.5675 17.9583 21.5675 17.9472 21.6677 17.719C21.7345 17.5575 21.7624 17.3349 21.7624 16.8617C21.7624 16.1047 21.6622 15.6816 21.395 15.381C21.2391 15.2084 21.1946 15.1862 21.0053 15.2029C20.8884 15.214 20.7994 15.2084 20.8049 15.1862C20.8161 15.1639 20.9775 15.0192 21.1612 14.8633L21.5063 14.5794L22.1465 15.175C22.4972 15.509 22.9147 15.8931 23.0705 16.0379C23.4212 16.3607 23.4268 16.4108 23.1652 17.4907C22.8868 18.6486 22.2021 20.6025 21.9071 21.0812C21.7624 21.315 21.6622 21.3484 20.9719 21.3929C20.6546 21.4096 20.3485 21.4486 20.2928 21.482C20.1202 21.5766 20.1147 21.5488 20.2761 21.276Z" fill="#335061"/>
<path d="M19.9867 21.0422C20.0925 20.7082 20.1927 20.0569 20.2706 19.1997C20.3764 18.1198 20.3875 18.0864 20.7549 18.0864C21.0221 18.0864 21.2838 18.2033 21.4897 18.4204L21.6456 18.5818L21.2949 19.183C20.8217 19.9957 20.0591 21.148 19.9979 21.148C19.9756 21.148 19.9645 21.1035 19.9867 21.0422Z" fill="#335061"/>
<path d="M9.0817 22.0331C5.86978 18.4928 5.60815 13.0598 8.46938 9.25778C8.81451 8.80132 9.58827 7.9552 9.6662 7.9552C9.68846 7.9552 9.72743 8.0387 9.74413 8.1389C9.77196 8.28363 9.73856 8.40053 9.59383 8.67886C9.4157 9.02955 9.41013 9.04625 9.4157 9.73094C9.4157 10.36 9.4324 10.4769 9.57156 10.8498C9.87216 11.6514 10.3342 12.1468 10.9632 12.3584L11.2415 12.453L11.3417 12.8594C11.3974 13.0765 11.5533 13.4661 11.6924 13.7166C11.9652 14.2176 11.9986 14.4013 11.8483 14.5405C11.7926 14.585 11.3083 14.88 10.7739 15.1918C10.2396 15.5091 9.59383 15.8987 9.33777 16.0602C9.10046 16.2161 8.8572 16.3628 8.60854 16.4999C8.24672 16.6836 8.04632 16.923 8.04632 17.1902C8.04632 17.385 8.51948 18.8268 8.86461 19.7007C8.95924 19.9289 9.08727 20.3297 9.1485 20.5914C9.2821 21.148 9.45467 22.2335 9.42683 22.3226C9.4157 22.3615 9.25984 22.2279 9.0817 22.0331ZM22.4081 21.1647C22.4081 21.1425 22.5584 20.6916 22.7477 20.1516C23.3043 18.5373 23.861 16.6892 23.8944 16.3608C23.9278 15.9711 23.8443 15.8375 23.1318 15.2029C22.1075 14.29 21.9071 14.0785 21.9071 13.9282C21.9071 13.8502 22.024 13.5719 22.1632 13.3158C22.4415 12.8037 22.6197 12.325 22.8312 11.5123C22.9926 10.8832 23.1874 9.61404 23.1874 9.17428C23.1874 9.00172 23.2041 8.77906 23.2208 8.68442L23.2598 8.50629L23.399 8.63432C23.989 9.18542 24.9131 10.7329 25.2972 11.8184C25.7258 13.0264 25.8761 13.9449 25.8761 15.2753C25.8761 16.3051 25.8149 16.8729 25.6033 17.7023C25.403 18.5039 25.1636 19.1496 24.7962 19.8788L24.4622 20.5246L24.1059 20.5858C23.7497 20.647 23.3099 20.7973 22.731 21.0534C22.5529 21.1313 22.4081 21.1814 22.4081 21.1647ZM15.8173 18.8546C15.7783 18.7822 15.6558 18.4872 15.5557 18.1977C15.3831 17.7079 15.3664 17.6188 15.3664 16.9731C15.3664 16.2049 15.4443 15.9488 15.6948 15.882C15.9175 15.8264 16.7024 16.0769 17.3871 16.422C17.7433 16.6057 18.0717 16.7504 18.1107 16.7504C18.1942 16.7504 18.1998 16.8951 18.1163 16.9508C18.0829 16.9731 17.9382 17.0176 17.7934 17.0566C17.5262 17.1289 17.5318 17.1401 17.9716 17.2514C18.222 17.3182 18.2332 17.3293 18.2332 17.5297C18.2332 17.719 18.1998 17.758 17.7767 18.0975C17.1588 18.5874 16.9974 18.6765 16.4908 18.8379C15.9564 19.0105 15.9175 19.0104 15.8173 18.8546ZM20.098 17.719C19.4912 17.6132 19.5135 17.6299 19.5135 17.3126C19.5135 17.0065 19.597 16.9174 19.8753 16.9174C19.9588 16.9174 20.0089 16.8951 19.9867 16.8617C19.97 16.8339 19.8475 16.8061 19.7195 16.8061C19.5079 16.8061 19.4745 16.7894 19.4189 16.6391C19.3576 16.4777 19.3576 16.4721 19.803 16.1938C21.0053 15.42 21.2447 15.5035 21.4061 16.7671C21.4562 17.1846 21.434 17.5297 21.3393 17.7134C21.2781 17.8303 20.7604 17.8359 20.098 17.719ZM18.595 17.4518C18.5115 17.3906 18.4892 17.3015 18.4837 17.051C18.4837 16.7337 18.4892 16.7281 18.6618 16.678C19.135 16.5389 19.3743 17.2625 18.9234 17.4685C18.7453 17.5464 18.723 17.5464 18.595 17.4518Z" fill="#D33833"/>
<path d="M16.3687 29.3254C16.185 29.2975 15.812 29.2196 15.5337 29.1528L15.0327 29.0248L14.8045 28.2454C14.3592 26.7536 14.0196 25.0725 13.7858 23.2633C13.7301 22.818 13.7023 22.4339 13.7246 22.4117C13.7914 22.3337 15.5504 22.1055 16.5747 22.0387C17.2927 21.9942 17.7603 21.9942 18.3003 22.0331C19.2522 22.1111 19.358 22.1445 19.4081 22.3449C19.4359 22.4284 19.4804 23.0685 19.5138 23.7588C19.5528 24.449 19.5862 25.0335 19.6029 25.0502C19.614 25.0669 19.6474 25.7182 19.6808 26.4975C19.7365 27.8057 19.8088 28.7798 19.8812 29.0081C19.9146 29.1194 19.7309 29.1862 19.0629 29.3031C18.5452 29.3922 16.9421 29.4089 16.3687 29.3254ZM19.9925 27.622C19.9758 27.3826 19.948 26.8872 19.9257 26.5142C19.8868 25.7572 19.8645 25.8017 20.3377 25.7349L20.6049 25.7015L20.7552 26.4697C20.8387 26.8983 20.9055 27.3826 20.9055 27.5552V27.8669L20.5826 27.9615C20.0315 28.1174 20.0315 28.1174 19.9925 27.622ZM23.5774 24.8832C23.4494 24.7886 23.5719 24.7385 24.1508 24.6216C24.9078 24.4769 24.6573 24.4045 23.544 24.4546L22.6367 24.488L22.6088 24.2542C22.5921 24.1206 22.5476 23.7532 22.5142 23.4303C22.4826 23.0963 22.4362 22.7638 22.375 22.4339C22.2971 22.061 22.2971 22.0164 22.3806 21.9274C22.5031 21.7938 22.876 21.6212 23.4383 21.4264C23.6832 21.3429 23.9894 21.2204 24.1174 21.1536C24.6852 20.8697 25.1194 21.1536 25.381 21.9719C25.8152 23.3468 25.8208 23.987 25.4144 24.5047C25.1917 24.783 24.8967 24.8888 24.2454 24.9166C23.8836 24.9333 23.6275 24.9166 23.5774 24.8832ZM24.5794 23.4804C24.379 23.3969 23.6832 23.3524 23.4327 23.4025L23.2156 23.4526L23.4104 23.486C23.5162 23.5083 23.8558 23.5305 24.1619 23.5305C24.5905 23.5361 24.6852 23.5194 24.5794 23.4804ZM24.2788 22.779C24.5349 22.7401 24.5404 22.7345 24.3846 22.7011C24.0951 22.6343 23.5552 22.651 23.3826 22.7345C23.2212 22.8069 23.2323 22.8069 23.6108 22.8124C23.8279 22.818 24.1285 22.8013 24.2788 22.779ZM23.7444 22.1389C24.1285 21.9162 24.1786 21.8717 24.0228 21.8995C23.6108 21.9775 23.3047 22.1055 23.0987 22.2948L22.8816 22.4896L23.0764 22.4506C23.1822 22.4339 23.4828 22.2948 23.7444 22.1389ZM21.5512 24.6494C21.5401 24.6049 21.49 24.2598 21.4399 23.8757C21.3898 23.4916 21.3118 22.9293 21.2617 22.6288C21.2116 22.3003 21.2005 22.0554 21.2283 22.0276C21.2562 21.9997 21.4009 21.983 21.5512 21.9942L21.824 22.0109L21.9576 22.3449C22.1357 22.7957 22.2359 23.4081 22.2414 24.0315C22.2414 24.5437 22.2414 24.5492 22.0911 24.6049C21.8128 24.7107 21.579 24.7329 21.5512 24.6494ZM18.4283 20.9031C18.0331 20.7417 17.4208 20.4689 17.0757 20.2908C16.5134 20.0013 16.4522 19.9568 16.4856 19.851C16.6081 19.4558 16.9699 19.0494 17.5488 18.6542C17.7436 18.5262 17.9106 18.4204 17.9218 18.4204C18.0275 18.4204 18.7568 19.8176 19.1743 20.8029C19.319 21.148 19.3301 21.2037 19.2466 21.2037C19.1965 21.2037 18.8291 21.0701 18.4283 20.9031ZM19.987 21.0423C20.0927 20.7083 20.1929 20.057 20.2709 19.1997C20.3432 18.4705 20.3878 18.2089 20.449 18.1588C20.6605 17.9862 21.2228 18.1365 21.5067 18.4371L21.6347 18.5707L21.4955 18.8156C21.1894 19.3667 20.9444 19.7675 20.5047 20.4411C20.076 21.0979 19.9035 21.2983 19.987 21.0423ZM19.6418 20.8975C19.5093 20.6222 19.3831 20.3438 19.2633 20.0626C18.9015 19.222 18.7067 18.8379 18.445 18.4594C18.2335 18.1476 18.2279 18.1254 18.3226 18.0252C18.3782 17.9639 18.4951 17.9194 18.5898 17.9194C18.6844 17.9138 18.8236 17.8804 18.9015 17.8359C19.1075 17.719 19.2411 17.7357 19.5305 17.9194C19.6752 18.0085 19.8589 18.1031 19.9369 18.1198L20.0872 18.1588L20.0482 19.0439C20.0092 19.9123 19.909 20.7027 19.8033 20.981C19.7532 21.1202 19.7532 21.1202 19.6418 20.8975ZM19.7086 19.5616C19.7086 19.4224 19.6864 19.3946 19.5695 19.3946C19.4804 19.3946 19.4248 19.428 19.4136 19.4948C19.3802 19.6618 19.447 19.7675 19.5806 19.7453C19.6808 19.7341 19.7086 19.6952 19.7086 19.5616ZM19.5361 18.6709C19.5862 18.5317 19.5083 18.4204 19.3691 18.4204C19.2912 18.4204 19.2188 18.4594 19.2021 18.5039C19.1464 18.6431 19.2244 18.7544 19.3691 18.7544C19.4415 18.7544 19.5138 18.7154 19.5361 18.6709ZM14.4761 16.4777C14.0808 16.3385 13.7691 16.1715 13.6466 16.0323C13.5242 15.8932 13.5631 15.715 13.7134 15.7763C13.886 15.8486 14.1922 15.9043 14.6319 15.9433C15.1051 15.9822 15.1106 15.9878 14.9993 16.3775C14.9381 16.6113 14.888 16.6224 14.4761 16.4777ZM18.3114 16.3107C18.1222 16.2606 17.6768 16.0268 17.6768 15.9711C17.6768 15.9488 17.8605 15.9433 18.0832 15.96C18.3838 15.9767 18.6399 15.9488 19.0295 15.8598C19.3301 15.793 19.5973 15.7484 19.6251 15.7596C19.6585 15.7707 19.5138 15.9099 19.3079 16.0713C18.9182 16.3775 18.7568 16.4164 18.3114 16.3107ZM14.643 15.6928C14.1142 15.6371 13.5186 15.4534 13.2124 15.2475C12.923 15.0526 12.6391 14.663 12.383 14.0952C12.1325 13.5441 11.8876 12.8149 11.8542 12.4809C11.8208 12.2081 11.8264 12.1803 12.0212 11.9409C12.1603 11.7795 12.2216 11.6459 12.2104 11.5624C12.1882 11.3954 12.0602 11.4176 11.7596 11.6347C11.3643 11.9186 10.8578 11.8296 10.4792 11.4121C10.084 10.9723 9.78898 10.1986 9.84465 9.73096C9.94485 8.87927 10.8077 8.28365 11.4812 8.60094C11.6872 8.70114 11.9544 9.1075 12.0546 9.4749C12.1103 9.66973 12.127 9.68086 12.3385 9.68086C12.4609 9.68086 12.6446 9.64189 12.7504 9.60293C12.9898 9.50273 13.0009 9.3747 12.8228 8.71784C12.6669 8.12222 12.6725 7.60452 12.8562 6.73613C13.012 6.00134 13.0399 5.42798 12.9397 5.03276C12.8784 4.79896 12.8896 4.76556 13.051 4.51506C13.552 3.73574 15.0438 2.64469 16.1182 2.27173C16.5802 2.11586 17.5878 2.09916 18.2502 2.24389C19.1965 2.44986 20.2263 2.89519 20.7162 3.31268C20.95 3.51308 21.8518 4.61526 21.8518 4.70433C21.8518 4.71546 21.7572 4.71546 21.6403 4.69319C21.1894 4.62083 20.7385 4.88246 20.7385 5.21089C20.7385 5.33892 20.744 5.33892 20.8609 5.26099C21.078 5.10512 21.5345 5.14409 21.9186 5.35005C22.4975 5.65621 22.7035 6.06258 22.8037 7.09796C22.8983 8.04985 22.8371 9.94806 22.6979 10.6383C22.4641 11.7405 22.1078 12.6367 21.5345 13.5218C21.078 14.2232 20.8721 14.457 20.4546 14.7298C19.6474 15.2475 18.8069 15.5258 18.0387 15.5258C17.4876 15.5258 17.1369 15.4256 16.4856 15.0916C15.89 14.7854 15.183 14.1397 14.6263 13.3993C14.426 13.1321 14.2534 12.9206 14.2367 12.9318C14.1755 12.9985 14.3814 13.4049 14.6709 13.789C15.0494 14.2956 15.8399 15.0693 16.1683 15.253C16.2908 15.3254 16.3965 15.4089 16.3965 15.4311C16.3965 15.459 16.2629 15.459 16.1015 15.4423C15.7508 15.3977 15.4001 15.4812 15.2554 15.6371C15.1997 15.6983 15.1273 15.7429 15.0939 15.7429C15.0605 15.7373 14.8601 15.715 14.643 15.6928ZM19.9202 13.7445C20.0315 13.7111 20.1762 13.6276 20.243 13.5608L20.3544 13.4383L19.4192 13.4049C18.1277 13.3604 17.7826 13.249 17.3261 12.7425C17.1814 12.5866 17.0311 12.4642 16.981 12.4753C16.9254 12.4864 17.0089 12.6312 17.2816 12.9651C17.7882 13.5886 17.9051 13.6888 18.2168 13.7779C18.5285 13.8669 19.5917 13.8447 19.9202 13.7445ZM19.9925 12.5365C19.9758 12.4196 19.9591 12.286 19.9591 12.2359C19.9591 12.158 19.8367 12.1413 19.0574 12.1135C18.2391 12.0912 17.8661 12.0355 17.4263 11.8741C17.2204 11.8017 17.688 12.2415 17.9607 12.3862C18.3504 12.5811 19.0184 12.7202 19.6752 12.7369L20.0315 12.7425L19.9925 12.5365ZM20.783 12.6033C21.1448 12.492 21.5512 12.1691 21.8073 11.7906C21.9186 11.6236 22.0021 11.4844 21.9909 11.4733C21.9854 11.4622 21.7516 11.5679 21.4733 11.7071C21.2005 11.8463 20.8554 11.991 20.7051 12.0244C20.5911 12.049 20.4779 12.0768 20.3655 12.1079C20.321 12.119 20.2931 12.2304 20.2931 12.4085C20.2931 12.7314 20.3154 12.7369 20.783 12.6033ZM20.0315 11.5791C20.4768 11.4622 20.7218 11.3564 21.2673 11.028C21.5846 10.8443 21.6124 10.8109 21.7015 10.5103C21.7516 10.3322 21.7961 10.1596 21.7961 10.1206C21.7961 10.0872 21.579 9.83116 21.3174 9.55283C20.5102 8.69001 20.0148 7.97748 19.7031 7.20373C19.6641 7.12023 19.653 7.15363 19.6363 7.34846C19.6029 7.84945 19.9591 8.53414 20.7552 9.4916C21.3174 10.1596 21.3953 10.3266 21.2896 10.5826C21.2339 10.7274 21.1226 10.7997 20.6605 11.0224C19.9925 11.3341 19.7476 11.4065 19.3691 11.4065C19.0351 11.4065 18.8625 11.2618 18.8069 10.9333C18.779 10.7663 18.7623 10.7441 18.7178 10.822C18.6399 10.9667 18.6621 11.3174 18.7623 11.5123C18.8458 11.6793 18.8625 11.6848 19.2299 11.6848C19.4359 11.6848 19.7977 11.6347 20.0315 11.5791ZM10.9246 10.2542C10.9413 9.77549 11.0359 9.56953 11.2419 9.56953C11.3922 9.56953 11.4924 9.67529 11.6705 10.0149C11.7985 10.2654 11.8041 10.2654 11.8208 10.1039C11.8486 9.85899 11.6816 9.48603 11.4367 9.26893C11.2586 9.10194 11.1751 9.06854 10.9747 9.06854C10.7687 9.06854 10.7075 9.09637 10.585 9.2411C10.4069 9.45263 10.4013 9.5417 10.5739 9.43036C10.7297 9.3246 10.9134 9.3747 10.8466 9.5083C10.7576 9.68086 10.8021 10.6828 10.8967 10.6828C10.9079 10.6828 10.919 10.4936 10.9246 10.2542ZM17.9941 8.70114C18.1611 8.57311 18.2112 8.45621 18.1778 8.23355C18.1723 8.18901 18.0721 8.04985 17.9552 7.92738C17.8327 7.80492 17.649 7.51546 17.5377 7.28723L17.3428 6.86973L17.3595 7.12023C17.3818 7.37629 17.521 7.71029 17.7381 8.05542C17.8494 8.22798 17.855 8.25025 17.7659 8.33375C17.6935 8.40611 17.5933 8.42281 17.3261 8.41168C16.4912 8.36715 16.5357 8.36715 16.519 8.48961C16.4633 8.8737 17.5655 9.02957 17.9941 8.70114ZM22.1579 8.46178C22.2804 8.40611 22.4251 8.31148 22.4752 8.25025C22.5699 8.15005 22.5587 8.11665 22.2414 7.49319C21.9464 6.91983 21.9075 6.86417 21.9075 7.03673C21.9075 7.1425 21.9743 7.39299 22.0577 7.59339C22.1691 7.86059 22.1913 7.97192 22.1468 8.01645C22.1078 8.05542 21.8852 8.09995 21.6458 8.12778C21.4065 8.15005 21.2061 8.17231 21.2005 8.17231C21.156 8.18345 21.1949 8.33931 21.2729 8.44508C21.3397 8.54528 21.412 8.56754 21.6458 8.56754C21.8073 8.56754 22.0355 8.51744 22.1579 8.46178ZM15.2275 6.04031C15.5615 5.58942 15.89 5.42242 16.4132 5.42798C16.7862 5.42798 16.7918 5.42798 16.7751 5.28882C16.7472 5.06616 16.4244 4.87689 16.1516 4.92142C15.6673 4.99379 15.055 5.48365 14.8601 5.94568C14.7265 6.25741 14.7822 6.71943 14.9214 6.4745C14.9492 6.42441 15.0884 6.22957 15.2275 6.04031Z" fill="#6F6C6E"/>
<path d="M12.4277 9.19659C12.4054 9.17989 12.3887 9.10196 12.3887 9.02959C12.3887 8.6789 11.9712 8.21131 11.5148 8.06101C11.2476 7.97194 10.5796 8.02204 10.446 8.14451C10.3959 8.19461 10.3291 8.21687 10.3124 8.19461C10.2901 8.17791 10.2734 7.82721 10.2734 7.42642C10.2734 6.4801 10.3514 6.20733 10.7355 5.80097C11.1251 5.38904 11.8043 5.04948 12.2607 5.03835L12.5836 5.03278L12.6337 5.41688C12.6782 5.71747 12.6615 5.98467 12.5669 6.69719C12.4166 7.81608 12.4166 7.92184 12.5669 8.55087C12.6671 8.97393 12.6726 9.07413 12.617 9.14649C12.5335 9.24112 12.4834 9.25782 12.4277 9.19659ZM11.2587 4.65982C11.448 4.33139 11.9601 3.8304 12.4388 3.5131C13.285 2.94531 14.4205 2.52782 14.4205 2.77831C14.4205 2.82284 14.3704 2.88408 14.3092 2.91748C13.8583 3.14571 13.3852 3.5966 13.1402 4.0141C13.0567 4.15883 12.9231 4.35366 12.8341 4.44829C12.6893 4.60415 12.6504 4.61529 12.3219 4.60972C12.0907 4.60497 11.8605 4.64271 11.6428 4.72105C11.1808 4.88805 11.1363 4.87692 11.2587 4.65982Z" fill="#6F6C6E"/>
<path d="M10.2728 24.7496C10.1948 24.705 10.1392 24.6494 10.1447 24.6215C10.1614 24.5269 10.0557 22.9738 9.99443 22.4561C9.8664 21.3762 9.60477 20.0347 9.37654 19.2832C9.20397 18.6987 9.03698 18.2088 8.98688 18.0863C8.94791 18.0084 8.90338 17.8971 8.87554 17.8358C8.67515 17.346 8.65845 17.2792 8.71411 17.2625C8.74751 17.2514 8.92564 17.1233 9.10377 16.9786C9.8163 16.4164 10.9185 15.7038 11.5531 15.4088C11.7535 15.3142 11.9761 15.2084 12.0485 15.175C12.171 15.1138 12.2044 15.1361 12.5328 15.4979C12.7276 15.7094 12.8891 15.8987 12.8891 15.9154C12.8891 15.9543 12.9225 15.9376 11.0242 16.7782C10.2895 17.1066 9.67713 17.3794 9.67157 17.3905C9.66043 17.4017 9.7161 17.7078 9.7996 18.0696C10.1169 19.478 10.3618 20.9197 10.4954 22.1388C10.5956 23.0573 10.5622 24.8219 10.4453 24.8219C10.4286 24.8219 10.3507 24.7885 10.2728 24.7496ZM19.7805 23.0072C19.7248 22.9571 19.7248 22.6176 19.7694 22.3838C19.8083 22.1889 19.8807 22.15 20.2871 22.1277C20.5543 22.1054 20.5654 22.111 20.6211 22.278C20.6545 22.3671 20.6823 22.5285 20.6823 22.6343C20.6823 22.8012 20.6545 22.8346 20.4763 22.9126C20.2314 23.0128 19.8362 23.0684 19.7805 23.0072ZM12.8891 22.8179C12.4994 22.7511 12.299 22.6843 12.1209 22.5675C11.9594 22.4617 11.9038 22.3949 11.9539 22.3671C11.9873 22.3448 12.0485 22.3392 12.0819 22.3615C12.1097 22.3838 12.4048 22.4005 12.7332 22.4005C13.095 22.4005 13.3511 22.4227 13.39 22.4617C13.4234 22.4951 13.4457 22.612 13.4346 22.7177L13.4179 22.907L12.8891 22.8179ZM13.6461 21.7826C13.6016 21.6657 13.6016 20.2963 13.6461 19.6561L13.6851 19.1496L13.8966 19.4168L14.1137 19.6895V20.7527C14.1137 21.3372 14.097 21.816 14.0747 21.8215C14.0469 21.8215 13.9523 21.8327 13.8521 21.8438C13.7296 21.8605 13.6684 21.8438 13.6461 21.7826ZM18.5725 20.9531C17.9714 20.7138 16.6688 20.0903 16.524 19.9679C16.4183 19.8788 16.6688 19.439 17.0139 19.1162C17.4036 18.7488 17.8322 18.4593 17.9268 18.4927C18.0604 18.5484 18.5558 19.4223 18.9288 20.2629C19.2851 21.0867 19.3296 21.2036 19.2517 21.2036C19.2238 21.2036 18.9232 21.0867 18.5725 20.9531ZM19.9865 21.0645C20.1368 20.6303 20.2704 19.7285 20.326 18.8211C20.365 18.2199 20.3706 18.1865 20.4986 18.1364C20.8159 18.0195 21.2334 18.142 21.5061 18.437L21.6342 18.5706L21.495 18.8156C20.8159 20.0347 19.8473 21.4708 19.9865 21.0645ZM22.4525 16.2215C22.0016 15.8875 21.5451 15.5201 21.4449 15.4199C21.3391 15.3142 21.1777 15.1973 21.0775 15.1639L20.8994 15.1082L21.2 14.8466L21.5006 14.585L22.0238 15.0971C22.3133 15.381 22.7141 15.7539 22.9201 15.9321C23.3097 16.2661 23.4155 16.4776 23.3153 16.7225C23.2763 16.8227 23.1928 16.7782 22.4525 16.2215Z" fill="#4A738D"/>
<path d="M16.4518 29.3087C15.7337 29.1973 15.1325 29.0526 15.0713 28.9802C14.9934 28.8856 14.7095 27.8836 14.4534 26.8204C14.0971 25.3731 13.6518 22.5286 13.7631 22.4284C13.8244 22.3671 15.216 22.1667 16.1178 22.0888C17.1922 21.9942 19.2351 22.0777 19.3743 22.2168C19.391 22.228 19.4411 22.9015 19.4856 23.7142C19.5301 24.5214 19.5802 25.284 19.5969 25.4065C19.6136 25.529 19.6526 26.2248 19.6804 26.9484C19.7083 27.6721 19.7639 28.4458 19.7973 28.6685C19.8474 28.9858 19.8419 29.0749 19.7862 29.1138C19.4522 29.3198 17.3313 29.4423 16.4518 29.3087ZM20.0423 27.995C20.0311 27.9783 20.0033 27.4828 19.981 26.9039L19.9421 25.8462L20.2315 25.7794C20.5655 25.7015 20.6267 25.7238 20.6267 25.9019C20.6267 25.9743 20.6768 26.2637 20.7381 26.5532C20.7993 26.8427 20.8661 27.2435 20.8828 27.4494C20.9218 27.8224 20.9218 27.8224 20.7603 27.8892C20.5432 27.9727 20.0701 28.0451 20.0423 27.995ZM23.7162 24.8832C23.4991 24.8443 23.4991 24.8387 23.6327 24.783C23.7106 24.7496 23.8609 24.7107 23.9667 24.6884C24.5735 24.5715 24.6959 24.527 24.6347 24.4657C24.5902 24.4268 24.2729 24.4101 23.6104 24.4212L22.653 24.4379L22.5584 23.5584C22.5027 23.0741 22.4248 22.5286 22.3802 22.3449L22.3023 22.0109L22.4526 21.8884C22.5361 21.816 22.781 21.6936 22.9925 21.6156C23.2096 21.5321 23.5937 21.3818 23.8554 21.2705C24.4232 21.0367 24.657 21.02 24.9075 21.2037C25.1524 21.3763 25.3138 21.7437 25.5253 22.5954C25.7035 23.3413 25.7313 23.7087 25.6255 24.0594C25.5309 24.3711 25.1691 24.7385 24.8852 24.8109C24.5679 24.8944 23.9778 24.9278 23.7162 24.8832ZM24.6458 23.4804C24.3508 23.3635 23.7886 23.3134 23.488 23.3747C22.9703 23.486 23.1484 23.5417 23.9834 23.5361C24.5289 23.5361 24.7349 23.5194 24.6458 23.4804ZM24.5401 22.7679C24.6403 22.729 24.618 22.7123 24.3842 22.6733C23.822 22.5787 23.1874 22.6622 23.1874 22.8347C23.1874 22.896 24.3452 22.8403 24.5401 22.7679ZM23.783 22.1445C24.0725 21.9886 24.3007 21.855 24.2896 21.8439C24.2506 21.8049 23.7273 21.9329 23.4713 22.0387C23.321 22.1055 23.1261 22.2335 23.0426 22.3282L22.8812 22.5007L23.0705 22.4618C23.1707 22.4451 23.4935 22.3003 23.783 22.1445ZM21.5731 24.655C21.5731 24.5938 21.2613 22.4506 21.2112 22.1946C21.189 22.0387 21.189 22.0387 21.4951 22.0387H21.8013L21.9126 22.2892C22.0796 22.6622 22.1798 23.2077 22.2244 23.9091L22.2578 24.527L21.9906 24.6216C21.6788 24.7218 21.5731 24.7329 21.5731 24.655ZM19.0959 21.1313C18.3277 20.8808 16.5075 20.0292 16.5075 19.9178C16.5075 19.6284 16.9973 19.0494 17.5429 18.6932L17.9102 18.4594L18.0383 18.6208C18.2888 18.9214 19.352 21.1146 19.2796 21.1759C19.2685 21.1814 19.1906 21.1647 19.0959 21.1313ZM20.0367 21.0089C20.1424 20.725 20.3373 19.261 20.354 18.5429L20.3651 18.1978L20.5655 18.1421C20.8494 18.0697 21.1611 18.1532 21.3838 18.3703C21.4896 18.4705 21.5731 18.5763 21.5731 18.6041C21.5731 18.6765 20.8271 19.929 20.4152 20.5524C20.0812 21.059 19.9588 21.2037 20.0367 21.0089ZM19.6081 20.7751C19.5357 20.6304 19.3186 20.1516 19.1293 19.723C18.9401 19.2888 18.6729 18.7655 18.5337 18.554C18.311 18.2089 18.2888 18.1588 18.3556 18.0419C18.4001 17.9528 18.4558 17.9194 18.5281 17.9417C18.5894 17.9584 18.7619 17.9194 18.9122 17.8582L19.185 17.7524L19.5357 17.9473C19.7305 18.053 19.9254 18.1421 19.9755 18.1421C20.0868 18.1421 20.0868 18.092 20.0144 19.2331C19.9643 20.0292 19.8419 20.9532 19.7695 21.02C19.7528 21.0367 19.6804 20.9254 19.6081 20.7751ZM19.7417 19.6673C19.8363 19.5504 19.7417 19.3946 19.5691 19.3946C19.3965 19.3946 19.3019 19.5504 19.3965 19.6673C19.4411 19.7174 19.5134 19.7564 19.5691 19.7564C19.6248 19.7564 19.6971 19.7174 19.7417 19.6673ZM19.5357 18.6876C19.6081 18.5707 19.5246 18.4037 19.391 18.3759C19.3019 18.3592 19.1238 18.5039 19.1238 18.5874C19.1238 18.6709 19.3019 18.8156 19.391 18.7989C19.4355 18.7878 19.5023 18.7377 19.5357 18.6876ZM14.4757 16.4498C14.1138 16.3329 13.6796 16.0936 13.6128 15.9711C13.5182 15.7986 13.5906 15.7485 13.8021 15.832C13.9023 15.8765 14.214 15.9266 14.4979 15.9488C14.7763 15.9711 15.0156 16.0045 15.0323 16.0268C15.0435 16.0435 15.0268 16.1659 14.9934 16.294C14.9266 16.5556 14.8653 16.5723 14.4757 16.4498ZM18.2331 16.2661C18.0438 16.1993 17.6764 16.0045 17.6764 15.9711C17.6764 15.9488 17.8045 15.96 17.9603 15.9934C18.1997 16.0435 18.35 16.0268 18.9345 15.9099C19.313 15.8264 19.6248 15.7707 19.6248 15.7819C19.6248 15.7874 19.4745 15.9099 19.2963 16.049C18.9846 16.2884 18.9456 16.3051 18.6395 16.2995C18.4613 16.2995 18.2776 16.2828 18.2331 16.2661ZM14.5313 15.6538C14.2474 15.626 13.5906 15.4312 13.3289 15.3031C13.045 15.1584 12.7834 14.8411 12.5162 14.329C12.2657 13.8391 11.9206 12.8594 11.8594 12.4586C11.826 12.2192 11.8315 12.1914 12.0486 11.9409C12.288 11.6681 12.3103 11.6013 12.2212 11.4622C12.1767 11.3898 12.1377 11.3954 11.9596 11.5011C11.4474 11.7962 11.4085 11.8129 11.1413 11.7739C10.7349 11.7127 10.4566 11.4566 10.1671 10.8944C9.95002 10.4769 9.91662 10.3544 9.89435 9.9759C9.87209 9.59737 9.88879 9.49717 9.99455 9.28564C10.2729 8.72898 10.6403 8.52858 11.2971 8.56198C11.5309 8.57312 11.8371 8.91824 11.9707 9.31904C12.0264 9.50274 12.0932 9.6753 12.1154 9.69757C12.1822 9.78107 12.7278 9.66973 12.878 9.5417L13.0228 9.41924L12.8725 8.78465C12.6832 7.97749 12.6832 7.71029 12.8892 6.71387C13.0784 5.79539 13.0896 5.55046 12.9782 5.11626L12.8947 4.8101L13.0729 4.5095C13.5405 3.73018 15.3106 2.48327 16.2848 2.25504C17.6152 1.93774 19.853 2.5278 20.8104 3.44072C21.0721 3.69122 21.7957 4.59857 21.7957 4.68207C21.7957 4.68764 21.6343 4.69877 21.4395 4.69877C21.1333 4.69877 21.0609 4.72104 20.9329 4.83793C20.7715 4.98823 20.6657 5.20533 20.7102 5.28326C20.7269 5.31109 20.8271 5.29439 20.9329 5.24986C21.3059 5.094 21.7902 5.20533 22.1798 5.54489C22.653 5.95125 22.781 6.44111 22.8311 8.06656C22.8923 10.0204 22.6196 11.4399 21.9293 12.8149C21.7679 13.1266 21.2001 14.0005 20.9719 14.2733C20.5154 14.8244 19.1961 15.4256 18.2665 15.5035C17.7432 15.5481 17.3202 15.459 16.7023 15.1695C15.845 14.7632 15.2717 14.2566 14.5425 13.2491C14.3532 12.993 14.1918 12.8093 14.1806 12.8483C14.1472 12.9429 14.4311 13.5218 14.6649 13.828C14.9934 14.2622 15.7838 15.0471 16.0788 15.2363L16.346 15.4033L15.9007 15.42C15.5333 15.4367 15.4331 15.4646 15.3273 15.5703C15.1882 15.6928 15.0824 15.7039 14.5313 15.6538ZM19.8808 13.7723C20.1202 13.6999 20.4041 13.4995 20.4041 13.4105C20.4041 13.3882 20.0367 13.3715 19.5858 13.3715C18.2776 13.3771 17.6876 13.199 17.2979 12.6868C17.1922 12.5477 17.0753 12.4308 17.0363 12.4196C16.8749 12.3807 16.9027 12.531 17.0864 12.7592C17.1977 12.8872 17.3926 13.1266 17.5206 13.2936C17.7878 13.6276 18.0383 13.7834 18.4391 13.8558C18.7786 13.917 19.5524 13.8725 19.8808 13.7723ZM20.0033 12.453L19.9866 12.158L19.2073 12.119C18.3667 12.0801 17.8212 12.0021 17.515 11.8741C17.4093 11.8296 17.3146 11.8017 17.3091 11.8129C17.2979 11.824 17.3647 11.9242 17.4594 12.0355C17.7933 12.4363 18.6562 12.7314 19.558 12.7369L20.02 12.7425L20.0033 12.453ZM21.0999 12.4976C21.2335 12.4196 21.4339 12.2582 21.5452 12.1357C21.7735 11.8964 22.0852 11.451 22.0462 11.4176C22.0351 11.4065 21.8403 11.4956 21.6176 11.6125C21.189 11.8463 20.5933 12.0745 20.4041 12.0745C20.3039 12.0745 20.2927 12.1135 20.2927 12.3862V12.7035L20.5766 12.6701C20.7325 12.6479 20.9663 12.5699 21.0999 12.4976ZM20.0701 11.5902C20.443 11.4956 20.8605 11.3063 21.3003 11.0391C21.5953 10.861 21.6343 10.8165 21.7122 10.5604C21.8403 10.1151 21.8236 10.0594 21.4729 9.69757C20.7102 8.92938 19.8808 7.74369 19.7695 7.2761C19.7528 7.18704 19.6971 7.12024 19.6526 7.12024C19.4466 7.12024 19.6637 7.94966 20.0144 8.53415C20.1202 8.70671 20.3874 9.06854 20.5989 9.32461C21.3504 10.2431 21.3838 10.3099 21.2335 10.6439C21.111 10.9167 19.6303 11.4622 19.2184 11.3842C18.979 11.3397 18.8955 11.2395 18.851 10.9723C18.812 10.733 18.7285 10.7107 18.6562 10.9167C18.5838 11.117 18.6673 11.451 18.8232 11.6125C18.9568 11.7461 18.9846 11.7516 19.3631 11.7127C19.5858 11.6904 19.9031 11.6347 20.0701 11.5902ZM11.0745 9.68643C11.1357 9.61964 11.2081 9.56954 11.247 9.56954C11.3417 9.56954 11.5198 9.78107 11.6701 10.0705L11.8037 10.321L11.8204 10.0594C11.8427 9.74767 11.6979 9.43037 11.4419 9.21327C11.1023 8.93495 10.7293 8.96278 10.5122 9.28564C10.3508 9.525 10.3508 9.60294 10.5067 9.4916C10.5735 9.4415 10.6792 9.40254 10.7349 9.40254C10.824 9.40254 10.8295 9.43037 10.7906 9.58624C10.7238 9.84787 10.746 10.4101 10.8351 10.5994C10.9019 10.7608 10.9075 10.7441 10.9409 10.2821C10.9631 9.92023 10.9965 9.76993 11.0745 9.68643ZM18.0438 8.67888C18.3055 8.41725 18.2943 8.26139 17.9826 7.91069C17.8434 7.75483 17.6375 7.43197 17.5206 7.1926C17.3425 6.80851 17.3146 6.77511 17.2979 6.91984C17.2757 7.08684 17.4705 7.69916 17.593 7.84389C17.6319 7.88843 17.7043 8.00532 17.7488 8.09996C17.8379 8.27809 17.8379 8.27809 17.6764 8.34489C17.5596 8.39499 17.387 8.40055 17.0808 8.36715C16.8415 8.34489 16.6244 8.32262 16.591 8.31705C16.4908 8.31705 16.4963 8.57312 16.5965 8.68445C16.7413 8.84588 16.9862 8.90155 17.4427 8.87928C17.8156 8.86258 17.8657 8.84588 18.0438 8.67888ZM22.28 8.42839C22.4136 8.34489 22.5417 8.24469 22.5584 8.20572C22.5806 8.13336 21.9238 6.73057 21.8625 6.73057C21.7902 6.73057 21.9126 7.35403 22.0462 7.6435C22.2188 8.03316 22.2077 8.04429 21.6844 8.09439C21.484 8.11666 21.2892 8.13892 21.2558 8.15006C21.1333 8.18902 21.1778 8.38942 21.3393 8.51188C21.4617 8.61208 21.5341 8.62878 21.7623 8.60095C21.9071 8.58425 22.1409 8.50632 22.28 8.42839ZM15.0546 6.31865C15.255 5.97908 15.5945 5.64509 15.8729 5.52819C15.9731 5.48366 16.218 5.45026 16.4184 5.45026C16.6188 5.45026 16.7969 5.42243 16.8136 5.39459C16.925 5.2109 16.552 4.8936 16.218 4.8936C15.9619 4.8936 15.5055 5.1274 15.2216 5.41129C14.9878 5.64509 14.7262 6.11268 14.7262 6.30195C14.7262 6.40215 14.8208 6.61924 14.8653 6.61924C14.8765 6.61924 14.96 6.48564 15.0546 6.31865Z" fill="#83B3C7"/>
<path d="M10.2948 7.86617C10.2503 7.48765 10.2948 6.66936 10.3839 6.38546C10.5676 5.762 11.4137 5.16638 12.3099 5.02721C12.5159 4.99938 12.5437 5.00495 12.5716 5.12184C12.6272 5.32224 12.6216 5.33894 12.4825 5.33894C12.2654 5.33894 11.6531 5.5616 11.3747 5.73974C10.7067 6.1628 10.3115 7.03119 10.4173 7.83834C10.4395 8.00534 10.4284 8.12224 10.395 8.1445C10.356 8.16677 10.3226 8.061 10.2948 7.86617ZM11.2189 4.78228C11.2189 4.76002 11.3358 4.58745 11.4749 4.39819C11.7755 3.99739 12.399 3.5131 13.0447 3.1791C13.5513 2.91747 14.2638 2.65028 14.3417 2.70038C14.4419 2.75604 14.3863 2.87294 14.2304 2.95087C13.0447 3.5298 12.6383 3.797 12.1151 4.34252C11.8702 4.59302 11.7366 4.68208 11.5139 4.74888C11.3525 4.79342 11.2189 4.81012 11.2189 4.78228Z" fill="#83B3C7"/>
<path d="M18.2325 16.255C18.0376 16.1938 17.7426 16.0379 17.7036 15.9711C17.6814 15.9321 17.7203 15.9321 17.815 15.9711C18.0432 16.0546 18.3716 16.0379 19.0285 15.8932C19.3569 15.8208 19.6241 15.7707 19.6241 15.7763C19.6241 15.7818 19.4738 15.9043 19.2957 16.049C18.9951 16.2828 18.9394 16.3051 18.6667 16.2995C18.5052 16.2995 18.3104 16.2773 18.2325 16.255ZM14.4639 15.6315C14.013 15.5759 13.4341 15.3755 13.1724 15.1918C12.8718 14.9747 12.5768 14.5127 12.2873 13.8224C12.0702 13.2936 11.8309 12.492 11.8309 12.2916C11.8309 12.2359 11.9311 12.0745 12.0591 11.9298C12.2929 11.6626 12.3319 11.451 12.1537 11.4176C12.1036 11.4065 11.92 11.49 11.753 11.6069C11.4858 11.785 11.4134 11.8073 11.213 11.7795C10.8345 11.7294 10.4949 11.4789 10.2555 11.0725C9.69331 10.1039 9.77125 9.20769 10.4615 8.75123C10.6953 8.5898 10.7788 8.56753 11.0794 8.56753C11.3522 8.56753 11.4579 8.59537 11.5804 8.69C11.7363 8.81246 12.0535 9.40809 12.0535 9.58622C12.0535 9.64188 12.0925 9.69755 12.137 9.71425C12.2929 9.77548 12.7215 9.67528 12.8718 9.54725L13.0166 9.41922L12.8718 8.7735C12.6826 7.95521 12.6826 7.72141 12.8885 6.73612C13.0778 5.8399 13.0945 5.48364 12.972 5.08285C12.8941 4.82122 12.8997 4.80452 13.0277 4.58185C13.3673 4.00293 14.1689 3.31267 15.1708 2.74488C15.9168 2.32738 16.2563 2.21605 16.9521 2.18265C17.9319 2.13255 18.8949 2.35522 19.9915 2.88961C20.4758 3.12341 20.6094 3.21804 20.9378 3.5743C21.1494 3.80253 21.4277 4.14209 21.5613 4.33136L21.8006 4.67092H21.4834C21.1271 4.67092 20.91 4.77668 20.7708 5.00491C20.6484 5.21644 20.6539 5.36118 20.782 5.31108C21.2273 5.12181 21.578 5.16078 22.0289 5.44468C22.5744 5.7898 22.7136 6.19617 22.8082 7.67131C22.9251 9.56395 22.669 11.195 22.0456 12.5588C21.7951 13.1043 21.1327 14.1119 20.8376 14.3902C20.4146 14.7965 19.6408 15.1918 18.9005 15.3866C18.3995 15.5202 17.6201 15.5202 17.2305 15.3922C16.2675 15.0693 15.477 14.4626 14.7032 13.4494C14.4305 13.0932 14.1967 12.8093 14.18 12.8204C14.1299 12.8705 14.347 13.3938 14.5195 13.6443C14.8313 14.0952 15.6551 14.9468 16.017 15.1918L16.3621 15.42L16.0671 15.3977C15.7108 15.3643 15.477 15.4256 15.31 15.5814C15.182 15.7039 15.0929 15.7039 14.4639 15.6315ZM19.7299 13.8168C20.0694 13.7445 20.4034 13.5385 20.4034 13.3993C20.4034 13.3771 20.036 13.3548 19.5851 13.3548C18.6388 13.3604 18.3716 13.327 17.9653 13.1767C17.6257 13.0486 17.3975 12.8705 17.2305 12.6033C17.1581 12.492 17.0635 12.4085 17.0022 12.4085C16.8074 12.4085 16.8408 12.4586 17.57 13.3715C17.6647 13.4884 17.7983 13.622 17.8762 13.6665C18.2325 13.9059 19.0174 13.9671 19.7299 13.8168ZM20.0138 12.4808C20.0138 12.2916 19.9859 12.1747 19.947 12.158C19.908 12.1469 19.5517 12.1246 19.151 12.1023C18.238 12.0634 17.7816 11.9854 17.3752 11.824C17.2861 11.785 17.2806 11.7962 17.3362 11.8908C17.5979 12.3918 18.6388 12.7647 19.78 12.7759H20.0138V12.4808ZM20.9935 12.5476C21.1549 12.4808 21.3832 12.3194 21.5112 12.1914C21.7227 11.9799 22.0901 11.4566 22.0511 11.4176C22.04 11.4121 21.7784 11.529 21.4667 11.6793C21.1549 11.8296 20.7653 11.9854 20.5983 12.0188L20.2921 12.0801V12.7536L20.5036 12.7146C20.615 12.6979 20.8376 12.62 20.9935 12.5476ZM20.1362 11.5958C20.4647 11.4956 20.8321 11.323 21.3052 11.0391C21.5724 10.8777 21.6337 10.8053 21.706 10.5882C21.8452 10.1874 21.8229 9.98701 21.6281 9.83672C21.1215 9.44149 19.9915 7.91624 19.8189 7.39855C19.7633 7.22598 19.6965 7.12022 19.6408 7.12022C19.5684 7.12022 19.5573 7.17032 19.5907 7.44308C19.6464 7.91068 20.036 8.6566 20.5426 9.26336C21.1995 10.0482 21.2941 10.1874 21.2941 10.3544C21.2941 10.6717 21.205 10.7552 20.576 11.0335C19.9303 11.3174 19.6074 11.3954 19.2679 11.3675C18.9895 11.3453 18.906 11.2729 18.8671 11.0057C18.8225 10.7496 18.7613 10.694 18.6834 10.8443C18.5609 11.0725 18.6221 11.4009 18.8392 11.6514C18.9172 11.7405 18.984 11.7461 19.3847 11.7182C19.6352 11.696 19.9748 11.6403 20.1362 11.5958ZM11.0961 9.66972C11.2074 9.55839 11.2186 9.55839 11.3522 9.64745C11.4301 9.69755 11.5637 9.87012 11.6472 10.0315L11.8031 10.321L11.8198 10.0594C11.8643 9.39139 11.1351 8.77906 10.673 9.10193C10.5394 9.19099 10.3557 9.50272 10.4058 9.55282C10.4225 9.56952 10.4726 9.54169 10.5227 9.49159C10.5728 9.44149 10.6619 9.40252 10.7287 9.40252C10.8233 9.40252 10.8345 9.42479 10.7899 9.58622C10.7231 9.85898 10.7454 10.4713 10.8345 10.6272C10.9068 10.7552 10.9124 10.7329 10.9458 10.2765C10.9736 9.88125 11.0015 9.75878 11.0961 9.66972ZM17.8762 8.81246C18.3104 8.6065 18.3438 8.29477 17.982 7.90511C17.8484 7.76038 17.6424 7.44308 17.5255 7.19815C17.3418 6.80849 17.314 6.77509 17.2973 6.91982C17.2694 7.12579 17.4197 7.58781 17.6257 7.90511C17.7148 8.04427 17.7871 8.189 17.7871 8.2224C17.7871 8.40054 17.3084 8.4395 16.7184 8.31147C16.5402 8.2725 16.4734 8.3727 16.5291 8.5898C16.5959 8.86813 17.4587 9.00729 17.8762 8.81246ZM22.2515 8.44507C22.6301 8.23354 22.6301 8.2224 22.2404 7.43751C22.0511 7.04785 21.8841 6.73056 21.8674 6.73056C21.7895 6.73056 21.912 7.35958 22.0456 7.64904C22.207 8.00531 22.1847 8.06097 21.8786 8.07211C21.6615 8.07767 21.3386 8.11664 21.2551 8.15004C21.1327 8.19457 21.1772 8.3894 21.3386 8.51187C21.4611 8.61207 21.5335 8.62877 21.7561 8.60093C21.9064 8.58423 22.1291 8.51187 22.2515 8.44507ZM15.0261 6.37986C15.0873 6.25183 15.2655 6.01803 15.4158 5.86217C15.7442 5.53931 16.0671 5.42241 16.5068 5.46137C16.7406 5.48364 16.7907 5.47251 16.813 5.38901C16.8909 5.15521 16.5681 4.89358 16.2174 4.89358C15.7609 4.89358 15.104 5.38901 14.8591 5.91227C14.7144 6.22956 14.6977 6.35203 14.7812 6.51346C14.8647 6.66932 14.9092 6.64706 15.0261 6.37986Z" fill="#F1D8B9"/>
<path d="M16.8414 29.3532C16.7635 29.3421 16.513 29.3031 16.2848 29.2697C15.7726 29.1973 15.1603 29.0526 15.0935 28.9914C14.9766 28.8856 14.4812 27.0653 14.2307 25.8128C14.047 24.9166 13.7909 23.1854 13.7687 22.7067L13.752 22.4061L14.0025 22.3616C15.4553 22.0999 17.5818 21.9719 18.6506 22.0888C18.9901 22.1278 19.2963 22.189 19.3297 22.2224C19.3965 22.2892 19.4967 23.6085 19.6247 26.2136C19.686 27.4606 19.7806 28.7186 19.8251 28.9468C19.8585 29.086 19.8418 29.0971 19.4967 29.1806C18.8287 29.3476 17.437 29.4367 16.8414 29.3532ZM19.9977 27.2936C19.9754 26.8983 19.9587 26.414 19.9587 26.2081V25.8462L20.2537 25.785C20.4096 25.7516 20.5543 25.7349 20.5655 25.7405C20.6044 25.7794 20.8995 27.4216 20.905 27.622C20.905 27.8614 20.7993 27.9282 20.315 27.9783L20.0311 28.0061L19.9977 27.2936ZM23.7885 24.8944C23.6716 24.8832 23.577 24.8498 23.577 24.8164C23.577 24.7886 23.5881 24.7663 23.5993 24.7663C23.6271 24.7663 24.3786 24.616 24.5734 24.5659C24.6792 24.5437 24.6903 24.5214 24.6402 24.4713C24.5901 24.4212 24.3007 24.4101 23.616 24.4212L22.6529 24.4323L22.5583 23.5305C22.5026 23.0296 22.4247 22.484 22.3802 22.317L22.2967 22.0109L22.447 21.8884C22.5305 21.816 22.8923 21.6602 23.243 21.5321C23.5937 21.4041 24.0056 21.2371 24.1504 21.1647C24.5623 20.9588 24.9742 21.1091 25.1913 21.5377C25.3472 21.8383 25.6923 23.2188 25.6923 23.5305C25.6923 24.154 25.3527 24.694 24.8851 24.8109C24.6068 24.8832 24.0557 24.9222 23.7885 24.8944ZM24.7905 23.5138C24.7738 23.4971 24.5623 23.447 24.3229 23.3969C23.7941 23.2967 23.1873 23.3468 23.1873 23.4916C23.1873 23.5194 23.5547 23.5417 24.0056 23.5417C24.451 23.5417 24.8072 23.5305 24.7905 23.5138ZM24.579 22.7624C24.6736 22.7067 24.2394 22.6288 23.8275 22.6232C23.538 22.6232 23.1873 22.7345 23.1873 22.8347C23.1873 22.896 24.4454 22.8347 24.579 22.7624ZM23.4712 22.317C23.6669 22.2077 23.8655 22.1038 24.0669 22.0053C24.2283 21.9274 24.3508 21.8494 24.3396 21.8383C24.3285 21.8216 24.1337 21.8494 23.9054 21.894C23.5102 21.9775 22.909 22.3003 22.909 22.4284C22.909 22.5341 23.1762 22.484 23.4712 22.317ZM21.5452 24.3934C21.5285 24.2152 21.4506 23.6808 21.3726 23.2077C21.3003 22.7345 21.239 22.2781 21.239 22.1946C21.239 22.0443 21.2502 22.0387 21.5229 22.0387C21.8013 22.0387 21.8013 22.0387 21.9126 22.2892C22.074 22.6566 22.1798 23.2021 22.2188 23.9091L22.2577 24.5214L21.9627 24.616C21.8013 24.6661 21.651 24.7107 21.6287 24.7107C21.6064 24.7107 21.5675 24.5659 21.5452 24.3934ZM19.5579 20.6471C19.4466 20.4188 19.2295 19.9345 19.0681 19.5783C18.9122 19.222 18.6673 18.76 18.5337 18.554C18.4001 18.348 18.2887 18.1699 18.2887 18.1532C18.2887 18.0753 18.4724 17.9306 18.5392 17.9528C18.5782 17.9695 18.7007 17.9417 18.8176 17.8972C19.1182 17.7691 19.2852 17.7858 19.5691 17.9751C19.7082 18.0642 19.8752 18.1421 19.9476 18.1421C20.07 18.1421 20.07 18.1476 20.0422 18.7711C19.9977 19.6451 19.903 20.4801 19.8196 20.7973L19.7472 21.0645L19.5579 20.6471ZM19.7416 19.6673C19.8363 19.5504 19.7416 19.3946 19.5691 19.3946C19.3965 19.3946 19.3019 19.5504 19.3965 19.6673C19.441 19.7174 19.5134 19.7564 19.5691 19.7564C19.6247 19.7564 19.6971 19.7174 19.7416 19.6673ZM19.5357 18.6876C19.608 18.5707 19.5245 18.4037 19.3909 18.3759C19.3019 18.3592 19.1237 18.5039 19.1237 18.5874C19.1237 18.6709 19.3019 18.8156 19.3909 18.7989C19.4355 18.7878 19.5023 18.7377 19.5357 18.6876ZM14.4033 16.4164C13.841 16.216 13.4903 15.9544 13.585 15.8041C13.6017 15.7763 13.6963 15.7874 13.7965 15.8319C13.8911 15.8709 14.2084 15.9266 14.4923 15.96C14.7762 15.9878 15.0211 16.0212 15.0323 16.0379C15.0434 16.049 15.0267 16.1659 14.9933 16.294C14.9265 16.5667 14.8597 16.5834 14.4033 16.4164ZM13.2955 15.2475C13.0394 15.0972 13.0673 15.0582 13.3233 15.2029C13.5794 15.3532 13.5905 15.3588 13.5237 15.3588C13.4959 15.3588 13.3901 15.3087 13.2955 15.2475ZM12.5217 14.2956C12.4438 14.1397 12.3882 14.0005 12.3993 13.9894C12.4104 13.9783 12.4884 14.1063 12.5718 14.2733C12.6553 14.4403 12.711 14.5795 12.6943 14.5795C12.6776 14.5795 12.6052 14.4514 12.5217 14.2956ZM11.8872 12.1803C11.8872 12.1357 11.9595 12.0522 12.043 11.9966L12.1933 11.8908L12.0542 12.0522C11.9762 12.1413 11.9094 12.2248 11.9039 12.2359C11.8927 12.2471 11.8872 12.2248 11.8872 12.1803ZM9.89989 9.8757C9.89989 9.75323 9.91102 9.7087 9.92215 9.78106C9.93328 9.84786 9.93328 9.94806 9.92215 10.0037C9.90545 10.0538 9.89432 9.99816 9.89989 9.8757ZM10.2728 8.92938C10.3786 8.82361 10.4732 8.73454 10.4899 8.73454C10.5066 8.73454 10.4343 8.82361 10.3285 8.92938C10.2227 9.03514 10.1281 9.12421 10.1114 9.12421C10.0947 9.12421 10.1671 9.03514 10.2728 8.92938ZM11.6812 8.88484C11.6589 8.84588 11.5754 8.76794 11.4975 8.71784C11.4251 8.66775 11.3806 8.62321 11.4029 8.62321C11.4808 8.62321 11.709 8.79578 11.7424 8.87928C11.7814 8.97947 11.7424 8.97947 11.6812 8.88484ZM10.9854 8.58425C11.0522 8.57311 11.1524 8.57311 11.208 8.58425C11.2581 8.60095 11.2025 8.61208 11.08 8.60651C10.9575 8.60651 10.913 8.59538 10.9854 8.58425ZM10.3007 7.81049C10.245 7.32063 10.3007 6.66377 10.4176 6.31308C10.6013 5.78425 11.3138 5.26099 12.1043 5.08286C12.3269 5.03276 12.5162 5.00493 12.5273 5.01606C12.544 5.02719 12.5607 5.09399 12.5663 5.16636C12.583 5.27769 12.544 5.30552 12.1766 5.40016C11.6311 5.53932 11.2637 5.74528 10.9408 6.10155C10.5623 6.51904 10.4231 6.89757 10.412 7.57669C10.4064 7.87729 10.3897 8.13335 10.373 8.15562C10.3508 8.17232 10.3229 8.01645 10.3007 7.81049ZM14.9321 5.64509C14.9989 5.55602 15.1325 5.40572 15.2327 5.31109C15.3718 5.18863 15.3551 5.21646 15.177 5.42242C14.8486 5.79538 14.7985 5.83992 14.9321 5.64509ZM11.2192 4.8101C11.2192 4.7266 11.4919 4.37034 11.7591 4.09757C12.2768 3.57431 13.0227 3.11785 13.8856 2.81169C14.1695 2.70593 14.3142 2.67809 14.3587 2.72263C14.4534 2.81726 14.3365 2.90076 13.6351 3.24032C13.0561 3.51865 12.5774 3.85821 12.1655 4.28127C11.9651 4.48724 11.7536 4.67093 11.6923 4.68763C11.6311 4.70433 11.4975 4.7433 11.4029 4.77113C11.3027 4.80453 11.2192 4.82123 11.2192 4.8101ZM21.6287 4.5596C21.5953 4.49837 21.5897 4.44827 21.612 4.44827C21.6398 4.44827 21.6899 4.49837 21.7289 4.5596C21.7679 4.62083 21.7734 4.67093 21.74 4.67093C21.7122 4.67093 21.6621 4.62083 21.6287 4.5596ZM13.585 3.94728C13.7965 3.73575 13.9858 3.55761 13.9969 3.55761C14.0136 3.55761 13.8522 3.73575 13.6406 3.94728C13.4291 4.16437 13.2398 4.33694 13.2287 4.33694C13.212 4.33694 13.3734 4.16437 13.585 3.94728ZM14.0804 3.51308C14.1249 3.44072 14.4478 3.20135 14.4478 3.24032C14.4478 3.25702 14.3532 3.33495 14.2418 3.42402C14.1305 3.50751 14.0581 3.55205 14.0804 3.51308ZM19.6804 2.80612C19.6025 2.76159 19.5691 2.72819 19.5969 2.72819C19.6303 2.72819 19.7138 2.76159 19.7917 2.80612C19.8696 2.85066 19.9086 2.88406 19.8752 2.88406C19.8474 2.88406 19.7583 2.85066 19.6804 2.80612ZM15.3384 2.69479C15.3384 2.65583 15.7893 2.43316 15.8172 2.45543C15.8283 2.47213 15.7225 2.53336 15.5889 2.60016C15.4498 2.66696 15.3384 2.71149 15.3384 2.69479ZM17.053 2.18267C17.1198 2.17153 17.2311 2.17153 17.3035 2.18267C17.3703 2.1938 17.3146 2.20493 17.1754 2.20493C17.0363 2.20493 16.9806 2.1938 17.053 2.18267Z" fill="#F6F5F5"/>
</svg>
