<svg width="57" height="26" viewBox="0 0 57 26" fill="none" xmlns="http://www.w3.org/2000/svg">
<path d="M6.18673 2.32922C6.04386 2.18097 5.87287 2.06329 5.68395 1.98319C5.49504 1.90309 5.29208 1.86222 5.08718 1.86302C4.88329 1.86209 4.68133 1.90293 4.49353 1.98307C4.30573 2.0632 4.13599 2.18096 3.99458 2.32922H3.98763C3.69637 2.63013 3.53426 3.03473 3.5364 3.4554C3.5364 3.90006 3.70845 4.29652 3.98763 4.58017L3.99458 4.58719C4.13636 4.73473 4.30624 4.85179 4.49401 4.93135C4.68177 5.0109 4.88354 5.0513 5.08718 5.05011C5.29173 5.051 5.49439 5.0105 5.68317 4.93099C5.87194 4.85148 6.04302 4.73457 6.18626 4.58719L6.19044 4.58017C6.48247 4.28038 6.64461 3.87581 6.6412 3.4554C6.6412 3.01494 6.46962 2.61427 6.19044 2.32922H6.18673ZM5.08718 24.1366C5.51986 24.1366 5.90801 23.9555 6.18626 23.6723L6.19044 23.6648C6.48136 23.366 6.6434 22.9632 6.6412 22.5443C6.6412 22.0996 6.46962 21.7013 6.19044 21.4143H6.18673C6.04414 21.2657 5.87321 21.1477 5.68424 21.0675C5.49527 20.9873 5.29217 20.9465 5.08718 20.9477C4.88317 20.9463 4.68103 20.9869 4.49315 21.0672C4.30527 21.1474 4.13562 21.2655 3.99458 21.4143H3.98763C3.69598 21.7165 3.53389 22.1224 3.5364 22.5443C3.5364 22.9828 3.70845 23.3816 3.98763 23.6648L3.99458 23.6723C4.13679 23.8194 4.30673 23.9362 4.49437 24.0159C4.68202 24.0957 4.88358 24.1367 5.08718 24.1366ZM13.5376 19.3094C13.7362 19.2563 13.922 19.1634 14.0842 19.0361C14.2463 18.9089 14.3814 18.75 14.4814 18.5689L14.5106 18.5142C14.6928 18.1585 14.7368 17.747 14.6339 17.3604C14.5829 17.1581 14.4925 16.9682 14.3681 16.8015C14.2437 16.6349 14.0876 16.4948 13.9091 16.3896L13.8873 16.3751C13.5366 16.1752 13.1217 16.1239 12.7335 16.2323C12.5346 16.2852 12.3484 16.3782 12.1862 16.5058C12.024 16.6334 11.8891 16.7929 11.7898 16.9747C11.5833 17.3406 11.527 17.7736 11.6329 18.181C11.7388 18.5883 11.9985 18.9376 12.3565 19.154H12.3583C12.7298 19.374 13.1481 19.4138 13.5376 19.3094ZM6.67738 11.3672C6.47027 11.153 6.22292 10.9826 5.94979 10.8661C5.67666 10.7496 5.38324 10.6892 5.08671 10.6885C4.79054 10.6893 4.4975 10.7497 4.22476 10.8663C3.95203 10.9828 3.70507 11.1531 3.49837 11.3672C3.07681 11.8031 2.84195 12.3888 2.84448 12.998C2.84448 13.6359 3.09444 14.2121 3.49837 14.6343C3.70577 14.8474 3.95315 15.0166 4.22606 15.1321C4.49896 15.2477 4.79194 15.3072 5.08787 15.3072C5.38381 15.3072 5.67678 15.2477 5.94969 15.1321C6.2226 15.0166 6.46997 14.8474 6.67738 14.6343C7.09919 14.1962 7.33453 13.6089 7.33312 12.998C7.33591 12.3884 7.10026 11.8024 6.67738 11.3672ZM5.78234 8.65191C6.67053 8.8043 7.48773 9.23769 8.11593 9.88949H8.12149C8.21888 9.99013 8.31534 10.102 8.40392 10.2134L9.95284 9.29364C9.74894 8.66013 9.73122 7.98057 9.90183 7.33711C10.0134 6.90351 10.2087 6.49639 10.4764 6.13906C10.7441 5.78172 11.079 5.48119 11.4619 5.25466L11.4869 5.2364C11.8631 5.01596 12.279 4.87318 12.7103 4.81637C13.1417 4.75955 13.5799 4.78985 13.9995 4.90548C14.4264 5.02418 14.8258 5.22699 15.1746 5.50222C15.5235 5.77745 15.8149 6.11964 16.0321 6.50909V6.51096C16.4755 7.30229 16.5958 8.23686 16.3674 9.11624C16.2562 9.55042 16.0612 9.95819 15.7936 10.3162C15.526 10.6742 15.191 10.9753 14.8078 11.2024L14.5959 11.3307H14.5741C13.8562 11.6807 13.0372 11.7572 12.2679 11.546C11.6403 11.3731 11.0767 11.0183 10.6466 10.5256L9.1014 11.444C9.46843 12.4488 9.46843 13.5528 9.1014 14.5576L10.6466 15.4736C11.0751 14.9787 11.6393 14.6231 12.2679 14.4518C12.6923 14.3325 13.1364 14.3017 13.573 14.361C14.0097 14.4204 14.4298 14.5688 14.8078 14.7972L14.8584 14.823V14.8244C15.6068 15.2882 16.1477 16.027 16.3674 16.8853C16.5952 17.7635 16.475 18.6967 16.0321 19.4868L16.0034 19.5453L16.0015 19.5402C15.5584 20.2992 14.8418 20.856 14.0014 21.0942C13.5767 21.2096 13.1334 21.2387 12.6975 21.1797C12.2615 21.1207 11.8415 20.9749 11.4619 20.7506V20.7431C10.6891 20.284 10.1281 19.5345 9.90183 18.6588C9.73127 18.0166 9.74899 17.3382 9.95284 16.706L8.40392 15.7881C8.3149 15.8989 8.22049 16.0051 8.12103 16.1064L8.11593 16.1116C7.48811 16.7624 6.67064 17.1938 5.7828 17.3426V19.1798C6.42556 19.3188 7.002 19.6478 7.45277 20.1122L7.45648 20.1159C8.08632 20.764 8.43787 21.6364 8.43499 22.5443C8.43665 23.4495 8.08512 24.319 7.45648 24.9646L7.45277 24.9759C6.84433 25.5956 6.00911 25.9813 5.08718 25.9813C4.64704 25.9801 4.21154 25.8906 3.80599 25.718C3.40043 25.5454 3.03293 25.2931 2.72483 24.9759H2.72112V24.9646C2.09226 24.3191 1.74042 23.4496 1.74168 22.5443C1.74168 21.5969 2.11639 20.7356 2.72159 20.1159V20.1122H2.7253C3.1788 19.6428 3.75909 19.3186 4.39387 19.1798V17.3421C3.50647 17.1935 2.68943 16.7623 2.06214 16.1116L2.05703 16.1064C1.25003 15.2771 0.79846 14.1608 0.799808 12.9984C0.798442 11.8358 1.2498 10.7193 2.05657 9.88949H2.06214C2.68988 9.23809 3.50637 8.80474 4.39387 8.65191V6.82129C3.76006 6.67876 3.1806 6.35431 2.7253 5.88702H2.72159V5.88141C2.09214 5.23389 1.74018 4.36253 1.74168 3.4554C1.74168 2.51411 2.11639 1.65098 2.72159 1.02938L2.7253 1.02751C3.0327 0.709083 3.4 0.455798 3.80565 0.282508C4.2113 0.109219 4.64715 0.0194115 5.08764 0.0183525C6.00958 0.0183525 6.84479 0.404044 7.45323 1.02751V1.02938H7.45694C8.08546 1.67741 8.43683 2.54856 8.43545 3.4554C8.43759 4.36253 8.08612 5.2341 7.45694 5.88187L7.45323 5.88749C6.99762 6.35512 6.41762 6.67961 5.78327 6.82176V8.65191H5.78234ZM14.4814 7.43025L14.4688 7.412C14.2637 7.05755 13.9296 6.79792 13.5376 6.68836C13.3402 6.63384 13.134 6.61983 12.9311 6.64717C12.7282 6.6745 12.5328 6.74262 12.3565 6.8475H12.3583C12.18 6.95252 12.0241 7.09225 11.8998 7.25858C11.7754 7.42491 11.6851 7.61453 11.6339 7.81641C11.527 8.22492 11.5829 8.65948 11.7898 9.02684L11.7967 9.0362C12.0105 9.41066 12.3532 9.66342 12.7335 9.76358C12.9296 9.82007 13.135 9.83542 13.3372 9.80869C13.5394 9.78197 13.734 9.71373 13.9091 9.60818L13.929 9.59882C14.2778 9.38415 14.5304 9.04137 14.6339 8.64256C14.7413 8.23381 14.6866 7.79891 14.4814 7.43025ZM21.3527 7.96806H23.0807V13.3874L25.5733 10.5556H27.6463L24.6366 13.8353L27.6588 17.9932H25.6786L23.0807 14.2795V17.9932H21.3527V7.96806ZM29.6529 14.3071C29.6529 15.2288 30.2976 16.5707 31.8558 16.5707C32.818 16.5707 33.452 16.0549 33.7817 15.3786C33.9533 15.0509 34.0317 14.6999 34.0586 14.3362C34.0723 13.9768 34.0041 13.619 33.8592 13.2905C33.5568 12.5884 32.8853 11.9776 31.8432 11.9776C30.4446 11.9776 29.6529 13.1426 29.6529 14.2945V14.3071ZM35.7726 17.9932H34.0442V16.9237C33.5842 17.7882 32.6205 18.2216 31.6039 18.2216C29.2833 18.2216 27.925 16.3657 27.925 14.2669C27.925 11.9247 29.5732 10.3267 31.6039 10.3267C32.9228 10.3267 33.727 11.0433 34.0442 11.6415V10.5556H35.7726V17.9932ZM37.7287 11.9247H36.8336V10.5551H37.7287V10.1366C37.7287 7.92594 39.3666 7.79441 40.6058 7.7799V9.14573C40.1708 9.14573 39.4589 9.14573 39.4589 10.1914V10.5551H40.6058V11.9247H39.4585V17.9932H37.7287V11.9247ZM41.7814 7.96806H43.5093V13.3874L46.002 10.5556H48.0726L45.0657 13.8353L48.0852 17.9932H46.1073L43.5093 14.2795V17.9932H41.7819V7.96806M50.0797 14.3071C50.0797 15.2288 50.7267 16.5707 52.2826 16.5707C53.2444 16.5707 53.8788 16.0549 54.2085 15.3786C54.3801 15.0509 54.4603 14.6999 54.4854 14.3362C54.4991 13.9768 54.4309 13.619 54.2859 13.2905C53.9836 12.5884 53.3116 11.9776 52.27 11.9776C50.8732 11.9776 50.0797 13.1426 50.0797 14.2945V14.3071ZM56.2012 17.9932H54.4728V16.9237C54.0109 17.7882 53.0491 18.2216 52.0326 18.2216C49.7101 18.2216 48.3537 16.3657 48.3537 14.2669C48.3537 11.9247 50.0018 10.3267 52.0326 10.3267C53.3515 10.3267 54.1556 11.0433 54.4728 11.6415V10.5556H56.2008V17.9932" fill="#231F20"/>
</svg>
