<svg width="107" height="50" viewBox="0 0 107 50" fill="none" xmlns="http://www.w3.org/2000/svg">
<path d="M10.8656 4.88976C10.5926 4.61037 10.2659 4.38858 9.90497 4.23763C9.54401 4.08668 9.15621 4.00966 8.7647 4.01116C8.37512 4.00941 7.98924 4.08638 7.6304 4.2374C7.27157 4.38842 6.94725 4.61035 6.67706 4.88976H6.66377C6.10726 5.45687 5.79752 6.21937 5.8016 7.01217C5.8016 7.8502 6.13034 8.59737 6.66377 9.13194L6.67706 9.14517C6.94796 9.42322 7.27256 9.64384 7.63132 9.79377C7.99009 9.9437 8.37561 10.0198 8.7647 10.0176C9.15554 10.0193 9.54276 9.94295 9.90346 9.7931C10.2642 9.64325 10.591 9.42293 10.8647 9.14517L10.8727 9.13194C11.4307 8.56694 11.7405 7.80449 11.734 7.01217C11.734 6.18209 11.4061 5.42698 10.8727 4.88976H10.8656ZM8.7647 45.9883C9.59142 45.9883 10.3331 45.647 10.8647 45.1133L10.8727 45.0992C11.4286 44.536 11.7382 43.7769 11.734 42.9873C11.734 42.1493 11.4061 41.3986 10.8727 40.8579H10.8656C10.5932 40.5777 10.2666 40.3553 9.90552 40.2042C9.54445 40.053 9.15638 39.9762 8.7647 39.9784C8.3749 39.9757 7.98867 40.0523 7.62969 40.2036C7.2707 40.3548 6.94653 40.5775 6.67706 40.8579H6.66377C6.10651 41.4273 5.7968 42.1923 5.8016 42.9873C5.8016 43.8139 6.13034 44.5655 6.66377 45.0992L6.67706 45.1133C6.94878 45.3904 7.27348 45.6106 7.63201 45.7609C7.99055 45.9112 8.37568 45.9885 8.7647 45.9883ZM24.9111 36.8909C25.2904 36.7908 25.6456 36.6157 25.9554 36.3759C26.2652 36.1361 26.5233 35.8367 26.7143 35.4954L26.7701 35.3922C27.1183 34.7219 27.2023 33.9464 27.0058 33.2177C26.9083 32.8366 26.7357 32.4786 26.4979 32.1645C26.2601 31.8504 25.962 31.5865 25.6209 31.3882L25.5792 31.3608C24.9091 30.9842 24.1163 30.8874 23.3746 31.0918C22.9946 31.1914 22.6389 31.3668 22.3289 31.6073C22.019 31.8477 21.7613 32.1483 21.5714 32.4908C21.1769 33.1805 21.0693 33.9965 21.2717 34.7642C21.4741 35.5319 21.9703 36.1901 22.6542 36.598H22.6578C23.3675 37.0126 24.1668 37.0876 24.9111 36.8909ZM11.8031 21.9229C11.4074 21.5192 10.9348 21.1981 10.4129 20.9785C9.89103 20.7589 9.3304 20.6451 8.76381 20.6438C8.19791 20.6453 7.638 20.7592 7.11687 20.9788C6.59575 21.1984 6.12389 21.5194 5.72894 21.9229C4.92345 22.7444 4.47471 23.8482 4.47955 24.9962C4.47955 26.1986 4.95715 27.2845 5.72894 28.0802C6.12523 28.4817 6.59789 28.8006 7.11934 29.0183C7.64079 29.2361 8.20058 29.3482 8.76603 29.3482C9.33148 29.3482 9.89126 29.2361 10.4127 29.0183C10.9342 28.8006 11.4068 28.4817 11.8031 28.0802C12.6091 27.2544 13.0587 26.1476 13.056 24.9962C13.0614 23.8475 12.6111 22.743 11.8031 21.9229ZM10.093 16.8056C11.79 17.0928 13.3515 17.9096 14.5518 19.138H14.5624C14.7485 19.3276 14.9328 19.5385 15.102 19.7484L18.0616 18.015C17.672 16.8211 17.6381 15.5404 17.9641 14.3277C18.1774 13.5105 18.5504 12.7433 19.0619 12.0698C19.5734 11.3964 20.2133 10.83 20.9449 10.4031L20.9928 10.3687C21.7116 9.95323 22.5062 9.68414 23.3303 9.57708C24.1545 9.47001 24.9918 9.5271 25.7936 9.74502C26.6093 9.96873 27.3724 10.351 28.039 10.8696C28.7055 11.3883 29.2624 12.0333 29.6774 12.7672V12.7707C30.5245 14.2621 30.7543 16.0234 30.318 17.6807C30.1055 18.499 29.7329 19.2674 29.2216 19.9421C28.7102 20.6168 28.0702 21.1844 27.3381 21.6124L26.9332 21.8541H26.8915C25.5198 22.5138 23.9549 22.6579 22.485 22.2598C21.2858 21.9339 20.2089 21.2654 19.3872 20.3368L16.4347 22.0675C17.136 23.9612 17.136 26.0418 16.4347 27.9355L19.3872 29.6618C20.2059 28.7292 21.2839 28.0591 22.485 27.7361C23.296 27.5114 24.1444 27.4532 24.9787 27.5651C25.8131 27.677 26.6158 27.9567 27.3381 28.3871L27.4347 28.4357V28.4383C28.8647 29.3125 29.8983 30.7049 30.318 32.3223C30.7533 33.9774 30.5235 35.7361 29.6774 37.2252L29.6225 37.3355L29.6189 37.3258C28.7722 38.7563 27.4029 39.8056 25.7972 40.2545C24.9857 40.4721 24.1388 40.5269 23.3058 40.4157C22.4728 40.3046 21.6703 40.0297 20.9449 39.607V39.5929C19.4684 38.7277 18.3965 37.3152 17.9641 35.6647C17.6382 34.4544 17.6721 33.176 18.0616 31.9845L15.102 30.2546C14.932 30.4633 14.7516 30.6635 14.5615 30.8545L14.5518 30.8642C13.3522 32.0908 11.7902 32.9037 10.0938 33.1842V36.6466C11.322 36.9085 12.4234 37.5287 13.2847 38.4038L13.2917 38.4108C14.4952 39.6322 15.1669 41.2764 15.1614 42.9873C15.1646 44.6934 14.4929 46.332 13.2917 47.5488L13.2847 47.57C12.1221 48.7379 10.5263 49.4648 8.7647 49.4648C7.92373 49.4626 7.0916 49.2939 6.31671 48.9686C5.54181 48.6433 4.83961 48.1679 4.25094 47.57H4.24385V47.5488C3.04227 46.3322 2.37001 44.6935 2.37242 42.9873C2.37242 41.2019 3.08838 39.5788 4.24473 38.4108V38.4038H4.25182C5.11833 37.5193 6.22709 36.9082 7.43999 36.6466V33.1833C5.74442 32.9032 4.18329 32.0905 2.98471 30.8642L2.97496 30.8545C1.433 29.2916 0.570184 27.1878 0.57276 24.9971C0.570149 22.8061 1.43257 20.7018 2.97407 19.138H2.98471C4.18414 17.9103 5.74422 17.0936 7.43999 16.8056V13.3556C6.22896 13.087 5.12178 12.4755 4.25182 11.5949H4.24473V11.5843C3.04204 10.3639 2.36955 8.72178 2.37242 7.01217C2.37242 5.2382 3.08838 3.61155 4.24473 2.44008L4.25182 2.43655C4.83918 1.83643 5.54098 1.35908 6.31607 1.0325C7.09115 0.705916 7.92393 0.536664 8.76558 0.534668C10.5271 0.534668 12.123 1.26155 13.2855 2.43655V2.44008H13.2926C14.4936 3.66135 15.1649 5.30313 15.1623 7.01217C15.1664 8.72176 14.4948 10.3643 13.2926 11.5851L13.2855 11.5957C12.415 12.477 11.3068 13.0886 10.0947 13.3565V16.8056H10.093ZM26.7143 14.5032L26.6904 14.4688C26.2984 13.8009 25.66 13.3115 24.9111 13.1051C24.5339 13.0023 24.1398 12.9759 23.7521 13.0274C23.3645 13.0789 22.9912 13.2073 22.6542 13.405H22.6578C22.3171 13.6029 22.0192 13.8662 21.7816 14.1797C21.544 14.4932 21.3714 14.8505 21.2737 15.231C21.0693 16.0009 21.1762 16.8199 21.5714 17.5122L21.5847 17.5298C21.9932 18.2356 22.648 18.7119 23.3746 18.9007C23.7493 19.0071 24.1419 19.0361 24.5282 18.9857C24.9145 18.9353 25.2864 18.8067 25.6209 18.6078L25.659 18.5902C26.3253 18.1856 26.8081 17.5396 27.0058 16.788C27.211 16.0176 27.1064 15.198 26.7143 14.5032ZM39.8436 15.5168H43.1451V25.7302L47.9079 20.3932H51.8687L46.118 26.5744L51.8927 34.4103H48.109L43.1451 27.4115V34.4103H39.8436V15.5168ZM55.7029 27.4635C55.7029 29.2005 56.9345 31.7295 59.9118 31.7295C61.7504 31.7295 62.9617 30.7574 63.5917 29.4827C63.9196 28.8653 64.0694 28.2037 64.1207 27.5182C64.1471 26.841 64.0167 26.1667 63.7397 25.5476C63.162 24.2244 61.8789 23.0732 59.8879 23.0732C57.2154 23.0732 55.7029 25.2688 55.7029 27.4397V27.4635ZM67.3957 34.4103H64.0933V32.3947C63.2143 34.024 61.373 34.8408 59.4307 34.8408C54.9966 34.8408 52.4013 31.3432 52.4013 27.3877C52.4013 22.9735 55.5504 19.9619 59.4307 19.9619C61.9507 19.9619 63.4872 21.3124 64.0933 22.4398V20.3932H67.3957V34.4103ZM71.1333 22.9735H69.4231V20.3924H71.1333V19.6037C71.1333 15.4374 74.263 15.1895 76.6306 15.1622V17.7363C75.7995 17.7363 74.4393 17.7363 74.4393 19.7069V20.3924H76.6306V22.9735H74.4384V34.4103H71.1333V22.9735ZM78.8769 15.5168H82.1785V25.7302L86.9412 20.3932H90.8976L85.1522 26.5744L90.9215 34.4103H87.1423L82.1785 27.4115V34.4103H78.8778V15.5168M94.7326 27.4635C94.7326 29.2005 95.9687 31.7295 98.9416 31.7295C100.779 31.7295 101.992 30.7574 102.622 29.4827C102.949 28.8653 103.103 28.2037 103.151 27.5182C103.177 26.841 103.046 26.1667 102.769 25.5476C102.192 24.2244 100.908 23.0732 98.9176 23.0732C96.2487 23.0732 94.7326 25.2688 94.7326 27.4397V27.4635ZM106.429 34.4103H103.127V32.3947C102.244 34.024 100.406 34.8408 98.464 34.8408C94.0264 34.8408 91.4346 31.3432 91.4346 27.3877C91.4346 22.9735 94.5838 19.9619 98.464 19.9619C100.984 19.9619 102.521 21.3124 103.127 22.4398V20.3932H106.428V34.4103" fill="#231F20"/>
</svg>
