<svg width="85" height="31" viewBox="0 0 85 31" fill="none" xmlns="http://www.w3.org/2000/svg">
<path d="M0 0.685547H14.7422L0 15.3507V0.685547Z" fill="url(#paint0_linear_190_1473)"/>
<path d="M0 29.3463L28.4219 0.685547H14.3438L0 14.9489V29.3463Z" fill="url(#paint1_linear_190_1473)"/>
<path d="M28.1563 29.3462L14.0781 15.1498L0 29.3462H28.1563Z" fill="url(#paint2_linear_190_1473)"/>
<path d="M33.2031 22.7837V7.51587H36.5898V14.0784L42.7656 7.51587H46.6172L40.4414 14.0784L46.6172 22.7837H42.7656L38.25 16.4221L36.5898 18.0962V22.7837H33.2031Z" fill="black"/>
<path d="M51.4648 11.132C48.0781 11.132 45.3555 13.7436 45.3555 16.9579C45.3555 20.1721 48.0781 22.7837 51.4648 22.7837C54.8516 22.7837 57.5742 20.1721 57.5742 16.9579C57.5742 13.7436 54.8516 11.132 51.4648 11.132ZM51.4648 20.2391C49.6719 20.2391 48.2109 18.7659 48.2109 16.9579C48.2109 15.1498 49.6719 13.6766 51.4648 13.6766C53.2578 13.6766 54.7187 15.1498 54.7187 16.9579C54.7187 18.7659 53.2578 20.2391 51.4648 20.2391Z" fill="black"/>
<path d="M58.3711 8.18553H61.7578V11.1989H64.4141V14.0114H61.7578V19.5025C61.7578 19.5025 62.7539 20.9087 64.4141 19.5025V22.5159C64.4141 22.5159 61.7578 23.8552 59.4336 22.5159C59.4336 22.5159 58.3711 21.4445 58.3711 20.1721V14.0114H57.043V11.065L58.3711 11.132V8.18553ZM65.4102 6.91321H68.6641V22.7837H65.4102V6.91321ZM69.8594 6.91321H73.1797V9.72571H69.8594V6.91321ZM69.8594 11.1989H73.1797V22.7837H69.8594V11.1989ZM74.3086 11.1989H77.6953V13.007C77.6953 13.007 80.8164 8.18553 84.6016 13.007L84.9336 14.0114V22.7837H81.6133V15.6855C81.6133 15.6855 79.7539 12.1364 77.6953 15.6855V22.7837H74.3086V11.1989Z" fill="black"/>
<defs>
<linearGradient id="paint0_linear_190_1473" x1="-2.6868" y1="11.7521" x2="9.20101" y2="-1.12451" gradientUnits="userSpaceOnUse">
<stop stop-color="#1C93C1"/>
<stop offset="0.163" stop-color="#2391C0"/>
<stop offset="0.404" stop-color="#378BBE"/>
<stop offset="0.696" stop-color="#587EB9"/>
<stop offset="0.995" stop-color="#7F6CB1"/>
</linearGradient>
<linearGradient id="paint1_linear_190_1473" x1="0.720507" y1="22.0204" x2="20.7305" y2="1.31155" gradientUnits="userSpaceOnUse">
<stop stop-color="#C757A7"/>
<stop offset="0.046" stop-color="#CA5A9E"/>
<stop offset="0.241" stop-color="#D66779"/>
<stop offset="0.428" stop-color="#E17357"/>
<stop offset="0.6" stop-color="#E97C3A"/>
<stop offset="0.756" stop-color="#EF8324"/>
<stop offset="0.888" stop-color="#F28817"/>
<stop offset="0.982" stop-color="#F48912"/>
</linearGradient>
<linearGradient id="paint2_linear_190_1473" x1="9.54922" y1="34.098" x2="21.0077" y2="22.3311" gradientUnits="userSpaceOnUse">
<stop stop-color="#1C93C1"/>
<stop offset="0.216" stop-color="#2D8EBF"/>
<stop offset="0.64" stop-color="#587EB9"/>
<stop offset="0.995" stop-color="#7F6CB1"/>
</linearGradient>
</defs>
</svg>
