<svg width="27" height="26" viewBox="0 0 27 26" fill="none" xmlns="http://www.w3.org/2000/svg">
<path d="M8.87963 25.3509C8.27597 25.3509 7.70584 25.0826 7.32016 24.5964L1.45118 17.3021C1.0655 16.8158 0.914584 16.1953 1.0655 15.5917L3.16157 6.48635C3.29571 5.88269 3.69816 5.3964 4.25152 5.1281L12.7364 1.07012C13.0047 0.935971 13.3065 0.868896 13.6084 0.868896C13.9102 0.868896 14.212 0.935971 14.4803 1.07012L22.9652 5.11133C23.5186 5.37963 23.921 5.86592 24.0551 6.46958L26.1512 15.5749C26.2854 16.1786 26.1512 16.799 25.7655 17.2853L19.8966 24.5796C19.5109 25.0491 18.9407 25.3342 18.3371 25.3342L8.87963 25.3509Z" fill="#326DE6"/>
<path d="M13.5916 1.28812C13.8263 1.28812 14.0611 1.33843 14.2791 1.43904L22.7639 5.48025C23.1999 5.69824 23.5353 6.10069 23.6359 6.57021L25.732 15.6755C25.8494 16.1618 25.732 16.6649 25.4134 17.0505L19.5444 24.3448C19.2426 24.7305 18.773 24.9485 18.2867 24.9485H8.8796C8.39332 24.9485 7.9238 24.7305 7.62196 24.3448L1.75298 17.0505C1.45115 16.6649 1.33377 16.1618 1.43438 15.6755L3.53044 6.57021C3.64782 6.08392 3.96643 5.68147 4.40241 5.48025L12.8873 1.42227C13.1053 1.33843 13.3568 1.28812 13.5916 1.28812ZM13.5916 0.5C13.2394 0.5 12.8873 0.583843 12.5519 0.734759L4.06704 4.79274C3.3963 5.11134 2.92678 5.69824 2.75909 6.41929L0.663025 15.5246C0.49534 16.2456 0.663025 16.9835 1.13254 17.5704L7.00153 24.8647C7.45428 25.4348 8.14179 25.7534 8.86283 25.7534H18.27C18.991 25.7534 19.6785 25.4348 20.1313 24.8647L26.0003 17.5704C26.4698 17.0002 26.6375 16.2456 26.4698 15.5246L24.3737 6.41929C24.206 5.69824 23.7365 5.11134 23.0658 4.79274L14.6144 0.734759C14.2958 0.583843 13.9437 0.5 13.5916 0.5Z" fill="white"/>
<path d="M22.0933 14.9545C22.0765 14.9545 22.0765 14.9545 22.0933 14.9545H22.0765C22.0598 14.9545 22.043 14.9545 22.043 14.9377C22.0095 14.9377 21.9759 14.9209 21.9424 14.9209C21.825 14.9042 21.7244 14.8874 21.6238 14.8874C21.5735 14.8874 21.5232 14.8874 21.4561 14.8706H21.4393C21.0872 14.8371 20.8021 14.8036 20.5338 14.7197C20.4165 14.6694 20.3829 14.6023 20.3494 14.5353C20.3494 14.5185 20.3326 14.5185 20.3326 14.5017L20.1146 14.4347C20.2152 13.6633 20.1817 12.8584 19.9973 12.0703C19.8128 11.2822 19.4942 10.5444 19.0582 9.87361L19.2259 9.72269V9.68916C19.2259 9.60531 19.2427 9.52147 19.3097 9.43763C19.511 9.25318 19.7625 9.10226 20.0643 8.9178C20.1146 8.88427 20.1649 8.8675 20.2152 8.83396C20.3159 8.78366 20.3997 8.73335 20.5003 8.66628C20.5171 8.64951 20.5506 8.63274 20.5841 8.5992C20.6009 8.58243 20.6177 8.58243 20.6177 8.56567C20.8524 8.36444 20.9028 8.02907 20.7351 7.81108C20.6512 7.6937 20.5003 7.62663 20.3494 7.62663C20.2152 7.62663 20.0979 7.67693 19.9805 7.76078C19.9637 7.77755 19.9637 7.77755 19.9469 7.79431C19.9134 7.81108 19.8966 7.84462 19.8631 7.86139C19.7793 7.94523 19.7122 8.0123 19.6451 8.09615C19.6116 8.12968 19.578 8.17999 19.5277 8.21353C19.293 8.46506 19.075 8.66628 18.857 8.81719C18.8067 8.85073 18.7564 8.8675 18.7061 8.8675C18.6725 8.8675 18.639 8.8675 18.6055 8.85073H18.5719L18.3707 8.98488C18.1527 8.75012 17.918 8.5489 17.6832 8.34768C16.6771 7.55955 15.453 7.07327 14.1786 6.95589L14.1618 6.7379C14.145 6.72113 14.145 6.72113 14.1283 6.70436C14.078 6.65405 14.0109 6.60375 13.9941 6.48637C13.9774 6.21807 14.0109 5.91624 14.0444 5.58087V5.5641C14.0444 5.51379 14.0612 5.44672 14.078 5.39641C14.0947 5.2958 14.1115 5.19519 14.1283 5.07781V4.9772V4.9269C14.1283 4.62506 13.8935 4.37354 13.6084 4.37354C13.4743 4.37354 13.3401 4.44061 13.2395 4.54122C13.1389 4.64183 13.0886 4.77598 13.0886 4.9269V4.96043V5.06104C13.0886 5.17842 13.1054 5.27904 13.1389 5.37965C13.1557 5.42995 13.1557 5.48026 13.1725 5.54733V5.5641C13.206 5.89947 13.2563 6.2013 13.2228 6.4696C13.206 6.58698 13.1389 6.63729 13.0886 6.68759C13.0719 6.70436 13.0719 6.70436 13.0551 6.72113L13.0383 6.93912C12.7365 6.97266 12.4346 7.00619 12.1328 7.07327C10.8416 7.35833 9.70138 8.0123 8.81265 8.95134L8.64496 8.83396H8.61142C8.57789 8.83396 8.54435 8.85073 8.51081 8.85073C8.46051 8.85073 8.4102 8.83396 8.3599 8.80043C8.14191 8.64951 7.92391 8.43152 7.68916 8.17999C7.65562 8.14645 7.62208 8.09615 7.57178 8.06261C7.5047 7.97877 7.43763 7.91169 7.35378 7.82785C7.33702 7.81108 7.30348 7.79431 7.26994 7.76078C7.25317 7.74401 7.2364 7.74401 7.2364 7.72724C7.13579 7.6434 7.00165 7.59309 6.8675 7.59309C6.71658 7.59309 6.56566 7.66017 6.48182 7.77755C6.31414 7.99554 6.36444 8.33091 6.5992 8.53213C6.61597 8.53213 6.61597 8.5489 6.63274 8.5489C6.66627 8.56567 6.68304 8.5992 6.71658 8.61597C6.81719 8.68305 6.90103 8.73335 7.00165 8.78366C7.05195 8.80043 7.10226 8.83396 7.15256 8.8675C7.4544 9.05195 7.70592 9.20287 7.90715 9.38732C7.99099 9.47117 7.99099 9.55501 7.99099 9.63885V9.67239L8.15867 9.82331C8.12514 9.87361 8.0916 9.90715 8.07483 9.95745C7.2364 11.2822 6.9178 12.8416 7.13579 14.3843L6.9178 14.4514C6.9178 14.4682 6.90103 14.4682 6.90103 14.485C6.8675 14.552 6.81719 14.6191 6.71658 14.6694C6.46505 14.7533 6.16322 14.7868 5.81108 14.8203H5.79431C5.74401 14.8203 5.67693 14.8203 5.62663 14.8371C5.52602 14.8371 5.4254 14.8539 5.30802 14.8706C5.27449 14.8706 5.24095 14.8874 5.20741 14.8874C5.19064 14.8874 5.17388 14.8874 5.15711 14.9042C4.85527 14.9712 4.67082 15.2563 4.72113 15.5246C4.77143 15.7594 4.98942 15.9103 5.25772 15.9103C5.30802 15.9103 5.34156 15.9103 5.39187 15.8935C5.40864 15.8935 5.4254 15.8935 5.4254 15.8767C5.45894 15.8767 5.49248 15.86 5.52602 15.86C5.64339 15.8264 5.72724 15.7929 5.82785 15.7426C5.87815 15.7258 5.92846 15.6923 5.97877 15.6755H5.99553C6.31414 15.5581 6.5992 15.4575 6.8675 15.424H6.90103C7.00165 15.424 7.06872 15.4743 7.11902 15.5078C7.13579 15.5078 7.13579 15.5246 7.15256 15.5246L7.38732 15.4911C7.78977 16.7319 8.56112 17.8387 9.584 18.6435C9.81876 18.828 10.0535 18.9789 10.305 19.1298L10.2044 19.3478C10.2044 19.3646 10.2212 19.3646 10.2212 19.3814C10.2547 19.4484 10.2883 19.5323 10.2547 19.6497C10.1541 19.9012 10.0032 20.1527 9.81876 20.4378V20.4545C9.78522 20.5049 9.75168 20.5384 9.71815 20.5887C9.65107 20.6725 9.60077 20.7564 9.53369 20.857C9.51692 20.8738 9.50016 20.9073 9.48339 20.9408C9.48339 20.9576 9.46662 20.9744 9.46662 20.9744C9.33247 21.2594 9.43308 21.578 9.68461 21.6954C9.75168 21.729 9.81876 21.7457 9.88583 21.7457C10.0871 21.7457 10.2883 21.6116 10.3889 21.4271C10.3889 21.4104 10.4057 21.3936 10.4057 21.3936C10.4224 21.3601 10.4392 21.3265 10.456 21.3097C10.5063 21.1924 10.523 21.1085 10.5566 21.0079C10.5733 20.9576 10.5901 20.9073 10.6069 20.857C10.7243 20.5216 10.8081 20.2533 10.959 20.0186C11.0261 19.918 11.1099 19.9012 11.177 19.8677C11.1938 19.8677 11.1938 19.8677 11.2105 19.8509L11.3279 19.6329C12.0657 19.918 12.8706 20.0689 13.6755 20.0689C14.1618 20.0689 14.6649 20.0186 15.1344 19.9012C15.4362 19.8341 15.7213 19.7503 16.0063 19.6497L16.107 19.8341C16.1237 19.8341 16.1237 19.8341 16.1405 19.8509C16.2243 19.8677 16.2914 19.9012 16.3585 20.0018C16.4926 20.2366 16.5932 20.5216 16.7106 20.8402V20.857C16.7274 20.9073 16.7442 20.9576 16.7609 21.0079C16.7945 21.1085 16.8112 21.2091 16.8615 21.3097C16.8783 21.3433 16.8951 21.3601 16.9118 21.3936C16.9118 21.4104 16.9286 21.4271 16.9286 21.4271C17.0292 21.6283 17.2304 21.7457 17.4317 21.7457C17.4987 21.7457 17.5658 21.729 17.6329 21.6954C17.7503 21.6283 17.8509 21.5277 17.8844 21.3936C17.918 21.2594 17.918 21.1085 17.8509 20.9744C17.8509 20.9576 17.8341 20.9576 17.8341 20.9408C17.8173 20.9073 17.8006 20.8738 17.7838 20.857C17.7335 20.7564 17.6664 20.6725 17.5994 20.5887C17.5658 20.5384 17.5323 20.5049 17.4987 20.4545V20.4378C17.3143 20.1527 17.1466 19.9012 17.0628 19.6497C17.0292 19.5323 17.0628 19.4652 17.0795 19.3814C17.0795 19.3646 17.0963 19.3646 17.0963 19.3478L17.0125 19.1466C17.9012 18.6268 18.6558 17.889 19.2259 16.9835C19.5277 16.5139 19.7625 15.9941 19.9302 15.4743L20.1314 15.5078C20.1482 15.5078 20.1482 15.4911 20.1649 15.4911C20.232 15.4575 20.2823 15.4072 20.3829 15.4072H20.4165C20.6848 15.4408 20.9698 15.5414 21.2884 15.6588H21.3052C21.3555 15.6755 21.4058 15.7091 21.4561 15.7258C21.5567 15.7761 21.6406 15.8097 21.7579 15.8432C21.7915 15.8432 21.825 15.86 21.8586 15.86C21.8753 15.86 21.8921 15.86 21.9089 15.8767C21.9592 15.8935 21.9927 15.8935 22.043 15.8935C22.2945 15.8935 22.5125 15.7258 22.5796 15.5078C22.5796 15.3066 22.3951 15.0383 22.0933 14.9545ZM14.3295 14.1328L13.5917 14.485L12.8539 14.1328L12.6694 13.3447L13.1725 12.7075H13.9941L14.4972 13.3447L14.3295 14.1328ZM18.7061 12.3889C18.8402 12.959 18.8738 13.5291 18.8235 14.0825L16.2579 13.3447C16.0231 13.2776 15.889 13.0429 15.9393 12.8081C15.956 12.741 15.9896 12.674 16.0399 12.6236L18.0689 10.7959C18.3539 11.2654 18.5719 11.802 18.7061 12.3889ZM17.264 9.78977L15.0673 11.3492C14.8829 11.4666 14.6313 11.4331 14.4804 11.2486C14.4301 11.1983 14.4133 11.1313 14.3966 11.0642L14.2456 8.33091C15.4027 8.46505 16.4591 8.98488 17.264 9.78977ZM12.4011 8.41475C12.5856 8.38121 12.7532 8.34768 12.9377 8.31414L12.7868 10.9971C12.77 11.2319 12.5856 11.4331 12.334 11.4331C12.267 11.4331 12.1831 11.4163 12.1328 11.3828L9.9026 9.78977C10.5901 9.10226 11.4453 8.63274 12.4011 8.41475ZM9.09771 10.7959L11.0932 12.5733C11.2776 12.7243 11.2944 13.0093 11.1435 13.1938C11.0932 13.2609 11.0261 13.3112 10.9422 13.3279L8.34313 14.0825C8.24252 12.9423 8.49404 11.7852 9.09771 10.7959ZM8.64496 15.3401L11.3112 14.8874C11.5291 14.8706 11.7304 15.0215 11.7807 15.2395C11.7974 15.3401 11.7974 15.424 11.7639 15.5078L10.741 17.9728C9.80199 17.3691 9.04741 16.4469 8.64496 15.3401ZM14.7655 18.6771C14.3798 18.7609 13.9941 18.8112 13.5917 18.8112C13.0048 18.8112 12.4346 18.7106 11.8981 18.5429L13.2228 16.145C13.3569 15.9941 13.5749 15.927 13.7594 16.0277C13.8432 16.078 13.9103 16.145 13.9606 16.2121L15.2518 18.5429C15.1008 18.5932 14.9332 18.6268 14.7655 18.6771ZM18.0353 16.3463C17.6161 17.017 17.0628 17.5536 16.4256 17.9728L15.3691 15.4408C15.3188 15.2395 15.4027 15.0215 15.6039 14.9209C15.671 14.8874 15.7548 14.8706 15.8387 14.8706L18.5216 15.3234C18.421 15.6923 18.2533 16.0277 18.0353 16.3463Z" fill="white"/>
</svg>
