<svg width="211" height="45" viewBox="0 0 211 45" fill="none" xmlns="http://www.w3.org/2000/svg">
<g clip-path="url(#clip0_1005_3396)">
<path d="M67.3794 9.01142V0.78894H72.3822V23.3906H67.3794V13.997H61.1851V23.3906H56.1904V0.78894H61.1851V9.01142H67.3794Z" fill="#253B7C"/>
<path d="M80.5353 0.821441C80.8001 1.07913 81.0092 1.38816 81.1496 1.72947C81.2899 2.07077 81.3586 2.43711 81.3514 2.8059C81.3575 3.17333 81.2882 3.53812 81.1479 3.87795C81.0075 4.21778 80.7991 4.52549 80.5353 4.78223C80.277 5.04654 79.967 5.25512 79.6244 5.39502C79.2819 5.53493 78.9141 5.60318 78.544 5.59553C78.1752 5.60207 77.809 5.53327 77.468 5.3934C77.1269 5.25352 76.8181 5.04553 76.5608 4.78223C76.2969 4.52549 76.0885 4.21778 75.9482 3.87795C75.8079 3.53812 75.7386 3.17333 75.7447 2.8059C75.7375 2.43711 75.8061 2.07077 75.9465 1.72947C76.0869 1.38816 76.2959 1.07913 76.5608 0.821441C76.8172 0.556965 77.1258 0.348199 77.4671 0.208238C77.8083 0.0682773 78.175 0.000146026 78.544 0.00813912C78.9143 -0.000984827 79.2824 0.066593 79.6252 0.206587C79.968 0.346582 80.2779 0.555945 80.5353 0.821441ZM81.0413 23.3906H76.0466V7.12453H81.0413V23.3906Z" fill="#253B7C"/>
<path d="M95.3721 7.84836V10.4509C95.3721 10.7659 95.2466 11.0679 95.0231 11.2906C94.7997 11.5132 94.4965 11.6384 94.1805 11.6384H94.0662C92.2136 11.6384 90.9895 11.9555 90.3775 12.5981C89.8639 13.3026 89.6312 14.1721 89.7245 15.038V23.4068H84.7299V15.0217C84.6716 13.9552 84.8246 12.8877 85.1803 11.8802C85.5359 10.8727 86.0873 9.94484 86.8028 9.14965C88.3916 7.49052 90.8126 6.66095 94.0662 6.66095H94.1805C94.4965 6.66095 94.7997 6.78606 95.0231 7.00874C95.2466 7.23142 95.3721 7.53344 95.3721 7.84836Z" fill="#253B7C"/>
<path d="M108.732 12.2158C108.479 11.8664 108.156 11.5727 107.784 11.3531C107.412 11.1334 106.998 10.9924 106.569 10.9389C105.75 10.836 104.919 10.9924 104.194 11.3862C103.573 11.7223 103.069 12.2385 102.75 12.8664C102.408 13.4956 102.231 14.2006 102.235 14.916C102.202 15.8389 102.51 16.742 103.101 17.4534C103.452 17.8361 103.883 18.1366 104.364 18.3334C104.845 18.5303 105.364 18.6186 105.884 18.5921H112.192V23.3906H105.884C104.588 23.4604 103.294 23.2182 102.112 22.6845C100.931 22.1508 99.895 21.3413 99.0934 20.3244C97.9094 18.7573 97.2937 16.8363 97.3469 14.8753C97.3099 13.2007 97.7454 11.5494 98.6038 10.1093C99.4945 8.67662 100.834 7.57619 102.415 6.97813C103.525 6.56843 104.7 6.36445 105.884 6.37628C107.603 6.38293 109.278 6.91678 110.682 7.90529C111.945 8.72437 112.963 9.86795 113.629 11.2154C114.067 11.9996 114.211 12.9132 114.037 13.7936C113.935 14.2002 113.719 14.5694 113.414 14.8576C113.109 15.1458 112.728 15.341 112.315 15.4202L106.479 17.0468C106.285 17.1154 106.081 17.1511 105.875 17.1525C105.606 17.1564 105.338 17.1058 105.088 17.0037C104.838 16.9017 104.612 16.7504 104.423 16.5588C104.235 16.3706 104.088 16.1471 103.988 15.9013C103.889 15.6555 103.84 15.3924 103.843 15.1274C103.837 14.6673 103.996 14.2201 104.292 13.8668C104.562 13.5104 104.949 13.2599 105.386 13.1592L108.732 12.2158Z" fill="#253B7C"/>
<path d="M126.303 5.76634C125.682 5.72076 125.058 5.80103 124.469 6.00231C123.88 6.2036 123.338 6.52173 122.875 6.9375C122.458 7.39839 122.138 7.93843 121.935 8.52533C121.731 9.11224 121.649 9.73396 121.692 10.3534V13.875C121.647 14.4945 121.729 15.1166 121.933 15.7037C122.136 16.2908 122.457 16.8307 122.875 17.2908C123.327 17.6938 123.855 18.0028 124.428 18.1997C125.001 18.3966 125.608 18.4775 126.213 18.4376L124.434 16.1034L127.372 13.8912L134.832 23.6509L131.91 25.8793L129.657 22.9351C128.561 23.26 127.422 23.419 126.279 23.4069C125.006 23.4652 123.735 23.2654 122.543 22.8194C121.35 22.3734 120.261 21.6906 119.342 20.8124C118.452 19.8954 117.758 18.8074 117.303 17.6147C116.849 16.422 116.643 15.1496 116.697 13.875V10.3534C116.642 9.0786 116.848 7.80593 117.302 6.61312C117.757 5.42031 118.451 4.33241 119.342 3.4159C120.26 2.53481 121.348 1.84902 122.541 1.40021C123.733 0.951411 125.005 0.748977 126.279 0.805204C127.547 0.746367 128.815 0.946099 130.003 1.3922C131.192 1.8383 132.277 2.52137 133.191 3.39963C134.084 4.31821 134.78 5.4086 135.236 6.6042C135.692 7.7998 135.899 9.07549 135.844 10.3534V13.875C135.912 16.0957 135.218 18.2734 133.877 20.0479L130.612 15.7374C130.802 15.1348 130.895 14.5064 130.89 13.875V10.3534C130.932 9.73089 130.849 9.10627 130.644 8.51664C130.439 7.92702 130.118 7.38445 129.698 6.92123C129.239 6.51127 128.702 6.19771 128.119 5.99929C127.535 5.80086 126.918 5.72163 126.303 5.76634ZM153.978 18.4132V23.3906H143.939C143.299 23.4001 142.663 23.2795 142.071 23.0362C141.479 22.7929 140.943 22.432 140.495 21.9755C140.04 21.5281 139.679 20.9934 139.437 20.4035C139.194 19.8136 139.074 19.1808 139.084 18.5433V5.62808C139.074 4.993 139.194 4.3626 139.437 3.77532C139.679 3.18803 140.04 2.65619 140.495 2.21221C140.941 1.75306 141.477 1.38988 142.07 1.14509C142.662 0.900295 143.298 0.779081 143.939 0.788935H154.1V5.76634H144.095V9.16595H153.57V13.8424H144.095V18.4132H153.978ZM163.681 18.4132H166.13C167.154 18.4342 168.149 18.0747 168.921 17.4047C169.683 16.733 170.248 15.867 170.553 14.8997C170.855 13.9952 171.004 13.047 170.994 12.0938C171.002 11.1355 170.853 10.1822 170.553 9.27167C170.245 8.31007 169.681 7.44987 168.921 6.78297C168.149 6.11067 167.155 5.74831 166.13 5.76634H162.261V23.3906H157.267V5.62808C157.257 4.993 157.377 4.3626 157.62 3.77532C157.863 3.18803 158.223 2.65619 158.679 2.21221C159.125 1.75306 159.66 1.38988 160.253 1.14509C160.845 0.900295 161.481 0.779081 162.123 0.788935H166.13C168.258 0.737428 170.334 1.4472 171.981 2.78965C173.51 4.07693 174.641 5.76863 175.246 7.66946C175.713 9.08966 175.95 10.5749 175.948 12.0694C175.951 13.5614 175.714 15.0442 175.246 16.4613C174.641 18.3621 173.51 20.0538 171.981 21.3411C170.336 22.689 168.259 23.4021 166.13 23.3499H163.681V18.4132Z" fill="url(#paint0_linear_1005_3396)"/>
<path d="M43.1409 37.477V37.9487C43.143 38.875 42.9608 39.7925 42.605 40.6482C42.2492 41.5039 41.7268 42.2809 41.0679 42.9342C40.4134 43.5923 39.6339 44.1139 38.7749 44.4686C37.916 44.8233 36.9948 45.0039 36.0651 45C34.1891 44.9979 32.3906 44.2543 31.0641 42.9324C29.7376 41.6104 28.9914 39.8182 28.9893 37.9487V29.5473C28.9893 29.5473 43.1409 28.7909 43.1409 37.477Z" fill="url(#paint1_linear_1005_3396)"/>
<path d="M43.1406 22.0405V37.4932C43.1406 28.8072 28.989 29.5635 28.989 29.5635C14.1927 29.5635 14.1602 15.4609 14.1602 15.4609H36.53C38.2811 15.463 39.9601 16.1567 41.1992 17.3899C42.4382 18.6231 43.1363 20.2954 43.1406 22.0405Z" fill="url(#paint2_linear_1005_3396)"/>
<path d="M42.5452 9.58414C43.9621 5.95483 42.1585 1.86794 38.5166 0.455846C34.8747 -0.956244 30.7737 0.841201 29.3567 4.47051C27.9397 8.09982 29.7434 12.1867 33.3852 13.5988C37.0271 15.0109 41.1282 13.2135 42.5452 9.58414Z" fill="url(#paint3_linear_1005_3396)"/>
<path d="M13.6246 40.8244C15.2053 37.2629 13.5896 33.0987 10.0157 31.5234C6.44187 29.9482 2.26323 31.5584 0.682499 35.1199C-0.898235 38.6814 0.7175 42.8456 4.29136 44.4209C7.86523 45.9962 12.0439 44.386 13.6246 40.8244Z" fill="url(#paint4_linear_1005_3396)"/>
<path d="M29.0218 29.5473H7.10901C5.2324 29.5473 3.43265 28.8044 2.10568 27.482C0.77872 26.1596 0.0332031 24.3661 0.0332031 22.4959V7.0432C0.0342407 6.11133 0.220378 5.18887 0.580937 4.32905C0.941495 3.46923 1.46935 2.68906 2.13398 2.03353C2.7986 1.37801 3.58685 0.860099 4.45333 0.509685C5.31981 0.15927 6.24736 -0.0167122 7.18243 -0.00812294C9.05788 0.0260462 10.8446 0.794207 12.1564 2.13037C13.4681 3.46653 14.1996 5.26339 14.1929 7.13267V15.4365C14.1929 15.4365 14.1929 29.5473 29.0218 29.5473Z" fill="url(#paint5_linear_1005_3396)"/>
<path style="mix-blend-mode:multiply" d="M43.1409 37.477V37.9487C43.143 38.875 42.9608 39.7925 42.605 40.6482C42.2492 41.5039 41.7268 42.2809 41.0679 42.9342C40.4134 43.5923 39.6339 44.1139 38.7749 44.4686C37.916 44.8233 36.9948 45.0039 36.0651 45C34.1891 44.9979 32.3906 44.2543 31.0641 42.9324C29.7376 41.6104 28.9914 39.8182 28.9893 37.9487V29.5473C28.9893 29.5473 43.1409 28.7909 43.1409 37.477Z" fill="url(#paint6_linear_1005_3396)"/>
<path style="mix-blend-mode:multiply" d="M43.1406 22.0405V37.4932C43.1406 28.8072 28.989 29.5635 28.989 29.5635C14.1927 29.5635 14.1602 15.4609 14.1602 15.4609H36.53C38.2811 15.463 39.9601 16.1567 41.1992 17.3899C42.4382 18.6231 43.1363 20.2954 43.1406 22.0405Z" fill="url(#paint7_linear_1005_3396)"/>
<path d="M181.636 18.4782C181.902 18.7366 182.112 19.0469 182.252 19.3897C182.393 19.7326 182.461 20.1006 182.452 20.4708C182.459 20.8372 182.391 21.2012 182.25 21.5399C182.11 21.8786 181.901 22.1847 181.636 22.439C181.378 22.7045 181.069 22.9139 180.726 23.0539C180.383 23.1939 180.015 23.2614 179.645 23.2523C179.276 23.2603 178.909 23.1922 178.568 23.0522C178.226 22.9123 177.918 22.7035 177.661 22.439C177.398 22.1835 177.19 21.8772 177.05 21.5388C176.909 21.2004 176.84 20.837 176.845 20.4708C176.838 20.1008 176.907 19.7332 177.047 19.3905C177.187 19.0479 177.396 18.7375 177.661 18.4782C177.919 18.2153 178.228 18.0076 178.569 17.8677C178.91 17.7279 179.276 17.6589 179.645 17.6649C180.015 17.6578 180.382 17.7262 180.725 17.8661C181.067 18.006 181.377 18.2143 181.636 18.4782Z" fill="#253B7C"/>
<path d="M66.7837 43.1132C66.0842 43.7372 65.1842 44.0919 64.2456 44.1135C63.6265 44.0795 63.0283 43.8784 62.5151 43.5317C62.0019 43.185 61.593 42.7058 61.332 42.1453C60.708 42.1638 60.0866 42.0577 59.5043 41.8334C58.922 41.6091 58.3905 41.2711 57.9412 40.8392C57.4918 40.4073 57.1336 39.8903 56.8877 39.3185C56.6417 38.7467 56.5129 38.1316 56.5088 37.5095C56.5124 36.882 56.6435 36.2618 56.8943 35.6862C57.1451 35.1107 57.5103 34.5917 57.968 34.1608C58.4256 33.7298 58.9662 33.3957 59.557 33.1787C60.1478 32.9617 60.7767 32.8662 61.4055 32.8981C62.0338 32.8685 62.6616 32.9656 63.2514 33.1834C63.8411 33.4013 64.3808 33.7355 64.838 34.166C65.2951 34.5965 65.6604 35.1146 65.912 35.689C66.1636 36.2635 66.2964 36.8827 66.3022 37.5095C66.3057 38.4844 65.9963 39.4348 65.4193 40.222C64.8422 41.0092 64.0278 41.5919 63.0948 41.8851C63.2612 42.1049 63.4722 42.2873 63.7141 42.4204C63.956 42.5536 64.2232 42.6344 64.4985 42.6577C65.1053 42.5873 65.6755 42.3316 66.1308 41.9257L66.7837 43.1132ZM61.4136 40.5838C61.8166 40.5817 62.2152 40.5004 62.5867 40.3448C62.9581 40.1891 63.2953 39.9621 63.5787 39.6766C63.8622 39.3912 64.0864 39.0528 64.2386 38.681C64.3909 38.3092 64.4681 37.9111 64.466 37.5095C64.467 37.1094 64.3889 36.713 64.2359 36.343C64.083 35.973 63.8584 35.6367 63.5748 35.3534C63.2913 35.0701 62.9544 34.8453 62.5836 34.6919C62.2127 34.5386 61.8151 34.4596 61.4136 34.4596C61.0075 34.4543 60.6044 34.5291 60.2275 34.6797C59.8505 34.8304 59.5072 35.0539 59.2174 35.3375C58.9275 35.621 58.697 35.9589 58.5388 36.3317C58.3807 36.7045 58.2982 37.1048 58.296 37.5095C58.2982 37.9154 58.3805 38.3168 58.5383 38.691C58.6962 39.0651 58.9264 39.4046 59.2159 39.6901C59.5054 39.9756 59.8485 40.2014 60.2256 40.3548C60.6027 40.5081 61.0063 40.5859 61.4136 40.5838Z" fill="#253B7C"/>
<path d="M74.6101 35.1021V42.0721H72.8962V40.7789C72.6686 41.2212 72.3146 41.5864 71.8788 41.8281C71.443 42.0699 70.945 42.1774 70.4479 42.1372C70.0986 42.1504 69.7506 42.089 69.4271 41.9571C69.1037 41.8252 68.8123 41.6258 68.5726 41.3723C68.333 41.1188 68.1505 40.8171 68.0375 40.4875C67.9246 40.1579 67.8839 39.808 67.9179 39.4614V35.1021H69.6236V38.9734C69.6003 39.1785 69.6226 39.3862 69.6889 39.5818C69.7552 39.7773 69.8638 39.9559 70.0071 40.1049C70.1504 40.2539 70.3249 40.3697 70.5181 40.444C70.7113 40.5183 70.9186 40.5494 71.1252 40.535C71.3749 40.5285 71.6207 40.4706 71.8469 40.3649C72.0731 40.2592 72.275 40.1081 72.4397 39.921C72.6045 39.7338 72.7286 39.5148 72.8044 39.2775C72.8801 39.0403 72.9058 38.79 72.8799 38.5424V35.1021H74.6101Z" fill="#253B7C"/>
<path d="M78.8541 33.1096C78.8619 33.2388 78.843 33.3684 78.7984 33.49C78.7538 33.6117 78.6846 33.7229 78.595 33.8168C78.5054 33.9106 78.3974 33.9851 78.2777 34.0355C78.158 34.0859 78.0292 34.1113 77.8992 34.1099C77.7699 34.1102 77.642 34.084 77.5232 34.0331C77.4045 33.9821 77.2974 33.9075 77.2087 33.8138C77.12 33.7201 77.0515 33.6092 77.0075 33.4881C76.9634 33.367 76.9447 33.2381 76.9525 33.1096C76.9434 32.9807 76.9613 32.8513 77.005 32.7297C77.0486 32.608 77.117 32.4967 77.2059 32.4027C77.2949 32.3087 77.4024 32.2341 77.5217 32.1836C77.641 32.1331 77.7696 32.1078 77.8992 32.1092C78.0295 32.1066 78.1589 32.1311 78.2792 32.1811C78.3994 32.2311 78.508 32.3056 78.5979 32.3997C78.6877 32.4938 78.7568 32.6055 78.8009 32.7277C78.845 32.8499 78.8632 32.98 78.8541 33.1096ZM78.7561 35.1022V42.0722H77.0504V35.1022H78.7561Z" fill="#253B7C"/>
<path d="M85.277 41.6411C84.7494 41.9661 84.1425 42.1406 83.5223 42.1454C83.2442 42.1669 82.9648 42.1274 82.7037 42.0298C82.4426 41.9322 82.2061 41.7788 82.0109 41.5803C81.8156 41.3819 81.6664 41.1432 81.5736 40.8811C81.4808 40.6191 81.4467 40.3399 81.4738 40.0633V36.623H80.4863V35.4031H81.482V33.4918H83.1631V35.4031H85.1627V36.6393H83.1631V39.7787C83.1631 40.4456 83.4406 40.6652 83.8977 40.6652C84.2461 40.6421 84.5856 40.5451 84.8933 40.3805L85.277 41.6411Z" fill="#253B7C"/>
<path d="M93.1277 39.1768H87.9698C88.054 39.636 88.3019 40.0494 88.6678 40.3408C89.0338 40.6322 89.4931 40.7821 89.9612 40.7627C90.3145 40.7631 90.6642 40.6911 90.9885 40.5512C91.3128 40.4113 91.6048 40.2064 91.8463 39.9494L92.7604 40.901C92.3834 41.2966 91.9269 41.6083 91.4206 41.8157C90.9142 42.0232 90.3696 42.1216 89.8224 42.1046C89.3464 42.1362 88.8692 42.0671 88.422 41.9016C87.9748 41.7362 87.5678 41.4783 87.2278 41.1449C86.8878 40.8114 86.6225 40.41 86.4494 39.9671C86.2763 39.5241 86.1992 39.0497 86.2233 38.5749C86.1988 38.1021 86.274 37.6293 86.4439 37.1872C86.6139 36.7451 86.8749 36.3433 87.21 36.0077C87.5452 35.6722 87.9472 35.4103 88.3901 35.2389C88.833 35.0675 89.307 34.9904 89.7815 35.0126C92.2381 35.0452 93.2991 36.6474 93.1277 39.1768ZM91.5852 38.0463C91.5945 37.8143 91.5537 37.583 91.4658 37.368C91.3779 37.153 91.2448 36.9592 91.0755 36.7997C90.9061 36.6402 90.7045 36.5187 90.4842 36.4434C90.2638 36.368 90.0298 36.3405 89.7979 36.3627C89.3291 36.3509 88.8738 36.5191 88.526 36.8325C88.1781 37.1458 87.9645 37.5803 87.929 38.0463H91.5852Z" fill="#253B7C"/>
<path d="M105.305 32.9631V34.484H100.359V36.7369H104.799V38.2659H100.359V40.5512H105.468V42.0802H98.6045V32.9631H105.305Z" fill="#253B7C"/>
<path d="M111.637 42.0722V41.2182C111.357 41.5371 111.006 41.7868 110.612 41.9477C110.219 42.1086 109.793 42.1762 109.368 42.1453C109.062 42.1795 108.752 42.1492 108.458 42.0563C108.164 41.9634 107.892 41.81 107.662 41.6061C107.431 41.4022 107.246 41.1522 107.118 40.8725C106.99 40.5927 106.923 40.2893 106.92 39.982C106.92 38.6969 107.875 37.8999 109.572 37.8918H111.613V37.7047C111.613 36.8914 111.074 36.4197 110.029 36.4197C109.289 36.4444 108.57 36.6693 107.948 37.0703L107.336 35.8992C108.257 35.3226 109.325 35.0232 110.413 35.0371C112.241 35.0371 113.269 35.9642 113.286 37.477V42.0396L111.637 42.0722ZM111.637 39.6322V39.006H109.874C108.968 39.006 108.552 39.25 108.552 39.8681C108.552 40.4862 109.026 40.8278 109.793 40.8278C110.187 40.8728 110.585 40.7798 110.919 40.5647C111.252 40.3496 111.5 40.0257 111.621 39.6485L111.637 39.6322Z" fill="#253B7C"/>
<path d="M117.636 36.3546C117.081 36.3546 116.689 36.5336 116.689 36.9646C116.689 38.1358 120.386 37.5258 120.386 40.0226C120.386 41.4459 119.121 42.1372 117.636 42.1372C116.588 42.1573 115.567 41.8121 114.747 41.1612L115.335 39.9738C116.006 40.5137 116.839 40.8168 117.701 40.8359C118.289 40.8359 118.73 40.6407 118.73 40.1772C118.73 38.8921 115.082 39.5916 115.098 37.1191C115.098 35.6877 116.322 35.0208 117.734 35.0208C118.641 35.0194 119.531 35.2761 120.297 35.7609L119.685 36.989C119.066 36.6098 118.361 36.3917 117.636 36.3546Z" fill="#253B7C"/>
<path d="M123.969 33.1096C123.976 33.2388 123.958 33.3684 123.913 33.49C123.868 33.6117 123.799 33.7229 123.71 33.8168C123.62 33.9106 123.512 33.9851 123.392 34.0355C123.273 34.0859 123.144 34.1113 123.014 34.1099C122.884 34.1113 122.755 34.0859 122.635 34.0355C122.516 33.9851 122.408 33.9106 122.318 33.8168C122.228 33.7229 122.159 33.6117 122.115 33.49C122.07 33.3684 122.051 33.2388 122.059 33.1096C122.05 32.98 122.068 32.8499 122.112 32.7277C122.156 32.6055 122.225 32.4938 122.315 32.3997C122.405 32.3056 122.513 32.2311 122.634 32.1811C122.754 32.1311 122.884 32.1066 123.014 32.1092C123.144 32.1066 123.274 32.1311 123.394 32.1811C123.514 32.2311 123.623 32.3056 123.712 32.3997C123.802 32.4938 123.871 32.6055 123.916 32.7277C123.96 32.8499 123.978 32.98 123.969 33.1096ZM123.863 35.1022V42.0722H122.165V35.1022H123.863Z" fill="#253B7C"/>
<path d="M128.058 32.402V42.0722H126.36V32.402H128.058Z" fill="#253B7C"/>
<path d="M131.184 44.6747C130.547 44.6856 129.928 44.4627 129.445 44.0484L130.18 42.7634C130.429 42.9801 130.747 43.1038 131.078 43.1131C131.3 43.1147 131.518 43.0474 131.7 42.9207C131.883 42.794 132.022 42.6141 132.098 42.4055L132.31 41.9501L129.421 35.1021H131.184L133.167 40.169L134.987 35.1021H136.701L133.567 42.9423C133.412 43.45 133.096 43.8937 132.666 44.2063C132.236 44.5189 131.716 44.6833 131.184 44.6747Z" fill="#253B7C"/>
<path d="M150.257 37.5095C150.257 40.169 148.241 42.0721 145.417 42.0721H141.646V32.9631H145.45C146.071 32.9215 146.694 33.0086 147.28 33.2191C147.866 33.4296 148.402 33.7589 148.853 34.1861C149.305 34.6133 149.663 35.1292 149.904 35.7012C150.146 36.2732 150.266 36.889 150.257 37.5095ZM148.461 37.5095C148.478 37.11 148.412 36.7114 148.268 36.3384C148.124 35.9654 147.904 35.626 147.622 35.3414C147.34 35.0568 147.003 34.8331 146.63 34.6842C146.258 34.5353 145.859 34.4643 145.458 34.4759H143.434V40.5187H145.523C145.917 40.5269 146.308 40.4545 146.672 40.3061C147.037 40.1577 147.367 39.9365 147.642 39.656C147.917 39.3756 148.132 39.0418 148.273 38.6754C148.414 38.309 148.478 37.9177 148.461 37.5257V37.5095Z" fill="#253B7C"/>
<path d="M158.785 38.5749C158.803 39.0582 158.719 39.5398 158.538 39.9885C158.357 40.4372 158.083 40.8429 157.735 41.179C157.386 41.5152 156.97 41.7742 156.514 41.9393C156.057 42.1044 155.572 42.1719 155.088 42.1372C154.604 42.1694 154.12 42.1002 153.665 41.9341C153.211 41.768 152.797 41.5087 152.449 41.1729C152.101 40.8372 151.828 40.4325 151.647 39.985C151.466 39.5375 151.382 39.0571 151.399 38.5749C151.384 38.0948 151.47 37.6169 151.652 37.1721C151.834 36.7273 152.108 36.3256 152.456 35.9929C152.803 35.6602 153.217 35.4039 153.671 35.2407C154.124 35.0774 154.607 35.0108 155.088 35.0452C155.569 35.0083 156.053 35.0731 156.508 35.2354C156.963 35.3976 157.379 35.6536 157.728 35.9867C158.076 36.3198 158.351 36.7225 158.533 37.1685C158.715 37.6145 158.801 38.0937 158.785 38.5749ZM153.129 38.5749C153.106 38.8442 153.14 39.1153 153.228 39.3708C153.317 39.6263 153.458 39.8606 153.642 40.0588C153.826 40.257 154.05 40.4148 154.299 40.522C154.548 40.6292 154.816 40.6835 155.088 40.6814C155.36 40.6845 155.63 40.6311 155.88 40.5245C156.13 40.4178 156.355 40.2604 156.541 40.0622C156.727 39.864 156.869 39.6294 156.959 39.3733C157.049 39.1172 157.084 38.8453 157.063 38.5749C157.085 38.3046 157.051 38.0326 156.962 37.7764C156.872 37.5201 156.73 37.2855 156.544 37.0876C156.358 36.8898 156.132 36.7332 155.881 36.6279C155.63 36.5226 155.36 36.4711 155.088 36.4766C154.814 36.4729 154.542 36.527 154.291 36.6352C154.04 36.7434 153.814 36.9034 153.629 37.1046C153.444 37.3058 153.304 37.5438 153.218 37.8028C153.131 38.0618 153.101 38.336 153.129 38.6075V38.5749Z" fill="#253B7C"/>
<path d="M167.387 37.7209V42.0721H165.673V38.217C165.693 38.0078 165.666 37.7968 165.596 37.5988C165.525 37.4007 165.412 37.2204 165.265 37.0703C165.117 36.9201 164.939 36.8038 164.741 36.7294C164.544 36.6549 164.333 36.6242 164.123 36.6392C163.866 36.638 163.611 36.6906 163.376 36.7935C163.141 36.8965 162.929 37.0475 162.756 37.2369C162.583 37.4262 162.452 37.6497 162.371 37.8928C162.29 38.1359 162.261 38.3932 162.286 38.6481V42.0721H160.589V35.1021H162.286V36.4034C162.531 35.9605 162.898 35.5966 163.343 35.3545C163.788 35.1124 164.294 35.0023 164.8 35.037C165.155 35.0151 165.51 35.0704 165.841 35.1991C166.172 35.3277 166.471 35.5266 166.717 35.782C166.963 36.0374 167.151 36.3431 167.267 36.6779C167.382 37.0128 167.423 37.3687 167.387 37.7209Z" fill="#253B7C"/>
<path d="M175.924 39.1768H170.757C170.842 39.6374 171.091 40.0519 171.459 40.3435C171.826 40.6352 172.288 40.7841 172.757 40.7627C173.11 40.7626 173.46 40.6904 173.784 40.5505C174.108 40.4106 174.4 40.206 174.642 39.9494L175.556 40.901C175.179 41.2966 174.723 41.6083 174.216 41.8157C173.71 42.0232 173.165 42.1216 172.618 42.1046C172.142 42.1362 171.665 42.0671 171.218 41.9016C170.771 41.7362 170.364 41.4783 170.024 41.1449C169.684 40.8114 169.418 40.41 169.245 39.9671C169.072 39.5241 168.995 39.0497 169.019 38.5749C168.995 38.1021 169.07 37.6293 169.24 37.1872C169.41 36.7451 169.671 36.3433 170.006 36.0077C170.341 35.6722 170.743 35.4103 171.186 35.2389C171.629 35.0675 172.103 34.9904 172.577 35.0126C174.993 35.0452 176.054 36.6474 175.924 39.1768ZM174.381 38.0463C174.39 37.8135 174.349 37.5815 174.261 37.3658C174.173 37.1502 174.039 36.956 173.869 36.7964C173.698 36.6368 173.496 36.5154 173.274 36.4406C173.053 36.3658 172.818 36.3392 172.586 36.3627C172.117 36.3529 171.663 36.5218 171.316 36.8347C170.968 37.1477 170.754 37.5811 170.717 38.0463H174.381Z" fill="#253B7C"/>
<path d="M202.039 23.3987H197.053V14.8428C197.148 13.7839 196.836 12.7285 196.179 11.8905C195.834 11.5953 195.433 11.3714 195 11.2318C194.567 11.0922 194.111 11.0396 193.657 11.0772C193.203 11.0394 192.745 11.0919 192.311 11.2315C191.876 11.3711 191.474 11.5951 191.128 11.8905C190.463 12.7431 190.154 13.8177 190.262 14.8916C190.184 15.9626 190.491 17.0264 191.128 17.8927C191.83 18.4863 192.739 18.7787 193.657 18.706C194.311 18.7171 194.963 18.6322 195.592 18.4539V23.5614C194.95 23.6433 194.304 23.684 193.657 23.6834C192.547 23.731 191.439 23.5522 190.4 23.1578C189.362 22.7634 188.415 22.1618 187.618 21.3899C186.009 19.6125 185.168 17.2749 185.276 14.8835C185.276 12.0938 186.092 9.92233 187.618 8.37706C189.312 6.98527 191.465 6.27199 193.657 6.37633C195.85 6.27513 198.002 6.98804 199.697 8.37706C201.239 9.9142 202.015 12.0776 202.039 14.8835V23.3987ZM210.2 0.845873C210.465 1.10537 210.674 1.41589 210.814 1.75847C210.954 2.10105 211.023 2.46852 211.016 2.83847C211.022 3.20467 210.953 3.56819 210.813 3.90668C210.672 4.24516 210.464 4.55145 210.2 4.80666C209.94 5.07004 209.628 5.27793 209.284 5.41773C208.941 5.55753 208.572 5.62633 208.201 5.61996C207.833 5.62538 207.469 5.55605 207.129 5.4162C206.79 5.27636 206.482 5.06896 206.226 4.80666C205.963 4.55116 205.754 4.24482 205.614 3.9064C205.474 3.56799 205.404 3.2046 205.41 2.83847C205.403 2.46858 205.472 2.10125 205.613 1.75874C205.753 1.41623 205.961 1.10566 206.226 0.845873C206.482 0.583191 206.789 0.37553 207.129 0.23566C207.469 0.0957904 207.833 0.0266717 208.201 0.0325707C208.572 0.0257261 208.941 0.0943182 209.285 0.234146C209.628 0.373974 209.94 0.582108 210.2 0.845873ZM210.698 23.3987H205.712V7.13271H210.698V23.3987Z" fill="url(#paint8_linear_1005_3396)"/>
</g>
<defs>
<linearGradient id="paint0_linear_1005_3396" x1="135.884" y1="30.2955" x2="156.025" y2="-6.16697" gradientUnits="userSpaceOnUse">
<stop offset="0.06" stop-color="#45A3DB"/>
<stop offset="0.13" stop-color="#438FCD"/>
<stop offset="0.27" stop-color="#4171B7"/>
<stop offset="0.34" stop-color="#4065AF"/>
<stop offset="0.4" stop-color="#5169A2"/>
<stop offset="0.5" stop-color="#7D7580"/>
<stop offset="0.65" stop-color="#C38849"/>
<stop offset="0.76" stop-color="#F89620"/>
<stop offset="1" stop-color="#F16123"/>
</linearGradient>
<linearGradient id="paint1_linear_1005_3396" x1="28.9893" y1="37.2655" x2="43.1409" y2="37.2655" gradientUnits="userSpaceOnUse">
<stop stop-color="#F05123"/>
<stop offset="1" stop-color="#F99D1C"/>
</linearGradient>
<linearGradient id="paint2_linear_1005_3396" x1="14.1602" y1="26.4567" x2="43.1406" y2="26.4567" gradientUnits="userSpaceOnUse">
<stop stop-color="#F05123"/>
<stop offset="1" stop-color="#F99D1C"/>
</linearGradient>
<linearGradient id="paint3_linear_1005_3396" x1="28.8906" y1="7.13438" x2="43.0421" y2="7.1344" gradientUnits="userSpaceOnUse">
<stop stop-color="#F05123"/>
<stop offset="1" stop-color="#F99D1C"/>
</linearGradient>
<linearGradient id="paint4_linear_1005_3396" x1="0.0581338" y1="37.8957" x2="14.2178" y2="37.8957" gradientUnits="userSpaceOnUse">
<stop offset="0.06" stop-color="#45A3DB"/>
<stop offset="1" stop-color="#4065AF"/>
</linearGradient>
<linearGradient id="paint5_linear_1005_3396" x1="0.000558257" y1="14.7777" x2="28.9892" y2="14.7777" gradientUnits="userSpaceOnUse">
<stop offset="0.01" stop-color="#45A3DB"/>
<stop offset="1" stop-color="#4065AF"/>
</linearGradient>
<linearGradient id="paint6_linear_1005_3396" x1="36.0243" y1="37.2899" x2="36.2431" y2="18.5677" gradientUnits="userSpaceOnUse">
<stop stop-color="white"/>
<stop offset="1" stop-color="#4E4E4E"/>
</linearGradient>
<linearGradient id="paint7_linear_1005_3396" x1="22.15" y1="26.4567" x2="-5.70424" y2="26.4567" gradientUnits="userSpaceOnUse">
<stop stop-color="white"/>
<stop offset="1" stop-color="#4E4E4E"/>
</linearGradient>
<linearGradient id="paint8_linear_1005_3396" x1="193.617" y1="25.1717" x2="208.304" y2="-0.35305" gradientUnits="userSpaceOnUse">
<stop offset="0.06" stop-color="#45A3DB"/>
<stop offset="0.13" stop-color="#438FCD"/>
<stop offset="0.27" stop-color="#4171B7"/>
<stop offset="0.34" stop-color="#4065AF"/>
<stop offset="0.4" stop-color="#5169A2"/>
<stop offset="0.5" stop-color="#7D7580"/>
<stop offset="0.65" stop-color="#C38849"/>
<stop offset="0.76" stop-color="#F89620"/>
<stop offset="1" stop-color="#F16123"/>
</linearGradient>
<clipPath id="clip0_1005_3396">
<rect width="211" height="45" fill="white"/>
</clipPath>
</defs>
</svg>
