<svg width="111" height="30" viewBox="0 0 111 30" fill="none" xmlns="http://www.w3.org/2000/svg">
<path d="M9.08251 0.811282C8.13012 0.811692 7.25552 1.32843 6.8079 2.15519C6.36027 2.98195 6.41252 3.98407 6.9438 4.76146L8.045 3.67997C8.0086 3.57209 7.99024 3.45911 7.99063 3.34544C7.99063 2.7549 8.4774 2.27618 9.07785 2.27618C9.67831 2.27618 10.1651 2.7549 10.1651 3.34544C10.1651 3.93598 9.67831 4.41471 9.07785 4.41471C8.9628 4.41496 8.84846 4.3969 8.73926 4.36125L7.63962 5.44273C8.55536 6.05355 9.76538 6.0212 10.646 5.36234C11.5266 4.70347 11.8813 3.56522 11.5271 2.53427C11.1729 1.50331 10.189 0.809836 9.08251 0.811282Z" fill="#34A853"/>
<path d="M8.05739 8.19677C8.05907 7.34072 7.77719 6.50743 7.2544 5.823L5.82548 7.22679C6.27235 8.03064 6.11154 9.02979 5.43408 9.65861L6.21067 11.5252C7.36131 10.7964 8.05685 9.54279 8.05739 8.19677Z" fill="#FBBC04"/>
<path d="M4.06423 10.2116H4.02695C3.15049 10.2117 2.37092 9.66378 2.08708 8.84825C1.80323 8.03272 2.0779 7.12994 2.77055 6.60177C3.4632 6.0736 4.42063 6.03688 5.153 6.51039L6.56794 5.11882C5.19208 4.02181 3.24911 3.93719 1.78004 4.91029C0.310965 5.88339 -0.339614 7.68596 0.176869 9.35221C0.693351 11.0185 2.25575 12.1575 4.02695 12.1592C4.30024 12.1593 4.57287 12.1327 4.84081 12.0797L4.06423 10.2116Z" fill="#EA4335"/>
<path d="M9.13687 11.8262C8.24256 11.8253 7.35296 11.9535 6.49648 12.2066L7.62874 14.9271C8.12161 14.807 8.62754 14.7465 9.13532 14.7469C12.0776 14.7477 14.6096 16.7924 15.1829 19.6306C15.7563 22.4688 14.2113 25.3101 11.4929 26.4171C8.77438 27.524 5.6394 26.5883 4.00499 24.1821C2.37058 21.776 2.6919 18.5694 4.77246 16.5234C5.2066 16.0977 5.70222 15.7374 6.24331 15.4541L5.12348 12.7412C0.94924 14.7518 -1.02712 19.5223 0.529787 23.8294C2.0867 28.1365 6.68143 30.6096 11.2094 29.5776C15.7373 28.5456 18.7576 24.3369 18.2294 19.7953C17.7012 15.2537 13.7926 11.8245 9.14464 11.8247L9.13687 11.8262Z" fill="#4285F4"/>
<path d="M50.816 11.4261C51.9762 12.1042 52.9254 13.0821 53.5604 14.2535C54.2216 15.4687 54.5598 16.8286 54.5436 18.2067C54.5598 19.5849 54.2216 20.9447 53.5604 22.16C52.9258 23.3311 51.9772 24.309 50.8175 24.9874C48.3652 26.3737 45.3486 26.3737 42.8963 24.9874L42.8948 24.9813C41.7344 24.3038 40.7855 23.3257 40.1519 22.1538C39.49 20.9389 39.1518 19.5789 39.1687 18.2006C39.1528 16.8244 39.491 15.4666 40.1519 14.2535C40.7855 13.0817 41.7344 12.1036 42.8948 11.4261C45.3471 10.0398 48.3637 10.0398 50.816 11.4261ZM67.525 11.4261C68.6856 12.1038 69.6349 13.0818 70.2694 14.2535C70.9306 15.4687 71.2688 16.8286 71.2526 18.2067C71.2688 19.5849 70.9306 20.9447 70.2694 22.16C69.6353 23.3315 68.6866 24.3094 67.5265 24.9874C65.0742 26.3737 62.0576 26.3737 59.6054 24.9874L59.6038 24.9813C58.4441 24.3029 57.4955 23.325 56.8609 22.1538C56.1997 20.9386 55.8615 19.5788 55.8777 18.2006C55.8626 16.8245 56.2007 15.4669 56.8609 14.2535C57.4955 13.0823 58.4441 12.1045 59.6038 11.4261C62.0561 10.0398 65.0727 10.0398 67.525 11.4261ZM93.3278 10.3782C94.794 10.3782 96.0655 10.7005 97.1424 11.3451C98.2136 11.9828 99.0761 12.9095 99.6274 14.0152C100.222 15.2322 100.517 16.5697 100.488 17.9196C100.487 18.1706 100.467 18.4213 100.429 18.6696H88.5704C88.6294 19.7898 88.9033 20.7327 89.3921 21.4985C89.8422 22.231 90.4865 22.8293 91.2559 23.2292C91.9838 23.608 92.7947 23.8062 93.6182 23.8066C95.5732 23.8066 97.0497 22.9217 98.0479 21.1518L100.16 22.1615C99.5577 23.3096 98.6569 24.2804 97.5493 24.9752C96.4341 25.6687 95.0943 26.0154 93.5297 26.0154C92.1784 26.0374 90.8474 25.6894 89.6856 25.0103C88.5553 24.3417 87.6359 23.3777 87.0297 22.2256C86.3813 20.9899 86.0542 19.6155 86.0776 18.2251C86.0669 16.8725 86.3742 15.5358 86.9753 14.3192C87.5424 13.1501 88.4251 12.1567 89.5272 11.4474C90.6583 10.7284 91.9812 10.3562 93.3278 10.3782ZM29.7053 4.5293V23.6126H39.1687V26.0154H27.1348V4.5293H29.7053ZM75.6682 4.5293V18.112L83.403 10.3843H86.6647V10.5034L80.1414 16.9817L86.3696 25.9024V26.0154H83.2881L78.3288 18.7291L75.6682 21.3519V26.0154H73.0993V4.5293H75.6682ZM111 10.7081V13.4134C110.323 13.0895 109.578 12.9263 108.825 12.9368C108.091 12.9333 107.373 13.1519 106.769 13.5631C106.134 13.9908 105.62 14.5686 105.272 15.2433C104.899 15.9475 104.707 16.7303 104.713 17.5239V26.0154H102.147V10.3873H104.594V13.2896H104.716C105.018 12.4566 105.603 11.7626 106.469 11.2076C107.272 10.6745 108.217 10.3865 109.186 10.3797C109.807 10.3642 110.425 10.476 111 10.7081ZM46.8554 12.6022C44.9769 12.595 43.2464 13.6038 42.3512 15.2281C41.8563 16.1418 41.6091 17.1656 41.6336 18.2006C41.609 19.2357 41.8561 20.2595 42.3512 21.1732C43.0131 22.3673 44.1375 23.2476 45.4692 23.6143C46.8008 23.9811 48.2266 23.8031 49.4228 23.1208H49.4181C50.2251 22.6565 50.8866 21.9827 51.3301 21.1732C51.8264 20.2599 52.0741 19.2359 52.0492 18.2006C52.0739 17.1654 51.8262 16.1414 51.3301 15.2281C50.8879 14.4192 50.2281 13.7454 49.4228 13.2805C48.6443 12.8319 47.7575 12.5977 46.8554 12.6022ZM63.5597 12.6022C62.6528 12.599 61.7614 12.8331 60.9768 13.2805C60.1654 13.7422 59.5002 14.4164 59.0555 15.2281C58.5594 16.1414 58.3117 17.1654 58.3364 18.2006C58.3115 19.2359 58.5592 20.2599 59.0555 21.1732C59.5002 21.9848 60.1654 22.6591 60.9768 23.1208C61.7614 23.5681 62.6528 23.8022 63.5597 23.7991C64.464 23.8047 65.3531 23.5704 66.1333 23.1208H66.1271C66.9321 22.6554 67.5918 21.9817 68.0344 21.1732C68.53 20.2596 68.7777 19.2358 68.7535 18.2006C68.7775 17.1655 68.5298 16.1417 68.0344 15.2281C67.5918 14.4195 66.9321 13.7459 66.1271 13.2805C65.3487 12.8319 64.4619 12.5977 63.5597 12.6022ZM90.3364 13.7128C89.5153 14.4541 88.9774 15.4307 88.7226 16.6425H97.8475C97.8001 15.9982 97.6204 15.37 97.3194 14.7958C96.9826 14.1554 96.4753 13.6169 95.8517 13.2377C95.1869 12.8141 94.3462 12.6023 93.3293 12.6023C92.2231 12.5775 91.1503 12.9756 90.3364 13.7128Z" fill="#5F6368"/>
</svg>
