<svg width="60" height="16" viewBox="0 0 60 16" fill="none" xmlns="http://www.w3.org/2000/svg">
<g clip-path="url(#clip0_392_9274)">
<path d="M4.90965 0.432725C4.39484 0.432944 3.92209 0.708536 3.68013 1.14948C3.43817 1.59042 3.46641 2.12488 3.75359 2.53949L4.34883 1.96269C4.32916 1.90515 4.31923 1.8449 4.31945 1.78428C4.31945 1.46932 4.58256 1.214 4.90713 1.214C5.2317 1.214 5.49482 1.46932 5.49482 1.78428C5.49482 2.09923 5.2317 2.35455 4.90713 2.35455C4.84494 2.35469 4.78313 2.34506 4.72411 2.32604L4.12971 2.90283C4.6247 3.2286 5.27877 3.21135 5.75479 2.85995C6.2308 2.50856 6.42249 1.90149 6.23104 1.35165C6.03959 0.801806 5.50775 0.431954 4.90965 0.432725Z" fill="#34A853"/>
<path d="M4.35551 4.3717C4.35641 3.91514 4.20405 3.47072 3.92145 3.10569L3.14907 3.85438C3.39062 4.28309 3.30369 4.81598 2.9375 5.15134L3.35728 6.14688C3.97924 5.75818 4.35521 5.08957 4.35551 4.3717Z" fill="#FBBC04"/>
<path d="M2.19706 5.44626H2.17691C1.70315 5.4463 1.28177 5.1541 1.12834 4.71915C0.974905 4.2842 1.12337 3.80272 1.49778 3.52103C1.87218 3.23934 2.38971 3.21975 2.78559 3.47229L3.55042 2.73012C2.80671 2.14505 1.75646 2.09992 0.962366 2.61891C0.168274 3.13789 -0.18339 4.09926 0.0957895 4.98793C0.374969 5.8766 1.21951 6.48411 2.17691 6.48497C2.32464 6.48504 2.47201 6.47085 2.61684 6.44261L2.19706 5.44626Z" fill="#EA4335"/>
<path d="M4.93885 6.30737C4.45544 6.3069 3.97457 6.37524 3.51161 6.51023L4.12364 7.96117C4.39006 7.8971 4.66354 7.86482 4.93801 7.86504C6.52842 7.86549 7.89706 8.956 8.20698 10.4697C8.51691 11.9834 7.68181 13.4988 6.21236 14.0892C4.74291 14.6795 3.04832 14.1805 2.16486 12.8972C1.2814 11.6139 1.45508 9.90375 2.57971 8.81251C2.81438 8.5855 3.08228 8.39334 3.37476 8.24223L2.76945 6.79537C0.513102 7.86766 -0.555202 10.4119 0.286371 12.7091C1.12794 15.0062 3.61158 16.3252 6.05912 15.7748C8.50666 15.2243 10.1392 12.9797 9.85371 10.5575C9.56819 8.13536 7.45545 6.30644 4.94305 6.30656L4.93885 6.30737Z" fill="#4285F4"/>
<path d="M27.4686 6.09393C28.0958 6.45563 28.6089 6.97717 28.9521 7.6019C29.3095 8.25001 29.4923 8.97527 29.4835 9.71029C29.4923 10.4453 29.3095 11.1706 28.9521 11.8187C28.6091 12.4433 28.0963 12.9648 27.4695 13.3266C26.1439 14.066 24.5133 14.066 23.1877 13.3266L23.1869 13.3234C22.5596 12.962 22.0468 12.4404 21.7043 11.8154C21.3465 11.1674 21.1636 10.4421 21.1728 9.70703C21.1642 8.97306 21.347 8.2489 21.7043 7.6019C22.0468 6.97693 22.5596 6.45528 23.1869 6.09393C24.5124 5.35458 26.1431 5.35458 27.4686 6.09393ZM36.5005 6.09393C37.1279 6.4554 37.641 6.97699 37.984 7.6019C38.3414 8.25001 38.5242 8.97527 38.5154 9.71029C38.5242 10.4453 38.3414 11.1706 37.984 11.8187C37.6412 12.4435 37.1284 12.9651 36.5013 13.3266C35.1758 14.066 33.5452 14.066 32.2196 13.3266L32.2188 13.3234C31.5919 12.9616 31.0792 12.44 30.7361 11.8154C30.3787 11.1673 30.1959 10.442 30.2047 9.70703C30.1965 8.97311 30.3793 8.24904 30.7361 7.6019C31.0792 6.97727 31.5919 6.45575 32.2188 6.09393C33.5443 5.35458 35.175 5.35458 36.5005 6.09393ZM50.448 5.53506C51.2405 5.53506 51.9278 5.70696 52.5099 6.05075C53.089 6.39084 53.5552 6.88511 53.8532 7.47481C54.1744 8.12389 54.3338 8.83723 54.3183 9.55713C54.3178 9.69104 54.3071 9.82473 54.2864 9.95713H47.8764C47.9083 10.5546 48.0564 11.0575 48.3206 11.4659C48.5639 11.8566 48.9121 12.1756 49.328 12.389C49.7215 12.591 50.1598 12.6967 50.605 12.6969C51.6617 12.6969 52.4598 12.2249 52.9994 11.281L54.1412 11.8195C53.8155 12.4318 53.3286 12.9496 52.7299 13.3201C52.1271 13.69 51.4028 13.8749 50.5571 13.8749C49.8267 13.8867 49.1072 13.7011 48.4792 13.3389C47.8683 12.9823 47.3713 12.4681 47.0436 11.8537C46.6931 11.1946 46.5163 10.4616 46.529 9.72006C46.5232 8.99868 46.6893 8.28577 47.0142 7.63693C47.3207 7.01341 47.7979 6.4836 48.3936 6.10533C49.005 5.72184 49.7201 5.52334 50.448 5.53506ZM16.0574 2.41566V12.5934H21.1728V13.8749H14.668V2.41566H16.0574ZM40.9023 2.41566V9.65978L45.0832 5.53832H46.8463V5.60186L43.3202 9.05691L46.6868 13.8146V13.8749H45.0211L42.3404 9.98891L40.9023 11.3877V13.8749H39.5137V2.41566H40.9023ZM60.0004 5.71103V7.15383C59.6345 6.9811 59.2319 6.89404 58.825 6.89965C58.428 6.89779 58.0399 7.0144 57.7135 7.23366C57.3705 7.4618 57.0922 7.76996 56.9041 8.12981C56.7029 8.50534 56.5991 8.92286 56.6019 9.34613V13.8749H55.215V5.53995H56.5381V7.08784H56.6036C56.767 6.64357 57.083 6.27343 57.5514 5.97743C57.9854 5.69311 58.4962 5.5395 59.0198 5.53587C59.3557 5.52759 59.6896 5.58724 60.0004 5.71103ZM25.3278 6.7212C24.3124 6.71737 23.3769 7.25541 22.8931 8.12166C22.6255 8.609 22.4919 9.15501 22.5052 9.70703C22.4919 10.2591 22.6255 10.8051 22.8931 11.2924C23.2509 11.9292 23.8587 12.3988 24.5784 12.5943C25.2982 12.7899 26.0689 12.695 26.7155 12.3311H26.713C27.1492 12.0835 27.5068 11.7241 27.7465 11.2924C28.0148 10.8053 28.1487 10.2592 28.1352 9.70703C28.1486 9.1549 28.0147 8.60879 27.7465 8.12166C27.5075 7.69026 27.1508 7.33092 26.7155 7.08295C26.2948 6.84373 25.8154 6.71879 25.3278 6.7212ZM34.3571 6.7212C33.8669 6.71952 33.3851 6.84436 32.961 7.08295C32.5223 7.32919 32.1628 7.68879 31.9224 8.12166C31.6543 8.60879 31.5204 9.1549 31.5337 9.70703C31.5202 10.2592 31.6542 10.8053 31.9224 11.2924C32.1628 11.7253 32.5223 12.0849 32.961 12.3311C33.3851 12.5697 33.8669 12.6945 34.3571 12.6929C34.8459 12.6958 35.3265 12.5709 35.7483 12.3311H35.7449C36.18 12.0829 36.5366 11.7236 36.7759 11.2924C37.0438 10.8052 37.1777 10.2591 37.1646 9.70703C37.1775 9.15494 37.0437 8.60894 36.7759 8.12166C36.5366 7.69043 36.18 7.33115 35.7449 7.08295C35.3241 6.84373 34.8448 6.71879 34.3571 6.7212ZM48.831 7.3135C48.3872 7.70889 48.0964 8.22974 47.9587 8.87606H52.8911C52.8654 8.53241 52.7683 8.19736 52.6056 7.89111C52.4235 7.54955 52.1493 7.26235 51.8123 7.06014C51.4529 6.8342 50.9984 6.72123 50.4488 6.72123C49.8509 6.70802 49.2709 6.92032 48.831 7.3135Z" fill="#5F6368"/>
</g>
<defs>
<clipPath id="clip0_392_9274">
<rect width="60" height="16" fill="white"/>
</clipPath>
</defs>
</svg>
