<svg width="153" height="24" viewBox="0 0 153 24" fill="none" xmlns="http://www.w3.org/2000/svg">
<path d="M11.0805 10.9196C11.8754 9.99638 13.1868 8.95774 15.5394 8.95774C17.2084 8.95774 18.3052 9.43474 18.9887 10.1733C19.8073 11.0735 20.1412 11.9506 20.1412 14.7279V21.883H17.0176V15.4973C17.0176 13.22 16.8508 11.6274 14.4982 11.6274C12.551 11.6274 11.6766 13.0816 11.6766 15.1281V21.883H8.55312V15.4973C8.55312 13.22 8.38621 11.6274 6.03363 11.6274C4.11818 11.6274 3.21212 13.0816 3.21212 15.1281V21.883H0.104492V9.26548H3.22802V10.8811C3.8559 9.81943 5.25473 8.95005 7.3053 8.95005C8.6485 8.95005 9.76915 9.35011 10.5321 10.1656C10.7547 10.4118 10.9136 10.6503 11.0805 10.9196ZM34.702 19.0286C34.1297 19.9057 32.3732 22.2061 28.5662 22.2061C24.7035 22.2061 22.0807 19.5518 22.0807 15.4741C22.0807 11.5812 24.8465 8.98078 28.4867 8.98078C32.6434 8.98078 34.6462 11.7659 34.6462 15.6357C34.6462 15.8512 34.6145 16.1897 34.6145 16.4051H25.1247C25.3472 18.1285 26.4361 19.6134 28.7409 19.6134C31.0936 19.6134 32.1348 18.0746 32.548 17.4437L34.702 19.0286ZM25.2042 14.1509H31.5546C31.4751 12.5044 30.2432 11.3966 28.4867 11.3966C26.7063 11.3966 25.2837 12.6429 25.2042 14.1509ZM47.625 10.9196C48.4198 9.99638 49.7312 8.95774 52.0838 8.95774C53.7529 8.95774 54.8497 9.43474 55.5332 10.1733C56.3518 11.0735 56.6857 11.9506 56.6857 14.7279V21.883H53.562V15.4973C53.562 13.22 53.3952 11.6274 51.0426 11.6274C49.0954 11.6274 48.2211 13.0816 48.2211 15.1281V21.883H45.0975V15.4973C45.0975 13.22 44.9307 11.6274 42.5781 11.6274C40.6626 11.6274 39.7566 13.0816 39.7566 15.1281V21.883H36.633V9.26548H39.7646V10.8811C40.3924 9.81943 41.7913 8.95005 43.8418 8.95005C45.185 8.95005 46.3057 9.35011 47.0686 10.1656C47.2912 10.4118 47.4581 10.6503 47.625 10.9196ZM71.9856 8.19612C70.6424 6.94977 68.8939 6.14193 66.9386 6.14193C65.1345 6.14193 63.8708 6.86514 63.8708 8.05764C63.8708 9.28092 64.7609 9.78101 66.5333 10.1118L69.6887 10.7196C73.297 11.4121 75.5621 12.8046 75.5621 16.1282C75.5621 20.0366 71.9776 22.2062 67.3599 22.2062C62.8614 22.2062 59.7617 19.875 58.5616 18.2671L61.5738 15.7666C62.774 17.3207 64.7848 18.7055 67.4791 18.7055C69.7443 18.7055 71.0636 17.8439 71.0636 16.459C71.0636 15.1512 69.9192 14.7896 68.1388 14.4895L65.6194 14.0202C62.0666 13.3508 59.3723 12.1045 59.3723 8.41155C59.3723 5.02636 62.615 2.67212 66.883 2.67212C70.3245 2.67212 73.0744 3.91849 74.7356 5.64185L71.9856 8.19612ZM103.705 3.01047V18.0976H111.502V21.8675H99.3738V3.01047H103.705ZM95.8853 19.698C95.4402 19.2672 94.7805 18.898 93.8427 18.6286C95.0666 16.9899 95.7184 14.8357 95.7184 12.3583C95.7184 6.61124 92.0862 2.6798 86.3716 2.6798C80.665 2.6798 77.0249 6.61124 77.0249 12.3583C77.0249 18.0363 80.4425 22.0369 86.4511 22.0369C91.5696 22.0369 94.4864 21.8369 96.5847 23.0755C96.9343 21.8984 96.7913 20.5751 95.8853 19.698ZM86.3636 18.4517C83.105 18.4517 81.3644 16.1975 81.3644 12.3352C81.3644 8.47308 83.1607 6.13423 86.3636 6.13423C89.5666 6.13423 91.3628 8.47308 91.3628 12.3352C91.3628 16.1975 89.6223 18.4517 86.3636 18.4517Z" fill="black"/>
<path d="M128.203 2.11589C127.397 1.10463 126.468 0.462413 125.355 0.335205C125.222 0.33818 125.089 0.348247 124.957 0.36838C120.922 0.986345 118.721 6.49335 118.618 12.0004C118.721 17.5074 120.922 23.0144 124.958 23.6323C125.089 23.6525 125.222 23.6626 125.355 23.6655C126.468 23.5383 127.397 22.8958 128.203 21.8848C126.089 19.6253 125.066 15.6338 124.997 12.0004C125.066 8.36693 126.088 4.37543 128.203 2.11589Z" fill="url(#paint0_linear_1311_7216)"/>
<path d="M145.923 0.368043C145.792 0.347911 145.66 0.337844 145.527 0.334869C145.501 0.334411 145.475 0.333496 145.449 0.333496C144.644 0.333496 140.335 0.333954 139.355 0.333496C139.323 0.333496 139.291 0.334411 139.258 0.335327C140.011 0.406024 140.702 0.640534 141.33 1.01438C141.821 1.30654 142.27 1.67879 142.679 2.11556C144.793 4.3751 145.816 8.3666 145.884 12C145.816 15.6335 144.793 19.625 142.679 21.8845C142.27 22.321 141.821 22.6935 141.33 22.9857C140.702 23.3595 140.011 23.594 139.258 23.6648C139.291 23.6657 139.323 23.6665 139.355 23.6665C140.335 23.6661 144.644 23.6665 145.449 23.6665C145.475 23.6665 145.501 23.6659 145.527 23.6652C145.66 23.6622 145.792 23.6522 145.923 23.632C149.96 23.0139 152.162 17.5071 152.264 12C152.162 6.49303 149.96 0.98601 145.923 0.368043Z" fill="url(#paint1_linear_1311_7216)"/>
<path d="M137.371 20.2854C137.082 20.8815 136.787 21.4149 136.482 21.8921C136.431 21.9722 136.44 22.075 136.502 22.1465C137.18 22.9169 137.949 23.4416 138.835 23.6181C138.975 23.6458 139.117 23.6602 139.258 23.6648C140.01 23.5942 140.702 23.3596 141.33 22.9858C141.821 22.6936 142.27 22.3214 142.679 21.8846C141.421 20.3071 140.461 17.8322 139.559 15.0163C139.525 14.9143 139.376 14.9145 139.344 15.0169C138.765 16.8811 138.136 18.7074 137.371 20.2854Z" fill="url(#paint2_linear_1311_7216)"/>
<path d="M128.203 2.11554C129.461 3.69305 130.42 6.16789 131.323 8.98386C131.355 9.0859 131.506 9.08567 131.537 8.98318C132.117 7.11898 132.746 5.29277 133.51 3.71479C133.799 3.11856 134.094 2.58525 134.4 2.10798C134.451 2.02814 134.443 1.92518 134.379 1.8538C133.702 1.08323 132.934 0.558611 132.046 0.381985C131.906 0.354072 131.763 0.339658 131.62 0.335083C131.589 0.334167 131.557 0.333481 131.526 0.333481C130.547 0.33371 126.237 0.333481 125.432 0.333252C125.407 0.333252 125.381 0.333938 125.355 0.334625C126.468 0.462062 127.397 1.10428 128.203 2.11554Z" fill="url(#paint3_linear_1311_7216)"/>
<path d="M141.331 1.01426C140.703 0.640413 140.011 0.405902 139.259 0.335205C139.118 0.339553 138.975 0.353966 138.836 0.381878C135.435 1.05842 133.788 6.84662 132.247 12C131.049 16.0161 129.895 19.7623 128.203 21.8844C127.397 22.8954 126.469 23.5379 125.355 23.6651C125.381 23.6655 125.407 23.6665 125.433 23.6665C126.238 23.6665 130.547 23.666 131.526 23.6665C131.559 23.6665 131.591 23.6655 131.623 23.6647C131.765 23.6603 131.906 23.6459 132.046 23.618C135.448 22.9412 137.095 17.153 138.634 11.9997C139.833 7.98348 140.986 4.23725 142.679 2.11521C142.27 1.67867 141.822 1.30642 141.331 1.01426Z" fill="url(#paint4_linear_1311_7216)"/>
<defs>
<linearGradient id="paint0_linear_1311_7216" x1="123.41" y1="0.273396" x2="123.41" y2="23.6783" gradientUnits="userSpaceOnUse">
<stop stop-color="#FF7BFF"/>
<stop offset="0.072" stop-color="#F46BFF"/>
<stop offset="0.266" stop-color="#D945FF"/>
<stop offset="0.458" stop-color="#C527FF"/>
<stop offset="0.646" stop-color="#B611FF"/>
<stop offset="0.829" stop-color="#AD04FF"/>
<stop offset="1" stop-color="#AA00FF"/>
</linearGradient>
<linearGradient id="paint1_linear_1311_7216" x1="145.763" y1="0.332146" x2="145.763" y2="23.7327" gradientUnits="userSpaceOnUse">
<stop stop-color="#FF7BFF"/>
<stop offset="0.072" stop-color="#F46BFF"/>
<stop offset="0.266" stop-color="#D945FF"/>
<stop offset="0.458" stop-color="#C527FF"/>
<stop offset="0.646" stop-color="#B611FF"/>
<stop offset="0.829" stop-color="#AD04FF"/>
<stop offset="1" stop-color="#AA00FF"/>
</linearGradient>
<linearGradient id="paint2_linear_1311_7216" x1="139.562" y1="23.5719" x2="139.562" y2="0.347131" gradientUnits="userSpaceOnUse">
<stop stop-color="#FF7BFF"/>
<stop offset="0.072" stop-color="#F46BFF"/>
<stop offset="0.266" stop-color="#D945FF"/>
<stop offset="0.458" stop-color="#C527FF"/>
<stop offset="0.646" stop-color="#B611FF"/>
<stop offset="0.829" stop-color="#AD04FF"/>
<stop offset="1" stop-color="#AA00FF"/>
</linearGradient>
<linearGradient id="paint3_linear_1311_7216" x1="129.891" y1="23.6524" x2="129.891" y2="0.320229" gradientUnits="userSpaceOnUse">
<stop stop-color="#FF7BFF"/>
<stop offset="0.072" stop-color="#F46BFF"/>
<stop offset="0.266" stop-color="#D945FF"/>
<stop offset="0.458" stop-color="#C527FF"/>
<stop offset="0.646" stop-color="#B611FF"/>
<stop offset="0.829" stop-color="#AD04FF"/>
<stop offset="1" stop-color="#AA00FF"/>
</linearGradient>
<linearGradient id="paint4_linear_1311_7216" x1="134.015" y1="23.6696" x2="134.015" y2="0.312465" gradientUnits="userSpaceOnUse">
<stop stop-color="#FF7BFF"/>
<stop offset="0.072" stop-color="#F46BFF"/>
<stop offset="0.266" stop-color="#D945FF"/>
<stop offset="0.458" stop-color="#C527FF"/>
<stop offset="0.646" stop-color="#B611FF"/>
<stop offset="0.829" stop-color="#AD04FF"/>
<stop offset="1" stop-color="#AA00FF"/>
</linearGradient>
</defs>
</svg>
