<svg width="33" height="28" viewBox="0 0 33 28" fill="none" xmlns="http://www.w3.org/2000/svg">
<path d="M19.2037 0.305942C19.1475 0.322817 18.8522 0.421254 18.54 0.522504C16.8694 1.06813 15.6853 1.70094 15.3928 2.20438C15.2803 2.39563 15.2606 2.55313 15.3253 2.70782C15.3984 2.88219 15.5334 3.01719 15.9047 3.27875C16.079 3.4025 16.3744 3.65563 16.5684 3.84688C17.4881 4.76375 17.9325 5.88875 17.8819 7.16C17.8256 8.59157 17.1534 10.0231 15.8709 11.4519C15.4237 11.9525 14.9625 12.3688 14.0822 13.0747C13.3481 13.6625 12.9487 14.045 12.6759 14.4134C11.8406 15.5497 12.0656 16.5622 13.3369 17.4088C14.459 18.1569 16.4362 18.7784 18.7706 19.1159C19.5525 19.2284 20.4356 19.3016 20.6494 19.2706L20.7984 19.2481L21.0319 18.8263C22.2159 16.6972 22.8122 14.6863 22.8853 12.6078C22.9162 11.6797 22.8009 10.5828 22.6012 9.94157C22.5647 9.82625 22.5394 9.72782 22.5422 9.725C22.545 9.72219 22.8769 9.62094 23.2762 9.50282C25.3828 8.87563 27.4219 8.38063 29.1065 8.08813C29.4356 8.03188 29.714 7.97282 29.7281 7.95875C29.8181 7.87157 29.5565 7.46094 29.129 7.02219C27.554 5.39657 24.7697 4.15907 21.5015 3.63032C20.8715 3.52907 20.7956 3.4925 20.5622 3.18313C20.1909 2.69094 19.8422 1.85282 19.3669 0.314379C19.3528 0.263754 19.3387 0.263754 19.2037 0.305942ZM19.4203 0.885317C19.6031 1.38594 19.7156 1.77688 19.7156 1.91469V2.02438L19.5609 2.0075C18.72 1.90907 17.3756 1.70094 17.0887 1.625C17.0156 1.60532 16.9734 1.57719 16.9875 1.55469C17.01 1.52094 17.294 1.38313 18.1434 0.997817C18.9337 0.637817 19.2347 0.505629 19.26 0.502817C19.2712 0.500004 19.3415 0.674379 19.4203 0.885317ZM17.64 1.94C18.6665 2.15657 19.4175 2.29157 19.5806 2.29157C19.7409 2.29157 19.724 2.30563 18.9675 2.76688C18.3853 3.12125 18.3178 3.155 18.1715 3.155H18.0112L17.5781 2.71907C17.055 2.19032 16.7006 1.80219 16.7006 1.75719C16.7006 1.74032 16.7119 1.73469 16.7259 1.74313C16.74 1.74594 17.1534 1.83594 17.64 1.94ZM16.8806 2.42657C17.1337 2.72188 17.3278 2.96938 17.3165 2.97782C17.294 2.9975 16.574 2.82032 16.1353 2.68532C15.75 2.56719 15.705 2.52782 15.8062 2.39563C15.8737 2.30844 16.3687 1.895 16.4053 1.89219C16.4165 1.89219 16.6275 2.13125 16.8806 2.42657ZM20.16 3.03407C20.2612 3.27313 20.3372 3.46719 20.3344 3.47C20.3287 3.47282 18.9787 3.26469 18.8606 3.24219C18.8353 3.23657 19.0631 3.08188 19.3725 2.89344C19.6819 2.705 19.9406 2.56438 19.9547 2.57844C19.9687 2.5925 20.0587 2.795 20.16 3.03407ZM17.2153 3.48969C17.2406 3.515 17.564 4.55282 17.55 4.56688C17.5444 4.5725 17.3925 4.39532 17.2097 4.17032C17.0269 3.94532 16.7512 3.6275 16.5909 3.46438L16.304 3.16344L16.7484 3.31813C16.9959 3.39969 17.204 3.47844 17.2153 3.48969ZM18.5062 3.6275C19.0659 3.70625 19.53 3.77938 19.5384 3.78782C19.5469 3.79625 19.2065 4.06063 18.7875 4.37282C18.3656 4.685 18.0197 4.93813 18.014 4.9325C18.0084 4.92688 17.9662 4.7975 17.9184 4.64C17.8706 4.48532 17.7525 4.16188 17.654 3.92C17.5556 3.67813 17.4769 3.48125 17.4825 3.48125C17.4853 3.48125 17.9465 3.54875 18.5062 3.6275ZM19.9125 4.07469C20.0362 4.36438 20.084 4.64 20.1037 5.19407C20.115 5.49219 20.115 5.73407 20.1065 5.73407C20.0953 5.73407 19.9181 5.67219 19.7128 5.59907C19.3022 5.45 18.4978 5.18563 18.4022 5.16594C18.36 5.1575 18.554 4.97188 19.0659 4.53313C19.4625 4.19 19.8 3.91157 19.8169 3.91157C19.8309 3.91157 19.8731 3.98469 19.9125 4.07469ZM21.3553 4.145C21.974 4.27157 22.5169 4.38407 22.559 4.39532C22.6209 4.40938 22.4719 4.50219 21.8165 4.86219C21.3665 5.10969 20.8547 5.39094 20.6803 5.48938C20.5059 5.58782 20.3597 5.66375 20.3569 5.66094C20.354 5.65813 20.3709 5.56532 20.3962 5.45563C20.489 5.05344 20.43 4.55282 20.2444 4.15344C20.1909 4.03813 20.1459 3.93407 20.1459 3.92844C20.1487 3.8975 20.2612 3.92 21.3553 4.145ZM23.0456 4.90157C23.0147 5.04219 22.9444 5.28125 22.8909 5.43594C22.7728 5.77625 22.3397 6.66219 22.2806 6.68469C22.2581 6.69313 22.0528 6.60032 21.8306 6.47657C21.6084 6.35282 21.285 6.18969 21.1162 6.11375L20.8069 5.97594L21.9403 5.2475C22.8797 4.64563 23.0765 4.53032 23.0878 4.58375C23.0962 4.62032 23.0765 4.76094 23.0456 4.90157ZM23.8753 4.64282C25.0509 4.98032 26.294 5.43594 26.2209 5.50344C26.2069 5.5175 26.0522 5.56813 25.8806 5.61594C24.9919 5.86625 23.7572 6.29375 23.1806 6.54969C23.0006 6.62844 22.8459 6.6875 22.8375 6.67625C22.829 6.66782 22.8994 6.40907 22.995 6.09969C23.1806 5.49219 23.3972 4.67375 23.3972 4.56969C23.3972 4.52469 23.414 4.50782 23.4562 4.51907C23.4844 4.53032 23.6728 4.58657 23.8753 4.64282ZM18.8156 5.86344C19.0828 5.95063 19.3978 6.07157 19.5131 6.13063C19.7212 6.23469 19.724 6.2375 19.665 6.30219C19.5581 6.42032 18.3909 7.50875 18.3572 7.52C18.3403 7.52563 18.3262 7.3625 18.3262 7.12344C18.3262 6.71 18.2784 5.96188 18.2419 5.79594C18.2137 5.66938 18.2362 5.67219 18.8156 5.86344ZM26.2856 6.08C26.0297 6.50469 25.605 7.10938 25.3012 7.49188C24.989 7.88282 24.3281 8.61688 24.2887 8.61688C24.2747 8.61688 24.179 8.49875 24.075 8.3525C23.6981 7.81532 23.2622 7.35125 22.8797 7.08125C22.8431 7.05594 22.8206 7.02782 22.829 7.01938C22.8375 7.01094 23.4647 6.78032 24.2212 6.50469C25.7512 5.95063 26.4262 5.72563 26.4684 5.75375C26.474 5.75657 26.3925 5.90282 26.2856 6.08ZM27.2419 6.00688C28.2994 6.74375 29.0165 7.34 29.2753 7.69719C29.34 7.78719 29.3878 7.86313 29.3822 7.86875C29.3765 7.87438 29.0362 7.91094 28.6256 7.95313C26.9859 8.11344 25.8187 8.27938 25.2 8.43688C25.034 8.47907 24.8962 8.51 24.8934 8.50719C24.8906 8.50438 25.0003 8.36938 25.1381 8.20344C25.8525 7.34563 26.4994 6.45407 26.7384 5.99C26.8031 5.86625 26.865 5.76782 26.8762 5.76782C26.8903 5.76782 27.0534 5.87469 27.2419 6.00688ZM21.3244 6.92094C21.5269 7.03063 21.6815 7.12907 21.6731 7.14594C21.6562 7.17688 19.8759 8.15282 19.859 8.13875C19.8562 8.13594 19.9462 7.84344 20.0644 7.48625C20.1825 7.12907 20.295 6.74094 20.3175 6.62282L20.3569 6.40625L20.6578 6.56657C20.8237 6.65375 21.1219 6.81125 21.3244 6.92094ZM19.8309 6.97719C19.6594 7.57344 19.3106 8.34407 19.1503 8.47625C19.1137 8.50719 19.0406 8.465 18.8072 8.27375C18.6412 8.14157 18.4725 8.00938 18.4275 7.97844C18.3853 7.9475 18.3515 7.91657 18.36 7.90813C18.4837 7.78719 19.9012 6.6425 19.9097 6.65938C19.9125 6.67063 19.8787 6.81407 19.8309 6.97719ZM23.0597 8.015C23.3269 8.195 23.9231 8.72657 23.8922 8.76032C23.8837 8.76875 23.279 8.96563 22.5506 9.19625C21.8222 9.42688 21.0094 9.68844 20.745 9.77563C20.4806 9.86563 20.2612 9.93313 20.2584 9.93032C20.2556 9.9275 20.4412 9.71657 20.669 9.46063C21.2653 8.79407 21.8784 8.0825 22.0978 7.80125L22.2862 7.55938L22.5309 7.69157C22.6631 7.76469 22.9022 7.91094 23.0597 8.015ZM21.6787 7.6325C21.6619 7.655 21.5015 7.8575 21.3215 8.08532C21.1415 8.31313 20.7084 8.86719 20.3597 9.31719L19.724 10.1356L19.7044 9.99782C19.665 9.73063 19.5215 9.20469 19.44 9.0275L19.3584 8.8475L19.7634 8.645C20.1797 8.43688 21.0515 7.96438 21.4594 7.72532C21.7097 7.57907 21.7265 7.57063 21.6787 7.6325ZM18.3037 8.6225C18.4697 8.70688 18.6244 8.81938 18.6244 8.85313C18.6244 8.90657 17.5472 9.73907 17.5162 9.70813C17.5106 9.69969 17.6062 9.50844 17.7328 9.28063C17.8594 9.05282 17.9859 8.79688 18.0169 8.70969C18.0478 8.6225 18.0928 8.55219 18.1181 8.55219C18.1434 8.54938 18.225 8.58313 18.3037 8.6225ZM19.2206 9.64625C19.2937 9.7925 19.3725 10.2003 19.3331 10.2369C19.3162 10.2509 18.8719 10.4619 18.3431 10.7066C17.8144 10.9484 17.1253 11.2747 16.8103 11.4322C16.4953 11.5897 16.2562 11.6994 16.2815 11.6797C16.304 11.66 16.65 11.3675 17.0522 11.0356C17.8284 10.3916 18.7115 9.62094 18.8719 9.44938L18.9703 9.34532L19.0659 9.43532C19.1165 9.48594 19.1869 9.58157 19.2206 9.64625ZM18.3515 9.63782C18.2756 9.70813 17.8594 10.0681 17.4319 10.4394C17.0044 10.8106 16.4897 11.2578 16.29 11.4322C15.885 11.7838 15.885 11.7838 16.4025 11.1116C16.8019 10.5913 17.01 10.3972 17.5837 10.0119C17.8622 9.82625 18.4162 9.51126 18.4725 9.51126C18.4809 9.51126 18.4275 9.5675 18.3515 9.63782ZM22.365 9.99219C22.3847 10.1019 22.4128 10.4422 22.424 10.7459L22.4437 11.3L22.3144 11.2409C21.87 11.0356 20.6212 10.3325 20.669 10.3128C20.9419 10.2031 22.289 9.75594 22.3059 9.77282C22.3172 9.78407 22.3453 9.8825 22.365 9.99219ZM21.3075 10.985C21.8278 11.2916 22.2581 11.5447 22.2637 11.5503C22.2694 11.5559 22.2019 11.6122 22.1175 11.6741C21.9515 11.795 20.1909 12.7063 20.1656 12.6838C20.1572 12.6753 20.1825 12.5234 20.219 12.3491C20.2922 11.9947 20.354 10.9372 20.3259 10.6025C20.3147 10.4844 20.3203 10.4 20.3372 10.4113C20.3484 10.4197 20.7872 10.6784 21.3075 10.985ZM19.8703 10.76C19.9097 11.0891 19.8619 11.75 19.7719 12.0959C19.6678 12.5009 19.6059 12.6697 19.5609 12.6838C19.499 12.7034 19.1137 12.3547 18.8803 12.0622C18.644 11.7669 18.3319 11.2128 18.3797 11.1678C18.4078 11.1397 19.7803 10.5744 19.8253 10.5744C19.8365 10.5716 19.8562 10.6559 19.8703 10.76ZM18.1856 11.5869C18.3319 11.8878 18.6637 12.3209 19.0265 12.6894C19.26 12.9256 19.319 13.0016 19.2825 13.0269C19.1194 13.1366 18.3881 13.4797 17.9269 13.6597C17.3672 13.8791 16.6387 14.1322 16.6219 14.1097C16.6162 14.1013 16.7822 13.7975 16.9931 13.4347C17.4487 12.6444 18.0253 11.5222 18.0253 11.4294C18.0281 11.3141 18.0759 11.3619 18.1856 11.5869ZM17.3222 11.6066C17.3137 11.6291 17.2434 11.8034 17.1675 11.9947C16.844 12.8159 16.2141 13.9325 16.0734 13.9325C15.9637 13.9325 15.8034 13.2828 15.7584 12.6584L15.7359 12.3434L16.5065 11.9553C16.9312 11.7416 17.2912 11.5672 17.3081 11.5672C17.325 11.5644 17.3306 11.5841 17.3222 11.6066ZM22.4662 12.3659C22.469 12.8384 22.2722 13.9831 22.1653 14.0984C22.1203 14.1463 21.6337 13.9663 21.1922 13.7384C20.7984 13.5359 20.1487 13.1338 20.1487 13.0916C20.1487 13.0803 20.2472 13.0297 20.3709 12.9791C20.6044 12.8806 21.6928 12.2984 22.154 12.0256L22.4184 11.8681L22.4409 11.9891C22.4522 12.0566 22.4634 12.2281 22.4662 12.3659ZM15.2072 12.9116C15.2522 13.2856 15.3675 13.7441 15.5109 14.1069C15.57 14.2559 15.6122 14.3853 15.6037 14.3909C15.5475 14.4416 13.2328 15.08 12.9262 15.1278L12.78 15.1503L12.8025 15.0378C12.8334 14.8775 13.0584 14.4219 13.2244 14.1744C13.4325 13.8678 13.9444 13.3531 14.2819 13.1141C14.535 12.9369 15.1425 12.5797 15.1594 12.6022C15.1706 12.605 15.1875 12.7428 15.2072 12.9116ZM20.4581 13.7019C21.1725 14.045 21.4425 14.1631 21.7856 14.2813L22.0472 14.3713L21.8812 14.4556C20.9447 14.9309 19.2853 15.6059 18.8578 15.6903C18.7622 15.71 18.7481 15.7044 18.7678 15.6566C18.8409 15.4653 19.8309 13.4206 19.8506 13.4206C19.8619 13.4206 20.1375 13.5472 20.4581 13.7019ZM19.2009 13.6259C19.1503 13.8678 18.8775 14.6469 18.72 15.0013C18.5822 15.3106 18.2644 15.9097 18.2081 15.9659C18.1828 15.9913 17.6175 15.6734 17.3503 15.4822C17.0494 15.2684 16.3912 14.6328 16.4109 14.5738C16.4194 14.5513 16.8187 14.3966 17.3025 14.2306C18.3206 13.8791 18.8887 13.6681 19.0547 13.5809C19.2122 13.4966 19.2262 13.5022 19.2009 13.6259ZM22.0472 14.7003C22.0387 14.7706 21.9797 15.0772 21.9178 15.3894C21.7237 16.3625 21.4875 17.0291 21.3384 17.0291C21.1303 17.0291 19.7128 16.6859 19.2544 16.5228C18.9422 16.4131 18.675 16.2866 18.585 16.2106C18.5287 16.1628 18.5597 16.1459 18.9647 15.98C20.2753 15.4456 21.7884 14.7622 21.9515 14.6328C22.05 14.5541 22.064 14.5653 22.0472 14.7003ZM15.4097 14.9984C15.2606 15.2656 14.9569 15.7044 14.3747 16.4891L13.8797 17.1584L13.7306 17.0516C13.5225 16.9025 13.1906 16.5425 13.0528 16.3147C12.9037 16.07 12.8025 15.7663 12.7912 15.5356L12.7828 15.3556L13.0275 15.3303C13.3594 15.2966 14.2903 15.1053 14.9512 14.9309C15.2522 14.8522 15.5025 14.7931 15.5081 14.7959C15.5109 14.8044 15.4687 14.8944 15.4097 14.9984ZM16.8525 15.6875C17.0184 15.8056 17.2462 15.9575 17.3615 16.025L17.5725 16.1488L17.4769 16.1881C17.4234 16.2106 16.6528 16.4919 15.7612 16.8125C14.2397 17.3609 14.1412 17.3947 14.099 17.3384C14.0737 17.3047 14.0569 17.2709 14.0597 17.2597C14.0625 17.2484 14.4731 16.7169 14.9737 16.0784L15.8822 14.9169L16.2169 15.1953C16.4053 15.35 16.6865 15.5694 16.8525 15.6875ZM17.2265 17.4341C16.8947 17.9319 16.6134 18.3509 16.6022 18.3622C16.5769 18.3959 16.0453 18.2722 15.6487 18.1372C15.2325 17.9966 14.7178 17.7378 14.5153 17.5634L14.369 17.4369L14.6981 17.3469C16.0397 16.9813 17.8144 16.5116 17.8228 16.5172C17.8284 16.5228 17.5584 16.9363 17.2265 17.4341ZM18.8212 16.6803C19.5328 16.925 20.1797 17.0628 21.0206 17.1528L21.2512 17.1781L20.624 17.4031C19.0603 17.9684 17.7919 18.365 17.1562 18.4888C16.9762 18.5225 16.8131 18.5534 16.7962 18.5534C16.7794 18.5534 16.9059 18.3791 17.0803 18.1653C17.5584 17.5831 18.0759 16.9194 18.2137 16.7141C18.2812 16.6156 18.3487 16.5313 18.3628 16.5313C18.3797 16.5341 18.585 16.5988 18.8212 16.6803ZM21.1528 17.9966C20.8828 18.6913 20.6859 19.1159 20.6184 19.1413C20.4862 19.1919 18.6384 18.9219 18.0731 18.7672C17.699 18.6659 17.46 18.5675 17.5303 18.5422C17.5584 18.5338 17.8256 18.4691 18.1265 18.4016C19.1025 18.1822 20.5931 17.7294 21.2119 17.465C21.2906 17.4313 21.3609 17.4059 21.3665 17.4116C21.3722 17.4172 21.2765 17.6788 21.1528 17.9966ZM10.2262 18.5844C10.094 18.6406 10.0322 18.7503 10.0181 18.9556C10.004 19.1469 10.004 19.1497 9.90842 19.1497C9.8128 19.1497 9.80999 19.1553 9.82124 19.2903C9.82967 19.4169 9.84092 19.4309 9.92249 19.4422L10.0125 19.4534V20.4828L10.1672 20.4688L10.3247 20.4575L10.3359 19.9513L10.3472 19.445H10.8084V19.8163C10.8084 20.2775 10.8562 20.3984 11.0559 20.4659C11.1459 20.4969 11.2303 20.5025 11.3203 20.4828C11.4469 20.4575 11.4525 20.4491 11.4637 20.3141L11.475 20.1706L11.3653 20.1903C11.174 20.2241 11.1628 20.2016 11.1684 19.7347L11.1712 19.4478H11.2669C11.4328 19.4478 11.4694 19.4169 11.4694 19.2791V19.1497H11.1712V19.0259C11.1712 18.8431 11.1403 18.8122 10.9687 18.8234L10.8225 18.8319L10.8112 18.9894L10.8 19.1469H10.3415V19.0344C10.3415 18.8797 10.4231 18.8038 10.5637 18.8319C10.6706 18.8516 10.6734 18.8516 10.6734 18.7419C10.6734 18.6828 10.6537 18.6125 10.634 18.59C10.589 18.5506 10.3247 18.545 10.2262 18.5844ZM2.89686 18.6378C2.75342 18.7391 2.82374 18.95 3.00374 18.95C3.18936 18.95 3.22311 18.9247 3.22311 18.7813C3.2203 18.5984 3.05717 18.5253 2.89686 18.6378ZM0.461236 18.7278C0.410611 18.7644 0.404986 18.8488 0.413424 19.6138L0.421861 20.4575L0.579361 20.4688L0.736861 20.48V19.7459C0.736861 19.3409 0.745299 19.0175 0.753736 19.0259C0.764986 19.0344 0.860611 19.3016 0.970299 19.6194C1.07999 19.9372 1.19249 20.2606 1.22061 20.3394L1.27405 20.4828L1.43999 20.4688L1.60592 20.4575L1.85905 19.7544L2.11217 19.0513L2.12905 19.7544C2.1403 20.1425 2.15155 20.4631 2.15436 20.4688C2.15717 20.4744 2.23311 20.4744 2.31749 20.4688L2.47499 20.4575L2.48342 19.6166C2.48905 19.0231 2.48061 18.7616 2.45249 18.7278C2.39342 18.6547 2.01936 18.6688 1.95186 18.7447C1.92374 18.7784 1.80561 19.0513 1.69311 19.3494C1.58061 19.6475 1.47936 19.9034 1.46811 19.9175C1.45686 19.9316 1.35842 19.6925 1.24874 19.3888C1.13905 19.0794 1.01811 18.8038 0.975924 18.7616C0.916861 18.7025 0.866236 18.6856 0.708736 18.6856C0.604674 18.6856 0.492174 18.7053 0.461236 18.7278ZM3.86999 19.1497C3.62811 19.2284 3.48467 19.4788 3.48467 19.8303C3.48467 20.2241 3.63374 20.4378 3.94874 20.4913C4.09217 20.5166 4.33686 20.4603 4.42124 20.3844C4.47749 20.3338 4.5028 20.1453 4.4578 20.1031C4.44655 20.0919 4.38467 20.1116 4.31999 20.1481C4.08092 20.2775 3.90374 20.2044 3.84749 19.9541C3.81092 19.7881 3.8503 19.5744 3.93749 19.4816C4.0078 19.4056 4.18217 19.4 4.31717 19.4703C4.44374 19.535 4.4803 19.5125 4.4803 19.3663C4.4803 19.2847 4.46061 19.2397 4.40155 19.2031C4.3003 19.1328 4.00217 19.1075 3.86999 19.1497ZM5.16092 19.2172C5.04561 19.3184 5.04561 19.3184 5.03436 19.2425C5.02592 19.1778 5.00342 19.1638 4.88249 19.1553L4.74186 19.1441V20.4716H5.07374V20.0609C5.07374 19.6503 5.07374 19.6503 5.17217 19.5434C5.25374 19.4563 5.2903 19.4394 5.38874 19.4506C5.51249 19.4647 5.5378 19.4366 5.5378 19.2819C5.5378 19.0906 5.34655 19.0569 5.16092 19.2172ZM6.0778 19.1553C5.81061 19.2341 5.64749 19.5463 5.68124 19.9147C5.71217 20.255 5.88655 20.4491 6.20155 20.4941C6.75842 20.57 7.12124 20.1144 6.96374 19.5406C6.86811 19.2031 6.48561 19.0344 6.0778 19.1553ZM6.46592 19.4141C6.6403 19.5069 6.6853 19.9119 6.54186 20.1031C6.45186 20.2213 6.25217 20.2438 6.13124 20.1481C6.05811 20.0891 6.05249 20.0609 6.05249 19.8134C6.05249 19.5575 6.05811 19.5378 6.1453 19.4619C6.24092 19.3775 6.36467 19.3606 6.46592 19.4141ZM7.44467 19.1638C7.27592 19.2369 7.21405 19.3353 7.21405 19.5181C7.21405 19.715 7.27592 19.7881 7.57124 19.9288C7.73999 20.0103 7.77655 20.0413 7.77655 20.1116C7.77655 20.1706 7.75124 20.2044 7.68374 20.2269C7.59936 20.255 7.52061 20.2409 7.25342 20.1566C7.2028 20.1397 7.19436 20.1538 7.2028 20.2663C7.21124 20.3731 7.23092 20.4041 7.31249 20.4434C7.4503 20.5109 7.78217 20.5053 7.91999 20.4322C8.11967 20.3253 8.18155 20.0019 8.0353 19.8388C8.00155 19.8022 7.88061 19.7263 7.75967 19.67C7.5403 19.5659 7.48686 19.49 7.5628 19.4C7.61342 19.3409 7.76249 19.3409 7.91155 19.4028C8.00999 19.445 8.02967 19.445 8.04655 19.4056C8.0803 19.3156 8.04092 19.2088 7.95936 19.1666C7.84967 19.1075 7.56842 19.1075 7.44467 19.1638ZM8.78624 19.1413C8.49374 19.2453 8.36155 19.4225 8.33342 19.7375C8.29967 20.1256 8.4403 20.3731 8.74405 20.4631C9.25311 20.6122 9.64967 20.3169 9.64686 19.7909C9.64405 19.4731 9.50061 19.2397 9.25311 19.1553C9.1378 19.1159 8.87624 19.1075 8.78624 19.1413ZM9.17155 19.4619C9.25874 19.535 9.26436 19.5575 9.26436 19.7909C9.26436 20.0103 9.25592 20.0497 9.1828 20.1256C9.07874 20.2353 8.88186 20.2438 8.78342 20.1453C8.69905 20.0609 8.67374 19.9513 8.69342 19.7234C8.70467 19.5744 8.72717 19.5238 8.79749 19.4591C8.91561 19.3578 9.05342 19.3606 9.17155 19.4619ZM2.86311 19.8022L2.87155 20.4603H3.20342V19.1666L3.02905 19.1581L2.85467 19.1469L2.86311 19.8022ZM1.27967 21.2872C0.854986 21.38 0.534361 21.6134 0.365611 21.9594C0.261549 22.1703 0.255924 22.2013 0.255924 22.5444C0.255924 22.8763 0.264361 22.9269 0.345924 23.0956C0.523111 23.4584 0.849361 23.7144 1.52999 24.0238C2.27249 24.3613 2.47499 24.5694 2.47499 24.9997C2.47499 25.3906 2.29217 25.6241 1.88999 25.7478C1.49061 25.8716 1.09124 25.8125 0.573736 25.5538C0.402173 25.4666 0.247486 25.3906 0.236236 25.385C0.222174 25.3794 0.191236 25.3991 0.160299 25.4272C0.0984235 25.4919 0.0871736 25.8125 0.146236 25.9194C0.269986 26.1528 0.919674 26.3694 1.48499 26.3694C2.54811 26.3694 3.23436 25.7366 3.17811 24.8056C3.16686 24.6031 3.14155 24.5047 3.05717 24.3359C2.89124 24.0013 2.67749 23.8269 2.0278 23.5091C1.72686 23.3628 1.3978 23.1856 1.29374 23.1153C0.883111 22.8397 0.787486 22.37 1.07717 22.0438C1.23749 21.8609 1.40061 21.8019 1.7353 21.7991C2.05311 21.7991 2.18249 21.8328 2.54811 22.0184C2.86311 22.1788 2.89124 22.1647 2.89124 21.8525C2.89124 21.5713 2.87436 21.5459 2.58749 21.4138C2.2078 21.2478 1.69874 21.1972 1.27967 21.2872ZM5.71217 21.2675C5.08499 21.3688 4.60124 21.6725 4.2778 22.1703C4.11467 22.4234 4.02467 22.6597 3.9403 23.0591C3.84749 23.495 3.86999 24.4653 3.97967 24.8647C4.24967 25.8463 4.85436 26.3188 5.88936 26.3638C6.43499 26.3863 6.64592 26.3469 7.1803 26.1191C7.19999 26.1106 7.28999 26.1669 7.37999 26.2428C7.72311 26.5409 8.47686 26.9684 8.74124 27.0191C8.90436 27.05 8.94936 26.9966 8.94936 26.7659C8.94936 26.6591 8.94092 26.5494 8.92967 26.5184C8.91842 26.4875 8.76092 26.3891 8.5753 26.2963C8.29123 26.1556 7.72311 25.79 7.72311 25.7478C7.72311 25.7394 7.77655 25.6663 7.83842 25.5819C8.10561 25.2331 8.26592 24.7466 8.32217 24.1166C8.36436 23.6356 8.32499 23.1209 8.2153 22.7216C8.01561 21.9988 7.52905 21.5009 6.8428 21.3153C6.61499 21.2591 5.96249 21.2281 5.71217 21.2675ZM6.7078 21.9003C7.10155 22.0466 7.36311 22.3447 7.51499 22.8088C7.59092 23.0422 7.60499 23.1491 7.61905 23.6441C7.63874 24.3078 7.58811 24.6284 7.41374 24.9997C7.1353 25.5959 6.52499 25.8941 5.81342 25.7844C4.9303 25.6494 4.54217 24.9828 4.58717 23.675C4.61249 22.9241 4.74749 22.5303 5.09624 22.1984C5.30155 22.0016 5.45061 21.9144 5.68967 21.8553C5.9653 21.7822 6.45467 21.8047 6.7078 21.9003ZM14.6756 21.29C14.2678 21.3884 13.9219 21.6416 13.7728 21.9453C13.604 22.2941 13.5984 22.7863 13.7587 23.1041C13.9472 23.4781 14.2003 23.6722 14.9878 24.0463C15.584 24.3303 15.7837 24.4963 15.8653 24.7747C15.9609 25.1038 15.8372 25.4469 15.5615 25.6269C15.1312 25.9053 14.5181 25.8603 13.8628 25.5031C13.5675 25.3428 13.5253 25.3597 13.5253 25.6438C13.5253 25.9081 13.5619 25.9869 13.7419 26.0909C14.2959 26.4172 15.2184 26.4594 15.7922 26.1894C16.484 25.8631 16.7962 25.0053 16.47 24.3247C16.4278 24.2375 16.3097 24.0856 16.2028 23.9816C16.0397 23.8213 15.9103 23.7425 15.3647 23.4753C14.459 23.0309 14.279 22.8397 14.3325 22.3869C14.3606 22.1619 14.4787 21.9959 14.6869 21.8919C14.8303 21.8188 14.909 21.8047 15.1284 21.8047C15.4547 21.8047 15.5869 21.8384 15.9159 22.0072C16.1972 22.1506 16.2562 22.1619 16.2872 22.0831C16.3265 21.9847 16.3069 21.6556 16.259 21.5853C16.1944 21.4953 15.8653 21.3491 15.5869 21.29C15.3084 21.2309 14.9259 21.2281 14.6756 21.29ZM9.5203 21.3434C9.48936 21.3744 9.48092 21.9566 9.48092 23.7622V26.1416L9.56249 26.2231L9.64405 26.3047H10.8197C11.7197 26.3047 12.0009 26.2934 12.029 26.2625C12.0797 26.1978 12.1022 26.0038 12.074 25.8744L12.0487 25.7591L11.1065 25.7422L10.1644 25.7253L10.1559 23.54C10.1503 21.8441 10.139 21.3491 10.1081 21.3294C10.0378 21.29 9.5653 21.2984 9.5203 21.3434ZM18.36 22.5866C18.1997 22.6119 17.879 22.7384 17.7469 22.8284C17.429 23.045 17.2041 23.3909 17.0775 23.855C16.9987 24.1503 16.9987 24.8788 17.0775 25.1797C17.2406 25.7956 17.6006 26.1697 18.1744 26.3216C18.4247 26.3863 19.0575 26.3863 19.3669 26.3216C19.6594 26.2597 19.9631 26.1472 20.0194 26.0825C20.0728 26.0206 20.07 25.6859 20.0165 25.6325C19.9884 25.6044 19.9012 25.6241 19.6678 25.7028C18.7706 26.0066 18.0787 25.8744 17.8116 25.3484C17.7328 25.1938 17.6597 24.8844 17.6597 24.71V24.6172H18.7987C19.5187 24.6172 19.9744 24.6031 20.039 24.5806C20.1853 24.53 20.2247 24.4034 20.1994 24.0772C20.1487 23.4303 19.9322 23.0253 19.5075 22.7694C19.2375 22.6063 18.7369 22.5247 18.36 22.5866ZM18.9675 23.1069C19.305 23.2081 19.5131 23.495 19.544 23.8916L19.5609 24.1194H17.654L17.6765 23.9816C17.7356 23.6384 17.879 23.3825 18.1012 23.2306C18.3515 23.0591 18.6637 23.0141 18.9675 23.1069ZM22.2272 22.595C22.0697 22.6456 21.8419 22.8284 21.6787 23.0338L21.5212 23.2363L21.5044 22.9409L21.4875 22.6456L21.2906 22.6344C21.1809 22.6288 21.06 22.6316 21.0178 22.6428L20.9419 22.6597V24.4625C20.9419 26.0769 20.9475 26.2653 20.9953 26.285C21.0628 26.3103 21.4537 26.3103 21.5184 26.285C21.5662 26.2681 21.5719 26.1303 21.5719 25.0897V23.9141L21.7181 23.7088C21.9178 23.4275 22.1765 23.1997 22.3256 23.1716C22.4044 23.1575 22.5281 23.1688 22.6744 23.2053C22.8178 23.2419 22.9134 23.2503 22.9331 23.2306C22.95 23.2138 22.9612 23.0788 22.9556 22.9381C22.9472 22.685 22.9415 22.6738 22.8487 22.6316C22.7334 22.5753 22.3537 22.5528 22.2272 22.595ZM27.9309 22.5978C27.6694 22.6428 27.2981 22.8341 27.1069 23.0253C26.744 23.3881 26.5922 23.8888 26.6175 24.6313C26.64 25.3006 26.7637 25.6325 27.1153 25.9616C27.45 26.2794 27.8044 26.3834 28.4456 26.3638C28.9153 26.3469 29.3372 26.2541 29.5312 26.1247C29.6269 26.06 29.6381 26.0347 29.6465 25.8716C29.6522 25.7731 29.6409 25.6691 29.624 25.6409C29.5903 25.5875 29.6184 25.5819 29.0587 25.7591C28.8309 25.8294 28.71 25.8463 28.4287 25.8491C27.8719 25.8519 27.585 25.7028 27.3965 25.3203C27.3178 25.16 27.2897 25.0475 27.2756 24.8619L27.2587 24.6172L28.4512 24.6088C29.8828 24.5975 29.7872 24.6284 29.7844 24.1869C29.7815 23.4106 29.4469 22.8706 28.8422 22.6597C28.6228 22.5866 28.1812 22.5556 27.9309 22.5978ZM28.5553 23.1097C28.8844 23.2081 29.1009 23.5006 29.1459 23.9141L29.1684 24.1194H27.2615L27.2812 23.9534C27.329 23.5484 27.6075 23.1997 27.9675 23.09C28.1053 23.0478 28.3753 23.0591 28.5553 23.1097ZM31.8403 22.5922C31.6265 22.6625 31.3312 22.91 31.1681 23.1547C31.1147 23.2363 31.1119 23.2306 31.1119 22.9719C31.1119 22.8088 31.0978 22.6906 31.0725 22.6681C31.019 22.6147 30.6084 22.6147 30.555 22.6681C30.4987 22.7244 30.4987 26.2091 30.555 26.2653C30.6084 26.3188 31.0837 26.3188 31.1372 26.2653C31.1653 26.2372 31.1765 25.9222 31.1765 25.0644V23.9028L31.3003 23.72C31.4831 23.4472 31.7137 23.2334 31.874 23.1856C32.0119 23.1434 32.0653 23.1491 32.4337 23.2447C32.5378 23.2728 32.5687 23.2138 32.5687 22.9916C32.5687 22.7441 32.5462 22.6766 32.4422 22.6288C32.3353 22.5809 31.95 22.5556 31.8403 22.5922ZM23.0315 22.6794C22.9978 22.7216 23.099 23.0309 23.6109 24.4597C23.9512 25.4103 24.2578 26.2175 24.2915 26.2541C24.4181 26.3834 25.0453 26.3525 25.1015 26.2147C25.1437 26.105 26.3053 22.8791 26.3278 22.8031C26.3672 22.6709 26.2969 22.6316 26.0128 22.6316C25.8469 22.6316 25.7428 22.6456 25.7231 22.6738C25.7062 22.6963 25.47 23.3684 25.2 24.1672C24.93 24.9659 24.6994 25.6072 24.6853 25.5903C24.6712 25.5763 24.4406 24.9238 24.1734 24.1391C23.9062 23.3544 23.67 22.6963 23.6503 22.6709C23.5997 22.6063 23.0822 22.6147 23.0315 22.6794Z" fill="black"/>
</svg>
