<svg width="63" height="62" viewBox="0 0 63 62" fill="none" xmlns="http://www.w3.org/2000/svg">
<path fill-rule="evenodd" clip-rule="evenodd" d="M40.7658 16.1151C39.4638 12.0611 37.3753 8.47306 34.4323 5.38556C33.6883 4.60456 32.8613 3.88906 32.3423 2.91756C32.0143 2.30256 31.7018 1.67906 31.3823 1.06006L31.1793 0.549561L31.1228 0.750561C31.0963 1.76056 30.5243 2.44506 29.8123 3.08456C29.0103 3.80356 28.2643 4.58456 27.4943 5.33906L25.1263 8.45356L23.2118 11.9746L21.9313 15.4321L21.8928 15.4856C21.1883 17.8001 20.8408 20.1801 20.6703 22.5831C20.6058 23.4866 20.6798 24.4026 20.7303 25.3106C20.8028 26.6086 21.0283 27.8841 21.3663 29.1406C22.5948 33.7036 25.0883 37.4881 28.4978 40.7041C29.1308 41.3016 29.8153 41.8451 30.4758 42.4131L30.7683 43.4171L31.0403 44.9751L31.1703 46.6016C31.1688 46.9316 31.1553 47.2631 31.1748 47.5921C31.1803 47.6766 31.2903 47.7546 31.3523 47.8356L31.9043 48.0296L32.4788 48.2531L32.3803 46.8076L32.3758 45.3836L32.5743 43.2146L32.7183 42.7426L33.1308 42.0121C33.6398 41.6031 34.1853 41.2311 34.6488 40.7756C35.4873 39.9521 36.3243 39.1171 37.0748 38.2146C38.0512 37.0447 38.8852 35.7631 39.5593 34.3966C40.0088 33.4801 40.4328 32.5451 40.7833 31.5876C41.0923 30.7436 41.2838 29.8561 41.5273 28.9876L41.5913 28.8001C42.0938 26.4561 42.1783 24.0881 41.9938 21.7051C41.8453 19.7846 41.3938 17.9311 40.7658 16.1151ZM30.8158 41.2526C30.8928 40.8671 30.9883 40.4836 31.0578 40.0966C30.9883 40.4836 30.8933 40.8671 30.8158 41.2526ZM32.5243 41.5186L32.2013 40.8111L32.5243 41.5186L32.9988 41.9241L32.5243 41.5186ZM52.6013 50.4821C52.1883 49.6906 51.5823 49.0896 50.7813 48.6951C50.1103 48.3651 49.3888 48.2201 48.6468 48.1991C48.0908 48.1831 47.5328 48.2116 46.9758 48.2186C46.4813 48.2246 45.9863 48.2331 45.4918 48.2286C44.9103 48.2226 44.3288 48.2051 43.7473 48.1886C43.6508 48.1856 43.5823 48.2051 43.5373 48.3031C43.4668 48.4556 43.3833 48.6026 43.2968 48.7696L43.3938 48.8006C43.6823 48.8516 43.9723 48.8951 44.2593 48.9526C44.6283 49.0261 44.7943 49.2381 44.8113 49.5491C44.8363 49.9921 44.8463 50.4361 44.8448 50.8801C44.8373 52.6371 44.8248 54.3941 44.8118 56.1506C44.8108 56.2666 44.8088 56.3876 44.7773 56.4966C44.7408 56.6226 44.7013 56.7856 44.6073 56.8476C44.4381 56.9562 44.2483 57.0285 44.0498 57.0601C43.7693 57.1061 43.7223 57.1186 43.6348 57.3946L43.5968 57.5326C43.5548 57.6831 43.5773 57.7126 43.7343 57.7141C44.6353 57.7241 45.5358 57.7436 46.4363 57.7406C47.2578 57.7376 48.0793 57.7876 48.8978 57.6331C49.6713 57.4876 50.3933 57.2326 51.0523 56.8011C51.9073 56.2406 52.5223 55.4916 52.8468 54.5141C53.1088 53.7246 53.1673 52.9191 53.0783 52.0936C53.0227 51.531 52.8609 50.9842 52.6013 50.4821ZM51.0228 55.3126C50.5408 56.2096 49.8218 56.8086 48.7943 56.9666C48.1508 57.0651 47.5063 57.0366 46.8928 56.7931C46.5043 56.6391 46.3598 56.3036 46.3478 55.9071C46.3368 55.5185 46.3313 55.1298 46.3313 54.7411C46.3293 53.3741 46.3293 52.0071 46.3313 50.6406C46.3323 50.2101 46.3398 49.7786 46.3468 49.3476C46.3518 49.0446 46.4153 48.9431 46.7108 48.9186C48.0088 48.8096 49.2473 48.9496 50.2758 49.8631C50.9118 50.4281 51.2738 51.1486 51.4243 51.9761C51.4868 52.3211 51.5058 52.6741 51.5448 53.0241C51.5133 53.8231 51.4053 54.6006 51.0228 55.3126ZM61.9173 53.8321C61.6613 53.2091 61.1763 52.8186 60.5668 52.5686C60.3588 52.4831 60.1443 52.4126 59.9198 52.3296L59.9983 52.2796C60.2408 52.1241 60.5108 51.9986 60.7198 51.8071C61.2278 51.3416 61.4388 50.7561 61.3398 50.0606C61.2458 49.3991 60.9158 48.9136 60.3263 48.5986C59.7913 48.3136 59.2143 48.2096 58.6173 48.2101C57.5843 48.2111 56.5508 48.2266 55.5178 48.2286C55.1618 48.2291 54.8058 48.2026 54.4498 48.1976C54.3808 48.1966 54.2783 48.2141 54.2488 48.2601C54.1673 48.3851 54.1133 48.5291 54.0553 48.6681C54.0218 48.7491 54.0548 48.7936 54.1473 48.8056C54.3958 48.8396 54.6438 48.8821 54.8928 48.9191C55.2368 48.9706 55.4033 49.1496 55.4243 49.4961L55.4288 49.7016C55.4293 50.7791 55.4328 51.8566 55.4283 52.9341C55.4218 54.0101 55.4117 55.0861 55.3978 56.1621C55.3963 56.2976 55.3778 56.4336 55.3583 56.5681C55.3288 56.7711 55.2203 56.9111 55.0123 56.9551L54.4238 57.0711C54.3543 57.0851 54.2538 57.0831 54.2253 57.1261C54.1173 57.2876 54.0303 57.4641 54.0423 57.6771L54.1028 57.6936L56.0793 57.7421L56.4758 57.7406C57.1598 57.7326 57.8448 57.7461 58.5278 57.7111C59.2673 57.6741 59.9618 57.4546 60.6038 57.0771C61.2873 56.6746 61.8133 56.1441 62.0003 55.3461C62.1203 54.8366 62.1208 54.3241 61.9173 53.8321ZM56.8958 49.2416C56.8988 49.0251 56.9943 48.9311 57.2093 48.9256C57.7388 48.9111 58.2648 48.9141 58.7758 49.0966C59.4368 49.3326 59.8433 49.9026 59.8358 50.5991C59.8323 50.8666 59.8363 51.1316 59.7378 51.3886C59.5433 51.8946 59.1703 52.1616 58.6413 52.2136C58.3653 52.2416 58.0868 52.2446 57.8408 52.2576L57.0198 52.2216C56.9108 52.2176 56.8633 52.1696 56.8638 52.0576L56.8958 49.2416ZM60.2988 55.9886C60.0343 56.5641 59.5523 56.8666 58.9488 56.9716C58.4678 57.0541 57.9747 57.0324 57.5028 56.9081C57.1498 56.8176 57.0058 56.5341 56.9353 56.2196C56.8878 56.0091 56.8958 55.7586 56.8918 55.5396C56.8853 55.2016 56.8903 54.5001 56.8903 54.5001H56.8833C56.8833 54.0001 56.8848 53.5671 56.8818 53.0876C56.8813 52.9841 56.8988 52.9326 57.0253 52.9366C57.4743 52.9501 57.9248 52.9576 58.3738 52.9751C58.7753 52.9906 59.1513 53.1096 59.5048 53.3001C60.0428 53.5901 60.3668 54.0341 60.4558 54.6441C60.5238 55.1066 60.4948 55.5616 60.2988 55.9886ZM11.0053 56.5276L11.0148 53.8091C11.0163 53.4001 10.9643 52.9991 10.8303 52.6111C10.4608 51.5426 9.44177 51.0561 8.38077 51.4396C7.89827 51.6141 7.46577 51.8786 7.05277 52.1786C6.81227 52.3536 6.81227 52.3536 6.63827 52.1041C6.14577 51.3981 5.44227 51.1566 4.62327 51.4171C4.09377 51.5851 3.63077 51.8726 3.19227 52.2066C3.15127 52.2376 3.06877 52.2721 3.04427 52.2536C3.00327 52.2231 2.97477 52.1506 2.97577 52.0961L3.00577 51.6131C3.00827 51.5116 2.98877 51.4096 2.97877 51.3031C2.78077 51.3716 2.62277 51.4401 2.45727 51.4801C1.94577 51.6051 1.43077 51.7201 0.916267 51.8376C0.791767 51.8661 0.660267 51.9036 0.648267 52.0466C0.635767 52.1871 0.771267 52.2106 0.876267 52.2526C1.09727 52.3416 1.31677 52.4361 1.53527 52.5321C1.71877 52.6131 1.78727 52.7596 1.78627 52.9566C1.78277 53.7991 1.78827 54.6406 1.78327 55.4831C1.78127 55.8256 1.76527 56.1676 1.74977 56.5101C1.73577 56.8136 1.63227 56.9406 1.33827 57.0171C1.18227 57.0581 1.02377 57.0856 0.866767 57.1226C0.832267 57.1306 0.773267 57.1526 0.772767 57.1696C0.766267 57.3181 0.758267 57.4701 0.783267 57.6146C0.788267 57.6406 0.945267 57.6406 1.03227 57.6506L1.09077 57.6471C1.69677 57.6381 2.30277 57.6286 2.90927 57.6221C3.23077 57.6186 3.55177 57.6216 3.90077 57.6216L3.93827 57.1366C3.73827 57.1001 3.55977 57.0726 3.38377 57.0341C3.10927 56.9741 2.99227 56.8286 2.98527 56.5516L2.98027 56.1551C2.97727 55.1266 2.97327 54.0986 2.97327 53.0701C2.97327 52.9206 3.03527 52.8021 3.16677 52.7126C3.44527 52.5246 3.73927 52.3751 4.06477 52.2916C4.75077 52.1161 5.34577 52.3601 5.60977 52.9436C5.69327 53.1276 5.75877 53.3311 5.77727 53.5311C5.87427 54.5621 5.83227 55.5941 5.77377 56.6251C5.76127 56.8476 5.65677 56.9596 5.43727 57.0141L4.92127 57.1231C4.87977 57.1336 4.81927 57.1056 4.81627 57.1401C4.80477 57.2826 4.81127 57.5011 4.81127 57.5011H4.93427L6.50527 57.5526C6.93577 57.5516 7.36677 57.6036 7.79677 57.6146C7.87377 57.6161 7.94227 57.6276 7.94677 57.5386C7.95168 57.4004 7.94985 57.2621 7.94127 57.1241L7.85927 57.1096L7.41677 57.0101C7.11827 56.9396 7.01527 56.8261 7.01427 56.5241C7.01077 55.7796 7.02077 55.0356 7.01427 54.2916C7.01044 53.866 6.9946 53.4407 6.96677 53.0161C6.95927 52.9031 6.97677 52.8291 7.06677 52.7656C7.32763 52.5749 7.6211 52.4334 7.93277 52.3481C8.90027 52.0931 9.69227 52.6236 9.74227 53.6211C9.79127 54.5831 9.77077 55.5486 9.76327 56.5126C9.76077 56.8481 9.64977 56.9496 9.31927 57.0396L9.20527 57.0691C8.86677 57.1501 8.86977 57.1501 8.88977 57.5096C8.89627 57.6221 8.92727 57.6511 9.04727 57.6481C9.73677 57.6326 10.4263 57.6286 11.1158 57.6226C11.3978 57.6201 11.6798 57.6226 11.9868 57.6226L12.0493 57.1546C11.7798 57.0831 11.5313 57.0301 11.2913 56.9516C11.0793 56.8796 11.0043 56.7516 11.0053 56.5276ZM34.7498 52.4071C35.0338 52.1436 35.0358 51.7956 34.9563 51.4091C34.7313 51.6446 34.4793 51.7531 34.1918 51.7736C33.8063 51.8011 33.4278 51.7676 33.0688 51.6141C32.0978 51.1971 31.1418 51.2266 30.1888 51.6841C29.3873 52.0681 28.8943 52.6666 28.8448 53.5741C28.8133 54.1556 28.9223 54.7061 29.3103 55.1686C29.5428 55.4456 29.8413 55.6251 30.1778 55.7491C30.3228 55.8026 30.3338 55.8716 30.2123 55.9641C30.1225 56.0318 30.0296 56.0952 29.9338 56.1541C29.7307 56.2817 29.5263 56.4074 29.3208 56.5311C29.2003 56.6041 29.1593 56.6971 29.1988 56.8396C29.3143 57.2586 29.6118 57.5006 29.9838 57.6771L30.1193 57.7716L30.0008 57.8901C29.6363 58.1856 29.2573 58.4646 28.9083 58.7781C28.6153 59.0416 28.5208 59.3946 28.6093 59.7841C28.7878 60.5616 29.3033 61.0426 30.0348 61.2636C31.3133 61.6506 32.5138 61.4286 33.6083 60.6711C34.2573 60.2216 34.7228 59.6366 34.8643 58.8316C35.0228 57.9271 34.5203 57.1421 33.6208 56.9801C33.0258 56.8721 32.4168 56.8411 31.8148 56.7721C31.5338 56.7401 31.2488 56.7211 30.9753 56.6566C30.7428 56.6016 30.6273 56.4121 30.6488 56.2271C30.6703 56.0451 30.8638 55.8756 31.0853 55.8581C31.5313 55.8221 31.9683 55.7526 32.3793 55.5646C33.4683 55.0666 33.9738 54.1946 33.8473 53.0206C33.8308 52.8626 33.7948 52.7066 33.7623 52.5226C34.1108 52.5811 34.4673 52.6696 34.7498 52.4071ZM31.4453 57.9156C31.8883 57.9286 32.3923 57.9561 32.8793 58.0986C33.3078 58.2236 33.6603 58.4426 33.7643 58.9211C33.8898 59.4991 33.6118 60.0741 33.0523 60.3831C32.5283 60.6721 31.9593 60.6961 31.3823 60.6366C30.8883 60.5856 30.4438 60.4146 30.0878 60.0496C29.6188 59.5691 29.6163 58.9041 30.0858 58.4251C30.5053 57.9971 30.7298 57.9086 31.4453 57.9156ZM32.5538 54.4346C32.2958 55.2601 31.5448 55.3741 30.9563 55.1101C30.4548 54.8856 30.2363 54.4436 30.1218 53.9391C30.0773 53.7451 30.0668 53.5436 30.0408 53.3451C30.0513 53.0606 30.0983 52.7876 30.2208 52.5316C30.5963 51.7431 31.5188 51.7901 32.0293 52.1471C32.2483 52.3001 32.4008 52.5081 32.4963 52.7546C32.7089 53.2911 32.7292 53.8847 32.5538 54.4346ZM27.8688 57.0661C27.6901 57.0387 27.5136 56.9993 27.3403 56.9481C27.0363 56.8551 26.9993 56.7981 26.9958 56.4766C26.9868 55.5806 26.9808 54.6846 26.9708 53.7891C26.9658 53.3861 26.9178 52.9886 26.7943 52.6036C26.4693 51.5886 25.4738 51.0436 24.4778 51.3431C23.9258 51.5096 23.4518 51.8191 23.0103 52.1826L22.8493 52.3061L22.8498 52.1406C22.8603 51.9501 22.8808 51.7596 22.8793 51.5691C22.8783 51.4696 22.8403 51.3696 22.8218 51.2821C22.4453 51.3956 22.1078 51.5096 21.7633 51.5966C21.4178 51.6836 21.0653 51.7426 20.7158 51.8136C20.5423 51.8486 20.4148 51.9536 20.4178 52.0731C20.4223 52.2416 20.5618 52.2741 20.6838 52.3246C20.9048 52.4151 21.1253 52.5066 21.3438 52.6036C21.4998 52.6731 21.5633 52.8021 21.5618 52.9696C21.5508 54.1341 21.5438 55.2991 21.5268 56.4641C21.5218 56.8321 21.4288 56.9291 21.0668 57.0101L20.9088 57.0416C20.5738 57.0991 20.5643 57.1126 20.5873 57.4661L20.5893 57.5246C20.5853 57.6606 20.6448 57.7046 20.7848 57.7031C21.6748 57.6926 22.5653 57.6876 23.4553 57.6911C23.8368 57.6926 23.8778 57.6626 23.8698 57.2706L23.8518 57.1021C23.6338 57.0656 23.4253 57.0391 23.2213 56.9941C23.0078 56.9466 22.9313 56.8591 22.9113 56.6421C22.8928 56.4436 22.8868 56.2421 22.8848 56.0421C22.8748 55.1266 22.8668 54.2111 22.8623 53.2961C22.8613 53.0656 22.9038 52.8516 23.1158 52.7031C23.4278 52.4801 23.7956 52.3482 24.1783 52.3221C24.9723 52.2676 25.5758 52.7381 25.6188 53.5296C25.6718 54.5061 25.6558 55.4861 25.6683 56.4646C25.6693 56.5376 25.6563 56.6111 25.6463 56.6836C25.6273 56.8266 25.5573 56.9341 25.4123 56.9711C25.2708 57.0081 25.1273 57.0411 24.9828 57.0631C24.7673 57.0951 24.7628 57.0936 24.7463 57.3111L24.7518 57.4576C24.7773 57.7106 24.7778 57.7031 25.0338 57.7006C25.8948 57.6936 26.7553 57.6891 27.6158 57.6901C27.9758 57.6911 28.0013 57.6741 28.0043 57.3031L28.0033 57.2151C28.0088 57.1201 27.9663 57.0816 27.8688 57.0661ZM39.8948 51.4046C38.9923 51.1841 38.1363 51.3481 37.3233 51.7686C36.5333 52.1771 36.0053 52.8086 35.8043 53.6806C35.6013 54.5621 35.6983 55.4221 36.0878 56.2406C36.3413 56.7721 36.7313 57.1831 37.2623 57.4501C38.5053 58.0761 40.0258 57.7921 41.0008 56.9546C41.7703 56.2941 42.0528 55.4146 42.0698 54.3261C42.0593 54.2171 42.0488 54.0071 42.0198 53.7991C41.8563 52.6141 41.0358 51.6836 39.8948 51.4046ZM40.5783 55.9821C40.3388 56.9251 39.5233 57.3441 38.6033 57.0201C38.1338 56.8551 37.7828 56.5396 37.5468 56.1131C37.0038 55.1331 36.8993 54.0911 37.2083 53.0221C37.4143 52.3101 38.0003 51.9206 38.6973 51.9696C39.3203 52.0131 39.7993 52.3121 40.1508 52.8191C40.5213 53.3541 40.6643 53.9626 40.7023 54.6016C40.7088 54.7041 40.7033 54.8066 40.7033 54.9096L40.7473 54.9146C40.6923 55.2711 40.6663 55.6346 40.5783 55.9821ZM17.1963 51.3891C16.2468 51.1721 15.3573 51.3866 14.5333 51.8691C13.8208 52.2861 13.3603 52.9091 13.1838 53.7231C13.0183 54.4836 13.0858 55.2311 13.3553 55.9596C13.5193 56.4036 13.7678 56.7941 14.1323 57.0986C14.8998 57.7391 15.7968 57.9011 16.7513 57.7226C17.5593 57.5711 18.2693 57.2121 18.7853 56.5406C19.2683 55.9126 19.4523 55.1916 19.4713 54.4101C19.4428 54.1626 19.4358 53.9106 19.3833 53.6691C19.1223 52.4636 18.4173 51.6676 17.1963 51.3891ZM17.9708 55.9791C17.7393 56.9171 16.9108 57.3466 15.9973 57.0226C15.4108 56.8141 15.0288 56.3846 14.7873 55.8341C14.4003 54.9496 14.3213 54.0291 14.5718 53.0961C14.7638 52.3826 15.3423 51.8571 16.2278 51.9831C16.7713 52.0601 17.1953 52.3376 17.5113 52.7791C17.9383 53.3746 18.0788 54.0566 18.0983 54.7731V54.9196L18.1343 54.9251C18.0818 55.2771 18.0558 55.6351 17.9708 55.9791Z" fill="#4FAA41"/>
</svg>
