<svg width="93" height="92" viewBox="0 0 93 92" fill="none" xmlns="http://www.w3.org/2000/svg">
<path d="M1.80248 65.0167H4.7551V53.3565L9.32635 63.5217C9.86541 64.7522 10.6036 65.1871 12.0519 65.1871C13.5001 65.1871 14.2103 64.7522 14.7493 63.5217L19.3206 53.3565V65.0167H22.2732V53.3759C22.2732 52.2402 21.8189 51.6904 20.8817 51.4072C18.6385 50.7071 17.1334 51.313 16.452 52.8275L11.9663 62.8598L7.62291 52.8267C6.96957 51.3131 5.43648 50.7071 3.19326 51.4065C2.25601 51.6904 1.80176 52.2395 1.80176 53.3751V65.0167H1.80248ZM24.7292 55.5249H27.6811V61.9491C27.6538 62.2977 27.7932 63.1171 29.4104 63.143C30.2355 63.1559 35.7799 63.143 35.8317 63.143V55.4933H38.7908C38.8045 55.4933 38.7879 65.9252 38.7879 65.9684C38.8037 68.5415 35.5959 69.1 34.1168 69.1431H24.7931V67.1565C24.8089 67.1565 34.1103 67.1586 34.1333 67.1557C36.0344 66.9552 35.8094 66.0108 35.8087 65.6931V64.9183H29.5333C26.6137 64.8917 24.7536 63.6173 24.7299 62.1511C24.7284 62.0167 24.7939 55.5896 24.7292 55.5249Z" fill="#00618A"/>
<path d="M41.0669 65.0166H49.5568C50.5508 65.0166 51.5168 64.8089 52.283 64.4496C53.5602 63.8631 54.1848 63.0681 54.1848 62.0259V59.8682C54.1848 59.0165 53.4754 58.2209 52.0839 57.6919C51.3457 57.4072 50.4365 57.257 49.5561 57.257H45.9781C44.7857 57.257 44.2179 56.8976 44.0763 56.1027C44.0483 56.0078 44.0483 55.9324 44.0483 55.8375V54.4934C44.0483 54.418 44.0483 54.3418 44.0763 54.2476C44.2179 53.6417 44.5305 53.4714 45.5814 53.3765L45.8653 53.3578H54.2984V51.3899H46.0076C44.8152 51.3899 44.1906 51.4653 43.6228 51.6357C41.8626 52.1848 41.0949 53.0552 41.0949 54.5696V56.2917C41.0949 57.6171 42.6007 58.7527 45.1271 59.018C45.4117 59.0359 45.6949 59.0561 45.9788 59.0561H49.0457C49.1593 59.0561 49.2729 59.0561 49.3584 59.074C50.2956 59.1495 50.6924 59.3205 50.977 59.6605C51.05 59.7279 51.1078 59.8099 51.1469 59.9012C51.1859 59.9925 51.2052 60.091 51.2034 60.1902V61.9131C51.2034 62.1208 51.0618 62.386 50.7779 62.6131C50.5228 62.8403 50.0965 62.9919 49.5287 63.03L49.2161 63.0487H41.0669V65.0166ZM72.6064 61.5911C72.6064 63.6158 74.1114 64.7514 77.1489 64.9793C77.4328 64.998 77.7167 65.0166 78.0006 65.0166H85.6955V63.0487H77.9445C76.2123 63.0487 75.5597 62.6131 75.5597 61.5717V51.3884H72.6071V61.5911H72.6064ZM56.0694 61.6931V54.6746C56.0694 52.8921 57.3214 51.8103 59.7968 51.4689C60.0606 51.4311 60.3267 51.4121 60.5932 51.4121H66.1987C66.4833 51.4121 66.7392 51.4308 67.0231 51.4689C69.4985 51.8103 70.7513 52.8913 70.7513 54.6746V61.6931C70.7513 63.1407 70.2194 63.9141 68.9939 64.4186L71.9034 67.0442H68.4743L66.1211 64.9196L63.7521 65.0698H60.5932C60.0064 65.0661 59.4227 64.9832 58.8581 64.8233C56.98 64.3116 56.0694 63.3247 56.0694 61.6931ZM59.2563 61.5228C59.2563 61.6177 59.2843 61.7133 59.3131 61.8268C59.4834 62.6426 60.2525 63.0976 61.4183 63.0976H64.1007L61.6368 60.8731H65.066L67.2143 62.8137C67.6111 62.6016 67.8712 62.2796 67.9625 61.8649C67.9906 61.7701 67.9905 61.6752 67.9905 61.5803V54.8471C67.9905 54.7716 67.9906 54.676 67.9625 54.5811C67.7915 53.8221 67.0231 53.3866 65.8853 53.3866H61.4176C60.1095 53.3866 59.2556 53.9558 59.2556 54.8471V61.5228H59.2563Z" fill="#E48E00"/>
<path d="M88.2931 48.1218C86.4782 48.0722 85.0918 48.2411 83.9058 48.7406C83.5687 48.8829 83.0318 48.8865 82.9772 49.3084C83.1619 49.5032 83.1907 49.7929 83.338 50.0315C83.6212 50.4893 84.0992 51.1031 84.5254 51.4244C84.9904 51.7759 85.4705 52.1525 85.9708 52.4573C86.8584 52.9992 87.8503 53.3083 88.7064 53.8502C89.2102 54.1708 89.7104 54.5733 90.2028 54.9348C90.4464 55.1123 90.6089 55.3905 90.9259 55.5019V55.4509C90.7598 55.2396 90.7167 54.9492 90.5643 54.7278L89.893 54.0565C89.2368 53.1854 88.4045 52.4213 87.5183 51.786C86.8125 51.2792 85.2326 50.5943 84.9379 49.7727L84.8862 49.7217C85.3864 49.6649 85.9729 49.4838 86.4344 49.3602C87.2106 49.1517 87.9042 49.2056 88.7056 48.9986L89.7895 48.6881V48.4826C89.3849 48.0672 89.0952 47.5166 88.6539 47.1407C87.4989 46.1567 86.2367 45.1735 84.9379 44.3526C84.2178 43.8984 83.3272 43.603 82.5632 43.2177C82.3073 43.0876 81.8559 43.0208 81.6856 42.8045C81.2838 42.2934 81.066 41.6458 80.7563 41.05C80.0947 39.7628 79.475 38.4545 78.8983 37.1271C78.5073 36.2322 78.2514 35.3496 77.7634 34.5467C75.4195 30.6935 72.8967 28.3676 68.9889 26.082C68.1573 25.5954 67.1561 25.4042 66.0988 25.1534L64.3953 25.0499C64.0496 24.9054 63.6888 24.4814 63.3632 24.2758C62.068 23.4579 58.7474 21.679 57.7886 24.0185C57.1834 25.4948 58.6942 26.9352 59.234 27.6834C59.6128 28.2081 60.0987 28.796 60.3696 29.3861C60.5479 29.7742 60.5781 30.1631 60.7312 30.5735C61.1056 31.5841 61.4327 32.6845 61.9178 33.6181C62.1629 34.0911 62.4339 34.5891 62.7437 35.0118C62.9334 35.2705 63.2597 35.3855 63.3108 35.7859C62.9924 36.2315 62.9737 36.9244 62.7947 37.4886C61.9883 40.0322 62.2923 43.194 63.466 45.0764C63.8261 45.655 64.6742 46.8941 65.84 46.4183C66.8599 46.0029 66.6328 44.7156 66.9246 43.5793C66.9908 43.3227 66.9498 43.1329 67.0792 42.9604V43.0122L68.0085 44.8701C68.6964 45.9777 69.9161 47.1342 70.9504 47.9155C71.4865 48.3201 71.9092 49.0209 72.602 49.2574V49.2049H72.551C72.4159 48.9958 72.2067 48.9095 72.0342 48.7406C71.6303 48.3446 71.1811 47.853 70.8476 47.3987C69.9067 46.1222 69.0759 44.7242 68.3183 43.2695C67.9568 42.5752 67.6427 41.809 67.3379 41.1017C67.22 40.8293 67.2215 40.4168 66.9771 40.2766C66.6422 40.7941 66.1513 41.2132 65.8925 41.8248C65.4799 42.8023 65.4268 43.9947 65.2737 45.231L65.1702 45.282C64.4507 45.1088 64.1984 44.3685 63.931 43.7338C63.2554 42.1288 63.1296 39.5435 63.7248 37.6956C63.8786 37.2169 64.5736 35.7111 64.2919 35.2691C64.1574 34.8285 63.714 34.5741 63.4667 34.2362C63.1423 33.7842 62.8656 33.2998 62.6409 32.7908C62.0874 31.5395 61.8294 30.1343 61.2479 28.8686C60.9691 28.2634 60.499 27.6518 60.1123 27.1141C59.6847 26.5176 59.2053 26.0791 58.8732 25.359C58.7553 25.1031 58.595 24.6927 58.7697 24.4296C58.825 24.2521 58.9048 24.1781 59.0802 24.1198C59.3792 23.8891 60.2129 24.1967 60.5249 24.3261C61.3529 24.6704 62.0436 24.9974 62.7451 25.4617C63.0815 25.6853 63.4214 26.1165 63.829 26.2358H64.2933C65.0199 26.4026 65.8343 26.2869 66.5128 26.4931C67.7131 26.8583 68.7884 27.4254 69.7644 28.0421C72.7393 29.9209 75.1709 32.5946 76.8355 35.7844C77.1028 36.2983 77.2193 36.7878 77.4543 37.3326C77.9301 38.4309 78.5296 39.5615 79.0025 40.636C79.4747 41.7076 79.9354 42.7894 80.6032 43.6813C80.9539 44.15 82.3095 44.4015 82.9254 44.6617C83.3574 44.8443 84.0647 45.0347 84.4736 45.2806C85.2549 45.7521 86.0125 46.3134 86.7449 46.8295C87.1107 47.0896 88.237 47.6553 88.2931 48.1218ZM65.2219 28.4575C64.909 28.4524 64.5967 28.4871 64.2926 28.561V28.612H64.3443C64.5247 28.9836 64.8431 29.2222 65.0667 29.5414L65.5834 30.6252L65.6345 30.5742C65.9543 30.3492 66.1002 29.9891 66.0988 29.4386C65.9701 29.3035 65.9514 29.1346 65.8408 28.9743C65.6941 28.7586 65.4081 28.6379 65.2219 28.4575Z" fill="#00618A"/>
</svg>
