<svg width="95" height="14" viewBox="0 0 95 14" fill="none" xmlns="http://www.w3.org/2000/svg">
<path d="M40.9044 8.85177H47.1541L43.8489 3.53427L37.7829 13.1485H35.0221L42.4006 1.60002C42.5628 1.36666 42.7794 1.17648 43.0319 1.04602C43.2843 0.915562 43.5648 0.84879 43.8489 0.851521C44.4226 0.851521 44.9574 1.12377 45.2679 1.58052L52.6749 13.1485H49.9141L48.6121 10.9998H42.2836L40.9044 8.85177ZM69.5807 10.9998V0.968522H67.2384V11.9823C67.2384 12.2838 67.3554 12.5755 67.5789 12.799C67.8024 13.0225 68.1039 13.1485 68.4346 13.1485H79.1176L80.4984 10.9998H69.5807ZM30.8229 9.20202C33.0976 9.20202 34.9449 7.36527 34.9449 5.09052C34.9449 2.81577 33.0984 0.968522 30.8229 0.968522H20.5741V13.1493H22.9164V3.11652H30.6676C31.7566 3.11652 32.6311 4.00152 32.6311 5.08977C32.6311 6.17802 31.7559 7.06302 30.6676 7.06302L24.0631 7.05327L31.0561 13.1485H34.4596L29.7541 9.20127H30.8229V9.20202ZM6.15839 13.1485C2.79614 13.1485 0.0668945 10.4268 0.0668945 7.06302C0.0668945 3.69927 2.79539 0.967773 6.15839 0.967773H13.2376C16.6014 0.967773 19.3284 3.70002 19.3284 7.06302C19.3284 10.426 16.6014 13.1485 13.2376 13.1485H6.15839ZM13.0801 10.9998C13.5977 11.0006 14.1103 10.8993 14.5886 10.7018C15.067 10.5044 15.5017 10.2145 15.868 9.84889C16.2342 9.48326 16.5248 9.04902 16.7231 8.57099C16.9214 8.09297 17.0235 7.58054 17.0236 7.06302C17.0238 6.01673 16.6086 5.01319 15.8691 4.273C15.1296 3.53281 14.1264 3.11657 13.0801 3.11577H6.31439C5.26837 3.11696 4.2656 3.53338 3.52644 4.27353C2.78728 5.01368 2.3722 6.01699 2.37239 7.06302C2.37249 7.58042 2.47456 8.09272 2.67276 8.57065C2.87097 9.04858 3.16142 9.48275 3.52752 9.84836C3.89362 10.214 4.32818 10.5038 4.80637 10.7014C5.28456 10.899 5.797 11.0004 6.31439 10.9998H13.0801ZM57.5656 13.1485C54.2026 13.1485 51.4711 10.4268 51.4711 7.06302C51.4711 3.69927 54.2026 0.967773 57.5656 0.967773H65.9746L64.6029 3.11577H57.7216C56.6749 3.11637 55.6712 3.53241 54.9309 4.27251C54.1907 5.01261 53.7744 6.01626 53.7736 7.06302C53.7736 9.24027 55.5436 10.9998 57.7216 10.9998H66.1689L64.7889 13.1485H57.5656ZM86.2134 10.9998C85.3553 11.0002 84.5205 10.7202 83.8361 10.2025C83.1517 9.68476 82.6552 8.95765 82.4221 8.13177H92.4346L93.8146 5.98377H82.4221C82.657 5.15891 83.154 4.43291 83.838 3.91549C84.5219 3.39807 85.3558 3.11735 86.2134 3.11577H93.0856L94.4762 0.967773H86.0574C82.6944 0.967773 79.9629 3.70002 79.9629 7.06302C79.9629 10.426 82.6944 13.1485 86.0574 13.1485H93.2806L94.6614 10.9998H86.2134Z" fill="#EA1B22"/>
</svg>
