<svg width="48" height="8" viewBox="0 0 48 8" fill="none" xmlns="http://www.w3.org/2000/svg">
<path d="M20.7703 4.92587H23.8952L22.2426 2.26712L19.2096 7.07424H17.8292L21.5184 1.3C21.5995 1.18332 21.7078 1.08822 21.834 1.02299C21.9603 0.957765 22.1005 0.92438 22.2426 0.925745C22.5294 0.925745 22.7968 1.06187 22.9521 1.29025L26.6556 7.07424H25.2752L24.6242 5.99987H21.4599L20.7703 4.92587ZM35.1084 5.99987V0.984246H33.9373V6.49112C33.9373 6.64187 33.9958 6.78775 34.1076 6.8995C34.2193 7.01125 34.3701 7.07424 34.5354 7.07424H39.8769L40.5673 5.99987H35.1084ZM15.7296 5.10099C16.8669 5.10099 17.7906 4.18262 17.7906 3.04525C17.7906 1.90787 16.8673 0.984246 15.7296 0.984246H10.6052V7.07462H11.7763V2.05825H15.6519C16.1964 2.05825 16.6337 2.50075 16.6337 3.04487C16.6337 3.589 16.1961 4.0315 15.6519 4.0315L12.3497 4.02662L15.8462 7.07424H17.5479L15.1952 5.10062H15.7296V5.10099ZM3.39731 7.07424C1.71619 7.07424 0.351562 5.71337 0.351562 4.0315C0.351562 2.34962 1.71581 0.983871 3.39731 0.983871H6.93694C8.61881 0.983871 9.98231 2.35 9.98231 4.0315C9.98231 5.713 8.61881 7.07424 6.93694 7.07424H3.39731ZM6.85819 5.99987C7.11695 6.00027 7.37325 5.94964 7.61243 5.85091C7.85161 5.75217 8.06898 5.60725 8.25211 5.42443C8.43524 5.24162 8.58053 5.02449 8.67968 4.78548C8.77883 4.54647 8.82989 4.29026 8.82994 4.0315C8.83004 3.50835 8.62239 3.00658 8.25265 2.63649C7.88291 2.26639 7.38133 2.05827 6.85819 2.05787H3.47531C2.9523 2.05847 2.45092 2.26668 2.08134 2.63675C1.71176 3.00682 1.50421 3.50848 1.50431 4.0315C1.50436 4.29019 1.5554 4.54635 1.6545 4.78531C1.7536 5.02427 1.89883 5.24136 2.08187 5.42417C2.26492 5.60697 2.48221 5.75191 2.7213 5.85069C2.9604 5.94947 3.21661 6.00017 3.47531 5.99987H6.85819ZM29.1009 7.07424C27.4194 7.07424 26.0537 5.71337 26.0537 4.0315C26.0537 2.34962 27.4194 0.983871 29.1009 0.983871H33.3054L32.6196 2.05787H29.1789C28.6556 2.05817 28.1537 2.26619 27.7836 2.63624C27.4135 3.00629 27.2053 3.50811 27.2049 4.0315C27.2049 5.12012 28.0899 5.99987 29.1789 5.99987H33.4026L32.7126 7.07424H29.1009ZM43.4248 5.99987C42.9957 6.00006 42.5784 5.86008 42.2362 5.60122C41.894 5.34237 41.6457 4.97881 41.5292 4.56587H46.5354L47.2254 3.49187H41.5292C41.6466 3.07944 41.8951 2.71644 42.2371 2.45773C42.5791 2.19902 42.996 2.05866 43.4248 2.05787H46.8609L47.5562 0.983871H43.3468C41.6653 0.983871 40.2996 2.35 40.2996 4.0315C40.2996 5.713 41.6653 7.07424 43.3468 7.07424H46.9584L47.6488 5.99987H43.4248Z" fill="#EA1B22"/>
</svg>
