<svg width="71" height="37" viewBox="0 0 71 37" fill="none" xmlns="http://www.w3.org/2000/svg">
<path d="M35.4999 0.812744C16.311 0.812744 0.753906 8.51503 0.753906 18.0159C0.753906 27.5168 16.311 35.2191 35.4999 35.2191C54.6889 35.2191 70.2459 27.5168 70.2459 18.0159C70.2459 8.51503 54.6889 0.812744 35.4999 0.812744ZM26.4588 21.3675C25.6296 22.1254 24.7088 22.4383 23.6948 22.7605C22.6807 23.0834 21.3903 23.0167 19.8212 23.0167H16.2649L15.2793 28.5731H11.127L14.8323 9.68132H22.8172C25.2195 9.68132 26.9718 10.3564 28.0734 11.5883C29.1751 12.8201 29.5061 14.5687 29.067 16.7763C28.8856 17.6859 28.5802 18.5316 28.1491 19.285C27.7023 20.0624 27.1318 20.7654 26.4588 21.3675ZM38.579 23.0167L40.2175 15.0044C40.4041 14.0664 40.3358 13.3697 40.0122 13.029C39.688 12.6879 38.9987 12.4595 37.9449 12.4595H34.6519L32.53 23.0167H28.4101L32.1154 4.68055H36.2353L35.2502 9.68132H38.9203C41.2299 9.68132 42.8223 10.1342 43.6987 10.9209C44.5751 11.7077 44.8379 12.7857 44.4876 14.5482L42.7637 23.0167H38.579ZM61.4755 16.8057C61.2947 17.7153 60.9887 18.5466 60.5582 19.2994C60.1271 20.0535 59.564 20.743 58.8685 21.3675C58.0393 22.1254 57.1179 22.4383 56.1044 22.7605C55.091 23.0834 53.7994 23.0167 52.2303 23.0167H48.674L47.6889 28.5731H43.5366L47.2413 9.68132H55.2269C57.6292 9.68132 59.3815 10.3564 60.4825 11.5883C61.583 12.8201 61.9146 14.5987 61.4755 16.8057ZM53.6532 12.4595H50.809L49.2581 20.2385H51.7844C53.4576 20.2385 54.7054 20.0773 55.5243 19.4606C56.3444 18.8449 56.8967 17.8892 57.1839 16.4485C57.4592 15.0644 57.334 13.9848 56.8085 13.4158C56.2825 12.8468 55.2309 12.4595 53.6532 12.4595ZM21.2441 12.4595H18.3993L16.8484 20.2385H19.3741C21.0479 20.2385 22.2951 20.0773 23.1147 19.4606C23.9342 18.8449 24.487 17.8892 24.7737 16.4485C25.0489 15.0644 24.9238 13.9848 24.3983 13.4158C23.8728 12.8468 22.8218 12.4595 21.2441 12.4595Z" fill="#6181B6"/>
</svg>
