<svg width="32" height="32" viewBox="0 0 32 32" fill="none" xmlns="http://www.w3.org/2000/svg">
<path fill-rule="evenodd" clip-rule="evenodd" d="M15.8525 25.0548C16.3005 25.4253 16.8257 25.5833 17.3927 25.6125C17.6272 25.6248 17.8685 25.6133 18.0992 25.5713C18.4652 25.5048 18.8302 25.4212 19.1862 25.314C19.9112 25.0952 20.5377 24.7173 21.0055 24.1068C21.272 23.7588 21.4907 23.3825 21.6312 22.9665C21.7472 22.6232 21.8562 22.2765 21.943 21.9252C22.0115 21.6485 22.0455 21.3627 22.087 21.08C22.1147 20.893 22.1315 20.704 22.1487 20.5152C22.1767 20.209 22.206 19.9032 22.2262 19.5963C22.2405 19.3828 22.24 19.1683 22.2482 18.9545C22.251 18.8892 22.2615 18.8245 22.2677 18.7598C22.273 18.6995 22.3035 18.6788 22.365 18.6798C22.581 18.683 22.7975 18.6885 23.0132 18.6787C23.255 18.668 23.4985 18.6575 23.7365 18.6178C24.0752 18.561 24.4112 18.4893 24.7435 18.4028C25.1355 18.3 25.4952 18.1162 25.8417 17.9072C26.2447 17.6635 26.6127 17.3778 26.9105 17.0095C27.1702 16.689 27.2932 16.3175 27.2305 15.9122C27.1395 15.3235 26.6447 14.9377 26.0695 14.9115C25.861 14.902 25.6495 14.924 25.442 14.9502C25.1907 14.9822 24.9432 15.0388 24.6927 15.076C24.5197 15.102 24.3445 15.1135 24.172 15.1315L24.1672 15.109C24.4897 14.4998 24.8257 13.8975 25.1307 13.28C25.365 12.806 25.565 12.3153 25.7717 11.8278C26.1142 11.0208 26.3875 10.189 26.614 9.34325C26.8307 8.53375 27.0162 7.7155 27.075 6.8755C27.0985 6.54025 27.1147 6.2035 27.1125 5.86775C27.111 5.59975 27.082 5.3315 27.0552 5.0645C27.0247 4.7585 26.9322 4.4685 26.8042 4.1895C26.6357 3.8215 26.374 3.51975 26.0987 3.23325C25.8785 3.00375 25.636 2.79475 25.3957 2.58575C25.053 2.28775 24.6675 2.0495 24.2675 1.83825C23.8141 1.59741 23.3337 1.41111 22.8365 1.28325C22.5335 1.20685 22.2286 1.13841 21.922 1.078C21.813 1.056 21.703 1 21.5932 1H19.5262C19.4515 1 19.3775 1.049 19.3022 1.05725C18.8075 1.11125 18.3191 1.21212 17.8435 1.3585C17.666 1.41325 17.504 1.38125 17.3352 1.3655C17.2057 1.3535 17.0785 1.32025 16.949 1.31375C16.4562 1.28925 15.963 1.25375 15.47 1.259C14.998 1.264 14.5307 1.342 14.074 1.4715C13.6917 1.5805 13.3175 1.71275 12.9745 1.914C12.828 2 12.7115 1.98375 12.5597 1.94025C12.0501 1.79095 11.536 1.65722 11.0182 1.53925C10.6955 1.467 10.3632 1.4305 10.0335 1.3965C9.71702 1.36363 9.39933 1.34386 9.08123 1.33725C8.77073 1.3305 8.45823 1.33075 8.14898 1.35825C7.65673 1.402 7.17398 1.502 6.70448 1.6635C6.18694 1.84044 5.70335 2.1043 5.27448 2.44375C4.83698 2.79 4.48598 3.21225 4.20423 3.695C3.90698 4.20425 3.70273 4.7495 3.57623 5.32175C3.50748 5.632 3.53273 5.951 3.48548 6.266C3.47098 6.3635 3.50023 6.4615 3.50023 6.5595V7.93075C3.50023 8.02175 3.47348 8.113 3.48498 8.2045C3.51323 8.42425 3.50348 8.64575 3.54073 8.864C3.59923 9.2095 3.65198 9.55375 3.72298 9.89675C3.82223 10.376 3.91698 10.8547 4.02698 11.3317C4.10698 11.679 4.19373 12.0243 4.28898 12.3675C4.43398 12.892 4.57548 13.4172 4.73973 13.9355C4.89248 14.4172 5.06648 14.892 5.24023 15.367C5.47831 16.0238 5.77013 16.6599 6.11273 17.2687C6.41148 17.7965 6.75223 18.2908 7.20973 18.697C7.51148 18.965 7.84673 19.1707 8.23698 19.2738C8.54183 19.3547 8.86134 19.3636 9.17023 19.2997C9.52829 19.227 9.8628 19.0668 10.144 18.8335C10.177 18.8067 10.2127 18.786 10.252 18.8355C10.4005 19.0235 10.599 19.149 10.8067 19.2572C11.3672 19.5497 11.978 19.6375 12.5982 19.673C12.7487 19.6815 12.9002 19.66 13.0515 19.656C13.3467 19.6478 13.6332 19.5903 13.915 19.5088C14.063 19.466 14.2072 19.4115 14.3577 19.361C14.3655 19.5212 14.3755 19.6753 14.3805 19.8295L14.4012 20.6702C14.4052 20.7983 14.4102 20.9262 14.422 21.0537C14.4525 21.3822 14.4822 21.7108 14.5215 22.0382C14.5485 22.264 14.577 22.4912 14.63 22.7118C14.7365 23.1561 14.8823 23.5901 15.0655 24.0088C15.2409 24.4151 15.5107 24.7736 15.8525 25.0548ZM14.9547 20.8627C14.937 20.468 14.9237 20.0731 14.915 19.678C14.9045 19.1925 14.901 18.7068 14.8942 18.2213L14.893 18.2027C14.6462 18.351 14.403 18.513 14.1457 18.6467C13.844 18.8035 13.5165 18.8943 13.1772 18.92C12.9115 18.94 12.6417 18.9583 12.3772 18.9373C11.9432 18.902 11.5092 18.8343 11.1207 18.6203C10.9632 18.5335 10.7987 18.4277 10.69 18.2895C10.4297 17.9572 10.5545 17.5375 10.947 17.3355C11.2182 17.1955 11.5142 17.1373 11.8082 17.0693C12.0641 17.0112 12.3174 16.942 12.5672 16.8617C12.8137 16.781 12.9692 16.581 13.123 16.3848L13.3665 16.0718L13.0737 16.0413C12.7832 16.0142 12.506 15.934 12.241 15.8165C12.0145 15.7162 12.011 15.7052 11.8445 15.8857C11.567 16.187 11.297 16.4957 11.0247 16.8022C10.8245 17.0278 10.6257 17.2545 10.426 17.4807C10.229 17.7045 10.044 17.9408 9.83123 18.1488C9.51573 18.4578 9.13523 18.6435 8.68123 18.6225C8.38998 18.609 8.12348 18.507 7.88348 18.3403C7.38873 17.9958 7.05548 17.5133 6.75173 17.007C6.36298 16.358 6.06423 15.6667 5.80898 14.9567C5.63223 14.4657 5.45448 13.9745 5.30048 13.4765C5.13273 12.9352 4.98548 12.3878 4.84073 11.8398C4.73123 11.4265 4.63423 11.0097 4.54173 10.5922C4.43524 10.1177 4.33673 9.64137 4.24623 9.1635C4.18598 8.84075 4.15123 8.51325 4.10248 8.1885C4.03673 7.75025 4.02473 7.3085 4.04873 6.86875C4.06998 6.4725 4.12673 6.0775 4.18323 5.684C4.26148 5.1395 4.44098 4.62575 4.69898 4.1405C4.85813 3.8448 5.05319 3.56989 5.27973 3.322C5.65223 2.90975 6.10298 2.612 6.60448 2.38825C6.95473 2.232 7.32498 2.13825 7.70223 2.0645C8.26223 1.9555 8.82723 1.96 9.39223 1.9715C9.63923 1.97675 9.88548 2.0215 10.1322 2.04625C10.6637 2.099 11.1845 2.211 11.6987 2.34875C12.0737 2.44925 12.441 2.57975 12.8125 2.69275C12.8495 2.704 12.9042 2.703 12.935 2.68325C13.4387 2.35425 13.989 2.13725 14.5747 2.013C14.797 1.966 15.0265 1.94525 15.2537 1.93075C15.5297 1.9135 15.8085 1.897 16.084 1.91325C16.4152 1.93225 16.7455 1.981 17.0747 2.026C17.2347 2.048 17.3907 2.10325 17.5507 2.11825C17.6277 2.1255 17.709 2.06975 17.79 2.05075C18.2035 1.955 18.6152 1.84875 19.0325 1.7735C19.343 1.7175 19.6605 1.691 19.976 1.673C20.3285 1.65275 20.683 1.638 21.035 1.655C21.48 1.6765 21.9217 1.73975 22.3577 1.84125C22.8982 1.967 23.4162 2.1495 23.909 2.403C24.2772 2.59275 24.627 2.81225 24.9422 3.08225C25.1487 3.2595 25.3602 3.43425 25.5465 3.63175C25.7765 3.87525 26.011 4.1185 26.1555 4.43025C26.2642 4.6655 26.3417 4.909 26.3632 5.16625C26.3897 5.4865 26.422 5.80775 26.4192 6.1285C26.4165 6.435 26.3745 6.74125 26.345 7.04725C26.2772 7.74425 26.126 8.42625 25.9417 9.09925C25.788 9.65515 25.6138 10.2052 25.4195 10.7483C25.2422 11.249 25.0375 11.7405 24.8307 12.2303C24.6783 12.5929 24.5129 12.9498 24.3347 13.3005C23.9962 13.9635 23.6442 14.6198 23.237 15.2448C23.1667 15.3525 23.1 15.463 23.0315 15.5732C23.2092 15.693 23.4105 15.7352 23.613 15.7572C23.8057 15.778 24.0022 15.7907 24.1947 15.7762C24.503 15.7533 24.8102 15.7093 25.1167 15.6665C25.4202 15.624 25.7175 15.5378 26.0295 15.5605C26.3405 15.5833 26.5635 15.8197 26.5422 16.1112C26.5287 16.2957 26.444 16.454 26.3215 16.5893C25.7427 17.2278 25.0162 17.6147 24.1852 17.8055C23.8695 17.878 23.544 17.9152 23.2207 17.9455C22.9447 17.9699 22.6674 17.9764 22.3905 17.965C22.1875 17.9575 21.9862 17.911 21.7787 17.881C21.7577 18.0708 21.738 18.2685 21.714 18.4655L21.6172 19.2213C21.588 19.4608 21.5652 19.7013 21.535 19.9408C21.5055 20.1733 21.4687 20.4045 21.4377 20.6367C21.409 20.853 21.3877 21.0705 21.3552 21.2865C21.306 21.6175 21.2587 21.9492 21.194 22.2778C21.1165 22.6702 20.998 23.0502 20.8037 23.4045C20.5672 23.8367 20.232 24.166 19.805 24.4097C19.365 24.661 18.8837 24.7917 18.3965 24.9013C18.051 24.979 17.6957 24.9915 17.346 24.9597C16.7397 24.905 16.2222 24.6458 15.831 24.1755C15.4577 23.7268 15.205 23.2128 15.1147 22.6305C15.0722 22.3535 15.0392 22.075 15.0157 21.7957C14.9887 21.4852 14.9683 21.1742 14.9547 20.8627ZM15.6362 16.8743C15.64 17.0818 15.6185 17.2892 15.6195 17.4967C15.6237 18.4625 15.6307 19.4285 15.639 20.3945C15.6405 20.5522 15.6482 20.7105 15.6595 20.868C15.6832 21.198 15.7067 21.5282 15.7387 21.8573C15.7617 22.091 15.793 22.324 15.8297 22.556C15.8822 22.8843 16.0317 23.1767 16.2012 23.4565C16.3472 23.697 16.5375 23.901 16.7877 24.042C17.2132 24.2812 17.671 24.3012 18.1325 24.2132C18.4442 24.154 18.7507 24.0582 19.0532 23.9595C19.351 23.864 19.6228 23.7014 19.8477 23.4842C20.06 23.2787 20.2105 23.028 20.312 22.7512C20.5087 22.2147 20.5705 21.6495 20.6517 21.089C20.6822 20.879 20.7087 20.6685 20.7365 20.4583C20.7682 20.219 20.8002 19.98 20.8307 19.7407C20.8537 19.5623 20.8742 19.384 20.896 19.2057C20.9272 18.9497 20.96 18.694 20.9897 18.438C21.0125 18.24 21.0315 18.0413 21.052 17.8428C21.078 17.589 21.1057 17.336 21.1285 17.0818C21.1455 16.8893 21.1385 16.693 21.1727 16.5037C21.2355 16.157 21.3995 15.862 21.707 15.671C21.8355 15.5915 21.981 15.539 22.1235 15.4715L22.099 15.4342C21.9672 15.2633 21.8322 15.095 21.703 14.922C21.5 14.6505 21.354 14.3477 21.2072 14.0435C21.0682 13.755 20.8982 13.482 20.752 13.1967C20.4967 12.6992 20.2367 12.203 20.0015 11.6962C19.7057 11.0588 19.4727 10.3993 19.3995 9.69325C19.3682 9.39475 19.3602 9.09625 19.421 8.8005C19.5177 8.328 19.7642 7.9585 20.1792 7.705C20.5642 7.47 20.993 7.394 21.4322 7.37025C21.7047 7.3555 21.979 7.3675 22.2617 7.3675L22.2525 7.31975C22.0765 6.95175 21.9122 6.5775 21.7195 6.2185C21.448 5.7115 21.1 5.2545 20.713 4.83025C20.4274 4.51479 20.1136 4.22609 19.7755 3.96775C19.441 3.7145 19.0885 3.48825 18.7122 3.3035C18.2653 3.08117 17.7932 2.9133 17.3062 2.8035C16.835 2.699 16.3612 2.635 15.8777 2.62975C15.4657 2.62525 15.0562 2.64425 14.6547 2.737C14.0487 2.87725 13.4945 3.12675 13.0127 3.53075C12.7459 3.75442 12.5075 4.00999 12.303 4.29175C12.0612 4.623 11.8667 4.9815 11.7002 5.35675C11.4717 5.872 11.315 6.40775 11.2075 6.95875C11.154 7.23375 11.112 7.5105 11.0692 7.78725C11.0542 7.8845 11.0532 7.98325 11.0442 8.0945L11.2272 7.99925L11.4057 7.91925C12.01 7.643 12.6357 7.46525 13.3082 7.4855C13.5942 7.494 13.8672 7.55075 14.1217 7.676C14.6092 7.9165 14.8942 8.32525 15.0182 8.84225C15.1037 9.19925 15.1625 9.56325 15.2195 9.9265C15.264 10.21 15.3097 10.4965 15.3147 10.7825C15.322 11.2005 15.301 11.6195 15.2782 12.0372C15.2588 12.3925 15.1853 12.7427 15.0602 13.0758C14.8342 13.6798 14.5822 14.274 14.347 14.8745C14.2692 15.073 14.2095 15.2782 14.1362 15.4965L14.4332 15.4967C14.4692 15.4975 14.506 15.4985 14.5407 15.5068C14.811 15.5705 15.0457 15.693 15.238 15.901C15.495 16.177 15.6295 16.5 15.6362 16.8743ZM10.4745 14.0105C10.3213 13.65 10.2289 13.2667 10.201 12.876C10.175 12.5075 10.2187 12.141 10.2567 11.774C10.2932 11.4187 10.3242 11.0617 10.3347 10.7052C10.3525 10.1185 10.313 9.53325 10.285 8.947C10.2682 8.598 10.3087 8.24475 10.3397 7.895C10.3677 7.58 10.4027 7.26425 10.4625 6.95375C10.5622 6.43275 10.695 5.91925 10.8837 5.4215C11.0625 4.9495 11.2685 4.49025 11.5585 4.0765C11.7577 3.7925 11.9832 3.52775 12.2 3.25025L12.1355 3.22725C11.4297 3.00325 10.7122 2.82775 9.97398 2.7515C9.62523 2.71525 9.27498 2.69425 8.92523 2.67325C8.81773 2.667 8.70873 2.6815 8.60098 2.69175C8.33423 2.7175 8.06398 2.7275 7.80148 2.7775C7.35473 2.8625 6.92598 3.0055 6.52923 3.23825C6.17811 3.44486 5.87029 3.71745 5.62273 4.041C5.34598 4.39875 5.15923 4.80325 5.02548 5.23425C4.86748 5.743 4.79198 6.26675 4.77173 6.795C4.75398 7.25825 4.74523 7.724 4.82523 8.1855C4.88448 8.52875 4.92423 8.876 4.98973 9.21825C5.07778 9.6849 5.17664 10.1494 5.28623 10.6115C5.44448 11.2725 5.60298 11.934 5.79073 12.587C5.97023 13.2122 6.17248 13.832 6.39248 14.4445C6.57198 14.9443 6.77973 15.4347 6.99848 15.9185C7.14098 16.2338 7.31348 16.5373 7.49448 16.8323C7.68673 17.1458 7.90573 17.4432 8.20223 17.6707C8.57698 17.9578 8.86673 18.0025 9.24773 17.6873C9.41073 17.5525 9.54848 17.3855 9.69048 17.2267C9.91573 16.9747 10.1332 16.7153 10.3577 16.462C10.6435 16.1397 10.9327 15.8208 11.22 15.4995C11.2807 15.4318 11.3395 15.3617 11.3985 15.2933L11.3002 15.2075C10.946 14.8691 10.665 14.4618 10.4745 14.0105ZM21.3097 4.40975C21.5447 4.68269 21.7676 4.96579 21.9777 5.25825C22.3806 5.82311 22.7048 6.44009 22.9415 7.09225C23.0465 7.381 23.1305 7.6725 23.093 7.98825C23.067 8.2095 23.0687 8.43375 23.0495 8.65625C23.0332 8.84125 23.0037 9.02525 22.98 9.20975C22.944 9.48775 22.892 9.76525 22.8765 10.0445C22.8615 10.3105 22.8772 10.579 22.894 10.8453C22.9107 11.116 22.9472 11.3855 22.972 11.6555C23 11.9623 23.038 12.2682 23.0465 12.5755C23.0535 12.8275 23.031 13.0808 23.0092 13.3328C22.9813 13.6347 22.908 13.9307 22.7917 14.2107C22.711 14.4092 22.6147 14.6013 22.524 14.7998L22.5605 14.8383L22.616 14.8813L22.6722 14.7812C23.1443 14.0384 23.5638 13.2635 23.9275 12.462C24.1607 11.9447 24.3819 11.422 24.591 10.8945C24.917 10.0745 25.1803 9.23087 25.3787 8.371C25.4687 7.985 25.5377 7.593 25.5987 7.201C25.6465 6.8945 25.686 6.5845 25.695 6.27525C25.7042 5.94725 25.6862 5.61675 25.656 5.28975C25.6332 5.04275 25.5722 4.79425 25.4177 4.593C25.1687 4.26975 24.9002 3.96075 24.57 3.716C24.2917 3.51025 24.0142 3.2985 23.716 3.1255C23.2427 2.85075 22.7305 2.66825 22.1952 2.54375C21.6725 2.422 21.1435 2.3695 20.611 2.35825C20.297 2.3515 19.9815 2.38525 19.6682 2.415C19.3842 2.4415 19.102 2.487 18.8162 2.5245C19.123 2.697 19.4257 2.8505 19.7107 3.03125C20.3107 3.41125 20.8487 3.8685 21.3097 4.40975ZM13.5147 15.0505C13.7085 14.4305 13.9727 13.838 14.2285 13.2425C14.4362 12.7593 14.5495 12.2505 14.5872 11.7275C14.606 11.4698 14.601 11.2087 14.5882 10.9502C14.5758 10.6626 14.5494 10.3758 14.5092 10.0907C14.4555 9.72725 14.3945 9.3635 14.3085 9.00675C14.2152 8.62075 13.9802 8.35175 13.5772 8.2525C13.332 8.19225 13.088 8.19475 12.8397 8.234C12.234 8.32925 11.6795 8.5525 11.163 8.8795C11.059 8.94525 11.0015 8.9985 11.0197 9.14725C11.0577 9.46325 11.066 9.78425 11.0645 10.103C11.0625 10.5542 11.0432 11.0055 11.0262 11.4565C11.0207 11.6033 10.9995 11.7498 10.9835 11.896C10.9595 12.12 10.9127 12.3438 10.9142 12.5675C10.9157 12.798 10.9392 13.0337 10.9952 13.257C11.173 13.965 11.549 14.544 12.1657 14.9528C12.545 15.2043 12.9645 15.3307 13.4252 15.355C13.4557 15.2492 13.484 15.1495 13.5147 15.0505ZM12.7907 8.97825C12.7095 8.808 12.756 8.66675 12.944 8.60125C12.99 8.5855 13.037 8.568 13.0845 8.5635C13.1502 8.557 13.2165 8.56175 13.2827 8.56175C13.5215 8.56325 13.751 8.5965 13.9477 8.748C14.0742 8.8455 14.1082 8.97425 14.0262 9.10725C13.91 9.2955 13.7332 9.39 13.5157 9.408C13.1735 9.43625 12.9332 9.27675 12.7907 8.97825ZM22.2845 8.916L22.3622 8.23475C22.3735 8.14375 22.3257 8.11875 22.2492 8.1165C22.0085 8.11 21.768 8.10125 21.5272 8.09725C21.2562 8.09225 20.992 8.13575 20.741 8.23875C20.4625 8.3535 20.2505 8.537 20.1637 8.84025C20.1003 9.0637 20.0802 9.29725 20.1047 9.52825C20.1386 9.88567 20.2195 10.2371 20.3455 10.5732C20.514 11.0215 20.69 11.4695 20.9007 11.899C21.186 12.4803 21.5085 13.0433 21.8115 13.6158C21.8922 13.7685 21.9607 13.9282 22.045 14.1065C22.2151 13.7519 22.308 13.3652 22.3175 12.972C22.3257 12.6468 22.3 12.3207 22.281 11.9955C22.2692 11.7965 22.241 11.5985 22.2217 11.4C22.195 11.1235 22.154 10.8468 22.1475 10.5695C22.1412 10.2875 22.1612 10.004 22.1852 9.72225C22.2077 9.45275 22.2522 9.185 22.2845 8.916ZM21.7422 8.6975C21.6527 8.94425 21.4617 9.08375 21.2137 9.1245C20.9827 9.16275 20.7802 9.0775 20.6297 8.893C20.5225 8.76175 20.5635 8.6065 20.7242 8.5175C20.9087 8.4155 21.1115 8.38975 21.3507 8.37425C21.416 8.386 21.5135 8.39625 21.6065 8.4225C21.7412 8.4605 21.7912 8.5625 21.7422 8.6975ZM14.5927 16.2983C14.4607 16.1903 14.2857 16.184 14.1602 16.3025C14.0042 16.45 13.867 16.6185 13.7297 16.7845C13.5715 16.9765 13.4225 17.176 13.2185 17.3248C12.9212 17.541 12.574 17.6305 12.2255 17.7153C11.9485 17.7827 11.67 17.8455 11.3922 17.91L11.3887 17.946C11.4712 17.984 11.551 18.0317 11.6372 18.059C12.061 18.193 12.4922 18.26 12.9402 18.222C13.2632 18.1943 13.5712 18.1238 13.863 17.9855C14.2647 17.7952 14.574 17.4935 14.8367 17.143C14.8807 17.0845 14.9007 16.998 14.9057 16.9225C14.9235 16.656 14.7882 16.4578 14.5927 16.2983ZM22.329 16.1828C22.1212 16.2525 21.9522 16.3588 21.902 16.5835C21.8677 16.7355 21.8552 16.8927 21.842 17.0485C21.8395 17.076 21.8737 17.1265 21.8997 17.1335C22.0597 17.1757 22.2207 17.2255 22.3842 17.2402C22.5855 17.2585 22.79 17.2528 22.9925 17.2428C23.211 17.2318 23.431 17.2175 23.6465 17.1815C24.1537 17.096 24.645 16.9575 25.081 16.6695C25.2385 16.5658 25.394 16.4598 25.5505 16.3542L25.5375 16.332C25.3707 16.3568 25.2045 16.387 25.037 16.4048C24.696 16.4413 24.3547 16.4798 24.0125 16.4995C23.8472 16.509 23.6797 16.4773 23.5132 16.4638C23.2337 16.441 22.9607 16.379 22.7245 16.2295C22.5882 16.1435 22.4742 16.134 22.329 16.1828Z" fill="#336791"/>
<path d="M0.708984 25.796C1.06793 25.7378 1.4311 25.7095 1.79473 25.7115C2.35348 25.7115 2.76323 25.8415 3.02323 26.0755C3.26373 26.2835 3.40673 26.602 3.40673 26.9923C3.40673 27.3888 3.28948 27.7007 3.06848 27.9282C2.76948 28.2467 2.28198 28.4093 1.72948 28.4093C1.56048 28.4093 1.40448 28.4028 1.27473 28.3703V30.1255H0.708984V25.796ZM1.27473 27.9085C1.39823 27.941 1.55423 27.954 1.74273 27.954C2.42498 27.954 2.84123 27.6225 2.84123 27.018C2.84123 26.4395 2.43173 26.16 1.80773 26.16C1.56073 26.16 1.37223 26.1795 1.27473 26.2055V27.9085ZM6.83223 28.526C6.83223 29.6895 6.02598 30.1968 5.26548 30.1968C4.41398 30.1968 3.75748 29.5727 3.75748 28.578C3.75748 27.525 4.44648 26.9075 5.31748 26.9075C6.22123 26.9072 6.83223 27.564 6.83223 28.526ZM4.33623 28.5585C4.33623 29.2475 4.73273 29.7675 5.29173 29.7675C5.83773 29.7675 6.24698 29.254 6.24698 28.5455C6.24698 28.0125 5.98073 27.3365 5.30448 27.3365C4.62823 27.3365 4.33623 27.9605 4.33623 28.5585ZM7.47548 29.54C7.64448 29.6505 7.94348 29.7675 8.22948 29.7675C8.64548 29.7675 8.84048 29.5595 8.84048 29.2995C8.84048 29.0265 8.67823 28.877 8.25548 28.721C7.68998 28.5195 7.42348 28.2075 7.42348 27.8305C7.42348 27.3235 7.83298 26.9075 8.50898 26.9075C8.82748 26.9075 9.10723 26.9985 9.28273 27.1025L9.13973 27.5185C8.94628 27.3993 8.72347 27.3363 8.49623 27.3365C8.15824 27.3365 7.96973 27.5315 7.96973 27.7655C7.96973 28.0255 8.15848 28.1425 8.56798 28.2985C9.11399 28.5065 9.39349 28.7795 9.39349 29.2475C9.39349 29.8 8.96449 30.19 8.21698 30.19C7.87248 30.19 7.55398 30.1055 7.33298 29.9755L7.47548 29.54ZM10.8167 26.0753V26.9788H11.6355V27.4142H10.8167V29.1108C10.8167 29.5008 10.927 29.7218 11.2457 29.7218C11.3575 29.7234 11.4689 29.7102 11.5772 29.6828L11.6032 30.1117C11.493 30.1572 11.3172 30.1898 11.0965 30.1898C10.83 30.1898 10.6152 30.1052 10.4787 29.9492C10.3165 29.7802 10.2577 29.5008 10.2577 29.1303V27.4142H9.77024V26.9788H10.2577V26.2248L10.8167 26.0753ZM14.9507 26.979C14.9375 27.2065 14.9247 27.46 14.9247 27.8435V29.67C14.9247 30.3915 14.7817 30.8335 14.4762 31.1068C14.1707 31.3928 13.7287 31.4837 13.3322 31.4837C12.9552 31.4837 12.5392 31.3927 12.2855 31.2237L12.4285 30.7882C12.6365 30.9183 12.9615 31.0352 13.3515 31.0352C13.9365 31.0352 14.3655 30.7298 14.3655 29.9368V29.5858H14.3525C14.177 29.8783 13.839 30.1122 13.3515 30.1122C12.5715 30.1122 12.0125 29.4492 12.0125 28.578C12.0125 27.512 12.708 26.9075 13.4295 26.9075C13.9757 26.9075 14.2747 27.1935 14.4112 27.4535H14.4242L14.4502 26.979H14.9507ZM14.3592 28.2205C14.3592 28.123 14.3527 28.0385 14.3267 27.9605C14.2227 27.629 13.9432 27.356 13.5272 27.356C12.981 27.356 12.5912 27.8175 12.5912 28.5455C12.5912 29.163 12.9032 29.6765 13.5207 29.6765C13.8717 29.6765 14.1902 29.4555 14.3137 29.0915C14.3462 28.994 14.3595 28.8835 14.3595 28.786V28.2205H14.3592ZM15.8345 27.9605C15.8345 27.59 15.828 27.2715 15.8085 26.979H16.3092L16.3285 27.5965H16.3545C16.4975 27.174 16.842 26.9075 17.2255 26.9075C17.2905 26.9075 17.3357 26.914 17.3877 26.927V27.4665C17.3238 27.4526 17.2584 27.446 17.193 27.447C16.79 27.447 16.5037 27.7525 16.426 28.1815C16.4099 28.2695 16.4012 28.3586 16.4 28.448V30.125H15.8345V27.9605ZM18.2137 28.656C18.2267 29.4295 18.7205 29.748 19.2925 29.748C19.7022 29.748 19.949 29.6765 20.1635 29.5855L20.261 29.995C20.0595 30.086 19.715 30.19 19.2145 30.19C18.246 30.19 17.6675 29.553 17.6675 28.604C17.6675 27.655 18.2265 26.9072 19.143 26.9072C20.17 26.9072 20.443 27.8107 20.443 28.3892C20.443 28.5062 20.43 28.5973 20.4235 28.6558H18.2137V28.656ZM19.8907 28.2465C19.897 27.8825 19.741 27.317 19.0977 27.317C18.5192 27.317 18.2657 27.85 18.22 28.2465H19.8907ZM21.093 29.436C21.3994 29.6201 21.7495 29.7188 22.107 29.722C22.6855 29.722 23.0235 29.4165 23.0235 28.9745C23.0235 28.565 22.7895 28.331 22.198 28.1035C21.483 27.85 21.041 27.4795 21.041 26.862C21.041 26.1795 21.6065 25.6725 22.458 25.6725C22.9065 25.6725 23.2315 25.7765 23.4265 25.887L23.2705 26.3485C23.0148 26.211 22.7288 26.1395 22.4385 26.1405C21.8405 26.1405 21.613 26.498 21.613 26.797C21.613 27.2065 21.8792 27.408 22.484 27.642C23.225 27.9283 23.602 28.2855 23.602 28.929C23.602 29.605 23.1015 30.19 22.068 30.19C21.6455 30.19 21.184 30.0665 20.9497 29.9105L21.093 29.436ZM27.9895 30.7685C27.4244 30.6202 26.865 30.4511 26.3125 30.2615C26.2215 30.229 26.1305 30.1965 26.046 30.1965C25.006 30.1575 24.1155 29.3905 24.1155 27.98C24.1155 26.576 24.9735 25.6725 26.1565 25.6725C27.346 25.6725 28.1197 26.5955 28.1197 27.889C28.1197 29.0135 27.5997 29.735 26.8717 29.9885V30.0145C27.3072 30.125 27.7817 30.229 28.1522 30.294L27.9895 30.7685ZM27.5215 27.915C27.5215 27.0375 27.0667 26.1338 26.137 26.1338C25.1815 26.1338 24.7135 27.0177 24.72 27.967C24.7135 28.8965 25.227 29.735 26.111 29.735C27.0147 29.735 27.5215 28.916 27.5215 27.915ZM28.8537 25.744H29.4195V29.6505H31.2915V30.125H28.8537V25.744Z" fill="#336791"/>
</svg>
