<svg width="56" height="20" viewBox="0 0 56 20" fill="none" xmlns="http://www.w3.org/2000/svg">
<path d="M9.89755 9.99911V5.42451H6.41194L4.55427 3.54852V0.057373H0V4.63198H3.48562L5.35327 6.50797V8.92568L3.48562 10.8017H0V15.3763H4.55427V11.8851L6.42192 10.0091H9.89755V9.99911ZM1.51809 1.58224H3.03618V3.10711H1.51809V1.58224ZM3.03618 13.8414H1.51809V12.3165H3.03618V13.8414Z" fill="#FFAE1A"/>
<path d="M14.9411 19.9409H12.9336V9.99911H14.9411V10.601C15.2607 10.2098 15.9798 9.8386 16.7488 9.8386C18.8561 9.8386 20.0447 11.5942 20.0447 13.6407C20.0447 15.6873 18.8462 17.4228 16.7488 17.4228C15.9698 17.4228 15.2607 17.0516 14.9411 16.6604V19.9409ZM14.9411 14.8245C15.1989 15.3407 15.7244 15.6667 16.2994 15.6672C17.388 15.6672 18.0272 14.7944 18.0272 13.6407C18.0272 12.467 17.378 11.5942 16.2994 11.5942C15.7254 11.5979 15.2014 11.923 14.9411 12.4369V14.8245ZM27.3255 17.2623H25.318V16.6002C24.8166 17.1378 24.1139 17.4399 23.3805 17.4328C21.7625 17.4328 20.8436 16.3594 20.8436 14.7543V10.0091H22.8511V14.343C22.8511 15.1054 23.2207 15.6271 24.0197 15.6271C24.6389 15.6271 25.1682 15.2559 25.318 14.6239V10.0091H27.3355V17.2623H27.3255ZM30.6613 19.9409H28.6538V9.99911H30.6613V10.601C30.9809 10.2098 31.7 9.8386 32.469 9.8386C34.5764 9.8386 35.7649 11.5942 35.7649 13.6407C35.7649 15.6873 34.5664 17.4228 32.469 17.4228C31.69 17.4228 30.9809 17.0516 30.6613 16.6604V19.9409ZM30.6613 14.8245C30.9191 15.3407 31.4447 15.6667 32.0196 15.6672C33.1082 15.6672 33.7474 14.7944 33.7474 13.6407C33.7474 12.467 33.0982 11.5942 32.0196 11.5942C31.4456 11.5979 30.9216 11.923 30.6613 12.4369V14.8245ZM38.6512 19.9409H36.6438V9.99911H38.6512V10.601C38.9708 10.2098 39.6899 9.8386 40.459 9.8386C42.5663 9.8386 43.7548 11.5942 43.7548 13.6407C43.7548 15.6873 42.5563 17.4228 40.459 17.4228C39.68 17.4228 38.9708 17.0516 38.6512 16.6604V19.9409ZM38.6512 14.8245C38.9091 15.3407 39.4346 15.6667 40.0095 15.6672C41.0982 15.6672 41.7374 14.7944 41.7374 13.6407C41.7374 12.467 41.0882 11.5942 40.0095 11.5942C39.4355 11.5979 38.9115 11.923 38.6512 12.4369V14.8245ZM50.9558 14.8847C50.6961 16.4296 49.5675 17.4228 47.7498 17.4228C45.6425 17.4228 44.2442 15.8779 44.2442 13.6407C44.2442 11.4437 45.7024 9.8386 47.7198 9.8386C49.8372 9.8386 51.0057 11.3133 51.0057 13.4501V14.0721H46.1818C46.2417 15.1656 46.8609 15.8077 47.7498 15.8077C48.429 15.8077 48.9283 15.5167 49.0881 14.8947H50.9558V14.8847ZM46.2317 12.8382H49.0282C49.0082 12.0757 48.5588 11.4738 47.7298 11.4738C46.9608 11.4738 46.4115 11.9453 46.2317 12.8382ZM52.3141 11.6243H51.2154V9.99911H52.3141V8.03284H54.3016V9.99911H55.8896V11.6243H54.3016V14.8045C54.3016 15.3763 54.6112 15.6371 55.1305 15.6371C55.4362 15.6352 55.736 15.5521 55.9994 15.3963V17.182C55.7198 17.3325 55.2404 17.4128 54.7011 17.4128C53.2329 17.4128 52.3041 16.6804 52.3041 15.0753V11.6243H52.3141Z" fill="black"/>
</svg>
