<svg width="91" height="32" viewBox="0 0 91 32" fill="none" xmlns="http://www.w3.org/2000/svg">
<path d="M16.146 15.9986V8.67921H10.5442L7.55862 5.67763V0.0917969H0.239258V7.41116H5.84114L8.84272 10.4127V14.2811L5.84114 17.2827H0.239258V24.602H7.55862V19.0162L10.5602 16.0146H16.146V15.9986ZM2.67905 2.53159H5.11883V4.97137H2.67905V2.53159ZM5.11883 22.1462H2.67905V19.7064H5.11883V22.1462Z" fill="#FFAE1A"/>
<path d="M24.2517 31.9054H21.0254V15.9986H24.2517V16.9617C24.7653 16.3357 25.921 15.7418 27.157 15.7418C30.5438 15.7418 32.4539 18.5507 32.4539 21.8252C32.4539 25.0996 30.5277 27.8765 27.157 27.8765C25.905 27.8765 24.7653 27.2826 24.2517 26.6566V31.9054ZM24.2517 23.7192C24.6661 24.5451 25.5107 25.0668 26.4347 25.0675C28.1842 25.0675 29.2115 23.6711 29.2115 21.8252C29.2115 19.9472 28.1682 18.5507 26.4347 18.5507C25.5121 18.5567 24.67 19.0768 24.2517 19.899V23.7192ZM44.1552 27.6197H40.9289V26.5603C40.1231 27.4206 38.9937 27.9038 37.815 27.8926C35.2147 27.8926 33.738 26.1751 33.738 23.6069V16.0146H36.9643V22.9488C36.9643 24.1687 37.5582 25.0033 38.8423 25.0033C39.8374 25.0033 40.6882 24.4094 40.9289 23.3982V16.0146H44.1713V27.6197H44.1552ZM49.5163 31.9054H46.29V15.9986H49.5163V16.9617C50.03 16.3357 51.1857 15.7418 52.4216 15.7418C55.8084 15.7418 57.7185 18.5507 57.7185 21.8252C57.7185 25.0996 55.7924 27.8765 52.4216 27.8765C51.1696 27.8765 50.03 27.2826 49.5163 26.6566V31.9054ZM49.5163 23.7192C49.9307 24.5451 50.7753 25.0668 51.6993 25.0675C53.4489 25.0675 54.4762 23.6711 54.4762 21.8252C54.4762 19.9472 53.4328 18.5507 51.6993 18.5507C50.7768 18.5567 49.9347 19.0768 49.5163 19.899V23.7192ZM62.3573 31.9054H59.131V15.9986H62.3573V16.9617C62.871 16.3357 64.0267 15.7418 65.2626 15.7418C68.6494 15.7418 70.5595 18.5507 70.5595 21.8252C70.5595 25.0996 68.6334 27.8765 65.2626 27.8765C64.0106 27.8765 62.871 27.2826 62.3573 26.6566V31.9054ZM62.3573 23.7192C62.7717 24.5451 63.6163 25.0668 64.5403 25.0675C66.2899 25.0675 67.3172 23.6711 67.3172 21.8252C67.3172 19.9472 66.2738 18.5507 64.5403 18.5507C63.6178 18.5567 62.7757 19.0768 62.3573 19.899V23.7192ZM82.1325 23.8155C81.7151 26.2874 79.9013 27.8765 76.98 27.8765C73.5932 27.8765 71.346 25.4046 71.346 21.8252C71.346 18.31 73.6895 15.7418 76.9319 15.7418C80.3347 15.7418 82.2127 18.1013 82.2127 21.5202V22.5154H74.46C74.5563 24.265 75.5514 25.2923 76.98 25.2923C78.0715 25.2923 78.8741 24.8268 79.1309 23.8316H82.1325V23.8155ZM74.5402 20.5411H79.0346C79.0025 19.3212 78.2802 18.3581 76.9479 18.3581C75.712 18.3581 74.8291 19.1125 74.5402 20.5411ZM84.3154 18.5989H82.5498V15.9986H84.3154V12.8525H87.5096V15.9986H90.0618V18.5989H87.5096V23.6871C87.5096 24.602 88.0072 25.0194 88.8419 25.0194C89.3332 25.0163 89.8149 24.8834 90.2383 24.6341V27.4913C89.7889 27.732 89.0184 27.8604 88.1517 27.8604C85.7921 27.8604 84.2994 26.6887 84.2994 24.1205V18.5989H84.3154Z" fill="black"/>
</svg>
