<svg width="64" height="65" viewBox="0 0 64 65" fill="none" xmlns="http://www.w3.org/2000/svg">
<path fill-rule="evenodd" clip-rule="evenodd" d="M25.9171 11.5243C27.7951 11.5243 29.6731 11.5533 31.5486 11.5043C32.0461 11.4913 32.9386 11.9028 32.8986 10.8688C32.8681 10.0273 32.0876 10.3318 31.6146 10.3243C29.4961 10.2908 27.3706 10.2103 25.2606 10.3428C23.7591 10.4363 23.3166 9.86634 23.5051 8.48934C23.5701 8.01434 23.5076 7.52234 23.5176 7.03834C23.5836 3.81534 24.3626 2.71834 27.4886 1.92334C30.9326 1.04834 34.4571 1.07734 37.8916 1.83134C40.9791 2.50934 42.2616 4.91134 42.1056 7.13334C41.9156 9.84484 42.0626 12.5798 42.0601 15.3048C42.0556 18.7313 40.2851 20.5498 36.8306 20.5973C33.9856 20.6363 31.1371 20.6673 28.2936 20.5883C24.9046 20.4933 22.4186 23.3083 22.4016 26.4983C22.4016 26.7403 22.4431 26.9903 22.3951 27.2238C22.1511 28.3953 23.1261 30.2888 21.8841 30.6368C19.9941 31.1678 17.7811 31.1678 16.1141 29.4813C15.5491 28.9113 15.0731 28.2728 14.8221 27.5348C13.4826 23.6023 13.2711 19.6198 14.5321 15.6258C15.3181 13.1328 17.4561 11.5823 20.1046 11.5378C22.0416 11.5053 23.9791 11.5313 25.9161 11.5313L25.9171 11.5243ZM29.3681 5.96434C29.2871 5.01284 28.7756 4.31834 27.7201 4.28934C26.5656 4.25934 25.9691 4.95734 25.9676 6.09334C25.9666 7.14634 26.5401 7.82084 27.5881 7.85134C28.7396 7.88484 29.2971 7.17134 29.3681 5.96434Z" fill="#386F9F"/>
<path fill-rule="evenodd" clip-rule="evenodd" d="M40.412 30.8018C38.292 30.8018 36.171 30.7833 34.051 30.8168C33.5735 30.8228 32.7725 30.5208 32.7475 31.3373C32.7195 32.2633 33.579 32.0223 34.125 32.0278C36.245 32.0543 38.367 32.0768 40.4865 32.0178C41.5755 31.9878 42.02 32.1963 42.1015 33.4803C42.47 39.2928 39.9475 39.7953 35.295 40.8528C32.626 41.4593 29.7645 41.1378 27.1325 39.9588C24.956 38.9853 23.6205 37.5823 23.789 34.9553C23.956 32.3623 23.984 29.7358 23.7845 27.1453C23.5445 24.0188 25.4895 21.7193 29.272 21.7183C31.817 21.7178 34.379 21.5238 36.902 21.7558C40.5095 22.0868 43.338 18.9598 43.462 15.3238C43.467 15.2033 43.436 15.0738 43.467 14.9618C43.785 13.8443 42.654 12.1833 44.167 11.6188C46.4535 10.7663 49.032 11.6623 50.2 13.3973C51.6725 15.5818 51.8715 18.1523 52.1095 20.6623C52.367 23.3678 51.608 25.9148 50.4715 28.3553C49.6995 30.0103 48.4015 30.8103 46.593 30.8128C44.533 30.8143 42.4735 30.8128 40.413 30.8128C40.412 30.8088 40.412 30.8053 40.412 30.8018ZM39.86 36.2018C39.6335 35.1688 39.1675 34.4638 37.9675 34.4343C36.7195 34.4043 36.3975 35.3378 36.404 36.1713C36.411 37.0573 36.658 38.1473 38.009 38.0453C39.132 37.9593 39.6795 37.2638 39.86 36.2018Z" fill="#FFCF46"/>
<path fill-rule="evenodd" clip-rule="evenodd" d="M7.06447 57.4403C7.06447 58.7313 7.12297 59.9403 7.03697 61.1388C6.99997 61.6558 7.56997 62.6288 6.48547 62.6278C5.52947 62.6278 5.28397 61.8668 5.31447 60.9473C5.37297 59.1923 5.33147 57.4338 5.33147 55.6773V51.6783C5.33147 49.2683 5.97797 48.4523 8.28297 47.9533C10.426 47.4873 12.11 48.2088 12.976 50.0848C13.842 51.9613 13.909 53.8948 13.0425 55.8038C12.1885 57.6848 10.6155 58.3868 8.60047 57.8293C8.14147 57.7043 7.67797 57.5958 7.06447 57.4403ZM7.06447 52.7163C7.06447 53.3813 7.15447 54.0593 7.04597 54.7063C6.79497 56.2018 7.74997 56.5703 8.87597 56.8363C9.98947 57.0993 10.753 56.6258 11.1995 55.6448C11.95 53.9998 12.076 52.3033 11.506 50.5638C11 49.0178 9.83147 48.8368 8.46747 49.0288C7.12047 49.2203 6.93797 50.1363 7.05547 51.2688C7.10547 51.7463 7.06447 52.2338 7.06447 52.7163ZM21.558 57.3603C20.6355 57.6003 19.8345 57.8563 19.0145 58.0103C17.2195 58.3458 15.8905 57.3603 15.423 55.5633C14.843 53.3393 15.334 51.1238 15.349 48.9048C15.3555 47.8933 16.2915 48.2878 16.939 47.7458C16.939 50.1208 16.948 52.1708 16.936 54.2193C16.9295 55.2483 17.1955 56.0943 18.1685 56.6368C19.2425 57.2358 20.1235 56.6653 21.0585 56.2808C21.7285 56.0053 21.645 55.4428 21.646 54.9078C21.651 52.9718 21.6455 51.0378 21.652 49.1018C21.653 48.6243 21.6035 48.0408 22.3085 48.0643C22.937 48.0848 23.2105 48.4583 23.2 49.1433C23.1545 52.3468 23.245 55.5548 23.115 58.7538C23.0165 61.1728 21.31 62.6503 18.855 62.7588C18.4875 62.7743 18.1025 62.8083 17.965 62.3523C17.7555 61.6503 18.324 61.7828 18.6975 61.6633C21.398 60.8043 21.751 60.2913 21.558 57.3603ZM32.97 49.0478C33.6845 48.7103 34.095 48.4013 34.5465 48.3178C37.08 47.8493 39.0215 48.0278 39.0165 51.4403C39.013 53.1978 39.0175 54.9558 39.013 56.7128C39.012 57.2048 39.0435 57.6838 38.31 57.7263C37.5365 57.7723 37.3665 57.3298 37.37 56.7233C37.379 55.0298 37.425 53.3363 37.4235 51.6433C37.4225 50.3283 37.154 49.1643 35.4815 49.1683C34.0145 49.1708 32.9755 50.2658 32.968 51.7768C32.9595 53.4125 32.9601 55.0482 32.9695 56.6838C32.971 57.2648 32.9835 57.7743 32.1435 57.7263C31.387 57.6813 31.48 57.1713 31.48 56.7018C31.475 52.4018 31.496 48.0973 31.4595 43.7943C31.453 43.0403 31.7505 42.5724 32.4195 42.5404C33.3635 42.4969 32.931 43.3223 32.945 43.7363C33.0065 45.4218 32.97 47.1113 32.97 49.0478ZM40.965 52.9033C40.8695 49.5458 42.462 47.7533 45.345 47.8573C46.792 47.9103 47.8775 48.5523 48.578 49.8023C49.8155 52.0133 49.648 54.2253 48.309 56.2958C47.389 57.7178 45.974 58.3883 44.249 58.0223C42.548 57.6623 41.216 56.1308 40.975 54.3458C40.911 53.8734 40.965 53.3838 40.965 52.9033ZM47.625 52.9818C47.549 52.3958 47.5625 51.5788 47.3185 50.8498C46.985 49.8498 46.377 49.0448 45.1365 48.9898C43.885 48.9358 43.2605 49.6673 42.843 50.6798C42.1875 52.2694 42.23 53.8653 42.94 55.4263C43.396 56.4318 44.1 57.1679 45.32 56.9639C46.5215 56.7634 47.2305 55.9758 47.476 54.8073C47.5875 54.2778 47.5695 53.7233 47.625 52.9823V52.9818ZM51.1285 53.4293C51.1285 52.8233 51.117 52.2183 51.1305 51.6153C51.1585 50.4528 50.788 49.1648 52.3555 48.5708C54.1505 47.8928 55.9295 47.3848 57.7365 48.4343C58.4125 48.8273 58.6615 49.5413 58.6685 50.2993C58.687 52.4148 58.659 54.5313 58.6875 56.6468C58.6975 57.3848 58.5035 57.7538 57.674 57.7338C56.765 57.7123 56.9565 57.0923 56.9625 56.5973C56.984 54.9073 57.1015 53.2188 57.0695 51.5313C57.0275 49.4063 55.8615 48.5398 53.875 49.0613C53.051 49.2783 52.536 49.6783 52.5765 50.6983C52.657 52.6893 52.595 54.6873 52.6025 56.6818C52.6045 57.2598 52.613 57.7718 51.779 57.7233C51.015 57.6793 51.14 57.1508 51.134 56.6923C51.12 55.6043 51.13 54.5159 51.1285 53.4293ZM29.3445 48.7173C29.2195 48.8653 29.1145 49.0973 29.0045 49.0993C27.0225 49.1268 27.5725 50.6063 27.5215 51.7038C27.473 52.7263 27.5215 53.7538 27.507 54.7793C27.492 55.7983 27.5805 56.7453 28.8205 57.0158C29.176 57.0928 29.338 57.2978 29.264 57.6528C29.1825 58.0448 28.87 58.0293 28.5605 58.0253C27.1355 58.0003 26.079 56.9928 26.037 55.5178C25.994 54.0108 26.0525 52.5003 26.017 50.9948C25.9985 50.2798 26.37 49.3673 25.217 49.0838C25.0905 49.0533 25.0455 48.6948 24.963 48.4903C26.501 48.0078 25.863 46.6813 26.074 45.6748C26.174 45.1983 26.6265 45.0678 27.054 45.0273C27.4865 44.9863 27.49 45.3363 27.504 45.6288C27.561 46.7888 26.9605 48.3413 29.096 48.2568C29.1675 48.2543 29.251 48.5378 29.3445 48.7168V48.7173Z" fill="#386F9F"/>
</svg>
