<svg width="121" height="32" viewBox="0 0 121 32" fill="none" xmlns="http://www.w3.org/2000/svg">
<path d="M15.5153 7.95938L13.8565 9.60625C16.4911 12.2219 16.4911 16.5813 13.8565 19.1969C11.2218 21.8125 6.83066 21.8125 4.29357 19.1C1.65889 16.4844 1.65889 12.125 4.29357 9.50937L8.58712 5.24688L9.1726 4.66562V1.46875L2.73228 7.8625C-0.878207 11.4469 -0.878207 17.1625 2.73228 20.65C6.34276 24.1375 12.1 24.2344 15.6129 20.65C19.1258 17.1625 19.1258 11.5437 15.5153 7.95938Z" fill="#EE4C2C"/>
<path d="M12.295 7.57182C12.9417 7.57182 13.466 7.05135 13.466 6.40932C13.466 5.76729 12.9417 5.24683 12.295 5.24683C11.6483 5.24683 11.124 5.76729 11.124 6.40932C11.124 7.05135 11.6483 7.57182 12.295 7.57182Z" fill="#EE4C2C"/>
<path d="M32.1042 16.097H29.3719V23.1688H27.3228V3.11572H32.3969C37.6663 3.11572 40.2034 5.73135 40.2034 9.31572C40.2034 13.772 37.0808 16.097 32.1042 16.097ZM32.2994 5.1501H29.3719V14.3532L32.2018 14.2563C36.0074 14.1595 38.0566 12.7063 38.0566 9.60635C38.1542 6.7001 36.0074 5.1501 32.2994 5.1501ZM49.4736 23.072L48.3026 26.2688C46.9365 29.8532 45.5703 30.822 43.5211 30.822C42.4478 30.822 41.5695 30.5313 40.6913 30.1438L41.2768 28.3032C41.9598 28.6907 42.7405 28.9813 43.5211 28.9813C44.5945 28.9813 45.4728 28.4001 46.5461 25.5907L47.5219 22.9751L41.7647 8.54072H43.9115L48.4978 20.6501L53.084 8.54072H55.1332L49.4736 23.072Z" fill="black"/>
<path d="M61.9636 5.1501V23.2657H59.9144V5.1501H52.791V3.2126H68.9894V5.1501H61.9636ZM74.9418 23.5564C70.8434 23.5564 67.8184 20.5532 67.8184 15.9032C67.8184 11.2532 70.941 8.15322 75.137 8.15322C79.333 8.15322 82.2604 11.1563 82.2604 15.8063C82.1628 20.4563 79.0402 23.5564 74.9418 23.5564ZM74.9418 9.99385C71.8192 9.99385 69.77 12.4157 69.77 15.9032C69.77 19.4876 71.8192 21.9095 74.9418 21.9095C78.0644 21.9095 80.1136 19.4876 80.1136 16.0001C80.2112 12.3188 78.162 9.99385 74.9418 9.99385ZM87.237 23.1688H85.1878V8.54072L87.237 8.05635V11.1563C88.2128 9.31572 89.5789 8.05635 91.5305 8.05635C92.5063 8.05635 93.3846 8.34697 94.1652 8.73447L93.6773 10.5751C92.9942 10.1876 92.2136 9.89697 91.4329 9.89697C89.8717 9.89697 88.408 11.0595 87.237 13.6751V23.1688ZM101.972 23.5564C97.483 23.5564 94.7507 20.3595 94.7507 15.9032C94.7507 11.3501 97.7757 8.15322 101.972 8.15322C103.728 8.15322 105.289 8.6376 106.558 9.4126L106.07 11.1563C104.997 10.3813 103.533 9.99385 101.972 9.99385C98.7515 9.99385 96.7999 12.3188 96.7999 15.8063C96.7999 19.3907 98.8491 21.7157 101.972 21.7157C103.435 21.7157 104.997 21.2313 106.07 20.5532L106.558 22.3938C105.289 23.072 103.728 23.5564 101.972 23.5564ZM118.951 23.1688V13.6751C118.951 11.0595 117.877 9.99385 115.828 9.99385C114.072 9.99385 112.51 10.8657 111.242 12.0282V23.1688H109.193V1.6626L111.242 1.17822V10.4782C112.803 8.92822 114.755 8.15322 116.414 8.15322C119.243 8.15322 121 9.99385 121 13.1907V23.1688H118.951Z" fill="black"/>
</svg>
