<svg width="64" height="16" viewBox="0 0 64 16" fill="none" xmlns="http://www.w3.org/2000/svg">
<path d="M8.20624 3.85L7.32882 4.7C8.72237 6.05 8.72237 8.3 7.32882 9.65C5.93528 11 3.6127 11 2.27076 9.6C0.877211 8.25 0.877211 6 2.27076 4.65L4.54173 2.45L4.8514 2.15V0.5L1.44495 3.8C-0.464724 5.65 -0.464724 8.6 1.44495 10.4C3.35463 12.2 6.39979 12.25 8.25786 10.4C10.1159 8.6 10.1159 5.7 8.20624 3.85Z" fill="#EE4C2C"/>
<path d="M6.50314 3.65C6.8452 3.65 7.1225 3.38137 7.1225 3.05C7.1225 2.71862 6.8452 2.45 6.50314 2.45C6.16108 2.45 5.88379 2.71862 5.88379 3.05C5.88379 3.38137 6.16108 3.65 6.50314 3.65Z" fill="#EE4C2C"/>
<path d="M16.9802 8.05H15.535V11.7H14.4512V1.35001H17.135C19.9221 1.35001 21.2641 2.7 21.2641 4.55C21.2641 6.85 19.6125 8.05 16.9802 8.05ZM17.0834 2.40001H15.535V7.15L17.0318 7.10001C19.0447 7.05001 20.1286 6.30001 20.1286 4.70001C20.1802 3.20001 19.0447 2.40001 17.0834 2.40001ZM26.1673 11.65L25.5479 13.3C24.8254 15.15 24.1028 15.65 23.0189 15.65C22.4512 15.65 21.9867 15.5 21.5221 15.3L21.8318 14.35C22.1931 14.55 22.606 14.7 23.0189 14.7C23.5867 14.7 24.0512 14.4 24.6189 12.95L25.135 11.6L22.0899 4.15001H23.2254L25.6512 10.4L28.077 4.15001H29.1608L26.1673 11.65Z" fill="black"/>
<path d="M32.7745 2.4V11.75H31.6906V2.4H27.9229V1.4H36.4906V2.4H32.7745ZM39.639 11.9C37.4712 11.9 35.8712 10.35 35.8712 7.95C35.8712 5.55 37.5229 3.95 39.7422 3.95C41.9616 3.95 43.51 5.5 43.51 7.9C43.4583 10.3 41.8067 11.9 39.639 11.9ZM39.639 4.9C37.9874 4.9 36.9035 6.15 36.9035 7.95C36.9035 9.8 37.9874 11.05 39.639 11.05C41.2906 11.05 42.3745 9.8 42.3745 8C42.4261 6.1 41.3422 4.9 39.639 4.9ZM46.1422 11.7H45.0583V4.15L46.1422 3.9V5.5C46.6583 4.55 47.3809 3.9 48.4132 3.9C48.9293 3.9 49.3938 4.05 49.8067 4.25L49.5487 5.2C49.1874 5 48.7745 4.85 48.3616 4.85C47.5358 4.85 46.7616 5.45 46.1422 6.8V11.7ZM53.9358 11.9C51.5616 11.9 50.1164 10.25 50.1164 7.95C50.1164 5.6 51.7164 3.95 53.9358 3.95C54.8648 3.95 55.6906 4.2 56.3616 4.6L56.1035 5.5C55.5358 5.1 54.7616 4.9 53.9358 4.9C52.2325 4.9 51.2003 6.1 51.2003 7.9C51.2003 9.75 52.2841 10.95 53.9358 10.95C54.7099 10.95 55.5358 10.7 56.1035 10.35L56.3616 11.3C55.6906 11.65 54.8648 11.9 53.9358 11.9ZM62.9164 11.7V6.8C62.9164 5.45 62.3487 4.9 61.2648 4.9C60.3358 4.9 59.5099 5.35 58.839 5.95V11.7H57.7551V0.599998L58.839 0.349998V5.15C59.6648 4.35 60.697 3.95 61.5745 3.95C63.0712 3.95 64.0003 4.9 64.0003 6.55V11.7H62.9164Z" fill="black"/>
</svg>
