<svg width="100" height="30" viewBox="0 0 100 30" fill="none" xmlns="http://www.w3.org/2000/svg">
<path d="M58.4833 15.8404C58.0464 15.1351 58.6221 14.5434 58.6221 14.5434L63.6831 9.37853C64.2581 8.78685 63.4301 8.78685 63.4301 8.78685H58.7137C57.8857 8.78685 57.3107 9.37853 57.3107 9.37853L52.6401 14.2932C52.0651 14.8849 52.0651 14.0654 52.0651 14.0654V3.32577C52.0651 2.50686 51.2371 2.50686 51.2371 2.50686H47.6708C46.8654 2.50686 46.8654 3.30343 46.8654 3.30343V25.7605C46.8654 26.58 47.694 26.58 47.694 26.58H51.2371C52.0419 26.58 52.0419 25.7835 52.0419 25.7835V21.8472C52.0419 21.0283 52.6401 20.459 52.6401 20.459L54.3194 18.9118L58.5066 25.8747C58.9209 26.58 59.7489 26.58 59.7489 26.58H64.2355C65.0635 26.58 64.6266 25.8747 64.6266 25.8747L58.4833 15.8404ZM43.139 25.7605V9.58341C43.139 8.76387 42.311 8.76387 42.311 8.76387H38.7221C37.8941 8.76387 37.8941 9.58341 37.8941 9.58341V25.7605C37.8941 26.58 38.7221 26.58 38.7221 26.58H42.311C43.139 26.58 43.139 25.7605 43.139 25.7605ZM43.0009 5.60122V3.28045C43.0009 3.28045 43.0009 2.48389 42.1955 2.48389H38.6982C38.6982 2.48389 37.8934 2.48389 37.8934 3.28045V5.60122C37.8934 5.60122 37.8934 6.39779 38.6982 6.39779H42.2181C42.2181 6.39779 43.0009 6.39779 43.0009 5.60122ZM34.0509 25.7605V3.34875C34.0509 2.52984 33.2229 2.52984 33.2229 2.52984H29.5649C28.7369 2.52984 28.7369 3.34875 28.7369 3.34875V25.7605C28.7369 26.58 29.5649 26.58 29.5649 26.58H33.2229C34.0509 26.58 34.0509 25.7605 34.0509 25.7605ZM25.8379 24.8056C25.8379 24.8056 26.2981 24.2822 25.7689 23.8272L22.8473 21.3015C24.1587 19.3675 24.9409 17.0697 24.9409 14.5664C24.9409 7.92262 19.4881 2.53048 12.7705 2.53048C6.05218 2.52984 0.600098 7.92199 0.600098 14.5658C0.600098 21.2102 6.05283 26.6024 12.7705 26.6024C15.2319 26.6024 17.5094 25.8747 19.4423 24.6231L22.6627 27.376C22.6627 27.376 23.1919 27.831 23.6521 27.3077L25.8379 24.8056ZM19.7876 14.5441C19.7876 18.389 16.6356 21.5064 12.7472 21.5064C8.85954 21.5064 5.70756 18.389 5.70756 14.5441C5.70756 10.6985 8.85954 7.58179 12.7472 7.58179C16.6356 7.60413 19.7876 10.6985 19.7876 14.5441Z" fill="#54565B"/>
<path d="M99.0896 25.0551L95.1787 21.8019C96.5359 19.663 97.3407 17.1374 97.3407 14.4298C97.3407 6.80688 91.0831 0.618164 83.3761 0.618164C75.6691 0.618164 69.4116 6.80688 69.4116 14.4298C69.4116 22.0521 75.6691 28.2408 83.3761 28.2408C86.3668 28.2408 89.1509 27.3076 91.4284 25.7151L95.5923 29.1739C95.5923 29.1739 96.2138 29.6973 96.743 29.0827L99.2277 26.1702C99.2045 26.1702 99.7104 25.5562 99.0896 25.0551ZM91.9576 14.4298C91.9576 19.1166 88.1157 22.9163 83.3761 22.9163C78.6372 22.9163 74.7947 19.1166 74.7947 14.4298C74.7947 9.7423 78.6372 5.94265 83.3761 5.94265C88.1157 5.94265 91.9576 9.7423 91.9576 14.4298Z" fill="#009848"/>
<path d="M77.8555 14.4298C77.8555 11.4264 80.3173 8.9917 83.354 8.9917C86.3908 8.9917 88.8526 11.4264 88.8526 14.4298C88.8526 17.4332 86.3908 19.8679 83.354 19.8679C80.3173 19.8679 77.8555 17.4332 77.8555 14.4298Z" fill="#54565B"/>
</svg>
