<svg width="58" height="16" viewBox="0 0 58 16" fill="none" xmlns="http://www.w3.org/2000/svg">
<path d="M33.8942 8.467C33.6421 8.07517 33.9742 7.74646 33.9742 7.74646L36.894 4.87706C37.2258 4.54835 36.7481 4.54835 36.7481 4.54835H34.0271C33.5494 4.54835 33.2176 4.87706 33.2176 4.87706L30.5231 7.60746C30.1914 7.93617 30.1914 7.48087 30.1914 7.48087V1.51442C30.1914 1.05947 29.7137 1.05947 29.7137 1.05947H27.6562C27.1915 1.05947 27.1915 1.50201 27.1915 1.50201V13.9782C27.1915 14.4335 27.6696 14.4335 27.6696 14.4335H29.7137C30.178 14.4335 30.178 13.9909 30.178 13.9909V11.8041C30.178 11.3492 30.5231 11.0329 30.5231 11.0329L31.4919 10.1733L33.9076 14.0416C34.1466 14.4335 34.6243 14.4335 34.6243 14.4335H37.2127C37.6904 14.4335 37.4384 14.0416 37.4384 14.0416L33.8942 8.467ZM25.0417 13.9782V4.99089C25.0417 4.53559 24.564 4.53559 24.564 4.53559H22.4935C22.0158 4.53559 22.0158 4.99089 22.0158 4.99089V13.9782C22.0158 14.4335 22.4935 14.4335 22.4935 14.4335H24.564C25.0417 14.4335 25.0417 13.9782 25.0417 13.9782ZM24.962 2.77856V1.48924C24.962 1.48924 24.962 1.04671 24.4973 1.04671H22.4797C22.4797 1.04671 22.0154 1.04671 22.0154 1.48924V2.77856C22.0154 2.77856 22.0154 3.2211 22.4797 3.2211H24.5104C24.5104 3.2211 24.962 3.2211 24.962 2.77856ZM19.7985 13.9782V1.52719C19.7985 1.07224 19.3208 1.07224 19.3208 1.07224H17.2105C16.7328 1.07224 16.7328 1.52719 16.7328 1.52719V13.9782C16.7328 14.4335 17.2105 14.4335 17.2105 14.4335H19.3208C19.7985 14.4335 19.7985 13.9782 19.7985 13.9782ZM15.0603 13.4477C15.0603 13.4477 15.3258 13.1569 15.0205 12.9041L13.3349 11.5009C14.0915 10.4265 14.5428 9.14996 14.5428 7.75923C14.5428 4.06823 11.3969 1.07259 7.52138 1.07259C3.64543 1.07224 0.5 4.06787 0.5 7.75887C0.5 11.4502 3.64581 14.4459 7.52138 14.4459C8.94144 14.4459 10.2554 14.0416 11.3705 13.3463L13.2284 14.8756C13.2284 14.8756 13.5337 15.1285 13.7992 14.8377L15.0603 13.4477ZM11.5697 7.74682C11.5697 9.88291 9.75125 11.6148 7.50797 11.6148C5.26506 11.6148 3.44661 9.88291 3.44661 7.74682C3.44661 5.61037 5.26506 3.87887 7.50797 3.87887C9.75125 3.89128 11.5697 5.61037 11.5697 7.74682Z" fill="#54565B"/>
<path d="M57.3211 13.5862L55.0648 11.7789C55.8478 10.5906 56.3121 9.18746 56.3121 7.68326C56.3121 3.4483 52.702 0.0101318 48.2557 0.0101318C43.8093 0.0101318 40.1992 3.4483 40.1992 7.68326C40.1992 11.9179 43.8093 15.356 48.2557 15.356C49.981 15.356 51.5873 14.8376 52.9012 13.9529L55.3035 15.8744C55.3035 15.8744 55.662 16.1652 55.9673 15.8237L57.4008 14.2057C57.3874 14.2057 57.6793 13.8646 57.3211 13.5862ZM53.2065 7.68326C53.2065 10.2871 50.9901 12.398 48.2557 12.398C45.5217 12.398 43.3048 10.2871 43.3048 7.68326C43.3048 5.0791 45.5217 2.96818 48.2557 2.96818C50.9901 2.96818 53.2065 5.0791 53.2065 7.68326Z" fill="#009848"/>
<path d="M45.0703 7.68322C45.0703 6.01468 46.4906 4.66206 48.2426 4.66206C49.9945 4.66206 51.4148 6.01468 51.4148 7.68322C51.4148 9.35177 49.9945 10.7044 48.2426 10.7044C46.4906 10.7044 45.0703 9.35177 45.0703 7.68322Z" fill="#54565B"/>
</svg>
