<svg width="64" height="65" viewBox="0 0 64 65" fill="none" xmlns="http://www.w3.org/2000/svg">
<path fill-rule="evenodd" clip-rule="evenodd" d="M32 50.2059C14.327 50.2059 0 40.6109 0 28.7744C0 16.9384 14.327 7.3429 32 7.3429C49.673 7.3429 64 16.9379 64 28.7744C64 40.6104 49.673 50.2059 32 50.2059ZM36.898 15.7224C23.465 15.7224 12.575 22.2819 12.575 30.3739C12.575 38.4654 23.465 45.0254 36.898 45.0254C50.331 45.0254 60.2445 40.5404 60.2445 30.3739C60.2445 20.2104 50.331 15.7224 36.898 15.7224Z" fill="url(#paint0_linear_190_1449)"/>
<path fill-rule="evenodd" clip-rule="evenodd" d="M48.7347 40.5324C48.7347 40.5324 50.6717 41.1169 51.7967 41.6864C52.1867 41.8839 52.8627 42.2779 53.3497 42.7959C53.6357 43.0987 53.875 43.4425 54.0597 43.8159L61.6927 56.6859L49.3557 56.6909L43.5872 45.8579C43.5872 45.8579 42.4057 43.8279 41.6787 43.2394C41.0722 42.7484 40.8137 42.5739 40.2142 42.5739H37.2832L37.2852 56.6834L26.3687 56.6879V20.6459H48.2907C48.2907 20.6459 58.2757 20.8259 58.2757 30.3254C58.2757 39.8249 48.7347 40.5319 48.7347 40.5319V40.5324ZM43.9862 28.4639L37.3772 28.4594L37.3742 34.5884L43.9862 34.5859C43.9862 34.5859 47.0482 34.5764 47.0482 31.4684C47.0482 28.2984 43.9862 28.4639 43.9862 28.4639Z" fill="url(#paint1_linear_190_1449)"/>
<defs>
<linearGradient id="paint0_linear_190_1449" x1="0.000360993" y1="7.33818" x2="39.6364" y2="66.5185" gradientUnits="userSpaceOnUse">
<stop stop-color="#CBCED0"/>
<stop offset="1" stop-color="#84838B"/>
</linearGradient>
<linearGradient id="paint1_linear_190_1449" x1="26.3686" y1="20.6456" x2="62.4062" y2="55.9617" gradientUnits="userSpaceOnUse">
<stop stop-color="#276DC3"/>
<stop offset="1" stop-color="#165CAA"/>
</linearGradient>
</defs>
</svg>
