<svg width="48" height="65" viewBox="0 0 48 65" fill="none" xmlns="http://www.w3.org/2000/svg">
<path d="M33.2995 27.1927C26.6311 31.49 20.0236 35.7486 13.2417 40.1181L43.5462 44.2554L33.2995 27.1927ZM46.4138 8.17694C45.5183 9.52094 44.6213 10.8644 43.7274 12.2095C40.6563 16.8286 37.5869 21.4488 34.5191 26.0701C34.3483 26.3282 34.1268 26.5326 34.3674 26.9289C37.332 31.8234 40.2724 36.7333 43.22 41.6376C43.685 42.4123 44.1558 43.1839 44.7576 43.9271L46.5449 8.21565L46.4138 8.17694ZM5.95033 23.4378C6.08917 23.5695 6.43549 23.6453 6.59601 23.5664C9.43937 22.1687 12.3008 20.8025 15.0822 19.2897C15.9885 18.7973 16.6853 17.9132 17.4672 17.1968C20.054 14.8233 22.6382 12.447 25.22 10.068C25.3785 9.92198 25.5648 9.78107 25.6598 9.59682C26.5872 7.78365 27.4982 5.96223 28.4422 4.08714C27.3165 3.66546 26.2497 3.25101 25.1699 2.87423C25.0234 2.82314 24.7932 2.92482 24.6332 3.01359C22.1336 4.41023 19.587 5.73204 17.1663 7.25514C15.955 8.01694 14.9681 9.13953 13.8956 10.1181C12.1681 11.6954 10.4417 13.2763 8.73846 14.8815C8.28404 15.312 7.8766 15.7895 7.52298 16.306C6.35756 18.002 5.22827 19.7222 4.04582 21.492C4.7075 22.1764 5.30775 22.8298 5.95033 23.4378ZM16.3416 21.1189C14.9279 27.0941 13.5209 33.0353 12.0685 39.172L32.1465 26.2353L16.3416 21.1189ZM27.6123 11.0848L33.4032 25.171C37.1834 19.4931 40.8881 13.9271 44.677 8.23423L27.6123 11.0848ZM16.579 19.8967L32.069 24.9253C30.1279 20.196 28.2533 15.6324 26.3395 10.9718L16.579 19.8967ZM6.16453 26.9222L0.743108 39.8817L11.0683 39.5767L6.16453 26.9222ZM11.1911 36.5713L11.3191 36.5434C12.5583 31.3883 13.8161 26.2688 15.0822 20.9129L6.79833 25.218C8.20995 28.8887 9.71601 32.7597 11.1911 36.5713ZM42.5934 7.39862C40.9444 6.96198 39.2969 6.52327 37.6463 6.08972C35.2758 5.46675 32.9031 4.85049 30.5336 4.22133C30.2378 4.14288 30.0231 4.09178 29.8492 4.44843C29.012 6.16404 28.148 7.86727 27.2974 9.57617C27.2711 9.62933 27.2763 9.69849 27.2561 9.83011L42.5903 7.50649L42.5934 7.39862ZM33.0285 3.49565L46.467 7.21333L44.2466 0.886622L33.0487 3.36972L33.0285 3.49565ZM37.0967 44.4546L26.0716 42.9496C21.492 42.3246 16.9207 41.6366 12.3307 41.1075C10.6662 40.916 8.9573 41.0926 7.26956 41.1209C5.88272 41.1447 4.49588 41.1973 3.10956 41.2412C2.96659 41.2453 2.82414 41.2742 2.6822 41.4275C14.1454 42.4877 25.6097 43.5473 37.0724 44.6079L37.0967 44.4546ZM0.969172 35.9261C2.44737 32.4985 3.9173 29.0683 5.40066 25.6438C5.5493 25.2995 5.53846 25.0667 5.24788 24.7906C4.62698 24.1997 4.05098 23.5633 3.37227 22.8582L0.667236 36.211L0.76685 36.2585C0.835495 36.148 0.918592 36.0448 0.969172 35.9261ZM30.085 2.59088C32.5764 1.94778 35.1039 1.44611 37.6164 0.885073C37.7785 0.848428 37.9374 0.794751 38.0974 0.748815L38.0732 0.625977L27.2778 2.07785C28.292 2.5212 29.0729 2.85204 30.085 2.59088ZM6.69666 55.4595V59.8709H4.25846V48.3731H7.60866C9.17046 48.3731 10.3266 48.6575 11.0765 49.2262C11.8265 49.795 12.2017 50.659 12.2017 51.8172C12.2017 52.4938 12.0154 53.0957 11.6427 53.6221C11.2706 54.1491 10.7441 54.5625 10.0618 54.8613L13.444 59.8704H10.7385L7.9942 55.459H6.69666V55.4595ZM6.69666 53.4776H7.48324C8.2533 53.4776 8.82259 53.3486 9.18956 53.092C9.55601 52.835 9.73975 52.4314 9.73975 51.8812C9.73975 51.3357 9.5524 50.948 9.17717 50.7173C8.80246 50.4866 8.22182 50.371 7.43575 50.371H6.69614V53.4776H6.69666ZM20.9305 59.8709L20.6084 58.7462H20.4825C20.2254 59.1555 19.861 59.4709 19.3898 59.6938C18.9176 59.9168 18.3798 60.0278 17.7774 60.0278C16.7441 60.0278 15.9658 59.7517 15.4414 59.1984C14.917 58.6451 14.6554 57.8497 14.6554 56.8118V51.0786H17.0538V56.2141C17.0538 56.8484 17.1668 57.3243 17.3924 57.6417C17.6174 57.9591 17.9761 58.1171 18.469 58.1171C19.1405 58.1171 19.6252 57.8926 19.924 57.4451C20.2228 56.9966 20.3725 56.2538 20.3725 55.2159V51.0791H22.771V59.8714H20.9305V59.8709ZM30.179 50.9129C31.2169 50.9129 32.0298 51.3186 32.6177 52.1284C33.2045 52.9382 33.4977 54.0484 33.4977 55.459C33.4977 56.9109 33.1947 58.0355 32.5898 58.8319C31.9839 59.6293 31.1596 60.0273 30.116 60.0273C29.0832 60.0273 28.2734 59.652 27.6861 58.9021H27.5209L27.1204 59.8698H25.2876V47.634H27.6861V50.4809C27.6861 50.8428 27.6541 51.4218 27.5911 52.2193H27.6861C28.2466 51.3491 29.0781 50.9129 30.179 50.9129ZM29.4079 52.8324C28.8159 52.8324 28.3834 53.0146 28.1108 53.379C27.8383 53.7439 27.6959 54.3452 27.6861 55.1844V55.4435C27.6861 56.3875 27.8259 57.0637 28.1062 57.4729C28.387 57.8817 28.8314 58.0861 29.4399 58.0861C29.9323 58.0861 30.324 57.859 30.6151 57.4058C30.9062 56.9527 31.0518 56.2931 31.0518 55.428C31.0518 54.563 30.9047 53.9137 30.611 53.4812C30.3178 53.0487 29.9168 52.8324 29.4079 52.8324ZM34.0639 51.0786H36.6905L38.3498 56.0252C38.4912 56.4551 38.5888 56.9635 38.6404 57.5509H38.6879C38.7452 57.011 38.8577 56.5021 39.0254 56.0252L40.6533 51.0786H43.2247L39.5049 60.9955C39.1643 61.9127 38.6781 62.5997 38.0469 63.0559C37.4146 63.5122 36.677 63.7398 35.8327 63.7398C35.4182 63.7398 35.012 63.6954 34.6141 63.6061V61.7031C34.9236 61.7732 35.2402 61.8073 35.5576 61.8048C35.9818 61.8048 36.3529 61.6753 36.6703 61.4157C36.9878 61.1566 37.2355 60.7648 37.413 60.2404L37.5545 59.8074L34.0639 51.0786Z" fill="#D91404"/>
</svg>
