<svg width="64" height="65" viewBox="0 0 64 65" fill="none" xmlns="http://www.w3.org/2000/svg">
<path fill-rule="evenodd" clip-rule="evenodd" d="M31.4048 0.517826C31.2911 0.583991 30.8141 1.2685 30.3443 2.03901C29.1654 3.97403 29.1521 3.97524 27.5684 2.30849C26.538 1.22459 26.289 1.02609 25.957 1.0285C25.7411 1.0297 25.4686 1.10308 25.3507 1.1915C25.2334 1.27992 24.9008 1.98368 24.612 2.7554C23.951 4.5232 23.9191 4.58034 23.5528 4.65072C23.3272 4.69342 22.893 4.45162 21.8518 3.70396C21.0831 3.15118 20.3288 2.69946 20.176 2.69946C19.542 2.69946 19.3634 3.04592 19.0614 4.86064C18.6777 7.16799 18.6909 7.16017 16.6109 6.21521C15.7712 5.83447 14.9748 5.52229 14.8407 5.52229C14.7066 5.52229 14.4521 5.66665 14.2759 5.84289C13.9559 6.16349 13.9553 6.16469 14.0425 7.92888L14.1303 9.69488L13.7965 9.87353C13.5006 10.0317 13.2967 10.0125 11.9866 9.7027C10.2765 9.2991 9.91564 9.30992 9.56918 9.77608L9.31595 10.1165L9.65579 11.5728C9.84226 12.3734 10.0221 13.1445 10.0558 13.2858C10.0889 13.4266 10.0317 13.6521 9.92827 13.7863C9.75745 14.007 9.5758 14.0269 7.99325 14.0028C5.31478 13.9607 5.1626 14.1905 6.26936 16.6061C6.62124 17.373 6.90935 18.0695 6.90935 18.1531C6.90935 18.5946 6.55748 18.7552 5.04591 19.0019C4.20021 19.1396 3.46518 19.2527 3.41224 19.2527C3.35931 19.2527 3.20052 19.3682 3.05977 19.5089C2.59962 19.9691 2.73015 20.4009 3.77374 21.874C5.07358 23.7086 5.07118 23.7152 2.92383 24.5368C0.481746 25.471 0.432423 25.7013 2.29165 27.4649C4.02337 29.107 4.02517 29.083 2.06489 30.3154C0.57979 31.2484 0.556934 31.2706 0.519039 31.7765C0.473325 32.3918 0.484152 32.4026 2.25737 33.4859C4.01073 34.5566 4.01073 34.5891 2.28985 36.2173C0.43904 37.9677 0.496182 38.2233 2.94007 39.1454C5.07539 39.9508 5.07839 39.9605 3.77615 41.795C3.03811 42.835 2.80293 43.2681 2.80293 43.5893C2.80293 44.1902 3.11571 44.3436 4.98456 44.6576C6.55868 44.9228 6.90935 45.0786 6.90935 45.5129C6.90935 45.6019 6.62063 46.3045 6.26756 47.0732C5.16922 49.4653 5.29433 49.6644 7.89401 49.6644C10.315 49.6644 10.2507 49.5904 9.72918 51.7739C9.3358 53.4196 9.32978 53.7348 9.68587 54.0902C9.95835 54.3633 10.472 54.3326 12.0786 53.9483C13.3057 53.6554 13.521 53.6349 13.8055 53.7871L14.1303 53.9609L14.0425 55.7263C13.9553 57.4911 13.9559 57.4923 14.2759 57.8129C14.4521 57.9892 14.7102 58.1335 14.8485 58.1335C14.9869 58.1335 15.7833 57.8231 16.6187 57.4436C18.6921 56.5023 18.6789 56.4944 19.0614 58.7946C19.3646 60.6177 19.5414 60.9563 20.1886 60.9563C20.3492 60.9563 21.0873 60.5233 21.8295 59.9939C23.133 59.064 23.471 58.9185 23.8181 59.1392C23.9077 59.1958 24.2554 59.9597 24.5904 60.8367C25.083 62.1263 25.2635 62.4619 25.5377 62.593C26.0598 62.8432 26.3829 62.6423 27.6099 61.3058C29.0914 59.692 29.1521 59.6998 30.3618 61.6601C31.6977 63.8243 32.0436 63.8195 33.4132 61.6162C34.5933 59.7179 34.5795 59.7191 36.1746 61.3852C37.2339 62.4908 37.4594 62.667 37.8167 62.667C38.0447 62.667 38.3172 62.5816 38.4212 62.4769C38.5259 62.3723 38.8724 61.5993 39.1912 60.7597C39.5099 59.9194 39.8402 59.1879 39.9256 59.1338C40.263 58.9191 40.6125 59.07 41.9141 59.9939C42.6804 60.5383 43.4016 60.9563 43.5731 60.9563C44.2094 60.9563 44.4392 60.5046 44.7039 58.729C44.93 57.215 44.9758 57.0701 45.2735 56.9191C45.5664 56.7705 45.7421 56.8204 47.1159 57.4442C47.9514 57.8231 48.7477 58.1335 48.8861 58.1335C49.0244 58.1335 49.2867 57.9849 49.4677 57.8033L49.798 57.4737L49.7071 55.7805C49.6205 54.1636 49.6283 54.077 49.8864 53.8436C50.1516 53.6036 50.1787 53.6048 51.662 53.9435C53.4581 54.3537 53.7931 54.3645 54.1306 54.0271C54.4602 53.6975 54.4566 53.6253 54.0054 51.7228C53.4996 49.5886 53.4316 49.6644 55.8629 49.6644C57.52 49.6644 57.7047 49.641 57.9158 49.4082C58.2683 49.0184 58.1847 48.5721 57.4755 47.0605C57.1176 46.299 56.8271 45.6061 56.8295 45.5207C56.8415 45.0714 57.1946 44.918 58.8265 44.6527C59.8249 44.4909 60.572 44.3033 60.7073 44.1812C61.1609 43.7715 60.9942 43.2386 59.9591 41.7872C58.6616 39.9683 58.6671 39.9508 60.7446 39.1851C63.2324 38.2684 63.3034 37.9629 61.4418 36.1939C59.7173 34.5554 59.7167 34.5644 61.6054 33.4047C63.8887 32.0032 63.8923 31.6875 61.6457 30.2932C59.7137 29.0944 59.7149 29.1112 61.4466 27.4667C63.304 25.7019 63.2535 25.471 60.8108 24.5368C58.655 23.7122 58.6484 23.6917 59.9585 21.8939C60.7386 20.8232 60.9317 20.4677 60.9317 20.1008C60.9317 19.4596 60.6442 19.3158 58.7531 19.0103C57.1729 18.7552 56.8253 18.6001 56.8253 18.1507C56.8253 18.0653 57.114 17.3778 57.4671 16.6217C58.1582 15.1414 58.255 14.549 57.8641 14.1947C57.6541 14.0046 57.3726 13.9775 55.8665 14.0022C54.2906 14.0287 54.0891 14.0064 53.8707 13.7869C53.6319 13.5469 53.6343 13.5132 54.0072 11.9571C54.4644 10.0504 54.4662 10.0041 54.0903 9.65097C53.7089 9.29248 53.4707 9.29849 51.7198 9.71052C50.444 10.0113 50.2329 10.0311 49.9429 9.87593L49.6139 9.69969L49.7047 7.93971L49.7962 6.18033L49.4671 5.85131C49.2861 5.67026 49.0293 5.52229 48.8957 5.52229C48.7628 5.52229 47.9706 5.83687 47.1357 6.22063C45.7415 6.86243 45.5917 6.90513 45.2903 6.74754C44.9896 6.58995 44.9397 6.43476 44.6828 4.86666C44.3863 3.05254 44.2028 2.69946 43.5586 2.69946C43.4058 2.69946 42.6486 3.15359 41.8756 3.70877C40.6065 4.62064 40.4363 4.70666 40.1199 4.59658C39.8582 4.50516 39.706 4.30606 39.5202 3.81103C39.3824 3.44652 39.119 2.74397 38.9337 2.25014C38.5596 1.25406 38.3509 1.0309 37.7903 1.0309C37.4775 1.0309 37.1942 1.25586 36.1788 2.31029C34.5831 3.96802 34.5771 3.96742 33.4035 2.04262C32.9344 1.27331 32.4441 0.586397 32.3136 0.516623C32.0201 0.359031 31.6748 0.359632 31.4048 0.517826ZM32.8592 6.31326C34.2492 7.30272 33.51 9.62872 31.8054 9.62872C30.1512 9.62872 29.3182 7.63595 30.4995 6.50454C31.166 5.86575 32.1217 5.78815 32.8592 6.31326ZM31.1112 12.457C32.0225 12.8034 32.3966 12.5953 34.4772 10.5899L36.0405 9.08256L36.7022 9.17037C38.7773 9.44586 42.9048 11.2588 45.2765 12.9364C47.4557 14.4786 50.3519 17.6196 51.5862 19.7796L51.8503 20.2421L50.681 22.8767C50.0374 24.3257 49.5111 25.6634 49.5111 25.8505C49.5111 26.2818 49.7938 26.9639 50.0662 27.1894C50.1811 27.2851 51.2728 27.8108 52.4921 28.3576L54.708 29.3524L54.7952 29.916C54.9077 30.6505 54.9227 32.4544 54.8205 32.9668L54.7405 33.3674H53.4755C52.0085 33.3674 52.1216 33.2363 52.0422 35.036C51.9844 36.3406 51.6692 37.0618 50.9522 37.5286C49.7841 38.2907 47.8551 38.1524 47.0371 37.2483C46.9114 37.1094 46.6672 36.411 46.4939 35.6958C45.9881 33.6068 45.3084 32.4339 43.943 31.2929C43.5117 30.9326 43.1592 30.5963 43.1592 30.5452C43.1592 30.4947 43.6332 30.0953 44.2131 29.6592C46.3243 28.0676 47.5381 26.215 47.6717 24.3799C47.9261 20.8797 45.1376 17.6172 40.9896 16.5598C40.0062 16.309 39.5863 16.3011 27.4198 16.3011C20.5146 16.3011 14.8648 16.256 14.8648 16.2013C14.8648 16.072 16.3992 14.5827 17.3032 13.8356C19.7856 11.7833 23.0103 10.1683 26.3498 9.30571L27.5046 9.00677L29.1455 10.6705C30.0484 11.5854 30.9332 12.389 31.1112 12.457ZM10.4492 23.1618C11.2053 23.6569 11.515 24.9007 11.0687 25.6484C10.3782 26.8057 8.62904 26.8544 7.93792 25.7356C6.93281 24.1104 8.86843 22.126 10.4492 23.1618ZM54.9901 23.225C56.9678 24.431 55.4352 27.3976 53.3179 26.461C51.9044 25.8355 51.8593 23.9035 53.2415 23.1985C53.8184 22.9044 54.4812 22.9146 54.9901 23.225ZM16.2765 30.609V37.9869H9.75384L9.49519 36.8645C8.98633 34.654 8.77219 32.3671 8.90031 30.4941L8.98994 29.178L11.2323 28.1723C12.6392 27.5419 13.5439 27.0613 13.6606 26.8827C14.1706 26.1049 14.1219 25.5492 13.4061 23.9684L13.0717 23.2304H16.2765V30.609ZM35.0552 23.5516C36.4519 23.9149 37.19 24.6541 37.1918 25.6905C37.193 26.4514 36.8158 26.929 35.8805 27.3513C35.2183 27.6508 35.113 27.658 30.9368 27.6989L26.6704 27.7398V23.3585H30.4929C33.4787 23.3585 34.4778 23.4006 35.0552 23.5516ZM33.6141 34.1392C34.3064 34.3316 35.125 34.9331 35.5449 35.5581C35.9858 36.2149 36.2438 37.0691 36.8549 39.8985C37.371 42.2901 37.703 43.072 38.633 44.0897C39.7848 45.3499 39.5178 45.3012 45.2717 45.3012C48.0272 45.3012 50.281 45.3451 50.281 45.3992C50.281 45.496 48.3832 47.7396 48.3014 47.7396C48.278 47.7396 47.2867 47.5321 46.0988 47.2783C42.7442 46.5619 42.6233 46.6461 41.8534 50.2413L41.3583 52.551L40.9114 52.7712C40.1656 53.1393 37.7415 53.8972 36.485 54.1558C34.4086 54.5829 32.1488 54.7272 30.1627 54.5594C26.7768 54.2725 22.2933 52.9588 22.1182 52.2015C22.0809 52.0409 21.8554 51.0016 21.6178 49.8912C21.3796 48.7808 21.0903 47.7276 20.9748 47.5508C20.4196 46.7038 19.8355 46.6515 17.2671 47.2199C16.2945 47.4353 15.4458 47.6109 15.3809 47.6109C15.2587 47.6109 13.4537 45.5237 13.4537 45.383C13.4537 45.3391 17.7411 45.2879 22.9814 45.2699L32.5091 45.2374L32.5434 41.8528C32.5675 39.463 32.5344 38.4158 32.4309 38.2919C32.3154 38.1524 31.7007 38.1157 29.4776 38.1157H26.6704V34.0092L29.9106 34.0098C31.6923 34.0104 33.359 34.0688 33.6141 34.1392ZM18.9327 49.5309C20.4479 50.4542 19.7213 52.8734 17.9294 52.8716C16.0918 52.8704 15.4109 50.4734 16.9766 49.5183C17.4945 49.2025 18.4046 49.2085 18.9327 49.5309ZM46.6774 49.6319C47.4202 50.1763 47.6675 51.3089 47.2073 52.0632C45.9989 54.0451 42.977 52.4698 43.9863 50.3844C44.4825 49.3601 45.8016 48.9907 46.6774 49.6319Z" fill="black"/>
</svg>
