<svg width="48" height="48" viewBox="0 0 48 48" fill="none" xmlns="http://www.w3.org/2000/svg">
<g clip-path="url(#clip0_861_2721)">
<path d="M40.508 27H45C45.5304 27 46.0391 26.7893 46.4142 26.4142C46.7893 26.0391 47 25.5304 47 25V23C47 22.4696 46.7893 21.9609 46.4142 21.5858C46.0391 21.2107 45.5304 21 45 21H40.506C40.0982 18.9728 39.4258 17.008 38.506 15.156L41.678 11.98C42.0529 11.6049 42.2636 11.0963 42.2636 10.566C42.2636 10.0357 42.0529 9.52706 41.678 9.152L38.848 6.322C38.4729 5.94706 37.9643 5.73643 37.434 5.73643C36.9037 5.73643 36.3951 5.94706 36.02 6.322L32.84 9.5C30.9896 8.57986 29.026 7.90741 27 7.5V3C27 2.46957 26.7893 1.96086 26.4142 1.58579C26.0391 1.21071 25.5304 1 25 1H23C22.4696 1 21.9609 1.21071 21.5858 1.58579C21.2107 1.96086 21 2.46957 21 3V7.496C18.9733 7.90342 17.0091 8.57586 15.158 9.496L11.978 6.322C11.6029 5.94706 11.0943 5.73643 10.564 5.73643C10.0337 5.73643 9.52505 5.94706 9.15 6.322L6.32 9.152C5.94506 9.52706 5.73443 10.0357 5.73443 10.566C5.73443 11.0963 5.94506 11.6049 6.32 11.98L9.5 15.158C8.5808 17.0095 7.9084 18.9736 7.5 21H3C2.46957 21 1.96086 21.2107 1.58579 21.5858C1.21071 21.9609 1 22.4696 1 23V25C1 25.5304 1.21071 26.0391 1.58579 26.4142C1.96086 26.7893 2.46957 27 3 27H7.492C7.9004 29.0264 8.5728 30.9905 9.492 32.842L6.312 36.022C5.93706 36.3971 5.72643 36.9057 5.72643 37.436C5.72643 37.9663 5.93706 38.4749 6.312 38.85L9.142 41.678C9.51706 42.0529 10.0257 42.2636 10.556 42.2636C11.0863 42.2636 11.5949 42.0529 11.97 41.678L15.148 38.5C17.0021 39.4232 18.9697 40.0984 21 40.508V45C21 45.5304 21.2107 46.0391 21.5858 46.4142C21.9609 46.7893 22.4696 47 23 47H25C25.5304 47 26.0391 46.7893 26.4142 46.4142C26.7893 46.0391 27 45.5304 27 45V40.508C29.0258 40.0999 30.9893 39.4275 32.84 38.508L36.022 41.686C36.3971 42.0609 36.9057 42.2716 37.436 42.2716C37.9663 42.2716 38.4749 42.0609 38.85 41.686L41.678 38.858C42.0529 38.4829 42.2636 37.9743 42.2636 37.444C42.2636 36.9137 42.0529 36.4051 41.678 36.03L38.5 32.85C39.4226 30.9963 40.0977 29.0295 40.508 27Z" stroke="url(#paint0_linear_861_2721)" stroke-width="2" stroke-linecap="round" stroke-linejoin="round"/>
<path d="M24 33C28.9706 33 33 28.9706 33 24C33 19.0294 28.9706 15 24 15C19.0294 15 15 19.0294 15 24C15 28.9706 19.0294 33 24 33Z" stroke="url(#paint1_linear_861_2721)" stroke-width="2" stroke-linecap="round" stroke-linejoin="round"/>
</g>
<defs>
<linearGradient id="paint0_linear_861_2721" x1="1.65341" y1="1.5974" x2="52.1965" y2="40.1953" gradientUnits="userSpaceOnUse">
<stop stop-color="#189DF8"/>
<stop offset="1" stop-color="#253E7F"/>
</linearGradient>
<linearGradient id="paint1_linear_861_2721" x1="15.2557" y1="15.2338" x2="35.0334" y2="30.3373" gradientUnits="userSpaceOnUse">
<stop stop-color="#189DF8"/>
<stop offset="1" stop-color="#253E7F"/>
</linearGradient>
<clipPath id="clip0_861_2721">
<rect width="48" height="48" fill="white"/>
</clipPath>
</defs>
</svg>
