<svg width="79" height="42" viewBox="0 0 79 42" fill="none" xmlns="http://www.w3.org/2000/svg">
<g clip-path="url(#clip0_1311_7244)">
<path d="M66.9688 19.9163C68.4872 20.3151 70.0027 20.7138 71.9853 21.234C71.0112 19.3413 70.2777 17.7318 69.3753 16.2292C68.8166 15.3017 68.9198 14.7093 69.6274 13.9378C70.9481 12.4988 72.1571 10.9558 73.412 9.45608C73.3518 9.33183 73.2888 9.20758 73.2286 9.08333C71.6844 9.48498 70.1001 9.77104 68.6075 10.3201C67.0346 10.898 66.0462 10.6813 65.3214 9.02843C64.7456 7.71945 63.8574 6.54918 62.8404 4.88479C62.4565 6.90748 62.0353 8.48518 61.8864 10.086C61.7345 11.7475 61.087 12.6606 59.391 13.0074C57.7952 13.3339 56.2654 13.9898 54.2313 14.6544C56.2252 15.5184 57.8182 16.2061 59.6231 16.9892C58.5315 17.7087 57.6061 18.3415 56.655 18.9252C56.4115 19.0754 56.0104 19.2257 55.7984 19.1246C54.0336 18.2953 52.1628 17.6018 50.5899 16.4835C49.103 15.4259 49.4812 13.5044 51.246 12.7791C53.3403 11.9209 55.5119 11.2389 57.6835 10.6061C58.6834 10.3143 59.1045 9.82016 59.2334 8.79148C59.4483 7.0953 59.7978 5.41358 60.1302 3.73185C60.239 3.17705 60.3966 2.6107 60.6487 2.1108C61.6543 0.111221 63.3389 -0.0303696 64.5966 1.81317C65.5306 3.18283 66.4215 4.59872 67.1664 6.07818C67.7824 7.29757 68.5015 7.52296 69.7592 7.10975C71.6644 6.47983 73.6125 5.92792 75.5836 5.58984C76.423 5.44536 77.3656 5.92214 78.2623 6.11863C78.0217 7.02018 78.0073 8.08932 77.4974 8.78859C76.1566 10.6292 74.6296 12.337 73.114 14.0418C72.4752 14.7613 72.3319 15.3392 72.8533 16.2234C73.7988 17.83 74.727 19.4742 75.406 21.2051C75.7211 22.0112 75.7756 23.3087 75.3286 23.9184C74.8817 24.5252 73.6097 24.8777 72.7846 24.7592C71.12 24.5194 69.3466 24.1553 67.9428 23.3029C67.1521 22.8232 67.006 21.2657 66.5677 20.1908C66.7023 20.1012 66.837 20.0088 66.9716 19.9163H66.9688Z" fill="black"/>
<path d="M16.681 36.2107C16.4231 38.0022 16.1796 39.6926 15.9218 41.487C14.8761 41.487 13.8762 41.487 12.6987 41.487C13.0311 38.7882 13.3462 36.1789 13.6757 33.5725C13.8447 32.2318 14.0137 30.8939 14.2229 29.5589C14.8474 25.6204 18.0991 22.4448 21.8608 22.072C27.519 21.5143 31.1489 26.5364 28.9028 31.8157C26.8171 36.7192 21.8894 38.5426 16.6753 36.2107H16.681ZM26.0837 29.1746C26.1038 27.0132 24.5452 25.421 22.3994 25.4182C19.8124 25.4124 17.5347 27.698 17.5433 30.2929C17.5519 32.4138 19.1649 33.9944 21.3193 33.9857C23.8089 33.977 26.0579 31.703 26.0837 29.1717V29.1746Z" fill="black"/>
<path d="M0.293328 33.1679C1.45076 32.5437 2.53371 31.96 3.7026 31.3301C4.03493 31.8791 4.29278 32.3761 4.61651 32.824C5.53902 34.0983 7.003 34.2543 8.27217 33.243C9.44679 32.3068 9.51842 31.4023 8.39536 30.0385C7.44134 28.8798 6.41856 27.773 5.38718 26.6779C3.82293 25.0135 2.93193 23.1266 3.87736 20.8756C4.90014 18.4369 6.80532 17.047 9.45252 16.7667C11.9708 16.5008 13.6869 17.6913 15.0048 19.9365C13.9648 20.737 12.922 21.5345 11.8849 22.332C11.3606 21.7685 10.9709 20.9826 10.4323 20.8554C9.59004 20.6589 8.46985 20.6185 7.78227 21.0375C6.76808 21.6587 7.40123 22.5776 8.02578 23.2682C8.997 24.346 9.94529 25.4527 10.9767 26.467C12.7185 28.1834 13.4663 30.1887 12.6842 32.5553C11.8361 35.1212 10.0312 36.7538 7.39264 37.2999C3.65103 38.0744 1.48514 36.8145 0.287598 33.165L0.293328 33.1679Z" fill="black"/>
<path d="M45.101 36.9129C43.8777 36.9129 42.9122 36.9129 41.7748 36.9129C42.0642 34.6706 42.3908 32.5266 42.6028 30.371C42.7775 28.5881 42.4968 26.8919 40.8237 25.8488C39.4685 25.005 37.3428 25.3142 35.9074 26.5481C34.4778 27.7761 33.7301 29.3192 34.24 31.261C34.8904 33.7373 37.5376 34.714 39.9928 33.3963C40.4369 33.1565 40.8552 32.8676 41.4224 32.5121C41.3193 33.2316 41.2305 33.7951 41.1588 34.3557C40.8437 36.832 40.434 37.2192 38.0074 37.3319C32.7617 37.5804 29.4986 33.3097 31.06 28.2442C32.2604 24.3549 36.0363 21.7601 40.0816 22.049C43.4594 22.2917 46.1352 25.0397 45.9977 28.4552C45.886 31.2494 45.4219 34.0292 45.101 36.9129Z" fill="black"/>
<path d="M59.7552 25.8949C61.8695 23.5601 63.663 21.5779 65.5195 19.5263C66.3331 21.6414 66.5451 23.4243 64.5683 24.9009C63.6773 25.5655 63.0069 26.5306 62.1961 27.4032C64.4251 30.5644 66.5967 33.6505 68.9688 37.0139C67.4648 37.0139 66.207 37.092 64.9694 36.9677C64.5769 36.9301 64.1529 36.4158 63.8864 36.0228C62.4425 33.8845 61.0444 31.7145 59.3599 29.1428C59.039 31.4024 58.6264 33.2084 58.5663 35.0259C58.5147 36.6845 57.873 37.2393 56.3288 36.9937C55.836 36.9157 55.326 36.9417 54.6499 36.9099C55.0625 33.61 55.4521 30.4257 55.8618 27.2443C56.1053 25.3372 56.4835 23.4388 56.6038 21.5259C56.6811 20.2805 57.151 19.5032 58.2053 18.9368C59.0103 18.5034 59.7581 17.9601 60.8095 17.2869C60.4543 20.2082 60.1305 22.8551 59.7609 25.892L59.7552 25.8949Z" fill="black"/>
<path d="M54.5437 25.7677C53.9364 25.7677 53.5267 25.7908 53.1227 25.7648C51.9137 25.6868 51.3264 26.2762 51.1803 27.4638C50.8537 30.0905 50.3781 32.7055 50.1805 35.3408C50.0773 36.7191 49.6132 37.193 48.3097 37.0023C47.814 36.9301 47.3012 36.9908 46.585 36.9908C46.9001 34.4306 47.1866 32.0294 47.4903 29.631C47.6135 28.6515 47.7481 27.6748 47.9143 26.7039C48.4071 23.7912 50.0573 22.4013 53.0053 22.3898C53.521 22.3869 54.0367 22.4013 54.5495 22.4216C54.6412 22.4244 54.7328 22.5025 54.9162 22.5863C54.8016 23.5716 54.6841 24.5829 54.5466 25.7706L54.5437 25.7677Z" fill="black"/>
<path d="M26.0834 29.1747C26.0576 31.706 23.8086 33.9801 21.319 33.9887C19.1674 33.9974 17.5516 32.4168 17.543 30.2958C17.5344 27.701 19.8092 25.4154 22.3991 25.4212C24.542 25.424 26.1034 27.0133 26.0834 29.1747Z" fill="white"/>
</g>
<defs>
<clipPath id="clip0_1311_7244">
<rect width="79" height="41" fill="white" transform="translate(0 0.5)"/>
</clipPath>
</defs>
</svg>
