<svg width="39" height="20" viewBox="0 0 39 20" fill="none" xmlns="http://www.w3.org/2000/svg">
<g clip-path="url(#clip0_392_9251)">
<path d="M32.7125 9.47142C33.4429 9.66594 34.1719 9.86045 35.1255 10.1142C34.657 9.19092 34.3042 8.4058 33.8701 7.67284C33.6014 7.22038 33.651 6.93142 33.9914 6.55507C34.6267 5.85312 35.2082 5.10042 35.8118 4.36887C35.7829 4.30826 35.7525 4.24765 35.7236 4.18704C34.9808 4.38296 34.2188 4.52251 33.5008 4.79032C32.7442 5.07223 32.2688 4.96652 31.9201 4.16026C31.6431 3.52173 31.2159 2.95087 30.7267 2.13897C30.5421 3.12565 30.3395 3.89526 30.2678 4.67615C30.1948 5.48664 29.8833 5.93205 29.0675 6.1012C28.2999 6.26048 27.5641 6.58044 26.5856 6.90464C27.5448 7.32609 28.311 7.66157 29.1792 8.04355C28.6541 8.39453 28.209 8.70322 27.7515 8.98795C27.6343 9.06124 27.4414 9.13454 27.3394 9.08521C26.4905 8.68067 25.5907 8.34237 24.8341 7.79688C24.1189 7.28099 24.3008 6.34364 25.1497 5.98984C26.157 5.57121 27.2016 5.23856 28.2462 4.92987C28.7271 4.7875 28.9297 4.54647 28.9917 4.04467C29.0951 3.21727 29.2632 2.39691 29.4231 1.57656C29.4754 1.30593 29.5512 1.02966 29.6725 0.785805C30.1562 -0.1896 30.9665 -0.258669 31.5715 0.640621C32.0207 1.30874 32.4493 1.99942 32.8076 2.72111C33.1039 3.31594 33.4498 3.42588 34.0548 3.22432C34.9712 2.91704 35.9083 2.64781 36.8564 2.4829C37.2601 2.41242 37.7135 2.64499 38.1449 2.74084C38.0291 3.18062 38.0222 3.70215 37.7769 4.04326C37.132 4.94114 36.3975 5.77418 35.6685 6.60582C35.3612 6.95679 35.2923 7.2387 35.5431 7.67002C35.9978 8.45373 36.4443 9.25576 36.7709 10.1001C36.9225 10.4933 36.9487 11.1262 36.7337 11.4236C36.5187 11.7196 35.9069 11.8916 35.51 11.8338C34.7093 11.7168 33.8563 11.5392 33.1811 11.1234C32.8007 10.8894 32.7304 10.1297 32.5196 9.60533C32.5844 9.56163 32.6491 9.51653 32.7139 9.47142H32.7125Z" fill="black"/>
<path d="M8.52392 17.4198C8.39989 18.2938 8.28275 19.1183 8.15873 19.9937C7.65573 19.9937 7.17479 19.9937 6.6084 19.9937C6.76825 18.6772 6.91984 17.4043 7.07832 16.1329C7.15963 15.4789 7.24093 14.8263 7.34153 14.1751C7.64195 12.2539 9.20606 10.7048 11.0155 10.5229C13.7372 10.2509 15.4832 12.7007 14.4028 15.2759C13.3995 17.6679 11.0292 18.5573 8.52116 17.4198H8.52392ZM13.0467 13.9876C13.0564 12.9333 12.3067 12.1566 11.2745 12.1552C10.0301 12.1524 8.93458 13.2673 8.93871 14.5331C8.94285 15.5677 9.7187 16.3387 10.755 16.3345C11.9526 16.3303 13.0343 15.221 13.0467 13.9862V13.9876Z" fill="black"/>
<path d="M0.641428 15.9356C1.19817 15.6311 1.71908 15.3464 2.28133 15.0391C2.44119 15.3069 2.56521 15.5494 2.72093 15.7679C3.16467 16.3895 3.86887 16.4656 4.47935 15.9722C5.04436 15.5155 5.07881 15.0744 4.53861 14.4091C4.07971 13.8438 3.58774 13.304 3.09164 12.7698C2.33921 11.9579 1.91063 11.0374 2.36539 9.93939C2.85736 8.74973 3.77378 8.07174 5.04712 7.93502C6.25844 7.80534 7.0839 8.38607 7.71782 9.48129C7.21758 9.87173 6.71596 10.2608 6.2171 10.6498C5.96491 10.3749 5.77749 9.99154 5.51842 9.92952C5.11326 9.83367 4.57444 9.81394 4.2437 10.0183C3.75587 10.3214 4.06042 10.7696 4.36084 11.1065C4.828 11.6323 5.28414 12.1721 5.78025 12.6669C6.61812 13.5041 6.97779 14.4824 6.60158 15.6368C6.19367 16.8884 5.32549 17.6848 4.05628 17.9512C2.25653 18.329 1.2147 17.7144 0.638672 15.9342L0.641428 15.9356Z" fill="black"/>
<path d="M22.1944 17.7624C21.606 17.7624 21.1416 17.7624 20.5945 17.7624C20.7337 16.6686 20.8908 15.6227 20.9927 14.5712C21.0768 13.7015 20.9418 12.8741 20.137 12.3652C19.4851 11.9536 18.4626 12.1044 17.7722 12.7063C17.0845 13.3054 16.7249 14.0581 16.9702 15.0053C17.283 16.2133 18.5563 16.6897 19.7373 16.0469C19.9509 15.93 20.1521 15.789 20.425 15.6156C20.3754 15.9666 20.3327 16.2415 20.2982 16.5149C20.1466 17.7229 19.9495 17.9118 18.7823 17.9667C16.2591 18.088 14.6895 16.0047 15.4405 13.5337C16.0179 11.6365 17.8342 10.3707 19.78 10.5117C21.4048 10.6301 22.6919 11.9705 22.6258 13.6366C22.572 14.9997 22.3488 16.3556 22.1944 17.7624Z" fill="black"/>
<path d="M29.2428 12.3878C30.2598 11.2489 31.1225 10.2819 32.0155 9.28113C32.4069 10.3129 32.5089 11.1826 31.558 11.9029C31.1294 12.2271 30.8069 12.6979 30.4169 13.1236C31.4891 14.6656 32.5337 16.171 33.6747 17.8117C32.9512 17.8117 32.3462 17.8498 31.7509 17.7891C31.5621 17.7708 31.3582 17.5199 31.23 17.3282C30.5355 16.2852 29.863 15.2266 29.0527 13.9721C28.8983 15.0744 28.6999 15.9553 28.6709 16.8419C28.6461 17.651 28.3374 17.9216 27.5947 17.8018C27.3576 17.7638 27.1123 17.7765 26.7871 17.761C26.9856 16.1513 27.173 14.5979 27.37 13.046C27.4872 12.1157 27.6691 11.1897 27.727 10.2565C27.7642 9.64902 27.9902 9.26986 28.4973 8.99359C28.8845 8.78215 29.2442 8.51716 29.75 8.18874C29.5791 9.61379 29.4234 10.9049 29.2456 12.3864L29.2428 12.3878Z" fill="black"/>
<path d="M26.7365 12.3258C26.4443 12.3258 26.2473 12.337 26.053 12.3243C25.4714 12.2863 25.1889 12.5738 25.1186 13.1532C24.9615 14.4344 24.7328 15.7101 24.6377 16.9956C24.5881 17.6679 24.3648 17.8991 23.7378 17.8061C23.4994 17.7708 23.2527 17.8004 22.9082 17.8004C23.0598 16.5516 23.1976 15.3802 23.3437 14.2103C23.4029 13.7325 23.4677 13.2561 23.5476 12.7824C23.7847 11.3616 24.5784 10.6836 25.9965 10.678C26.2445 10.6766 26.4926 10.6836 26.7392 10.6935C26.7833 10.6949 26.8274 10.733 26.9156 10.7738C26.8605 11.2545 26.804 11.7478 26.7379 12.3272L26.7365 12.3258Z" fill="black"/>
<path d="M13.0465 13.9876C13.0341 15.2224 11.9523 16.3317 10.7548 16.3359C9.71985 16.3401 8.94262 15.5691 8.93849 14.5345C8.93435 13.2687 10.0285 12.1538 11.2743 12.1566C12.3051 12.158 13.0562 12.9333 13.0465 13.9876Z" fill="white"/>
</g>
<defs>
<clipPath id="clip0_392_9251">
<rect width="38" height="20" fill="white" transform="translate(0.5)"/>
</clipPath>
</defs>
</svg>
