<svg width="40" height="40" viewBox="0 0 40 40" fill="none" xmlns="http://www.w3.org/2000/svg">
<path d="M15.2027 19.8791C14.6705 19.8791 14.2371 20.0391 13.904 20.3562C13.5718 20.6737 13.4046 21.09 13.4046 21.6C13.4046 21.8641 13.4449 22.1056 13.528 22.3266C13.6146 22.5538 13.7452 22.7616 13.9124 22.9381C14.0843 23.1237 14.4299 23.3741 14.9437 23.695C15.5762 24.0831 15.989 24.3981 16.1877 24.6434C16.3865 24.8887 16.4859 25.1466 16.4859 25.415C16.4859 25.7737 16.3687 26.0619 16.1255 26.2769C15.884 26.4916 15.5605 26.6003 15.1577 26.6003C14.7352 26.6003 14.3665 26.4491 14.0505 26.1509C13.733 25.8531 13.573 25.4591 13.5693 24.9634H13.373V26.7603H13.5693C13.6293 26.5894 13.7134 26.5025 13.8221 26.5025C13.8746 26.5025 13.9968 26.5381 14.1884 26.6062C14.6534 26.7725 15.0343 26.8541 15.3346 26.8541C15.8509 26.8541 16.294 26.6709 16.6602 26.3009C17.0277 25.9312 17.2134 25.4847 17.2134 24.9634C17.2134 24.5594 17.0912 24.1991 16.8518 23.8866C16.6102 23.5728 16.144 23.2069 15.4455 22.7881C14.8452 22.4244 14.4546 22.13 14.2737 21.8994C14.0927 21.6687 14.0002 21.415 14.0002 21.1353C14.0002 20.8312 14.1115 20.5897 14.3299 20.4078C14.5471 20.2269 14.8318 20.1366 15.1905 20.1366C15.5909 20.1366 15.9268 20.2575 16.1915 20.4981C16.4565 20.7409 16.609 21.0753 16.654 21.5062H16.8518V19.9487H16.669C16.6455 20.0294 16.6249 20.0794 16.6065 20.1025C16.5871 20.1256 16.5527 20.1369 16.498 20.1369C16.4355 20.1369 16.3221 20.1097 16.1612 20.0572C15.8155 19.94 15.4971 19.8791 15.2027 19.8791ZM21.6396 19.8791C20.9902 19.8791 20.4005 20.0341 19.8671 20.3416C19.3337 20.6506 18.9115 21.0766 18.599 21.6209C18.2887 22.1644 18.1324 22.7428 18.1324 23.3581C18.1324 24.1844 18.4024 24.9219 18.9443 25.5675C19.4887 26.2134 20.138 26.6162 20.8924 26.77C21.0659 26.8603 21.3137 27.0934 21.6371 27.4731C21.9996 27.8981 22.3087 28.2056 22.5624 28.3887C22.8096 28.5693 23.0853 28.707 23.378 28.7962C23.6659 28.8844 23.9784 28.9269 24.3165 28.9269C24.7255 28.9269 25.093 28.8562 25.4152 28.7084L25.3434 28.5278C25.1514 28.5964 24.9488 28.6306 24.7449 28.6291C24.4605 28.6291 24.1715 28.5337 23.8821 28.3434C23.5927 28.1531 23.2302 27.7894 22.8005 27.2534C22.5977 26.9959 22.4574 26.8334 22.3793 26.77C23.2043 26.6075 23.8846 26.2059 24.4143 25.5616C24.944 24.9172 25.2077 24.1822 25.2077 23.3581C25.2077 22.3791 24.8621 21.5575 24.1749 20.8875C23.4877 20.2172 22.6418 19.8791 21.6396 19.8791ZM25.6568 19.8791L25.6677 20.0928C26.0999 20.0928 26.3415 20.2197 26.3952 20.4772C26.4162 20.57 26.4259 20.7409 26.4284 20.985L26.4246 25.6725C26.4196 26.0228 26.3709 26.2462 26.2755 26.3428C26.1805 26.4391 26.018 26.5 25.7849 26.5234L25.7752 26.7359H30.0856L30.1965 25.6725H29.999C29.944 25.9619 29.8146 26.1694 29.6084 26.2866C29.403 26.405 29.0396 26.4647 28.5146 26.4647H28.1055C27.633 26.4647 27.3596 26.2928 27.2877 25.9472C27.2735 25.8736 27.2665 25.7987 27.2668 25.7237L27.284 20.985C27.284 20.6359 27.3277 20.4016 27.4196 20.2869C27.5099 20.1722 27.6771 20.1087 27.9165 20.0928L27.9065 19.8791H25.6568ZM21.709 20.1366C22.4402 20.1366 23.0396 20.4272 23.5009 21.0119C23.9634 21.5991 24.1918 22.4009 24.1918 23.4166C24.1918 24.3797 23.9599 25.1512 23.4949 25.7312C23.0296 26.3109 22.4096 26.6 21.6393 26.6C20.8996 26.6 20.3002 26.3025 19.8399 25.7031C19.3799 25.105 19.1515 24.3284 19.1515 23.3716C19.1515 22.3903 19.3824 21.6041 19.8462 21.0153C20.3102 20.4297 20.9315 20.1366 21.709 20.1366ZM31.6224 21.145C31.5187 21.145 31.4368 21.1816 31.3784 21.2525C31.3159 21.3244 31.2977 21.4109 31.3184 21.5159C31.3393 21.6197 31.3977 21.7078 31.4893 21.7847C31.5784 21.8591 31.6774 21.8994 31.7824 21.8994C31.8279 21.901 31.8731 21.8915 31.914 21.8714C31.9549 21.8514 31.9902 21.8216 32.0168 21.7847C32.073 21.7078 32.0899 21.6197 32.0693 21.5159C32.0466 21.4122 31.9893 21.3193 31.9068 21.2525C31.8277 21.1842 31.7269 21.1461 31.6224 21.145ZM34.4655 21.8637C34.2884 22.555 33.9002 22.9294 33.3059 22.9894L33.3121 23.1872H34.0065L33.993 25.5297C33.9943 25.93 34.0056 26.1962 34.0346 26.3319C34.1031 26.6566 34.314 26.8225 34.6668 26.8225C35.1771 26.8225 35.713 26.51 36.2721 25.8837L36.1034 25.7384C35.6996 26.1497 35.3418 26.3562 35.0293 26.3562C34.8365 26.3562 34.7181 26.2462 34.673 26.0266C34.6614 25.9645 34.6561 25.9015 34.6571 25.8384L34.6634 23.1872H35.724L35.713 22.8722H34.6668V21.8641L34.4655 21.8637ZM38.5671 22.7466C37.9737 22.7466 37.4915 23.0372 37.1155 23.6122C36.7434 24.1881 36.6274 24.8266 36.7737 25.5297C36.8605 25.9409 37.0327 26.2597 37.2962 26.4856C37.5587 26.71 37.893 26.8212 38.2912 26.8212C38.6621 26.8212 39.1787 26.7272 39.3971 26.5369C39.6143 26.3475 39.8159 26.0387 40.0015 25.6162L39.8524 25.46C39.5555 26.0069 38.9587 26.2828 38.5087 26.2828C37.8884 26.2828 37.5099 25.9409 37.368 25.2625C37.3488 25.1706 37.335 25.0776 37.3268 24.9841C38.0643 24.8669 38.6221 24.6591 38.998 24.3591C39.3762 24.0587 39.7537 23.7391 39.6827 23.4031C39.6452 23.2117 39.5365 23.0417 39.3787 22.9272C39.2177 22.8087 38.8002 22.7466 38.5671 22.7466ZM32.0827 22.7709L30.8046 23.0662V23.2959L31.2465 23.2409C31.4615 23.2409 31.5871 23.3372 31.6274 23.5316C31.6396 23.5972 31.6493 23.6878 31.6518 23.8025L31.6371 25.9056C31.6334 26.195 31.6018 26.3647 31.5371 26.4159C31.4724 26.4659 31.3015 26.4916 31.0231 26.4916L31.0146 26.6906H33.0434L33.0396 26.4916C32.759 26.4916 32.5759 26.4697 32.494 26.4259C32.4146 26.3819 32.3587 26.3037 32.3343 26.1828C32.3171 26.0962 32.3087 25.9459 32.3074 25.7384L32.3137 22.7709H32.0827ZM38.2421 23.1603C38.3655 23.1603 38.4852 23.2078 38.6046 23.3019C38.7246 23.3956 38.7965 23.5019 38.8196 23.6156C38.9355 24.1734 38.4424 24.5603 37.333 24.7753C37.3024 24.3675 37.3721 23.9978 37.5515 23.6644C37.7296 23.33 37.9615 23.1603 38.2421 23.1603Z" fill="#003956"/>
<path d="M12.3416 11.8556H1.34063C0.603125 11.8556 0 12.4622 0 13.2034V25.4044C0 26.145 0.603125 26.7519 1.34063 26.7519H8.58562C8.50375 23.1262 9.73438 16.0903 12.3419 11.8544L12.3416 11.8556Z" fill="#0B7FCC"/>
<path d="M11.94 12.2484H1.34063C1.08806 12.2491 0.846101 12.35 0.66795 12.5291C0.4898 12.7081 0.390047 12.9506 0.390628 13.2031V24.5141C2.79219 23.5875 6.39438 22.7866 8.88594 22.8247C9.3875 20.1903 10.8584 15.0303 11.94 12.2469V12.2484Z" fill="url(#paint0_linear_392_8735)"/>
<path d="M14.9063 11.455C14.1532 10.78 13.24 11.0509 12.3416 11.8541C12.2072 11.9738 12.0729 12.1056 11.94 12.2472C10.4007 13.8916 8.97129 16.9347 8.52817 19.26C8.70005 19.6116 8.83567 20.0619 8.92505 20.4063C8.96844 20.5779 9.00824 20.7504 9.04442 20.9238C9.04442 20.9238 9.02973 20.87 8.9738 20.7053L8.93567 20.5966C8.92901 20.5771 8.92129 20.558 8.91254 20.5394C8.81254 20.3038 8.53442 19.8081 8.41223 19.5922C8.31518 19.8779 8.22402 20.1656 8.13879 20.455C8.49036 21.1044 8.70504 22.2191 8.70504 22.2191C8.70504 22.2191 8.68786 22.1459 8.59879 21.8956C8.51942 21.6722 8.12786 20.9813 8.0338 20.8188C7.87505 21.4097 7.81286 21.8075 7.8688 21.9053C7.98005 22.0934 8.0863 22.4169 8.17911 22.7772C8.38786 23.585 8.53161 24.5678 8.53161 24.5678L8.54411 24.7334C8.51713 25.4068 8.53091 26.0811 8.58536 26.7528C8.65411 27.5938 8.78536 28.3166 8.95036 28.7047L9.06411 28.6422C8.81973 27.8797 8.72098 26.8797 8.76379 25.7275C8.82942 23.9659 9.23254 21.8406 9.97692 19.6275C11.2369 16.2838 12.9813 13.6022 14.5791 12.3213C13.1229 13.6447 11.1525 17.9259 10.5619 19.5128C9.90161 21.2863 9.43411 22.9528 9.15098 24.5503C9.63911 23.0538 11.2129 22.4106 11.2129 22.4106C11.2129 22.4106 11.9841 21.4534 12.8863 20.0841C12.3466 20.2084 11.4582 20.4209 11.1613 20.5453C10.7219 20.7309 10.605 20.7944 10.605 20.7944C10.605 20.7944 12.0257 19.9253 13.2425 19.5297C14.9188 16.8759 16.745 13.105 14.9066 11.4547" fill="#003956"/>
<defs>
<linearGradient id="paint0_linear_392_8735" x1="7.0502" y1="12.4983" x2="7.0502" y2="23.8315" gradientUnits="userSpaceOnUse">
<stop stop-color="#95D7F4"/>
<stop offset="0.92" stop-color="#0F7FCC"/>
<stop offset="1" stop-color="#0F7FCC"/>
</linearGradient>
</defs>
</svg>
