<svg width="95" height="94" viewBox="0 0 95 94" fill="none" xmlns="http://www.w3.org/2000/svg">
<path d="M36.0903 46.7158C34.8397 46.7158 33.8211 47.0918 33.0382 47.8372C32.2576 48.5833 31.8647 49.5615 31.8647 50.76C31.8647 51.3806 31.9594 51.9482 32.1548 52.4674C32.3581 53.0014 32.6651 53.4899 33.0581 53.9046C33.462 54.3408 34.2742 54.9291 35.4815 55.6833C36.9679 56.5954 37.938 57.3356 38.405 57.9121C38.8721 58.4886 39.1056 59.0944 39.1056 59.7253C39.1056 60.5683 38.8302 61.2454 38.2589 61.7507C37.6912 62.2552 36.9312 62.5108 35.9845 62.5108C34.9917 62.5108 34.1251 62.1553 33.3827 61.4547C32.6365 60.7549 32.2605 59.8288 32.2517 58.6641H31.7905V62.8868H32.2517C32.3927 62.4851 32.5903 62.2809 32.8458 62.2809C32.9692 62.2809 33.2563 62.3646 33.7065 62.5247C34.7993 62.9154 35.6945 63.1071 36.4002 63.1071C37.6134 63.1071 38.6547 62.6767 39.5154 61.8072C40.379 60.9385 40.8153 59.889 40.8153 58.6641C40.8153 57.7146 40.5281 56.8678 39.9656 56.1334C39.3979 55.3961 38.3022 54.5362 36.6609 53.5521C35.2502 52.6973 34.3322 52.0055 33.907 51.4636C33.4818 50.9216 33.2644 50.3253 33.2644 49.668C33.2644 48.9535 33.5259 48.3858 34.0392 47.9584C34.5496 47.5332 35.2186 47.3209 36.0617 47.3209C37.0024 47.3209 37.7918 47.6052 38.4139 48.1706C39.0366 48.7412 39.395 49.527 39.5007 50.5397H39.9656V46.8796H39.536C39.4809 47.0691 39.4324 47.1866 39.3891 47.2409C39.3436 47.2952 39.2628 47.3217 39.1343 47.3217C38.9874 47.3217 38.7208 47.2578 38.3426 47.1344C37.5304 46.859 36.7821 46.7158 36.0903 46.7158V46.7158ZM51.217 46.7158C49.6909 46.7158 48.3052 47.0801 47.0516 47.8027C45.798 48.529 44.8059 49.5299 44.0715 50.8092C43.3422 52.0863 42.9751 53.4456 42.9751 54.8916C42.9751 56.8333 43.6096 58.5664 44.883 60.0836C46.1622 61.6016 47.6883 62.5482 49.4611 62.9095C49.8686 63.1218 50.451 63.6696 51.2111 64.5619C52.0629 65.5606 52.7892 66.2832 53.3856 66.7136C53.9663 67.1379 54.6143 67.4616 55.3023 67.6712C55.9786 67.8783 56.713 67.9782 57.5076 67.9782C58.4689 67.9782 59.3325 67.8122 60.0897 67.4648L59.9208 67.0404C59.4696 67.2015 58.9935 67.282 58.5144 67.2783C57.8462 67.2783 57.1669 67.0543 56.4868 66.6071C55.8068 66.1599 54.9549 65.3051 53.9452 64.0456C53.4685 63.4405 53.1388 63.0586 52.9552 62.9095C54.894 62.5276 56.4927 61.584 57.7375 60.0697C58.9822 58.5554 59.602 56.8282 59.602 54.8916C59.602 52.5908 58.7898 50.6601 57.1749 49.0856C55.56 47.5104 53.5721 46.7158 51.217 46.7158V46.7158ZM60.6573 46.7158L60.683 47.2181C61.6987 47.2181 62.2664 47.5163 62.3927 48.1214C62.4419 48.3395 62.4646 48.7412 62.4705 49.3148L62.4617 60.3304C62.4499 61.1536 62.3354 61.6787 62.1114 61.9056C61.8882 62.1318 61.5063 62.275 60.9584 62.3301L60.9357 62.8295H71.0649L71.3256 60.3304H70.8615C70.7322 61.0104 70.4282 61.4981 69.9435 61.7734C69.461 62.0518 68.607 62.192 67.3732 62.192H66.4119C65.3015 62.192 64.6589 61.7881 64.49 60.9759C64.4565 60.8029 64.4401 60.627 64.4408 60.4508L64.4812 49.3148C64.4812 48.4945 64.584 47.9437 64.7999 47.6742C65.0122 47.4047 65.4051 47.2556 65.9676 47.2181L65.9441 46.7158H60.6573ZM51.38 47.3209C53.0984 47.3209 54.507 48.0039 55.5909 49.3779C56.6778 50.7578 57.2146 52.6422 57.2146 55.0289C57.2146 57.2923 56.6697 59.1055 55.5769 60.4685C54.4834 61.8307 53.0265 62.51 51.2162 62.51C49.478 62.51 48.0694 61.8109 46.9877 60.4024C45.9067 58.9968 45.3699 57.1719 45.3699 54.9232C45.3699 52.6173 45.9126 50.7696 47.0024 49.386C48.0929 48.0098 49.5529 47.3209 51.38 47.3209V47.3209ZM74.6766 49.6908C74.4327 49.6908 74.2403 49.7767 74.103 49.9434C73.9561 50.1123 73.9135 50.3157 73.962 50.5625C74.0112 50.8063 74.1485 51.0134 74.3637 51.194C74.573 51.3688 74.8058 51.4636 75.0526 51.4636C75.1595 51.4675 75.2657 51.4449 75.3618 51.3979C75.4579 51.3509 75.5408 51.2809 75.6033 51.194C75.7355 51.0134 75.7752 50.8063 75.7267 50.5625C75.6734 50.3188 75.5387 50.1005 75.3448 49.9434C75.1589 49.7829 74.9222 49.6934 74.6766 49.6908ZM81.3579 51.3798C80.9415 53.0043 80.0294 53.8841 78.6326 54.0251L78.6473 54.4899H80.2791L80.2475 59.9948C80.2505 60.9355 80.2769 61.5612 80.3452 61.8799C80.506 62.6429 81.0017 63.0329 81.8308 63.0329C83.0301 63.0329 84.2895 62.2985 85.6033 60.8268L85.2068 60.4854C84.2579 61.4518 83.4171 61.9372 82.6827 61.9372C82.2296 61.9372 81.9513 61.6787 81.8455 61.1624C81.8182 61.0167 81.8057 60.8686 81.8081 60.7204L81.8228 54.4899H84.3152L84.2895 53.7497H81.8308V51.3806L81.3579 51.3798ZM90.9966 53.4544C89.602 53.4544 88.4689 54.1374 87.5854 55.4887C86.7108 56.8421 86.4383 58.3424 86.782 59.9948C86.9862 60.9612 87.3908 61.7103 88.0099 62.2412C88.6267 62.7685 89.4125 63.03 90.3481 63.03C91.2198 63.03 92.4337 62.8089 92.9471 62.3617C93.4575 61.9166 93.9311 61.1911 94.3674 60.1982L94.0171 59.831C93.3194 61.1162 91.9167 61.7646 90.8592 61.7646C89.4015 61.7646 88.5122 60.9612 88.1788 59.3669C88.1336 59.1509 88.1012 58.9324 88.0818 58.7126C89.815 58.4372 91.1258 57.9488 92.0093 57.2438C92.8979 56.5381 93.785 55.7868 93.6183 54.9974C93.53 54.5476 93.2747 54.148 92.9037 53.8789C92.5255 53.6006 91.5444 53.4544 90.9966 53.4544V53.4544ZM75.7583 53.5117L72.7547 54.2057V54.7455L73.7931 54.6162C74.2984 54.6162 74.5936 54.8424 74.6883 55.2992C74.717 55.4534 74.7397 55.6664 74.7456 55.9359L74.7111 60.8782C74.7023 61.5583 74.6281 61.957 74.4761 62.0775C74.3241 62.195 73.9224 62.2552 73.268 62.2552L73.2482 62.723H78.0158L78.0069 62.2552C77.3475 62.2552 76.9171 62.2038 76.7247 62.101C76.5382 61.9974 76.4067 61.8138 76.3495 61.5296C76.3091 61.3262 76.2892 60.973 76.2863 60.4854L76.301 53.5117H75.7583ZM90.2328 54.4268C90.5229 54.4268 90.8042 54.5384 91.0847 54.7594C91.3667 54.9797 91.5356 55.2294 91.5899 55.4967C91.8624 56.8076 90.7036 57.7168 88.0965 58.222C88.0246 57.2636 88.1883 56.3949 88.6099 55.6113C89.0285 54.8255 89.5734 54.4268 90.2328 54.4268V54.4268Z" fill="#003956"/>
<path d="M29.366 27.8607H3.51375C1.78063 27.8607 0.363281 29.2861 0.363281 31.0281V59.7003C0.363281 61.4408 1.78063 62.8669 3.51375 62.8669H20.5395C20.3471 54.3467 23.2391 37.8122 29.3667 27.8578L29.366 27.8607Z" fill="#0B7FCC"/>
<path d="M28.4223 28.7838H3.51376C2.92023 28.7854 2.35162 29.0226 1.93296 29.4433C1.51431 29.864 1.27989 30.4338 1.28126 31.0273V57.608C6.92493 55.4306 15.3901 53.5484 21.2452 53.638C22.4239 47.4472 25.8806 35.3212 28.4223 28.7802V28.7838Z" fill="url(#paint0_linear_1311_7140)"/>
<path d="M35.3931 26.9193C33.6233 25.333 31.4774 25.9697 29.3661 27.8571C29.0503 28.1383 28.7345 28.4482 28.4224 28.7809C24.8049 32.6452 21.4459 39.7965 20.4045 45.261C20.8084 46.0872 21.1272 47.1454 21.3372 47.9547C21.4392 48.3581 21.5327 48.7636 21.6177 49.1708C21.6177 49.1708 21.5832 49.0445 21.4517 48.6575L21.3622 48.4019C21.3465 48.3562 21.3284 48.3113 21.3078 48.2676C21.0728 47.7138 20.4192 46.5491 20.1321 46.0417C19.904 46.7131 19.6898 47.3891 19.4895 48.0693C20.3157 49.5953 20.8202 52.2148 20.8202 52.2148C20.8202 52.2148 20.7798 52.043 20.5705 51.4547C20.384 50.9297 19.4638 49.306 19.2427 48.9241C18.8697 50.3128 18.7235 51.2477 18.855 51.4775C19.1164 51.9196 19.3661 52.6797 19.5842 53.5264C20.0748 55.4248 20.4126 57.7344 20.4126 57.7344L20.442 58.1236C20.3786 59.706 20.411 61.2907 20.5389 62.8691C20.7005 64.8453 21.0089 66.544 21.3967 67.456L21.664 67.3092C21.0897 65.5173 20.8576 63.1673 20.9582 60.4597C21.1125 56.32 22.0598 51.3255 23.8091 46.1247C26.7701 38.2668 30.8694 31.9652 34.6242 28.955C31.202 32.065 26.5718 42.126 25.1838 45.8551C23.6321 50.0227 22.5335 53.9391 21.8681 57.6933C23.0152 54.1763 26.7135 52.665 26.7135 52.665C26.7135 52.665 28.526 50.4156 30.6461 47.1976C29.3779 47.4899 27.29 47.9892 26.5924 48.2815C25.5598 48.7177 25.2852 48.8668 25.2852 48.8668C25.2852 48.8668 28.6237 46.8245 31.4833 45.8948C35.4225 39.6585 39.7142 30.7968 35.3939 26.9185" fill="#003956"/>
<defs>
<linearGradient id="paint0_linear_1311_7140" x1="16.9312" y1="29.371" x2="16.9312" y2="56.0041" gradientUnits="userSpaceOnUse">
<stop stop-color="#95D7F4"/>
<stop offset="0.92" stop-color="#0F7FCC"/>
<stop offset="1" stop-color="#0F7FCC"/>
</linearGradient>
</defs>
</svg>
