<svg width="95" height="29" viewBox="0 0 95 29" fill="none" xmlns="http://www.w3.org/2000/svg">
<path d="M29.6549 6.99752C29.6547 6.37833 29.5919 5.76075 29.4672 5.15423C29.2357 3.90921 28.6194 2.76816 27.7051 1.89178C27.2406 1.43403 26.6994 1.06134 26.1061 0.790702C25.5297 0.503161 24.9138 0.30252 24.2786 0.195305C23.6505 0.0729631 22.957 0.0729621 22.3289 0.0158691H6.81205C6.32854 0.0246024 5.84615 0.0654744 5.36806 0.138212C4.89149 0.193662 4.42482 0.314417 3.98118 0.497081C3.8588 0.554174 3.66301 0.619424 3.54064 0.676517C3.1187 0.898743 2.71737 1.15804 2.34139 1.45135C2.21902 1.57369 2.08849 1.63079 1.96611 1.74497C1.497 2.16705 1.1074 2.66981 0.815815 3.22939C0.505117 3.78418 0.292601 4.38846 0.187637 5.01558C0.0942771 5.62375 0.0316517 6.23623 0 6.85071V21.0668C0.000120686 21.686 0.0629875 22.3036 0.187637 22.9101C0.419138 24.1552 1.03546 25.2962 1.9498 26.1726C2.40947 26.6164 2.94208 26.9778 3.52432 27.241C4.10073 27.5286 4.71655 27.7292 5.35175 27.8364C5.97992 27.9588 6.67336 27.9588 7.30154 28.0159H22.3615C23.0155 28.0151 23.6681 27.9551 24.3113 27.8364C24.9349 27.7287 25.5394 27.5309 26.1061 27.2492C26.6961 26.9691 27.2451 26.6096 27.7377 26.1807C28.201 25.7573 28.585 25.2546 28.8717 24.6963C29.1824 24.1415 29.3949 23.5373 29.4999 22.9101C29.5935 22.2993 29.6561 21.684 29.6875 21.0668V6.99752H29.6549Z" fill="#F05138"/>
<path d="M19.7901 21.6744C17.0947 23.0936 13.3927 23.238 9.67398 21.7866C6.77299 20.6616 4.28925 18.723 2.54443 16.2218C3.35753 16.8072 4.24349 17.292 5.18162 17.6651C9.02509 19.2688 12.8769 19.1967 15.5806 17.6651C12.0117 15.0477 8.79757 12.009 6.01354 8.62034C5.5317 8.1286 5.10248 7.59132 4.73238 7.01665C7.65578 9.38365 10.7654 11.5283 14.0332 13.4314C11.6529 11.105 9.46392 8.60376 7.48604 5.95019C10.7848 9.0002 14.4101 11.7042 18.301 14.0168L18.7169 14.2413C18.8296 13.9795 18.9268 13.7118 19.0081 13.4394C19.9066 10.4566 18.8833 7.06476 16.6372 4.2583C21.8366 7.12089 24.9148 12.5013 23.6336 17.0076C23.6336 17.1279 23.567 17.2482 23.5254 17.3685L23.567 17.4166C26.1377 20.3433 25.4305 23.4384 25.1061 22.8531C23.7001 20.4075 21.0962 21.1612 19.7901 21.6744Z" fill="#FEFEFE"/>
<path d="M88.5152 11.3445H81.8133V10.5286C81.8133 9.87731 81.8732 9.21856 81.9257 8.56729C81.9692 7.99529 82.1271 7.43783 82.3899 6.9279C82.6234 6.48944 82.96 6.11435 83.3709 5.83498C83.8978 5.53723 84.4955 5.38722 85.1006 5.4008C85.4703 5.40187 85.8391 5.43948 86.2014 5.51309C86.4934 5.62538 86.7181 5.67778 86.9502 5.78258L87.4145 4.68965C87.1179 4.55253 86.8097 4.44229 86.4934 4.36028C86.0792 4.24476 85.6505 4.18929 85.2204 4.19559C84.4205 4.17026 83.6264 4.33982 82.9066 4.68965C82.2903 5.01912 81.7575 5.48514 81.3491 6.05207C80.9686 6.67598 80.6953 7.35913 80.5403 8.07323C80.3725 8.89829 80.2946 9.73913 80.3082 10.581V11.3969H78.1142V12.4899H80.3082V25.7023H81.8058V12.4374H88.5077V21.4953C88.5023 22.101 88.56 22.7056 88.68 23.2993C88.7467 23.8053 88.923 24.2907 89.1966 24.7216C89.4438 25.1274 89.8061 25.4505 90.2375 25.6499C90.7829 25.8851 91.3735 25.9976 91.9672 25.9793C92.6565 26.0061 93.344 25.8941 93.989 25.6499L93.8318 24.5869C93.603 24.655 93.3705 24.71 93.1354 24.7516C92.8108 24.7997 92.4824 24.8173 92.1544 24.804C91.8342 24.8331 91.5117 24.7796 91.2181 24.6485C90.9244 24.5174 90.6693 24.3132 90.4771 24.0554C90.1406 23.3775 89.9809 22.6256 90.0128 21.8696V12.4899H94.2511V11.4044H90.0353V8.23792L88.5377 8.6721L88.5152 11.3445ZM36.218 23.5164C36.8576 23.9356 37.5605 24.249 38.2997 24.4447C39.1066 24.6869 39.9434 24.8154 40.7858 24.8264C42.1173 24.908 43.4327 24.5007 44.4849 23.6811C44.9102 23.3082 45.249 22.8472 45.4779 22.33C45.7068 21.8129 45.8202 21.2522 45.8103 20.6868C45.8489 19.6655 45.4983 18.6675 44.8294 17.8946C43.9075 17.0123 42.8032 16.3429 41.5945 15.9333C40.1584 15.4919 38.8246 14.7692 37.6707 13.8073C37.1959 13.3842 36.8203 12.8616 36.5705 12.2768C36.3207 11.6919 36.2029 11.0593 36.2255 10.4238C36.2291 9.72405 36.3877 9.0338 36.6898 8.40261C36.9995 7.79328 37.4331 7.2553 37.9628 6.8231C38.5195 6.34663 39.17 5.99216 39.8722 5.78258C40.6523 5.51417 41.4736 5.38494 42.2984 5.4008C43.1521 5.3939 44.0037 5.48432 44.8369 5.67029C45.3772 5.81006 45.8997 6.01098 46.3944 6.26915L45.8178 7.46688C45.3863 7.20358 44.92 7.002 44.4325 6.86802C43.7069 6.63572 42.9479 6.52444 42.1861 6.53864C41.4606 6.5183 40.7375 6.6299 40.052 6.86802C39.5182 7.05942 39.0291 7.35741 38.6142 7.74386C38.2926 8.09328 38.0387 8.49941 37.8654 8.94158C37.7047 9.34105 37.6258 9.76869 37.6333 10.1992C37.6117 10.6925 37.6931 11.1849 37.8723 11.645C38.0515 12.1051 38.3246 12.5228 38.6741 12.8716C39.6521 13.683 40.7682 14.3118 41.9689 14.7281C42.749 15.0244 43.5008 15.3901 44.2154 15.821C44.8185 16.1868 45.3808 16.6159 45.8927 17.1011C46.3191 17.5275 46.6531 18.0371 46.8737 18.5983C47.1085 19.2252 47.2253 19.8901 47.2181 20.5595C47.2237 21.2878 47.0863 22.0101 46.8138 22.6855C46.541 23.3581 46.1184 23.9597 45.5782 24.4447C44.9667 24.9725 44.2602 25.379 43.4965 25.6424C42.5627 25.9418 41.5867 26.0884 40.6061 26.0766C40.1425 26.0663 39.6799 26.0288 39.2208 25.9643C38.7543 25.9007 38.2918 25.8108 37.8355 25.6948C37.4004 25.5837 36.9748 25.4385 36.5625 25.2606C36.2188 25.1315 35.8899 24.9658 35.5815 24.7666L36.218 23.5164ZM50.0711 11.4044L52.5572 19.534C52.7893 20.3499 53.0214 21.1734 53.2536 21.8845C53.4857 22.5957 53.6579 23.3817 53.8301 24.0105H53.9425C54.1147 23.3592 54.3468 22.6481 54.579 21.8845C54.8111 21.121 55.0956 20.3874 55.3877 19.534L58.3081 11.4044H59.6934L62.5239 19.4217C62.8159 20.2975 63.1005 21.1135 63.3326 21.877C63.5647 22.6406 63.7969 23.3742 63.9691 24.003H64.0814C64.2536 23.2919 64.4259 22.5807 64.658 21.877C64.8901 21.1734 65.1223 20.3799 65.4068 19.4741L68.0426 11.4044H69.5403L64.5756 25.7023H63.3925L60.5545 17.7299C60.265 16.8566 59.9754 16.0381 59.6859 15.2746C59.4537 14.526 59.2216 13.6951 59.0494 12.8716H58.9895C58.7817 13.7022 58.5318 14.5217 58.2407 15.327C57.9511 16.0905 57.6616 16.909 57.372 17.7823L54.4367 25.7023H53.1637L48.5735 11.4044H50.0711ZM72.7677 11.4044H74.2653V25.7023H72.7677V11.4044ZM72.1911 7.04019C72.189 6.8732 72.2206 6.70751 72.2841 6.55301C72.3475 6.39851 72.4414 6.25838 72.5603 6.14099C72.6791 6.0236 72.8204 5.93136 72.9757 5.86978C73.1309 5.8082 73.297 5.77854 73.4641 5.78258C73.8001 5.78917 74.1215 5.92104 74.3654 6.15231C74.6092 6.38358 74.7578 6.69758 74.782 7.0327C74.7834 7.19947 74.7478 7.36449 74.6779 7.51591C74.608 7.66733 74.5055 7.80142 74.3776 7.90854C74.1223 8.12913 73.7939 8.24657 73.4566 8.23792C73.1213 8.23428 72.797 8.1183 72.5355 7.90854C72.3067 7.67357 72.1756 7.36056 72.1686 7.0327L72.1911 7.04019Z" fill="#221F20"/>
</svg>
