<svg width="138" height="30" viewBox="0 0 138 30" fill="none" xmlns="http://www.w3.org/2000/svg">
<path d="M14.4584 1.42593V2.80817H12.0293V3.70718H14.4584V6.46041H15.4079V3.70718H17.8977V2.80817H15.4079V0.0493164H14.4584V1.42593Z" fill="#7099A6"/>
<path d="M6.52001 4.9322V6.93812H2.84326V8.19674H6.52001V12.2704H7.88361V8.19674H11.6156V6.93812H7.88361V2.92627H6.52001V4.9322Z" fill="#EB912C"/>
<path d="M21.9282 4.9322V6.93812H18.2515V8.25855H21.9282V12.2704H23.347V8.25855H27.0238V6.93812H23.347V2.92627H21.9282V4.9322Z" fill="#59879B"/>
<path d="M14.1054 11.7646V14.0122H10.0146V15.6866H14.1054V20.1817H15.7616V15.6866H19.8524V14.0122H15.7616V9.51709H14.1054V11.7646Z" fill="#E8762C"/>
<path d="M26.1348 12.8996V14.3099H23.645V15.4505H26.1348V18.2656H27.377V15.4505H29.8668V14.3099H27.377V11.4949H26.1348V12.8996Z" fill="#5B6591"/>
<path d="M2.42908 13.0233V14.3718H0V15.3271H2.42908V18.0241H3.37864V15.3271L5.86845 15.2371V14.3718H3.37864V11.6748H2.42908V13.0233Z" fill="#7099A6"/>
<path d="M6.52001 19.3726V21.3786H2.84326V22.699H6.52001V26.7108H7.93882V22.699H11.6156V21.3786H7.93882V17.3667H6.52001V19.3726Z" fill="#C72035"/>
<path d="M21.9282 19.3726V21.3786H18.2515V22.6372H21.9282V26.7108H23.347V22.6372H27.0238V21.3786H23.347V17.3667H21.9282V19.3726Z" fill="#1F447E"/>
<path d="M14.3428 24.4687V25.8734H11.853V27.014H14.3428V29.8291H15.585V27.014H18.0748V25.8734H15.585V23.0583H14.3428V24.4687Z" fill="#5B6591"/>
<path d="M90.9029 6.03906V23.1203H89.0094V6.03906H90.9029ZM43.8505 8.43831V13.8886H48.946V15.6866H43.8505V21.5583H41.9569V15.6866H36.8613V13.8886H41.9569V8.43831H43.8505ZM103.115 12.1805C103.457 12.1973 103.893 12.2535 104.092 12.3041C104.285 12.3546 104.605 12.4726 104.798 12.5682C104.997 12.6581 105.317 12.8547 105.511 13.0064C105.709 13.1581 105.985 13.4391 106.129 13.6301C106.272 13.8212 106.477 14.1695 106.587 14.3999C106.698 14.6303 106.841 15.0348 106.907 15.2989C106.974 15.563 107.051 16.0968 107.112 17.1868H100.564L100.603 17.4116C100.619 17.5352 100.691 17.7993 100.746 17.996C100.807 18.1926 100.962 18.5016 101.083 18.6758C101.204 18.85 101.387 19.0579 101.481 19.131C101.58 19.204 101.779 19.3276 101.928 19.4063C102.071 19.4793 102.325 19.5749 102.491 19.6198C102.656 19.6648 103.098 19.7041 103.496 19.7041C103.888 19.7041 104.451 19.6648 104.743 19.6142C105.036 19.5636 105.45 19.4625 105.66 19.395C105.869 19.3276 106.145 19.2209 106.267 19.1591C106.388 19.0972 106.515 19.0411 106.548 19.0411C106.585 19.0411 106.607 19.3553 106.609 20.6593L106.609 20.8391L106.283 20.9908C106.101 21.0751 105.726 21.2099 105.439 21.2942C105.152 21.3729 104.627 21.474 104.268 21.5133C103.777 21.5639 103.446 21.5639 102.932 21.5133C102.557 21.474 102.01 21.3729 101.718 21.2886C101.425 21.2043 101 21.0357 100.779 20.9121C100.553 20.7885 100.172 20.502 99.9292 20.2716C99.6808 20.0412 99.3716 19.6648 99.2281 19.4344C99.0845 19.204 98.9079 18.8107 98.8251 18.5635C98.7423 18.3162 98.6429 17.8836 98.6043 17.6083C98.5601 17.2992 98.549 16.8666 98.5711 16.5294C98.5877 16.2148 98.6595 15.7428 98.7257 15.4787C98.792 15.2146 98.952 14.782 99.079 14.5179C99.206 14.2538 99.4434 13.8773 99.598 13.6807C99.7581 13.484 100.073 13.1806 100.299 13.0064C100.525 12.8322 100.906 12.6131 101.144 12.512C101.376 12.4108 101.779 12.2928 102.033 12.2423C102.336 12.1861 102.701 12.1636 103.115 12.1805ZM122.785 12.0906V15.1023C122.785 16.7598 122.768 18.7433 122.696 20.9065L122.222 21.0526C121.962 21.1313 121.438 21.2549 121.051 21.3167C120.56 21.4066 120.091 21.4403 119.456 21.4403C118.953 21.4403 118.374 21.4122 118.164 21.3785C117.954 21.3392 117.54 21.2324 117.247 21.1369C116.933 21.0357 116.524 20.8391 116.27 20.6705C116.022 20.5076 115.68 20.221 115.503 20.0244C115.332 19.8333 115.089 19.4962 114.973 19.2827C114.857 19.0692 114.697 18.6758 114.62 18.4174C114.504 18.0409 114.471 17.7487 114.443 17.0688C114.426 16.5238 114.443 16.0406 114.487 15.7765C114.526 15.5461 114.625 15.1584 114.708 14.9112C114.785 14.664 114.967 14.2707 115.111 14.0403C115.249 13.8099 115.547 13.4447 115.773 13.2312C116.027 12.9952 116.359 12.7536 116.629 12.6187C116.872 12.5007 117.225 12.3546 117.424 12.2984C117.617 12.2479 118.098 12.1861 118.49 12.1692C119.014 12.1467 119.318 12.1692 119.643 12.2366C119.892 12.2928 120.262 12.4164 120.477 12.5176C120.687 12.6131 120.869 12.6974 120.875 12.6918C120.885 12.6918 120.89 12.5785 120.891 12.4341L120.891 12.0906H122.785ZM64.1775 12.0906L64.1774 15.8373L64.1768 16.2284C64.1726 17.9871 64.1488 19.7131 64.0892 20.9065L63.6144 21.0526C63.3549 21.1313 62.8084 21.2549 62.3998 21.3279C61.776 21.4347 61.4945 21.4459 60.5946 21.4234C59.761 21.401 59.4242 21.3673 59.0543 21.2717C58.7893 21.1987 58.3366 21.0245 58.0441 20.8784C57.7349 20.7211 57.365 20.4739 57.1552 20.2884C56.962 20.1086 56.686 19.7884 56.5535 19.5805C56.4155 19.367 56.2333 19.0298 56.156 18.8332C56.0787 18.6365 55.9628 18.2432 55.9076 17.9679C55.8303 17.5633 55.8137 17.2655 55.8358 16.5575C55.8634 15.8777 55.902 15.5461 55.9959 15.209C56.0677 14.9618 56.2333 14.5572 56.3603 14.31C56.4872 14.0628 56.7412 13.6863 56.9289 13.4784C57.1221 13.2649 57.4368 12.9839 57.63 12.8491C57.8232 12.7199 58.1434 12.5457 58.3422 12.467C58.5354 12.3884 58.8887 12.2816 59.1261 12.2366C59.3635 12.1917 59.8051 12.1524 60.1033 12.1524C60.4069 12.1524 60.8375 12.1973 61.0694 12.2423C61.2957 12.2928 61.6546 12.4164 61.8699 12.5176C62.0796 12.6131 62.2618 12.6974 62.2673 12.6918C62.2729 12.6918 62.2839 12.5569 62.2839 12.394V12.0906H64.1775ZM75.2574 7.83709L75.2577 10.6924C75.2597 12.4534 75.2758 12.566 75.3623 12.5401C75.4231 12.5176 75.7101 12.4389 76.0027 12.3546C76.3505 12.2591 76.7701 12.1973 77.2173 12.1692C77.7252 12.1467 78.0233 12.1636 78.3987 12.2366C78.7189 12.2985 79.0998 12.4333 79.4366 12.6019C79.7292 12.748 80.1156 12.9952 80.2978 13.1581C80.4744 13.3155 80.756 13.647 80.9161 13.8942C81.0817 14.1414 81.286 14.5347 81.3743 14.7764C81.4682 15.0124 81.5841 15.4562 81.6393 15.7653C81.7055 16.1698 81.7221 16.5182 81.7 17.0688C81.6835 17.479 81.6227 17.9903 81.5675 18.2039C81.5178 18.4174 81.3853 18.7826 81.2805 19.013C81.1756 19.2433 80.9658 19.5973 80.8167 19.794C80.6732 19.9906 80.3806 20.2828 80.1708 20.4458C79.9665 20.6087 79.5911 20.8335 79.3482 20.9458C79.1053 21.0638 78.7023 21.2099 78.4594 21.2774C78.0785 21.3841 77.8356 21.401 76.7425 21.4066C75.7101 21.4122 75.3734 21.3897 74.9648 21.2998C74.6888 21.238 74.2306 21.12 73.9546 21.0414C73.6785 20.9627 73.4356 20.8728 73.4135 20.8503C73.3915 20.8279 73.3638 17.8948 73.3528 14.3269L73.3307 7.83709H75.2574ZM132.092 12.3322L132.087 15.3439L132.087 15.5807C132.087 15.6191 132.087 15.657 132.087 15.6944L132.087 16.1187C132.089 17.9887 132.1 18.3483 132.173 18.6359L132.181 18.6666C132.188 18.6919 132.195 18.7172 132.203 18.7433C132.275 18.968 132.407 19.2321 132.518 19.367C132.622 19.4906 132.843 19.6591 133.009 19.7378C133.169 19.8165 133.478 19.9064 133.688 19.9345C133.914 19.9682 134.235 19.9682 134.461 19.9345C134.671 19.9064 134.98 19.8165 135.14 19.7378C135.306 19.6591 135.526 19.4906 135.631 19.367C135.742 19.2321 135.88 18.968 135.946 18.7433C135.955 18.714 135.963 18.6859 135.97 18.6559L135.976 18.6329C136.045 18.3367 136.059 17.8017 136.061 14.4724L136.061 14.2037C136.061 14.158 136.061 14.1117 136.062 14.065L136.062 13.3252C136.062 13.2733 136.062 13.2209 136.062 13.1679L136.062 12.3322H138L137.989 15.5855C137.984 18.3 137.979 18.7655 137.902 19.0726L137.895 19.0997C137.891 19.1131 137.888 19.1263 137.884 19.1395L137.876 19.166L137.867 19.1928C137.801 19.3894 137.663 19.6872 137.558 19.8502C137.453 20.0187 137.271 20.2491 137.144 20.3727C137.022 20.4963 136.757 20.693 136.564 20.811C136.371 20.929 135.996 21.0919 135.736 21.1762C135.438 21.2717 135.041 21.3448 134.671 21.3729C134.339 21.3897 133.809 21.3897 133.484 21.3673C133.114 21.3448 132.711 21.2717 132.418 21.1762C132.153 21.0919 131.783 20.929 131.585 20.811C131.391 20.693 131.132 20.4963 131.005 20.3727C130.883 20.2491 130.696 20.0187 130.591 19.8502C130.492 19.6872 130.353 19.3894 130.287 19.1928L130.283 19.1795L130.274 19.1533C130.266 19.1271 130.258 19.101 130.251 19.0735L130.243 19.0455C130.169 18.7357 130.163 18.2045 130.149 15.5855L130.127 12.3322H132.092ZM118.992 13.956C118.782 13.956 118.462 14.001 118.285 14.0459C118.103 14.0965 117.827 14.2089 117.667 14.2988C117.507 14.3887 117.275 14.5741 117.148 14.7146C117.021 14.855 116.856 15.1023 116.773 15.2708C116.69 15.4338 116.585 15.7372 116.535 15.9451C116.486 16.1474 116.447 16.5463 116.447 16.8272C116.447 17.1082 116.486 17.5071 116.535 17.7094C116.585 17.9173 116.679 18.1982 116.751 18.3387C116.822 18.4792 117.005 18.7264 117.154 18.8837C117.303 19.0467 117.546 19.2377 117.689 19.3108C117.838 19.3894 118.103 19.4962 118.285 19.5468C118.49 19.6086 118.826 19.6423 119.218 19.6423C119.55 19.6423 120.019 19.6142 120.251 19.5805C120.488 19.5468 120.714 19.4962 120.748 19.4737C120.797 19.4456 120.825 18.7208 120.841 16.9846L120.858 14.5291C120.262 14.2201 119.931 14.0909 119.732 14.0403C119.539 13.9897 119.207 13.9504 118.992 13.956ZM59.6726 14.0459C59.496 14.0965 59.2199 14.2089 59.0599 14.2988C58.8998 14.3887 58.6679 14.5741 58.5409 14.7146C58.4139 14.855 58.2428 15.1023 58.1655 15.2708C58.0827 15.4338 57.9778 15.7372 57.9281 15.9451C57.8784 16.1474 57.8398 16.5182 57.8398 16.7654C57.8398 17.0127 57.8674 17.3779 57.9005 17.5745C57.9392 17.7712 58.0385 18.0971 58.1324 18.2938C58.2428 18.5297 58.4195 18.7714 58.6458 18.9849C58.8666 19.1928 59.1261 19.367 59.3524 19.4569C59.6285 19.5692 59.8493 19.6029 60.4179 19.631C60.8209 19.6479 61.3288 19.6254 61.5993 19.5861C61.8588 19.5468 62.1017 19.4962 62.1404 19.4737C62.1845 19.4456 62.2177 18.6646 62.2453 16.9902L62.2839 14.5516C61.7981 14.2819 61.5276 14.1583 61.362 14.1021C61.2019 14.0403 60.8265 13.9841 60.5339 13.9729C60.1695 13.956 59.899 13.9785 59.6726 14.0459ZM77.0682 13.956C76.8419 13.9616 76.5437 13.9897 76.4168 14.0178C76.2843 14.0459 75.9806 14.1414 75.7322 14.2313L75.2906 14.3887V19.3726C76.218 19.6198 76.4168 19.6367 77.0351 19.6198C77.6423 19.6029 77.8411 19.5748 78.1337 19.4625C78.3269 19.3838 78.5974 19.2377 78.7244 19.131C78.8569 19.0298 79.0446 18.8388 79.144 18.7095C79.2433 18.5803 79.3869 18.3106 79.4586 18.1139C79.5359 17.9173 79.6243 17.5408 79.6574 17.2767C79.7071 16.9171 79.7071 16.6699 79.6519 16.2878C79.6077 15.9451 79.5138 15.636 79.3758 15.3439C79.2654 15.1023 79.0722 14.8045 78.9507 14.6808C78.8293 14.5572 78.6085 14.383 78.4594 14.2988C78.3159 14.2089 78.0343 14.0965 77.8356 14.0459C77.6424 13.9897 77.2945 13.9504 77.0682 13.956ZM102.458 14.0403C102.281 14.0909 101.994 14.2201 101.817 14.3269C101.641 14.4336 101.392 14.6415 101.26 14.7876C101.133 14.9393 100.962 15.1865 100.884 15.3439C100.807 15.5012 100.741 15.6529 100.741 15.6866C100.741 15.7241 101.417 15.7462 102.669 15.7483L104.981 15.7484C104.92 15.3045 104.865 15.0854 104.82 14.9674C104.771 14.855 104.627 14.6415 104.5 14.501C104.346 14.3269 104.158 14.2032 103.943 14.119C103.761 14.0571 103.429 13.9897 103.203 13.9729C102.938 13.9616 102.667 13.9841 102.458 14.0403Z" fill="#1F447E"/>
</svg>
