<svg width="72" height="16" viewBox="0 0 72 16" fill="none" xmlns="http://www.w3.org/2000/svg">
<g clip-path="url(#clip0_392_9261)">
<path d="M7.54372 0.760473V1.49766H6.27637V1.97714H7.54372V3.44553H8.03913V1.97714H9.33817V1.49766H8.03913V0.0262775H7.54372V0.760473Z" fill="#7099A6"/>
<path d="M3.4017 2.63042V3.70025H1.4834V4.37151H3.4017V6.54413H4.11315V4.37151H6.06026V3.70025H4.11315V1.56059H3.4017V2.63042Z" fill="#EB912C"/>
<path d="M11.4408 2.63042V3.70025H9.52246V4.40448H11.4408V6.54413H12.181V4.40448H14.0993V3.70025H12.181V1.56059H11.4408V2.63042Z" fill="#59879B"/>
<path d="M7.35894 6.27443V7.47311H5.22461V8.36613H7.35894V10.7635H8.22304V8.36613H10.3574V7.47311H8.22304V5.07574H7.35894V6.27443Z" fill="#E8762C"/>
<path d="M13.6359 6.87976V7.63194H12.3369V8.24027H13.6359V9.74163H14.284V8.24027H15.5831V7.63194H14.284V6.13058H13.6359V6.87976Z" fill="#5B6591"/>
<path d="M1.26735 6.94569V7.6649H0V8.17435H1.26735V9.61277H1.76277V8.17435L3.0618 8.1264V7.6649H1.76277V6.22648H1.26735V6.94569Z" fill="#7099A6"/>
<path d="M3.4017 10.332V11.4018H1.4834V12.106H3.4017V14.2457H4.14195V12.106H6.06026V11.4018H4.14195V9.26215H3.4017V10.332Z" fill="#C72035"/>
<path d="M11.4408 10.332V11.4018H9.52246V12.0731H11.4408V14.2457H12.181V12.0731H14.0993V11.4018H12.181V9.26215H11.4408V10.332Z" fill="#1F447E"/>
<path d="M7.4836 13.05V13.7992H6.18457V14.4075H7.4836V15.9089H8.13168V14.4075H9.43071V13.7992H8.13168V12.2978H7.4836V13.05Z" fill="#5B6591"/>
<path d="M47.428 3.22078V12.3308H46.4401V3.22078H47.428ZM22.8789 4.50037V7.40719H25.5375V8.36614H22.8789V11.4977H21.891V8.36614H19.2324V7.40719H21.891V4.50037H22.8789ZM53.7994 6.49618C53.9779 6.50518 54.2055 6.53514 54.3092 6.56211C54.41 6.58908 54.577 6.65201 54.6779 6.70296C54.7816 6.75091 54.9486 6.85579 55.0494 6.9367C55.1531 7.01761 55.2971 7.16745 55.372 7.26934C55.4469 7.37123 55.5535 7.55702 55.6111 7.67989C55.6687 7.80275 55.7436 8.01852 55.7781 8.15936C55.8127 8.30021 55.853 8.5849 55.8847 9.16626H52.4686L52.4888 9.28613C52.4974 9.35205 52.5349 9.4929 52.5637 9.59778C52.5954 9.70267 52.676 9.86749 52.7394 9.96039C52.8028 10.0533 52.8978 10.1642 52.9468 10.2031C52.9986 10.2421 53.1023 10.308 53.1801 10.35C53.255 10.3889 53.3875 10.4399 53.4739 10.4638C53.5603 10.4878 53.7907 10.5088 53.9981 10.5088C54.2026 10.5088 54.4964 10.4878 54.6491 10.4608C54.8017 10.4339 55.0177 10.3799 55.1272 10.344C55.2366 10.308 55.3807 10.2511 55.444 10.2181C55.5074 10.1851 55.5736 10.1552 55.5909 10.1552C55.6102 10.1552 55.6216 10.3227 55.6225 11.0182L55.6226 11.1141L55.4527 11.195C55.3576 11.24 55.1618 11.3119 55.012 11.3569C54.8622 11.3988 54.5886 11.4528 54.4013 11.4737C54.145 11.5007 53.9722 11.5007 53.7043 11.4737C53.5084 11.4528 53.2233 11.3988 53.0706 11.3539C52.918 11.3089 52.6962 11.219 52.581 11.1531C52.4629 11.0872 52.2641 10.9343 52.1374 10.8115C52.0078 10.6886 51.8465 10.4878 51.7716 10.3649C51.6967 10.2421 51.6045 10.0323 51.5613 9.90045C51.5181 9.7686 51.4663 9.53785 51.4461 9.39101C51.4231 9.22619 51.4173 8.99545 51.4288 8.81564C51.4375 8.64783 51.4749 8.3961 51.5095 8.25526C51.5441 8.11441 51.6276 7.88366 51.6938 7.74282C51.7601 7.60197 51.8839 7.40119 51.9646 7.29631C52.0481 7.19142 52.2123 7.0296 52.3304 6.9367C52.4485 6.8438 52.6472 6.72693 52.7711 6.67299C52.8921 6.61905 53.1023 6.55612 53.2348 6.52915C53.3932 6.49918 53.5833 6.48719 53.7994 6.49618ZM64.062 6.44824V8.05448C64.062 8.93851 64.0534 9.99635 64.0159 11.1501L63.7682 11.228C63.6328 11.27 63.3592 11.3359 63.1576 11.3688C62.9012 11.4168 62.6564 11.4348 62.3252 11.4348C62.063 11.4348 61.7606 11.4198 61.6512 11.4018C61.5417 11.3808 61.3257 11.3239 61.173 11.2729C61.0088 11.219 60.7957 11.1141 60.6632 11.0242C60.5336 10.9373 60.355 10.7845 60.2628 10.6796C60.1735 10.5777 60.0468 10.3979 59.9863 10.284C59.9258 10.1702 59.8423 9.96039 59.802 9.82254C59.7415 9.62176 59.7242 9.46593 59.7098 9.10333C59.7012 8.81265 59.7098 8.55493 59.7329 8.41408C59.753 8.29122 59.8049 8.08444 59.8481 7.95259C59.8884 7.82073 59.9834 7.61096 60.0583 7.4881C60.1303 7.36523 60.2859 7.17045 60.404 7.05657C60.5365 6.93071 60.7093 6.80185 60.8504 6.72993C60.9772 6.667 61.1615 6.58908 61.2652 6.55912C61.366 6.53215 61.6166 6.49918 61.8211 6.49019C62.0947 6.4782 62.2531 6.49019 62.4231 6.52615C62.5527 6.55612 62.7457 6.62205 62.858 6.67599C62.9675 6.72693 63.0625 6.77188 63.0654 6.76889C63.0707 6.76889 63.0735 6.70845 63.074 6.63144L63.074 6.44824H64.062ZM33.4843 6.44824L33.4843 8.44648L33.484 8.6551C33.4818 9.59308 33.4694 10.5136 33.4382 11.1501L33.1905 11.228C33.0552 11.27 32.77 11.3359 32.5569 11.3748C32.2314 11.4318 32.0845 11.4378 31.615 11.4258C31.1801 11.4138 31.0044 11.3958 30.8114 11.3449C30.6731 11.3059 30.4369 11.213 30.2843 11.1351C30.123 11.0512 29.93 10.9193 29.8205 10.8204C29.7197 10.7245 29.5757 10.5537 29.5066 10.4429C29.4346 10.329 29.3395 10.1492 29.2992 10.0443C29.2589 9.93941 29.1984 9.72964 29.1696 9.5828C29.1293 9.36704 29.1206 9.20821 29.1321 8.83063C29.1465 8.46802 29.1667 8.29122 29.2157 8.11141C29.2531 7.97956 29.3395 7.7638 29.4058 7.63194C29.472 7.50008 29.6045 7.2993 29.7024 7.18843C29.8033 7.07455 29.9674 6.92472 30.0683 6.85279C30.1691 6.78387 30.3361 6.69097 30.4398 6.64902C30.5406 6.60706 30.725 6.55013 30.8488 6.52615C30.9727 6.50218 31.2031 6.4812 31.3586 6.4812C31.5171 6.4812 31.7417 6.50518 31.8627 6.52915C31.9808 6.55612 32.168 6.62205 32.2804 6.67599C32.3898 6.72693 32.4849 6.77188 32.4877 6.76889C32.4906 6.76889 32.4964 6.69696 32.4964 6.61006V6.44824H33.4843ZM39.2652 4.17972L39.2653 5.70255C39.2663 6.64174 39.2748 6.70179 39.3199 6.68797C39.3516 6.67599 39.5014 6.63403 39.654 6.58908C39.8355 6.53814 40.0544 6.50518 40.2877 6.49019C40.5527 6.4782 40.7082 6.4872 40.9041 6.52615C41.0711 6.55912 41.2699 6.63104 41.4456 6.72094C41.5982 6.79885 41.7999 6.93071 41.8949 7.01761C41.9871 7.10152 42.134 7.27833 42.2175 7.41018C42.3039 7.54204 42.4105 7.75181 42.4566 7.88067C42.5056 8.00653 42.566 8.24327 42.5948 8.40809C42.6294 8.62385 42.638 8.80965 42.6265 9.10333C42.6179 9.32209 42.5862 9.59479 42.5574 9.70866C42.5315 9.82254 42.4623 10.0173 42.4076 10.1402C42.3529 10.2631 42.2434 10.4518 42.1657 10.5567C42.0908 10.6616 41.9381 10.8174 41.8287 10.9044C41.7221 10.9913 41.5262 11.1111 41.3995 11.1711C41.2728 11.234 41.0625 11.3119 40.9358 11.3479C40.737 11.4048 40.6103 11.4138 40.04 11.4168C39.5014 11.4198 39.3257 11.4078 39.1125 11.3599C38.9685 11.3269 38.7294 11.264 38.5854 11.222C38.4414 11.1801 38.3147 11.1321 38.3031 11.1201C38.2916 11.1081 38.2772 9.54384 38.2715 7.64093L38.2599 4.17972H39.2652ZM68.9183 6.5771L68.9154 8.18334L68.9154 8.30964C68.9154 8.33012 68.9154 8.35033 68.9154 8.37027L68.9155 8.59658C68.9164 9.59389 68.9224 9.78568 68.9602 9.93911L68.9643 9.95544C68.9679 9.96898 68.9717 9.98243 68.9759 9.99635C69.0133 10.1162 69.0824 10.2571 69.14 10.329C69.1948 10.3949 69.31 10.4848 69.3964 10.5268C69.4799 10.5687 69.6412 10.6167 69.7507 10.6317C69.8688 10.6496 70.0358 10.6496 70.1539 10.6317C70.2634 10.6167 70.4247 10.5687 70.5082 10.5268C70.5946 10.4848 70.7098 10.3949 70.7645 10.329C70.8222 10.2571 70.8942 10.1162 70.9287 9.99635C70.9333 9.98077 70.9376 9.96576 70.9415 9.94974L70.9444 9.9375C70.9803 9.77954 70.9875 9.49417 70.9889 7.71858L70.989 7.57528C70.989 7.55087 70.989 7.5262 70.989 7.50126L70.9892 7.10673C70.9892 7.07904 70.9892 7.05107 70.9892 7.02281L70.9892 6.5771H72.0002L71.9944 8.31219C71.9919 9.75992 71.9894 10.0082 71.9493 10.172L71.9456 10.1864C71.9438 10.1936 71.9418 10.2006 71.9397 10.2077L71.9355 10.2218L71.9311 10.2361C71.8965 10.341 71.8245 10.4998 71.7698 10.5867C71.7151 10.6766 71.62 10.7995 71.5538 10.8654C71.4904 10.9313 71.3521 11.0362 71.2513 11.0991C71.1505 11.1621 70.9546 11.249 70.8193 11.2939C70.6637 11.3449 70.4564 11.3838 70.2634 11.3988C70.0905 11.4078 69.814 11.4078 69.6441 11.3958C69.4511 11.3838 69.2408 11.3449 69.0882 11.2939C68.9499 11.249 68.757 11.1621 68.6533 11.0991C68.5524 11.0362 68.4171 10.9313 68.3508 10.8654C68.2875 10.7995 68.1895 10.6766 68.1348 10.5867C68.083 10.4998 68.0109 10.341 67.9764 10.2361L67.974 10.229L67.9695 10.215C67.9651 10.2011 67.961 10.1871 67.9572 10.1725L67.9535 10.1575C67.9149 9.9923 67.9118 9.70902 67.9044 8.31219L67.8928 6.5771H68.9183ZM62.0832 7.44315C61.9738 7.44315 61.8067 7.46712 61.7145 7.49109C61.6195 7.51806 61.4755 7.578 61.3919 7.62595C61.3084 7.67389 61.1874 7.77279 61.1212 7.8477C61.0549 7.92262 60.9685 8.05448 60.9253 8.14438C60.8821 8.23128 60.8274 8.39311 60.8015 8.50398C60.7755 8.61187 60.7554 8.82463 60.7554 8.97447C60.7554 9.1243 60.7755 9.33707 60.8015 9.44495C60.8274 9.55583 60.8763 9.70567 60.9138 9.78058C60.9512 9.8555 61.0463 9.98736 61.1241 10.0713C61.2018 10.1582 61.3286 10.2601 61.4034 10.299C61.4812 10.341 61.6195 10.3979 61.7145 10.4249C61.8211 10.4578 61.9968 10.4758 62.2013 10.4758C62.3741 10.4758 62.6189 10.4608 62.7399 10.4429C62.8638 10.4249 62.9819 10.3979 62.9992 10.3859C63.0251 10.3709 63.0395 9.98436 63.0481 9.05838L63.0568 7.74881C62.7457 7.58399 62.5729 7.51507 62.4692 7.4881C62.3684 7.46113 62.1955 7.44015 62.0832 7.44315ZM31.134 7.49109C31.0418 7.51806 30.8978 7.578 30.8143 7.62595C30.7307 7.67389 30.6098 7.77279 30.5435 7.8477C30.4773 7.92262 30.388 8.05448 30.3476 8.14438C30.3044 8.23128 30.2497 8.39311 30.2238 8.50398C30.1979 8.61187 30.1777 8.80965 30.1777 8.9415C30.1777 9.07336 30.1921 9.26815 30.2094 9.37303C30.2296 9.47792 30.2814 9.65173 30.3304 9.75661C30.388 9.88247 30.4801 10.0113 30.5982 10.1252C30.7134 10.2361 30.8488 10.329 30.9669 10.3769C31.1109 10.4369 31.2261 10.4548 31.5228 10.4698C31.7331 10.4788 31.9981 10.4668 32.1392 10.4459C32.2746 10.4249 32.4013 10.3979 32.4215 10.3859C32.4445 10.3709 32.4618 9.95439 32.4762 9.06137L32.4964 7.7608C32.2429 7.61696 32.1018 7.55103 32.0154 7.52106C31.9318 7.4881 31.736 7.45813 31.5833 7.45214C31.3932 7.44315 31.2521 7.45513 31.134 7.49109ZM40.2099 7.44315C40.0918 7.44614 39.9363 7.46113 39.87 7.47611C39.8009 7.49109 39.6425 7.54204 39.5129 7.58999L39.2825 7.67389V10.332C39.7663 10.4638 39.87 10.4728 40.1926 10.4638C40.5095 10.4548 40.6132 10.4399 40.7658 10.3799C40.8666 10.338 41.0078 10.2601 41.074 10.2031C41.1432 10.1492 41.2411 10.0473 41.2929 9.97837C41.3448 9.90944 41.4197 9.7656 41.4571 9.66072C41.4974 9.55583 41.5435 9.35505 41.5608 9.21421C41.5867 9.02242 41.5867 8.89056 41.5579 8.68678C41.5349 8.50398 41.4859 8.33916 41.4139 8.18334C41.3563 8.05448 41.2555 7.89565 41.1921 7.82972C41.1287 7.7638 41.0135 7.6709 40.9358 7.62595C40.8609 7.578 40.714 7.51806 40.6103 7.49109C40.5095 7.46113 40.328 7.44015 40.2099 7.44315ZM53.4566 7.4881C53.3644 7.51507 53.2146 7.58399 53.1225 7.64093C53.0303 7.69787 52.9007 7.80875 52.8316 7.88666C52.7653 7.96757 52.676 8.09943 52.6357 8.18334C52.5954 8.26724 52.5608 8.34816 52.5608 8.36614C52.5608 8.38611 52.9135 8.39794 53.5666 8.39902L54.7729 8.3991C54.7412 8.16236 54.7124 8.04549 54.6894 7.98256C54.6635 7.92262 54.5886 7.80875 54.5223 7.73383C54.4417 7.64093 54.3437 7.575 54.2314 7.53005C54.1364 7.49709 53.9635 7.46113 53.8454 7.45214C53.7072 7.44614 53.5661 7.45813 53.4566 7.4881Z" fill="#1F447E"/>
</g>
<defs>
<clipPath id="clip0_392_9261">
<rect width="72" height="16" fill="white"/>
</clipPath>
</defs>
</svg>
