<svg width="52" height="52" viewBox="0 0 52 52" fill="none" xmlns="http://www.w3.org/2000/svg">
<path d="M39.4004 23.0103C39.4004 15.6213 33.389 9.60986 26 9.60986C23.2149 9.60986 20.5444 10.4564 18.2772 12.0578C17.9159 12.3131 17.83 12.8127 18.0851 13.174C18.3404 13.5353 18.84 13.6212 19.2013 13.3661C21.1968 11.9566 23.5477 11.2115 26.0001 11.2115C32.506 11.2115 37.7988 16.5044 37.7988 23.0102C37.7988 27.6638 35.0513 31.8958 30.7992 33.7916C30.5105 33.9204 30.3245 34.2069 30.3245 34.523V36.9445H29.3698V26.0907H30.8017C31.8049 26.0907 32.6854 25.4855 33.0448 24.549C33.4042 23.6125 33.1545 22.5736 32.4089 21.9026L31.7778 21.3345C31.0626 20.6907 30.0721 20.5341 29.1931 20.9256C28.3141 21.3171 27.7681 22.1579 27.7681 23.1202V24.4891H24.2319V23.1202C24.2319 22.1579 23.6858 21.3171 22.8068 20.9256C21.9278 20.534 20.9375 20.6907 20.2222 21.3345L19.5912 21.9026C18.8456 22.5737 18.596 23.6125 18.9553 24.549C19.3147 25.4855 20.1952 26.0907 21.1983 26.0907H22.6302V36.9446H21.6754V34.5231C21.6754 34.207 21.4895 33.9204 21.2007 33.7917C16.9486 31.8959 14.2011 27.6639 14.2011 23.0103C14.2011 20.2861 15.1028 17.7277 16.8088 15.6115C17.0862 15.2671 17.0321 14.7629 16.6879 14.4855C16.3436 14.2081 15.8395 14.2621 15.5619 14.6063C13.6517 16.9761 12.5996 19.9607 12.5996 23.0103C12.5996 28.1203 15.5161 32.7824 20.0739 35.0316V36.9446H18.3121C17.8698 36.9446 17.5113 37.3031 17.5113 37.7454V46.3943C17.5113 49.4853 20.026 52 23.117 52H28.8829C31.974 52 34.4887 49.4853 34.4887 46.3943V44.152C34.4887 43.7097 34.1301 43.3512 33.6878 43.3512C33.2455 43.3512 32.887 43.7097 32.887 44.152V45.5935H19.113V42.8172H30.6983C31.1406 42.8172 31.4991 42.4587 31.4991 42.0164C31.4991 41.5741 31.1406 41.2156 30.6983 41.2156H19.113V38.5462H32.8871V39.881C32.8871 40.3233 33.2456 40.6818 33.6879 40.6818C34.1303 40.6818 34.4888 40.3233 34.4888 39.881V37.7454C34.4888 37.3031 34.1303 36.9446 33.6879 36.9446H31.9261V35.0316C36.484 32.7823 39.4004 28.1201 39.4004 23.0103ZM29.3698 23.1201C29.3698 22.6376 29.7334 22.4382 29.8448 22.3886C29.9563 22.339 30.3478 22.2021 30.7063 22.5248L31.3374 23.0928C31.7169 23.4345 31.5956 23.8543 31.5493 23.975C31.5031 24.0955 31.3124 24.4889 30.8017 24.4889H29.3698V23.1201ZM22.6303 24.4891H21.1984C20.4763 24.4891 20.123 23.5787 20.6627 23.093L21.2937 22.525C21.8038 22.0658 22.6303 22.4403 22.6303 23.1202V24.4891ZM32.8066 47.1951C32.4345 49.0206 30.8167 50.3984 28.883 50.3984H23.1171C21.1834 50.3984 19.5657 49.0206 19.1937 47.1951H32.8066ZM27.7682 36.9446H24.232V26.0907H27.7682V36.9446Z" fill="url(#paint0_linear_60_764)"/>
<path d="M26 0C25.5577 0 25.1992 0.358516 25.1992 0.80082V5.28541C25.1992 5.72772 25.5577 6.08623 26 6.08623C26.4423 6.08623 26.8009 5.72772 26.8009 5.28541V0.80082C26.8009 0.358516 26.4423 0 26 0Z" fill="url(#paint1_linear_60_764)"/>
<path d="M17.724 7.28833L15.4817 3.40458C15.2606 3.02159 14.7708 2.89027 14.3878 3.11147C14.0048 3.33258 13.8736 3.82241 14.0947 4.2054L16.3369 8.08916C16.5722 8.49683 17.1257 8.61281 17.5057 8.33341C17.8301 8.09494 17.9251 7.6368 17.724 7.28833Z" fill="url(#paint2_linear_60_764)"/>
<path d="M10.8654 13.5611L6.9816 11.3188C6.59851 11.0976 6.10867 11.2289 5.88767 11.6119C5.66657 11.9949 5.79779 12.4847 6.18078 12.7059L10.0645 14.9481C10.473 15.1841 11.0099 15.0062 11.1988 14.5753C11.3605 14.2065 11.2137 13.7621 10.8654 13.5611Z" fill="url(#paint3_linear_60_764)"/>
<path d="M8.06178 22.423H3.57719C3.13488 22.423 2.77637 22.7815 2.77637 23.2238C2.77637 23.6661 3.13488 24.0246 3.57719 24.0246H8.06178C8.50409 24.0246 8.8626 23.6661 8.8626 23.2238C8.8626 22.7816 8.50398 22.423 8.06178 22.423Z" fill="url(#paint4_linear_60_764)"/>
<path d="M11.158 31.7927C10.9369 31.4097 10.4471 31.2784 10.0641 31.4995L6.18032 33.7418C5.83196 33.9429 5.6852 34.3873 5.84689 34.7561C6.03579 35.1871 6.57265 35.365 6.98114 35.129L10.8649 32.8867C11.2479 32.6656 11.3791 32.1757 11.158 31.7927Z" fill="url(#paint5_linear_60_764)"/>
<path d="M45.8195 33.7418L41.9357 31.4995C41.5526 31.2783 41.0629 31.4097 40.8418 31.7926C40.6207 32.1756 40.7519 32.6655 41.1349 32.8866L45.0186 35.1289C45.4271 35.3648 45.9641 35.187 46.1529 34.756C46.3147 34.3873 46.1679 33.9429 45.8195 33.7418Z" fill="url(#paint6_linear_60_764)"/>
<path d="M48.4231 22.423H43.9385C43.4962 22.423 43.1377 22.7815 43.1377 23.2238C43.1377 23.6661 43.4962 24.0246 43.9385 24.0246H48.4231C48.8654 24.0246 49.2239 23.6661 49.2239 23.2238C49.2239 22.7816 48.8654 22.423 48.4231 22.423Z" fill="url(#paint7_linear_60_764)"/>
<path d="M46.1126 11.6119C45.8915 11.2289 45.4016 11.0977 45.0186 11.3188L41.1349 13.5611C40.7519 13.7822 40.6207 14.2721 40.8418 14.6551C40.9901 14.9119 41.2593 15.0556 41.5361 15.0556C41.6718 15.0556 41.8097 15.021 41.9357 14.9482L45.8195 12.7059C46.2026 12.4847 46.3338 11.9949 46.1126 11.6119Z" fill="url(#paint8_linear_60_764)"/>
<path d="M37.6116 3.11147C37.2286 2.89027 36.7388 3.02159 36.5177 3.40458L34.2754 7.28833C34.0543 7.67133 34.1855 8.16116 34.5685 8.38226C34.9468 8.60072 35.4444 8.46687 35.6624 8.08916L37.9047 4.2054C38.1258 3.82241 37.9946 3.33258 37.6116 3.11147Z" fill="url(#paint9_linear_60_764)"/>
<defs>
<linearGradient id="paint0_linear_60_764" x1="12.9803" y1="10.1604" x2="50.7879" y2="28.4146" gradientUnits="userSpaceOnUse">
<stop stop-color="#189DF8"/>
<stop offset="1" stop-color="#253E7F"/>
</linearGradient>
<linearGradient id="paint1_linear_60_764" x1="25.222" y1="0.079042" x2="27.8999" y2="0.617217" gradientUnits="userSpaceOnUse">
<stop stop-color="#189DF8"/>
<stop offset="1" stop-color="#253E7F"/>
</linearGradient>
<linearGradient id="paint2_linear_60_764" x1="14.0419" y1="3.07523" x2="19.2372" y2="5.85552" gradientUnits="userSpaceOnUse">
<stop stop-color="#189DF8"/>
<stop offset="1" stop-color="#253E7F"/>
</linearGradient>
<linearGradient id="paint3_linear_60_764" x1="5.85817" y1="11.2613" x2="10.2175" y2="16.0135" gradientUnits="userSpaceOnUse">
<stop stop-color="#189DF8"/>
<stop offset="1" stop-color="#253E7F"/>
</linearGradient>
<linearGradient id="paint4_linear_60_764" x1="2.86282" y1="22.4438" x2="3.9866" y2="25.7049" gradientUnits="userSpaceOnUse">
<stop stop-color="#189DF8"/>
<stop offset="1" stop-color="#253E7F"/>
</linearGradient>
<linearGradient id="paint5_linear_60_764" x1="5.85915" y1="31.442" x2="10.2185" y2="36.1943" gradientUnits="userSpaceOnUse">
<stop stop-color="#189DF8"/>
<stop offset="1" stop-color="#253E7F"/>
</linearGradient>
<linearGradient id="paint6_linear_60_764" x1="40.8123" y1="31.442" x2="45.1716" y2="36.1943" gradientUnits="userSpaceOnUse">
<stop stop-color="#189DF8"/>
<stop offset="1" stop-color="#253E7F"/>
</linearGradient>
<linearGradient id="paint7_linear_60_764" x1="43.2241" y1="22.4438" x2="44.3479" y2="25.7049" gradientUnits="userSpaceOnUse">
<stop stop-color="#189DF8"/>
<stop offset="1" stop-color="#253E7F"/>
</linearGradient>
<linearGradient id="paint8_linear_60_764" x1="40.8123" y1="11.2614" x2="45.1745" y2="16.015" gradientUnits="userSpaceOnUse">
<stop stop-color="#189DF8"/>
<stop offset="1" stop-color="#253E7F"/>
</linearGradient>
<linearGradient id="paint9_linear_60_764" x1="34.2226" y1="3.07524" x2="39.4199" y2="5.85776" gradientUnits="userSpaceOnUse">
<stop stop-color="#189DF8"/>
<stop offset="1" stop-color="#253E7F"/>
</linearGradient>
</defs>
</svg>
