<svg width="161" height="34" viewBox="0 0 161 34" fill="none" xmlns="http://www.w3.org/2000/svg">
<path d="M8.17113 29.9633V11.0743L0 15.8724L0.0142107 8.71856L13.5996 0.827637V33.1717L8.17113 29.9633ZM14.8217 33.1717L20.2502 29.9633V20.8729L24.3429 23.272L24.3145 17.0575L20.2502 14.6873V11.0743L28.4213 15.8724L28.4071 8.71856L14.8217 0.827637V33.1717Z" fill="#FF6F00"/>
<path d="M44.0156 10.8265H38.8699V26.4754H35.8971V10.8265H30.7642V8.26123H44.0156V10.8265Z" fill="#425066"/>
<path d="M54.6567 20.7724H45.9384C45.9725 21.9749 46.3349 22.9027 47.0255 23.5545C47.7247 24.2063 48.6825 24.5329 49.8975 24.5329C51.2631 24.5329 52.5165 24.1181 53.6576 23.2871V25.6631C52.4924 26.4088 50.9519 26.7802 49.0363 26.7802C47.1548 26.7802 45.6769 26.192 44.6026 25.0156C43.5368 23.8305 43.0039 22.1656 43.0039 20.0238C43.0039 18.0005 43.5908 16.3529 44.766 15.0811C45.9469 13.8036 47.4121 13.1633 49.1614 13.1633C50.9093 13.1633 52.2622 13.7356 53.22 14.8788C54.1778 16.022 54.6567 17.6103 54.6567 19.6423V20.7724ZM51.8586 18.6913C51.85 17.632 51.6056 16.8111 51.1225 16.2272C50.6393 15.6347 49.9728 15.3369 49.123 15.3369C48.2917 15.3369 47.5826 15.6462 46.9999 16.2648C46.4258 16.8833 46.072 17.6912 45.9384 18.6913H51.8586Z" fill="#425066"/>
<path d="M68.8073 26.4753H65.9084V19.148C65.9084 16.7157 65.0642 15.5017 63.3746 15.5017C62.4921 15.5017 61.7631 15.8399 61.189 16.5177C60.6135 17.1868 60.3264 18.0337 60.3264 19.0584V26.4753H57.4175V13.4683H60.3278V15.6289H60.3776C61.3354 13.9857 62.7181 13.1633 64.5242 13.1633C65.9155 13.1633 66.977 13.6258 67.7103 14.5479C68.4421 15.4627 68.8087 16.788 68.8087 18.5237L68.8073 26.4753Z" fill="#425066"/>
<path d="M71.543 26.0692V23.3377C72.6258 24.1759 73.8195 24.5951 75.1269 24.5951C76.8748 24.5951 77.7502 24.0704 77.7502 23.0198C77.7587 22.7519 77.6797 22.4886 77.5257 22.2711C77.3605 22.0457 77.1528 21.856 76.9146 21.7133C76.6309 21.5355 76.3287 21.3901 76.0136 21.2797C75.6303 21.1378 75.2476 20.9943 74.8654 20.849C74.3776 20.6547 73.902 20.4297 73.4415 20.1756C73.0552 19.9617 72.7015 19.692 72.3913 19.3749C72.1203 19.0758 71.9085 18.7265 71.7675 18.3459C71.6254 17.9658 71.5543 17.5221 71.5543 17.0134C71.5543 16.3862 71.7007 15.8355 71.992 15.3615C72.2833 14.8788 72.6741 14.477 73.1658 14.1548C73.6789 13.8147 74.2449 13.5655 74.8398 13.4177C75.4651 13.2486 76.1103 13.1633 76.7753 13.1633C77.9577 13.1633 79.0164 13.3454 79.9486 13.7096V16.2893C79.049 15.6621 78.0159 15.35 76.8507 15.35C76.5144 15.3459 76.1789 15.3838 75.8516 15.4627C75.5603 15.5393 75.3116 15.6448 75.1027 15.7806C74.9048 15.9053 74.7379 16.075 74.6153 16.2763C74.4991 16.4619 74.4384 16.6778 74.4405 16.8978C74.4326 17.1472 74.4932 17.3939 74.6153 17.6103C74.7318 17.8039 74.9024 17.9788 75.1269 18.1306C75.36 18.2751 75.6356 18.4095 75.9511 18.5367C76.2765 18.6552 76.6474 18.7867 77.0638 18.9312C77.6123 19.1596 78.104 19.3937 78.5375 19.6293C78.978 19.8663 79.3532 20.138 79.6601 20.4429C79.9685 20.7392 80.2058 21.086 80.3735 21.4835C80.5397 21.8737 80.6222 22.3391 80.6222 22.881C80.6222 23.5415 80.473 24.1181 80.1731 24.6081C79.8747 25.0994 79.4739 25.507 78.9737 25.8278C78.4395 26.1639 77.8527 26.4044 77.2386 26.5389C76.5637 26.7028 75.8719 26.7838 75.1781 26.7802C73.7783 26.7802 72.5676 26.5432 71.543 26.0692Z" fill="#425066"/>
<path d="M89.0407 26.7802C87.0682 26.7802 85.4894 26.1747 84.3085 24.965C83.1333 23.7453 82.5464 22.1324 82.5464 20.1235C82.5464 17.9412 83.1574 16.2344 84.3824 15.006C85.6145 13.7775 87.2714 13.1633 89.3533 13.1633C91.3513 13.1633 92.9088 13.7617 94.0243 14.9554C95.1399 16.1492 95.6984 17.8039 95.6984 19.9212C95.6984 21.9965 95.0944 23.66 93.8865 24.913C92.6885 26.1588 91.0728 26.7802 89.0407 26.7802ZM89.1785 15.5133C88.0459 15.5133 87.1506 15.9165 86.4927 16.72C85.8347 17.525 85.5065 18.6349 85.5065 20.0484C85.5065 21.4127 85.839 22.4879 86.5055 23.2756C87.172 24.0545 88.063 24.4433 89.1785 24.4433C90.3196 24.4433 91.1936 24.0589 91.8018 23.2871C92.4171 22.5168 92.7255 21.4199 92.7255 19.9978C92.7255 18.567 92.4171 17.4614 91.8018 16.6825C91.1936 15.9035 90.3196 15.5133 89.1785 15.5133Z" fill="#425066"/>
<path d="M106.065 16.2764C105.715 15.996 105.212 15.8573 104.553 15.8573C103.696 15.8573 102.98 16.2504 102.406 17.038C101.83 17.8257 101.543 18.8966 101.543 20.2522V26.4753H98.6455V13.4683H101.544V16.1492H101.593C101.877 15.2344 102.309 14.5233 102.892 14.0146C103.483 13.4987 104.142 13.24 104.866 13.24C105.391 13.24 105.789 13.3209 106.065 13.4813V16.2764Z" fill="#425066"/>
<path d="M118.105 10.8265H111.411V16.301H117.58V18.8547H111.41V26.4754H108.438V8.26123H118.105V10.8265Z" fill="#425066"/>
<path d="M123.875 26.4754H120.965V7.21924H123.875V26.4754Z" fill="#425066"/>
<path d="M133.317 26.7802C131.345 26.7802 129.766 26.1747 128.585 24.965C127.41 23.7453 126.823 22.1324 126.823 20.1235C126.823 17.9412 127.434 16.2344 128.659 15.006C129.891 13.7775 131.548 13.1633 133.63 13.1633C135.628 13.1633 137.185 13.7617 138.301 14.9554C139.418 16.1492 139.975 17.8039 139.975 19.9212C139.975 21.9965 139.371 23.66 138.164 24.913C136.965 26.1588 135.351 26.7802 133.318 26.7802H133.317ZM133.455 15.5133C132.322 15.5133 131.427 15.9165 130.769 16.72C130.113 17.525 129.783 18.6349 129.783 20.0484C129.783 21.4127 130.117 22.4879 130.782 23.2756C131.45 24.0545 132.339 24.4433 133.455 24.4433C134.596 24.4433 135.47 24.0589 136.078 23.2871C136.693 22.5168 137.002 21.4199 137.002 19.9978C137.002 18.567 136.693 17.4614 136.078 16.6825C135.47 15.9035 134.596 15.5133 133.455 15.5133Z" fill="#425066"/>
<path d="M160.121 13.4685L156.349 26.4755H153.314L150.991 17.6597C150.894 17.2863 150.835 16.9036 150.816 16.5179H150.766C150.731 16.8974 150.656 17.272 150.542 17.6351L148.018 26.4755H145.045L141.286 13.4685H144.285L146.607 22.8437C146.682 23.1226 146.732 23.494 146.756 23.9608H146.844C146.869 23.6053 146.935 23.2238 147.043 22.8191L149.629 13.4685H152.352L154.65 22.8812C154.725 23.1775 154.779 23.5504 154.812 23.9998H154.9C154.917 23.6862 154.98 23.3134 155.088 22.8812L157.361 13.4685H160.121Z" fill="#425066"/>
</svg>
