<svg width="96" height="20" viewBox="0 0 96 20" fill="none" xmlns="http://www.w3.org/2000/svg">
<path d="M4.87223 17.6256V6.51434L0 9.33678L0.00847344 5.12863L8.10908 0.486908V19.5128L4.87223 17.6256ZM8.8378 19.5128L12.0747 17.6256V12.2782L14.515 13.6894L14.4981 10.0339L12.0747 8.63967V6.51434L16.9469 9.33678L16.9384 5.12863L8.8378 0.486908V19.5128Z" fill="#FF6F00"/>
<path d="M26.2452 6.36857H23.177V15.5738H21.4044V6.36857H18.3438V4.85959H26.2452V6.36857Z" fill="#425066"/>
<path d="M32.5898 12.2192H27.3914C27.4117 12.9265 27.6278 13.4723 28.0396 13.8557C28.4565 14.2391 29.0276 14.4312 29.7521 14.4312C30.5664 14.4312 31.3137 14.1872 31.9941 13.6984V15.096C31.2993 15.5347 30.3808 15.7532 29.2386 15.7532C28.1167 15.7532 27.2355 15.4072 26.5949 14.7152C25.9594 14.0181 25.6416 13.0387 25.6416 11.7788C25.6416 10.5886 25.9916 9.61948 26.6923 8.87136C27.3965 8.11985 28.2701 7.74324 29.3131 7.74324C30.3554 7.74324 31.1621 8.07989 31.7332 8.75235C32.3043 9.4248 32.5898 10.3591 32.5898 11.5544V12.2192ZM30.9214 10.995C30.9163 10.3718 30.7706 9.88897 30.4825 9.54552C30.1944 9.19697 29.797 9.02184 29.2903 9.02184C28.7946 9.02184 28.3717 9.20377 28.0243 9.56762C27.682 9.93148 27.471 10.4067 27.3914 10.995H30.9214Z" fill="#425066"/>
<path d="M41.0278 15.5738H39.2992V11.2636C39.2992 9.83286 38.7959 9.11875 37.7884 9.11875C37.2622 9.11875 36.8275 9.31768 36.4852 9.7164C36.142 10.11 35.9708 10.6082 35.9708 11.2109V15.5738H34.2363V7.92262H35.9717V9.19356H36.0013C36.5725 8.22697 37.3969 7.74324 38.4739 7.74324C39.3034 7.74324 39.9364 8.01528 40.3736 8.55767C40.81 9.0958 41.0286 9.87537 41.0286 10.8964L41.0278 15.5738Z" fill="#425066"/>
<path d="M42.6592 15.3349V13.7282C43.3049 14.2212 44.0166 14.4678 44.7962 14.4678C45.8384 14.4678 46.3604 14.1592 46.3604 13.5411C46.3654 13.3835 46.3184 13.2287 46.2265 13.1008C46.128 12.9681 46.0042 12.8566 45.8621 12.7726C45.693 12.668 45.5128 12.5825 45.3249 12.5176C45.0963 12.4341 44.8681 12.3497 44.6403 12.2642C44.3494 12.1499 44.0658 12.0176 43.7912 11.8681C43.5609 11.7423 43.35 11.5837 43.165 11.3971C43.0035 11.2212 42.8772 11.0157 42.7931 10.7918C42.7083 10.5682 42.666 10.3072 42.666 10.008C42.666 9.63903 42.7532 9.31513 42.9269 9.03629C43.1006 8.75235 43.3337 8.51601 43.6268 8.32643C43.9328 8.12641 44.2703 7.97982 44.625 7.89286C44.9978 7.7934 45.3825 7.74324 45.7791 7.74324C46.4841 7.74324 47.1154 7.85036 47.6712 8.06459V9.58208C47.1349 9.21312 46.5188 9.02949 45.824 9.02949C45.6235 9.02713 45.4234 9.04939 45.2283 9.0958C45.0546 9.14086 44.9063 9.20292 44.7818 9.28283C44.6637 9.35618 44.5643 9.45599 44.4911 9.57442C44.4218 9.68358 44.3856 9.81057 44.3869 9.93998C44.3822 10.0867 44.4183 10.2318 44.4911 10.3591C44.5606 10.473 44.6623 10.5759 44.7962 10.6651C44.9351 10.7502 45.0995 10.8292 45.2876 10.904C45.4817 10.9737 45.7028 11.0511 45.9511 11.1361C46.2782 11.2704 46.5714 11.4082 46.8298 11.5467C47.0925 11.6862 47.3162 11.846 47.4992 12.0254C47.6831 12.1996 47.8246 12.4037 47.9246 12.6375C48.0237 12.867 48.0729 13.1407 48.0729 13.4595C48.0729 13.848 47.9839 14.1872 47.8051 14.4754C47.6272 14.7645 47.3882 15.0042 47.0899 15.1929C46.7714 15.3906 46.4215 15.5321 46.0553 15.6112C45.6529 15.7076 45.2404 15.7553 44.8267 15.7532C43.9921 15.7532 43.2701 15.6138 42.6592 15.3349Z" fill="#425066"/>
<path d="M53.0921 15.7532C51.916 15.7532 50.9746 15.397 50.2704 14.6854C49.5697 13.9679 49.2197 13.0192 49.2197 11.8375C49.2197 10.5538 49.5841 9.54977 50.3145 8.82716C51.0491 8.10455 52.0372 7.74324 53.2785 7.74324C54.4699 7.74324 55.3986 8.09519 56.0637 8.7974C56.7289 9.49961 57.0619 10.473 57.0619 11.7185C57.0619 12.9392 56.7018 13.9177 55.9815 14.6548C55.2672 15.3876 54.3038 15.7532 53.0921 15.7532ZM53.1743 9.12555C52.499 9.12555 51.9651 9.36274 51.5728 9.83541C51.1805 10.3089 50.9847 10.9618 50.9847 11.7933C50.9847 12.5958 51.183 13.2283 51.5804 13.6916C51.9778 14.1498 52.5091 14.3785 53.1743 14.3785C53.8547 14.3785 54.3758 14.1524 54.7385 13.6984C55.1054 13.2453 55.2893 12.6 55.2893 11.7635C55.2893 10.9219 55.1054 10.2715 54.7385 9.81331C54.3758 9.35509 53.8547 9.12555 53.1743 9.12555Z" fill="#425066"/>
<path d="M63.2433 9.57443C63.0349 9.4095 62.7349 9.32789 62.3418 9.32789C61.8308 9.32789 61.4037 9.55912 61.0614 10.0224C60.7182 10.4858 60.5471 11.1157 60.5471 11.9131V15.5738H58.8193V7.92262H60.5479V9.49961H60.5767C60.7462 8.96148 61.0038 8.54322 61.3512 8.24397C61.7037 7.94047 62.0969 7.7883 62.5282 7.7883C62.8417 7.7883 63.0789 7.83591 63.2433 7.93027V9.57443Z" fill="#425066"/>
<path d="M70.4228 6.36857H66.4318V9.58887H70.1101V11.0911H66.431V15.5738H64.6592V4.85959H70.4228V6.36857Z" fill="#425066"/>
<path d="M73.8633 15.5738H72.1279V4.24664H73.8633V15.5738Z" fill="#425066"/>
<path d="M79.4935 15.7532C78.3173 15.7532 77.3759 15.397 76.6718 14.6854C75.971 13.9679 75.6211 13.0192 75.6211 11.8375C75.6211 10.5538 75.9855 9.54977 76.7159 8.82716C77.4505 8.10455 78.4385 7.74324 79.6799 7.74324C80.8712 7.74324 81.7999 8.09519 82.4651 8.7974C83.1311 9.49961 83.4633 10.473 83.4633 11.7185C83.4633 12.9392 83.1031 13.9177 82.3837 14.6548C81.6686 15.3876 80.706 15.7532 79.4943 15.7532H79.4935ZM79.5756 9.12555C78.9003 9.12555 78.3665 9.36274 77.9742 9.83541C77.5827 10.3089 77.3861 10.9618 77.3861 11.7933C77.3861 12.5958 77.5852 13.2283 77.9818 13.6916C78.38 14.1498 78.9105 14.3785 79.5756 14.3785C80.2561 14.3785 80.7772 14.1524 81.1398 13.6984C81.5067 13.2453 81.6906 12.6 81.6906 11.7635C81.6906 10.9219 81.5067 10.2715 81.1398 9.81331C80.7772 9.35509 80.2561 9.12555 79.5756 9.12555Z" fill="#425066"/>
<path d="M95.4758 7.92261L93.227 15.5738H91.417L90.0316 10.388C89.9738 10.1683 89.9389 9.94327 89.9274 9.71638H89.8977C89.8768 9.93963 89.832 10.16 89.7639 10.3735L88.259 15.5738H86.4863L84.2451 7.92261H86.033L87.4176 13.4374C87.4625 13.6015 87.4921 13.82 87.5065 14.0946H87.5591C87.5743 13.8854 87.6133 13.661 87.6777 13.423L89.2199 7.92261H90.8434L92.2135 13.4595C92.2585 13.6338 92.2907 13.8531 92.3101 14.1175H92.3627C92.3728 13.933 92.4101 13.7137 92.4745 13.4595L93.8303 7.92261H95.4758Z" fill="#425066"/>
</svg>
