<svg width="65" height="64" viewBox="0 0 65 64" fill="none" xmlns="http://www.w3.org/2000/svg">
<path d="M4.65166 47.7272V46.6055H3.72278V47.7238H3.23926V45.0372H3.72278V46.1664H4.65166V45.0372H5.13475V47.7272H4.65166ZM6.8815 47.7272H6.50415L6.46993 47.5862C6.30405 47.6973 6.11287 47.7558 5.91795 47.7553C5.5801 47.7553 5.43487 47.5114 5.43487 47.1766C5.43487 46.8437 5.59941 46.6479 5.97148 46.6479H6.41684V46.4474C6.41684 46.2297 6.35848 46.1554 6.06407 46.1554C5.89251 46.1574 5.71919 46.1759 5.55158 46.2126L5.49322 45.8425C5.70383 45.7797 5.92146 45.7478 6.14085 45.7478C6.72178 45.7478 6.89159 45.9654 6.89159 46.4474L6.8815 47.7272ZM6.39797 46.9985H6.07767C5.92849 46.9985 5.88549 47.0389 5.88549 47.188C5.88549 47.3366 5.92849 47.3833 6.06889 47.3833C6.19079 47.3819 6.31043 47.3474 6.41684 47.2828L6.39797 46.9985ZM7.84811 47.77C7.63175 47.7666 7.41699 47.729 7.21057 47.6586L7.272 47.2885C7.4519 47.3423 7.63706 47.3719 7.82398 47.3742C8.028 47.3742 8.06091 47.3257 8.06091 47.1766C8.06091 47.0299 8.06091 46.998 7.73666 46.9237C7.2878 46.8065 7.25313 46.6894 7.25313 46.3136C7.25313 45.9373 7.41767 45.7535 7.94595 45.7535C8.13068 45.7535 8.31584 45.7759 8.49573 45.8221L8.45317 46.2074C8.28556 46.1752 8.11607 46.1559 7.94595 46.1497C7.74193 46.1497 7.7077 46.1983 7.7077 46.3188C7.7077 46.4417 7.7077 46.4884 7.96965 46.5517C8.4874 46.6946 8.53566 46.7694 8.53566 47.1675C8.53566 47.5638 8.41017 47.7648 7.85337 47.7648L7.84811 47.77ZM9.9665 47.7272V46.3731C9.9665 46.2669 9.9235 46.2183 9.81731 46.2183C9.64751 46.2388 9.48297 46.2945 9.33423 46.3822V47.7272H8.84895V45L9.33423 45.0743V45.9316C9.54563 45.8198 9.77624 45.7572 10.0112 45.7478C10.3144 45.7478 10.4259 45.9749 10.4259 46.3193V47.7272H9.9665ZM10.8181 45.5153V45.0372H11.3017V45.5153H10.8181ZM10.8181 47.7272V45.7849H11.3017V47.7272H10.8181ZM11.6496 45.8054C11.6496 45.3182 11.9203 45.0372 12.5491 45.0372C12.7808 45.0385 13.0115 45.069 13.2367 45.1281L13.184 45.5615C12.9804 45.5115 12.7733 45.4798 12.5649 45.4668C12.2358 45.4668 12.1296 45.5877 12.1296 45.8687V46.8922C12.1296 47.1732 12.2358 47.2937 12.5649 47.2937C12.7725 47.2886 12.9793 47.2657 13.1836 47.2252L13.2367 47.6586C13.0116 47.7176 12.781 47.7482 12.5495 47.7495C11.9203 47.7495 11.6496 47.4685 11.6496 46.9813V45.8054ZM14.2564 47.77C13.6241 47.77 13.4543 47.4057 13.4543 47.0075V46.5255C13.4543 46.1293 13.6241 45.7625 14.2564 45.7625C14.8908 45.7625 15.0602 46.1293 15.0602 46.5255V47.0185C15.0602 47.3995 14.8908 47.7648 14.2564 47.7648V47.77ZM14.2564 46.1812C14.0098 46.1812 13.9141 46.2983 13.9141 46.516V47.0447C13.9141 47.2623 14.0098 47.3795 14.2564 47.3795C14.5034 47.3795 14.6012 47.2623 14.6012 47.0447V46.516C14.6012 46.2764 14.5034 46.1607 14.2564 46.1607V46.1812ZM16.3611 46.2131C16.1931 46.2931 16.0321 46.3879 15.8781 46.4941V47.7443H15.3928V45.7849H15.8144V45.9973C15.9647 45.8897 16.1272 45.8039 16.298 45.742L16.3611 46.2131ZM18.2329 47.0561C18.2458 47.1475 18.239 47.2408 18.2131 47.3289C18.1872 47.417 18.143 47.4974 18.0838 47.5638C17.964 47.6971 17.7942 47.7629 17.623 47.7386C17.4606 47.7352 17.2988 47.7159 17.1395 47.681V48.4754L16.656 48.5497V45.7849H17.0228L17.0676 45.9487C17.2387 45.8168 17.4427 45.7458 17.652 45.7478C18.0254 45.7478 18.2224 45.9802 18.2224 46.4193L18.2329 47.0561ZM17.1307 47.2733C17.2646 47.3052 17.4032 47.3218 17.5406 47.3257C17.7051 47.3257 17.7735 47.2418 17.7735 47.067V46.4098C17.7735 46.2502 17.7152 46.1607 17.5454 46.1607C17.3949 46.1664 17.2492 46.2278 17.1343 46.336L17.1307 47.2733ZM6.0588 51.785H3.23926V49.9414H10.7892V51.785H7.96965V61H6.0588V51.785Z" fill="black"/>
<path d="M12.6489 59.4485C13.4433 59.4452 14.2326 59.3265 14.9906 59.0963L15.2908 60.5065C14.3903 60.8284 13.4383 60.9943 12.4783 60.9965C10.0707 60.9965 9.23926 59.9046 9.23926 58.1123V56.1531C9.23926 54.573 9.96067 53.2179 12.4124 53.2179C14.8641 53.2179 15.4209 54.6127 15.4209 56.2223V57.8182H11.1597V58.1999C11.1597 59.0959 11.4849 59.4485 12.6489 59.4485ZM11.1438 56.3015H13.5818V55.9335C13.5818 55.2282 13.3612 54.7399 12.4178 54.7399C11.4763 54.7399 11.1442 55.2286 11.1442 55.933L11.1438 56.3015ZM20.5413 54.9257C19.8442 55.2384 19.1735 55.6035 18.5353 56.0175V60.8349H16.5953V53.3592H18.2137L18.3402 54.1861C18.9612 53.7754 19.6357 53.4463 20.3461 53.2073L20.5413 54.9257ZM25.2232 54.9257C24.5263 55.2388 23.8556 55.6039 23.2172 56.0175V60.8349H21.2772V53.3592H22.8974L23.0216 54.1861C23.6428 53.7757 24.3173 53.4467 25.0276 53.2073L25.2232 54.9257ZM31.6322 60.8296H30.0615L29.921 60.3396C29.2451 60.7697 28.4542 60.9992 27.6453 61C26.2466 61 25.6394 60.0662 25.6394 58.778C25.6394 57.2608 26.3162 56.6779 27.8709 56.6779H29.7118V55.8956C29.7118 55.0666 29.4752 54.7742 28.2526 54.7742C27.5384 54.7813 26.8279 54.8583 26.1311 55.0032L25.8945 53.5789C26.7487 53.3485 27.631 53.2301 28.5177 53.2267C30.9249 53.2267 31.6322 54.0535 31.6322 55.9282V60.8296ZM29.7172 58.004H28.3026C27.6749 58.004 27.4993 58.1709 27.4993 58.7384C27.4993 59.3076 27.6699 59.4934 28.2726 59.4934C28.7795 59.4859 29.2762 59.3546 29.7168 59.1117L29.7172 58.004ZM37.5277 51.6563C37.1668 51.5799 36.799 51.5384 36.4296 51.5326C35.6782 51.5326 35.5681 51.8557 35.5681 52.4232V53.3588H37.5136L37.4035 54.8275H35.5622V60.8089H33.6472V54.8464H32.4191V53.3777H33.6418V52.3167C33.6418 50.7639 34.3791 50 36.0798 50C36.6357 49.9983 37.192 50.0705 37.7283 50.2166L37.5277 51.6563ZM41.268 60.9859C38.6453 60.9859 37.9398 59.5758 37.9398 58.0489V56.1589C37.9398 54.6268 38.6453 53.2214 41.268 53.2214C43.8903 53.2214 44.6031 54.6316 44.6031 56.1589V58.0489C44.5976 59.5709 43.8903 60.9859 41.268 60.9859ZM41.268 54.8033C40.266 54.8033 39.8552 55.2488 39.8552 56.0897V58.1017C39.8552 58.9449 40.2464 59.39 41.268 59.39C42.2915 59.39 42.6826 58.9449 42.6826 58.1022V56.0902C42.6826 55.2436 42.286 54.7985 41.268 54.7985V54.8033ZM49.532 54.9257C48.8351 55.2388 48.1645 55.6039 47.526 56.0175V60.8349H45.591V53.3592H47.2094L47.3359 54.1861C47.9569 53.7754 48.6314 53.4463 49.3418 53.2073L49.532 54.9257ZM54.7966 60.8296V55.6151C54.7966 55.2198 54.626 55.0186 54.1852 55.0186C53.4802 55.0956 52.7979 55.3109 52.1793 55.6495V60.8349H50.273V53.3592H51.7331L51.9237 53.9901C52.8767 53.5242 53.9203 53.2575 54.9867 53.2073C55.283 53.181 55.5805 53.2434 55.8389 53.3862C56.0973 53.529 56.3042 53.7452 56.4314 54.0055C57.3857 53.5281 58.4354 53.2558 59.5085 53.2073C60.7826 53.2073 61.2393 54.083 61.2393 55.4157V60.8296H59.3243V55.6151C59.3243 55.2198 59.1533 55.0186 58.7125 55.0186C58.0053 55.0892 57.3216 55.3042 56.7065 55.6495V60.8349L54.7966 60.8296Z" fill="black"/>
<path fill-rule="evenodd" clip-rule="evenodd" d="M27.2393 10L37.2393 15.9996V28L27.2393 21.9987V10Z" fill="#5C4EE5"/>
<path fill-rule="evenodd" clip-rule="evenodd" d="M38.2393 15.9996V28L49.2393 21.9987V10L38.2393 15.9996Z" fill="#4040B2"/>
<path fill-rule="evenodd" clip-rule="evenodd" d="M15.2393 3V15.3125L25.6672 21.4683V9.15716L15.2393 3ZM26.8095 35.8424L37.2393 42V29.692L26.8095 23.5344V35.8424Z" fill="#5C4EE5"/>
</svg>
