<svg width="46" height="46" viewBox="0 0 46 46" fill="none" xmlns="http://www.w3.org/2000/svg">
<path d="M45.4108 15.8596C45.3895 15.6937 45.3639 15.5281 45.3297 15.3655C45.2978 15.1977 45.2648 15.0416 45.2118 14.8598L45.0851 14.6587C44.5629 14.2486 43.9993 13.9385 43.4273 13.6646C42.955 13.4416 42.4753 13.2474 41.99 13.0683C40.6372 9.31423 38.3121 5.98556 35.2547 3.66615C32.0947 1.26901 28.378 0 24.5072 0C20.6362 0 16.9195 1.26901 13.7592 3.66635C10.7021 5.98556 8.37659 9.31443 7.02415 13.0693C6.54007 13.2476 6.05955 13.4426 5.58787 13.6646C5.01486 13.9385 4.45168 14.2484 3.92924 14.6587L3.80212 14.8598C3.75155 15.0416 3.71849 15.1977 3.68425 15.3655C3.65139 15.5281 3.62679 15.6937 3.60338 15.8596C3.55654 16.1871 3.52545 16.5182 3.50814 16.8496C3.47488 17.5131 3.49358 18.1778 3.56638 18.8376C3.63663 19.4964 3.75942 20.1494 3.93455 20.7968C4.02645 21.1181 4.13074 21.4361 4.25451 21.7515C4.31591 21.9095 4.38301 22.0664 4.45739 22.2232C4.49399 22.3011 4.53413 22.3773 4.57506 22.457C4.66578 22.616 4.6823 22.647 4.72048 22.7035L4.89207 22.8615C5.00384 22.919 5.09652 22.9627 5.19766 23.0107L5.49302 23.1431C5.54773 23.1655 5.59909 23.1878 5.65497 23.2102C4.31315 24.4509 2.85582 26.0625 1.5937 28.0545L0 30.5689L2.23755 28.605C2.27553 28.5718 4.1516 26.9476 7.28055 25.1075L7.32443 25.4672C7.11978 25.5737 6.13589 26.09 5.84348 26.3346C5.35882 26.7372 5.33541 27.3618 5.46508 28.5273C5.53159 29.1245 5.75553 30.2841 6.05758 31.3473C6.57805 33.1768 6.95941 33.5003 7.29432 33.576C7.44544 33.6122 7.64045 33.629 7.85966 33.629C8.45904 33.629 9.22667 33.5123 9.72766 33.3609C10.3152 35.1882 11.1476 36.8378 12.1622 38.2855C12.1132 38.2987 12.0648 38.3144 12.0158 38.3284C11.4056 38.0454 9.27173 37.0568 8.55428 36.7345L7.05563 36.0597L7.94211 37.4439C8.00665 37.5438 9.53679 39.9298 10.7861 41.538C11.9546 43.0376 13.5546 44.5729 16.5737 44.5729C16.9372 44.5729 17.3173 44.5495 17.7091 44.5062C18.6094 44.4029 19.2859 44.3216 19.8003 44.2557C22.9696 45.4202 26.4641 45.4918 29.7806 44.2352C30.6881 43.8905 31.5152 43.4723 32.2745 43.0034C33.5532 42.6964 34.9517 42.3631 35.6426 42.1691C35.7534 42.1392 35.8921 42.1061 36.0363 42.0721C36.999 41.8507 38.6078 41.4774 39.4658 39.7613C40.3302 38.0299 41.7399 35.3769 41.7547 35.3498L42.4139 34.112L41.1295 34.6705C41.0608 34.7018 39.4333 35.4104 38.5879 35.8535C39.1753 34.5011 39.5214 33.3816 39.6421 32.9517C40.1155 33.0656 40.8174 33.051 41.3336 33.051C41.5874 33.051 41.8485 33.0069 42.0179 32.9637C42.3535 32.8785 42.6126 32.6555 43.0998 30.7678C43.3836 29.6706 43.587 28.4758 43.6427 27.8616C43.7508 26.6664 43.7157 26.0259 43.2279 25.6215C42.9849 25.4208 42.2716 25.0367 41.9089 24.8476C42.1118 24.7608 42.2114 24.7862 42.2191 24.7884L42.5485 23.5396C42.6644 23.49 42.787 23.4402 42.9265 23.3867C43.1252 23.3076 43.3242 23.2289 43.5231 23.1431L43.8169 23.0107C43.9192 22.9627 44.0111 22.9192 44.1233 22.8615L44.2949 22.7035C44.3318 22.647 44.3517 22.616 44.3745 22.5729C44.4832 22.3773 44.5215 22.3011 44.5578 22.2232C44.6321 22.0664 44.6982 21.9093 44.7606 21.7515C44.8844 21.4361 44.9885 21.1181 45.0802 20.7968C45.2547 20.1494 45.3793 19.4966 45.4488 18.8376C45.5227 18.1778 45.5393 17.5131 45.5062 16.8496C45.4905 16.5182 45.4578 16.1871 45.4108 15.8596Z" fill="#0E0F0D"/>
<path d="M26.5828 41.577C26.3404 41.6134 26.0978 41.6431 25.8581 41.6622C25.7021 41.6698 25.5383 41.6854 25.3892 41.6854L25.3335 41.6868C25.5206 41.2694 25.6631 40.9449 25.7701 40.6993C25.9896 40.9449 26.2684 41.2487 26.5828 41.577Z" fill="#E1C5A2"/>
<path d="M26.2885 22.9192C25.9094 23.2269 25.5099 23.5135 25.0939 23.7649L23.7062 24.602C22.8359 24.7083 22.0807 24.9234 22.0376 24.9365C22.0122 24.9421 21.9882 24.9539 21.9657 24.9674C21.8983 25.0064 21.8469 25.0717 21.8223 25.1491L20.409 29.805L12.8556 31.4849L10.4758 29.8186L9.78369 24.212C11.1354 23.9637 12.9422 23.6772 15.1122 23.4336C14.8802 23.7114 14.6545 24.0034 14.4398 24.3106L13.148 26.165L15.0296 24.911C15.0579 24.8913 16.2553 24.103 18.2152 23.1441C20.1684 22.9979 22.3247 22.9034 24.6313 22.9034C25.1949 22.9034 25.7466 22.9101 26.2885 22.9192ZM14.5311 29.2355C15.0681 28.9455 15.6742 28.988 16.6237 28.9901C16.7248 28.9921 16.8301 28.9909 16.9391 28.988C17.0329 28.988 17.1264 28.9864 17.2258 28.9835C18.2042 28.9736 19.0169 29.0661 19.0021 27.5314C18.9875 25.9966 18.3053 24.7553 17.3277 24.7649C16.3503 24.7736 15.4042 26.0316 15.4627 27.5657C15.4782 27.9651 15.5374 28.2538 15.6313 28.4612C14.7795 28.6755 14.5437 29.2025 14.5311 29.2355Z" fill="#A89983"/>
<path d="M39.3804 24.1935L38.7001 28.9608L36.301 30.6409L28.7574 29.7835L27.3499 25.1486C27.3178 25.0453 27.2379 24.9662 27.1344 24.9363C27.0879 24.9223 26.154 24.6553 25.1641 24.5697L25.3453 24.5577C25.5013 24.5461 28.1027 24.2275 31.21 23.1569C34.6501 23.4207 37.4603 23.8428 39.3804 24.1935ZM34.5605 28.6062C34.5507 28.5692 34.3437 27.9525 33.4356 28.0607C33.5399 27.8325 33.5869 27.5245 33.5538 27.1018C33.434 25.5699 32.542 24.3525 31.5654 24.3869C30.5878 24.4208 29.9627 25.6908 30.0168 27.2276C30.0705 28.7611 30.8899 28.7504 31.8675 28.7156C33.1804 28.6906 33.9012 28.2874 34.5605 28.6062Z" fill="#A89983"/>
<path d="M31.9799 25.8484C31.9846 26.1243 31.7658 26.3512 31.4897 26.3569C31.2142 26.3618 30.9858 26.1416 30.982 25.8665C30.9763 25.5908 31.1957 25.3629 31.4714 25.358C31.7481 25.3521 31.976 25.5725 31.9799 25.8484Z" fill="white"/>
<path d="M17.978 26.2158C17.9849 26.4905 17.7675 26.7203 17.4926 26.7274C17.2157 26.7352 16.9859 26.5182 16.9782 26.2411C16.9713 25.9662 17.1883 25.7352 17.4654 25.7293C17.7399 25.7216 17.9703 25.9389 17.978 26.2158Z" fill="white"/>
<path d="M42.6732 26.2907C42.5553 26.1933 42.1614 25.9682 41.7775 25.7606L41.1452 30.192C41.1324 30.2765 41.0844 30.3556 41.0126 30.4061L40.108 31.0388C40.0866 31.1458 40.0698 31.2351 40.0537 31.3188C40.9426 31.5376 41.8058 30.8967 42.2905 30.4343C42.5146 29.5612 42.71 28.5247 42.7775 27.7829C42.8806 26.6329 42.7893 26.3862 42.6732 26.2907Z" fill="#E1C5A2"/>
<path d="M28.7021 43.1262C28.1152 42.9175 27.5772 42.577 27.1088 42.114C27.0699 42.0743 27.0327 42.0359 26.9935 41.9969C26.6311 42.0711 26.2609 42.1245 25.8837 42.1565C25.7247 42.1636 25.573 42.1772 25.4071 42.1772L25.1617 42.1794L25.0673 42.1772C24.5063 43.0103 23.5631 43.4682 22.8242 43.7121C25.0195 44.0887 27.4349 43.5123 28.7021 43.1262Z" fill="#E1C5A2"/>
<path d="M9.3771 32.2733C9.35742 32.2064 9.33676 32.1403 9.31767 32.0732L8.14252 31.2507C8.06873 31.1984 8.0219 31.1195 8.01009 31.0297L7.43707 26.3763C7.01302 26.6026 6.52285 26.8821 6.39239 26.9913C6.27904 27.0849 6.19246 27.3234 6.31505 28.4323C6.40813 29.2658 6.70093 30.5464 7.00003 31.5061C7.59509 31.9613 8.47153 32.441 9.3771 32.2733Z" fill="#E1C5A2"/>
<path d="M26.9458 32.061C26.8209 32.047 26.7156 31.9592 26.6788 31.8374L25.2286 27.0585C24.9853 27.0266 24.7695 27.0089 24.5873 27.0089C24.4043 27.0089 24.1898 27.0266 23.9467 27.0585L22.537 31.7001C22.5038 31.8081 22.4143 31.8917 22.3029 31.9161L21.6289 32.0663C21.5718 32.3044 21.3776 32.6537 20.7527 32.8453C19.744 33.1529 13.359 35.0561 12.6309 34.9526C12.2057 34.893 11.3969 34.4467 10.7985 34.0858C10.559 33.522 10.4266 33.1387 10.3963 33.0478V33.046L10.3945 33.0478C10.4791 33.2953 11.3123 35.6937 13.0052 38.0396C14.82 37.5048 16.3876 37.0062 16.8888 36.8476C17.9096 35.2733 19.364 33.7113 20.3969 33.658C20.5762 33.6491 20.7605 33.6436 20.9433 33.6436C21.4495 33.6436 21.9325 33.6796 22.381 33.7328C22 33.387 21.9219 32.9827 21.8666 32.8032C21.8666 32.8032 23.1858 33.8349 24.8637 33.6179C26.5442 33.4028 27.5867 32.435 27.5867 32.435L27.6198 32.1375L26.9458 32.061Z" fill="#E1C5A2"/>
<path d="M28.3095 32.6659C27.9614 32.5757 27.7422 32.4321 27.6035 32.2823L27.5861 32.435C27.5861 32.435 27.5804 33.1403 26.8496 33.6867C28.257 33.2605 28.8388 33.1163 29.2373 33.1163C29.6759 33.1163 29.893 33.2993 30.0832 33.4601C30.1193 33.4902 30.1553 33.5216 30.1984 33.5553C31.2808 34.4071 32.5819 35.4412 32.9619 35.7452C33.4025 35.796 34.8008 35.956 35.6808 36.0363C36.1875 36.0835 36.6463 36.1217 37.0958 36.1217C37.2398 36.1217 37.3762 36.1167 37.5051 36.1079C37.9691 35.2192 38.3963 34.2361 38.7764 33.1523C38.2562 33.5173 37.0704 34.3162 36.5149 34.4191C35.7921 34.5545 29.3286 32.9301 28.3095 32.6659Z" fill="#E1C5A2"/>
<path d="M44.5742 15.9531C44.562 15.8 44.5452 15.6471 44.5265 15.496C44.5139 15.3878 44.4968 15.2756 44.4781 15.1717C44.07 14.8283 43.6058 14.5225 43.1229 14.2459C42.5999 13.9387 42.0523 13.6658 41.493 13.4115C40.9387 13.1494 40.3681 12.9125 39.7954 12.6815C39.5091 12.5648 39.2205 12.4525 38.9304 12.3454C38.6417 12.2325 38.3505 12.1272 38.0579 12.0209C38.6709 12.1227 39.2789 12.2628 39.8822 12.4178C40.2748 12.518 40.6648 12.6319 41.0522 12.7539C38.2942 5.54815 31.7038 0.856201 24.5071 0.856201C17.3095 0.856201 10.7195 5.54834 7.96363 12.7539C8.3505 12.6319 8.74149 12.518 9.1321 12.4178C9.73502 12.2628 10.3433 12.1227 10.9574 12.0209C10.663 12.1272 10.3724 12.2325 10.0821 12.3454C9.79366 12.4527 9.50518 12.5648 9.21868 12.6815C8.64566 12.9125 8.07619 13.1494 7.5201 13.4115C6.96283 13.6658 6.4152 13.9387 5.89158 14.2459C5.40849 14.5225 4.94528 14.8283 4.53618 15.1717C4.51945 15.2758 4.50174 15.388 4.48816 15.496C4.47006 15.6471 4.45333 15.8 4.43976 15.9531C4.41319 16.2603 4.40276 16.568 4.4006 16.8772C4.39391 17.4949 4.43582 18.1125 4.51355 18.7229C4.59855 19.3359 4.71072 19.9447 4.8766 20.5337C4.95807 20.8277 5.05153 21.1181 5.15917 21.3997C5.21348 21.54 5.27212 21.6793 5.33352 21.8131C5.36362 21.8802 5.39491 21.9465 5.42738 22.0099L5.46693 22.0849C5.51199 22.1075 5.55981 22.1315 5.60428 22.1532L5.87819 22.2838C6.03109 22.3541 6.24302 22.4544 6.41795 22.5325C6.42779 22.5237 6.43763 22.5148 6.4455 22.5062L5.93683 20.5687C6.04486 20.5396 7.01064 20.2899 8.67518 19.9723C8.54157 19.9471 8.40619 19.919 8.27277 19.8867C7.89378 19.7918 7.51971 19.6769 7.15685 19.5307C6.97739 19.4546 6.80029 19.3719 6.63165 19.2765C6.46302 19.1791 6.29733 19.0699 6.16844 18.9237C7.99689 19.5211 11.7762 19.2511 15.136 18.9034C18.2076 18.5866 21.2886 18.3819 24.3843 18.375C27.4792 18.3819 30.5613 18.5866 33.6314 18.9034C36.9925 19.2511 40.7716 19.5211 42.5999 18.9237C42.4724 19.0699 42.3055 19.1791 42.1385 19.2765C41.9684 19.3719 41.7909 19.4548 41.6115 19.5307C41.249 19.6769 40.8763 19.7918 40.4967 19.8867C40.4405 19.9001 40.3836 19.9119 40.3273 19.9245C42.1534 20.2629 43.216 20.5384 43.3286 20.5685L42.8425 22.4141C42.9413 22.3714 43.0405 22.3287 43.1357 22.2836L43.4104 22.153C43.4555 22.1313 43.5023 22.1073 43.549 22.0847L43.5858 22.0097C43.619 21.9463 43.6513 21.88 43.681 21.8129C43.7426 21.6791 43.8012 21.5398 43.8547 21.3995C43.9618 21.1179 44.0557 20.8275 44.1375 20.5335C44.304 19.9445 44.4161 19.3355 44.4998 18.7227C44.5791 18.1123 44.6212 17.4947 44.6153 16.877C44.6127 16.568 44.6021 16.2601 44.5742 15.9531Z" fill="#E0D896"/>
<path d="M32.079 12.3688C32.1071 13.1931 32.0868 14.689 31.7027 16.0884C31.6872 16.142 31.6891 16.1977 31.7027 16.2494C31.2137 16.1977 30.7243 16.1538 30.2354 16.114C30.7838 14.9637 30.9036 13.7389 30.9304 13.3072C31.3521 13.0081 31.7712 12.6484 32.079 12.3688Z" fill="#D7C184"/>
<path d="M18.0846 13.3072C18.1102 13.7388 18.23 14.9608 18.7784 16.1111C18.2892 16.1499 17.8 16.1948 17.312 16.2467C17.3252 16.1971 17.3262 16.1422 17.312 16.0887C16.9287 14.6912 16.9082 13.1955 16.9346 12.369C17.2437 12.6484 17.6619 13.0081 18.0846 13.3072Z" fill="#D7C184"/>
<path d="M38.0862 17.3913C38.084 17.4049 38.0803 17.4188 38.0762 17.4322C38.1299 17.4478 38.1824 17.4635 38.2362 17.481C38.6883 17.6292 39.1411 17.7841 39.5734 17.9838C38.8517 17.5149 38.394 16.1618 38.1387 15.1276C38.209 16.4814 38.0929 17.3401 38.0862 17.3913Z" fill="#D7C184"/>
<path d="M16.3328 12.1086L11.6635 13.4367C11.3839 15.2529 11.4691 16.64 11.5141 17.1213L11.5378 17.1072C11.5378 17.1072 11.6899 15.1286 12 14.3694C12.1598 13.9796 13.1372 13.7309 13.8824 13.5528C14.6291 13.3755 15.8198 13.0199 16.051 14.0683C16.1937 14.7161 16.3901 15.2549 16.5784 15.6522C16.2785 14.2118 16.2976 12.8035 16.3328 12.1086Z" fill="#D7C184"/>
<path d="M32.68 12.1086C32.7182 12.8306 32.7359 14.3226 32.3975 15.8206C32.6096 15.4137 32.8453 14.8133 33.0094 14.0683C33.2403 13.0199 34.431 13.3755 35.1775 13.5528C35.9243 13.7311 36.9005 13.9796 37.0603 14.3694C37.3234 15.0121 37.4721 16.5273 37.5115 16.9779C37.5558 16.3986 37.605 15.0963 37.3505 13.4365L32.68 12.1086Z" fill="#D7C184"/>
<path d="M18.0477 12.513C18.2136 12.6457 18.3872 12.7751 18.5558 12.8893C18.6375 12.9459 18.6875 13.0382 18.6892 13.1378C18.6902 13.1533 18.7252 14.6917 19.4053 16.0017C19.4151 16.0214 19.422 16.0428 19.4287 16.0631C21.1196 15.9482 22.8154 15.9015 24.5071 15.9005C26.1998 15.9015 27.8947 15.9513 29.5848 16.067C29.5915 16.0448 29.5978 16.0231 29.6098 16.0017C30.2888 14.6917 30.3252 13.1533 30.3252 13.1378C30.327 13.0382 30.378 12.9457 30.4596 12.8893C30.6228 12.7791 30.7875 12.6541 30.9486 12.526L30.9699 12.466C31.3235 9.02476 30.6751 5.8537 30.2629 4.28677C30.2412 5.35822 29.9872 14.5383 27.7091 14.5383H24.807H24.3239H21.4219C19.0029 14.5383 18.8083 4.18799 18.8083 4.18799L18.6837 4.55557C18.2711 6.20593 17.7044 9.23945 18.0477 12.513Z" fill="#D7C184"/>
<path d="M10.9385 17.4315C10.9363 17.4181 10.9326 17.4051 10.9295 17.3913C10.922 17.3402 10.8055 16.4804 10.8757 15.1252C10.6203 16.1603 10.1612 17.5157 9.43848 17.9844C9.8708 17.7839 10.3255 17.6284 10.7785 17.4801C10.8313 17.4635 10.8856 17.4478 10.9385 17.4315Z" fill="#D7C184"/>
<path d="M40.054 31.3188C40.0155 31.5171 39.9834 31.6765 39.9204 31.9262C40.4389 32.0471 41.2866 32.1409 41.692 32.0618C41.8656 31.8733 42.0897 31.2194 42.2908 30.4341C41.8061 30.8967 40.9427 31.5376 40.054 31.3188Z" fill="#9F8F78"/>
<path d="M21.4717 44.0114C22.7102 44.3504 23.9753 44.4976 25.2217 44.415C26.472 44.33 28.0954 44.0602 29.8186 43.3606C29.4317 43.3319 29.0582 43.253 28.7026 43.1265C27.4354 43.5127 25.02 44.0891 22.8247 43.7125C22.2436 43.9037 21.7881 43.9632 21.7436 43.9687C21.6519 43.9791 21.5762 43.9919 21.4717 44.0114Z" fill="#9F8F78"/>
<path d="M9.45951 32.5509C9.43097 32.4588 9.4048 32.3659 9.37765 32.2733C8.47188 32.4409 7.59544 31.9612 7.00098 31.5062C7.19342 32.1223 7.38764 32.6064 7.53306 32.7536C7.98152 32.8319 8.97366 32.6944 9.45951 32.5509Z" fill="#9F8F78"/>
<path d="M10.7985 34.0859C11.3967 34.4468 12.2054 34.8933 12.6308 34.9527C13.3589 35.0562 19.7439 33.153 20.7526 32.8454C21.3776 32.6538 21.5718 32.3045 21.6289 32.0664L12.4173 34.1178C12.3939 34.1217 12.3705 34.1247 12.3483 34.1247H12.3477H12.3473C12.2837 34.1247 12.2202 34.1052 12.1659 34.0674L11.8071 33.8171L10.7312 33.0635V33.0619L10.2969 32.7587C10.3044 32.7833 10.3132 32.8077 10.3213 32.8321C10.3459 32.9035 10.3701 32.9759 10.3961 33.0462V33.0479C10.4266 33.1388 10.559 33.5222 10.7985 34.0859Z" fill="#9F8F78"/>
<path d="M39.0552 32.3162C39.1143 32.0988 39.1719 31.8786 39.2245 31.6562L38.9047 31.8808L38.044 32.4835L37.1129 33.1364C37.065 33.1693 37.0095 33.1891 36.9525 33.1935C36.9332 33.1946 36.9145 33.1943 36.8956 33.1921L27.6197 32.1376L27.604 32.2822C27.7427 32.4321 27.9619 32.5756 28.3098 32.6657C29.3289 32.93 35.7923 34.5544 36.515 34.4188C37.0705 34.3159 38.2567 33.517 38.7766 33.1519C38.7809 33.1394 38.7855 33.1272 38.7896 33.1146C38.8299 32.9987 38.8697 32.8824 38.909 32.7651C38.9586 32.6169 39.007 32.4678 39.0552 32.3162Z" fill="#9F8F78"/>
<path d="M29.2405 19.819C29.1675 19.9136 29.0874 20.0169 29.0016 20.125C28.561 20.6816 27.9508 21.3918 27.2281 22.0886C26.3861 22.0622 25.5216 22.0477 24.6318 22.0477C23.1611 22.0477 21.751 22.0864 20.4121 22.1508C22.3047 21.3664 24.5773 20.5996 27.039 20.1395C27.7574 20.0032 28.4927 19.8941 29.2405 19.819Z" fill="#6E6A67"/>
<path d="M18.1688 20.6659C17.4925 21.1407 16.7306 21.7456 15.9909 22.4804C14.0975 22.6705 12.4448 22.8993 11.0825 23.1195C13.1774 22.1571 15.5688 21.27 18.1688 20.6659Z" fill="#6E6A67"/>
<path d="M41.308 24.5758L40.5368 29.9643L36.8465 32.5502L27.2221 31.4557L25.774 26.6843C25.7396 26.5688 25.6416 26.4836 25.5218 26.4633C25.1654 26.4056 24.8504 26.3775 24.5871 26.3775C24.3232 26.3775 24.0082 26.4056 23.6496 26.4633C23.5314 26.4838 23.434 26.5688 23.3979 26.6843L21.9853 31.3396L12.4152 33.4689L8.62256 30.8123L7.87402 24.7647C8.03774 24.6734 8.20362 24.5815 8.3699 24.4898C8.60505 24.4392 8.86912 24.3857 9.16134 24.3302L9.8658 30.037C9.87544 30.1255 9.92542 30.2044 9.99862 30.2556L12.6085 32.084C12.661 32.1202 12.7254 32.1407 12.7883 32.1407C12.8117 32.1407 12.8342 32.1375 12.8588 32.1328L20.7269 30.3823C20.7542 30.3756 20.7802 30.366 20.8056 30.3536C20.8778 30.3144 20.9361 30.2479 20.9597 30.1653L22.3777 25.5003C22.7576 25.4031 23.7315 25.1748 24.5869 25.1748C25.4407 25.1748 26.4143 25.4031 26.7953 25.5003L28.2123 30.1653C28.2485 30.2859 28.3546 30.3738 28.4791 30.3884L36.3486 31.2824C36.4242 31.2912 36.5019 31.2704 36.5645 31.2265L39.1753 29.4014C39.2456 29.3506 39.294 29.2717 39.306 29.1859L40.003 24.3096C40.5262 24.4097 40.9636 24.5016 41.308 24.5758Z" fill="#6E6A67"/>
<path d="M42.2796 21.196L41.6021 23.7659C40.2165 23.4602 37.174 22.8606 33.0322 22.457C34.3849 21.88 35.7629 21.1573 37.0221 20.2517C39.4865 20.5998 41.2961 20.9737 42.2796 21.196Z" fill="#6E6A67"/>
<path d="M6.98584 21.196L7.17416 21.9073C7.70132 21.4874 8.18382 21.1397 8.59095 20.8621C7.92742 20.9894 7.38628 21.1053 6.98584 21.196Z" fill="#6E6A67"/>
<path d="M33.5585 19.7627C32.5213 19.704 31.4847 19.6542 30.4469 19.6113C30.3873 19.7001 30.2647 19.8784 30.0894 20.1182C29.5333 20.8705 28.4372 22.2418 27.0322 23.4184C28.0893 23.0835 32.2828 21.6767 34.407 19.815C34.1241 19.7967 33.8415 19.779 33.5585 19.7627Z" fill="#93232C"/>
<path d="M25.9588 19.4888C25.9604 19.4884 25.9622 19.4882 25.9632 19.4878C25.4372 19.4809 24.9106 19.4754 24.3854 19.4733H24.3844C23.6107 19.4754 22.8387 19.4853 22.065 19.4987L20.6384 20.175C20.6362 20.175 20.6276 20.1799 20.6173 20.1868C20.4026 20.2911 18.5299 21.2362 16.7666 22.9222C16.9209 22.8409 17.0844 22.7567 17.2528 22.6713C18.2172 22.0233 20.7893 20.4888 24.7888 19.4774C25.1788 19.4798 25.569 19.4821 25.9588 19.4888Z" fill="#93232C"/>
<path d="M17.192 19.6611C16.5314 19.6916 15.8706 19.7255 15.2106 19.7629C14.4454 19.8056 13.6825 19.8571 12.9202 19.9146C12.54 19.9439 12.1592 19.9764 11.7822 20.0159C11.6728 20.0265 11.5657 20.0384 11.4585 20.0521C10.4624 20.6476 6.65006 23.0408 4.03076 26.1731C4.07582 26.1188 4.12246 26.065 4.1687 26.0113C9.01787 21.8743 14.3344 20.2639 17.192 19.6611Z" fill="#93232C"/>
<path d="M39.1301 36.6746C39.1012 36.6896 39.0703 36.7053 39.0427 36.7197C38.5563 36.9753 37.9192 37.1005 37.0956 37.1005C36.6055 37.1005 36.1247 37.0593 35.5919 37.0111C34.5279 36.9139 32.7268 36.702 32.7085 36.6987L32.5708 36.6841L32.4617 36.5963C32.4452 36.5853 30.8682 35.3275 29.5931 34.3251C29.5412 34.283 29.4943 34.2429 29.4516 34.209C29.3171 34.0941 29.3171 34.0941 29.237 34.0941C28.8277 34.0941 27.6387 34.4633 25.035 35.2699L24.8752 35.321L24.717 35.261C24.6993 35.2565 22.9911 34.6231 20.9436 34.6231C20.7758 34.6231 20.6087 34.6272 20.446 34.6353C20.2411 34.6457 19.0904 35.1925 17.6177 37.5204L17.5234 37.6707L17.3538 37.7248C17.3294 37.7329 14.7959 38.5503 12.1089 39.3187L11.9356 39.3679L11.7699 39.2914C11.7524 39.2855 10.7031 38.7975 9.70312 38.339C9.77672 38.3732 9.8509 38.4069 9.9247 38.4411C10.9119 39.2932 12.8024 40.9319 13.0123 41.159C13.0414 41.1917 13.082 41.2316 13.1302 41.2769C13.0814 41.2218 13.0342 41.1649 12.9877 41.1076C12.9871 41.1072 12.9865 41.1065 12.986 41.1059C13.4216 41.5189 13.9077 41.8757 14.4388 42.1267C14.7038 42.2513 14.9817 42.3477 15.264 42.3946C15.4065 42.418 15.5448 42.4296 15.6891 42.4296C15.8351 42.4296 15.9844 42.4253 16.1334 42.418C16.7241 42.3877 17.3202 42.3424 17.915 42.2848C18.5087 42.2312 19.1032 42.1718 19.6964 42.0998C20.2891 42.036 20.8816 41.9615 21.469 41.8703C21.7634 41.8274 22.0558 41.7788 22.3415 41.7155C22.4818 41.6824 22.628 41.6458 22.7392 41.5958C22.8405 41.5474 22.9635 41.4498 23.0716 41.357C23.2925 41.1667 23.506 40.9555 23.7174 40.7452C23.9291 40.5348 24.1355 40.3186 24.3423 40.099C24.6902 39.7347 24.9884 39.3477 25.3252 38.9726C25.3683 38.926 25.4124 38.8764 25.4571 38.8284C25.4571 38.8292 25.4571 38.8292 25.4579 38.8292L25.4618 38.8335C25.532 38.8841 25.6021 38.9352 25.6708 38.9891C26.0761 39.2914 26.4949 39.6184 26.8985 39.901C27.4189 40.2668 27.9459 40.6332 28.4912 40.9382C28.6272 41.014 28.7678 41.0848 28.9022 41.1293C28.9196 41.1356 28.9341 41.1387 28.9477 41.1407C28.9575 41.1466 28.9936 41.1523 28.9977 41.1523C29.0241 41.1562 29.0597 41.158 29.0939 41.1604C29.1673 41.1614 29.2433 41.158 29.3194 41.1545C29.627 41.1332 29.9389 41.0884 30.251 41.0396C30.8743 40.9423 31.4993 40.8302 32.1207 40.7056C32.7433 40.5866 33.3653 40.4589 33.9834 40.3213C34.6046 40.1899 35.2231 40.0446 35.8367 39.8902C36.1419 39.8079 36.4473 39.7322 36.7196 39.6015C36.9976 39.472 37.2558 39.2943 37.4935 39.0907C37.9731 38.6822 38.3765 38.1757 38.7114 37.6241C38.711 37.6249 38.711 37.6253 38.7106 37.6261C38.9162 37.2439 39.051 36.9027 39.1301 36.6746Z" fill="#93232C"/>
<path d="M27.506 7.37124H28.6024V5.14392H20.585V7.37124H21.6814V6.23997H23.9487V13.1191H23.0154V14.3958H26.1717V13.1191H25.2381V6.23997H27.506V7.37124Z" fill="#93232C"/>
<path d="M35.8017 19.9135C35.7999 19.9125 35.7979 19.9116 35.7952 19.9116C35.341 19.8771 34.887 19.846 34.4327 19.8165C34.4242 19.8159 34.4154 19.8155 34.4067 19.8149C32.2825 21.6766 28.0892 23.0834 27.0319 23.4183C27.0114 23.4358 26.9912 23.4533 26.9707 23.4705C28.3318 23.2255 30.3647 22.7396 32.4747 21.8053C33.5124 21.3461 34.5686 20.7788 35.5734 20.0772C35.6509 20.0235 35.7261 19.9672 35.8017 19.9135Z" fill="#731B2A"/>
<path d="M24.7884 19.4772C20.7889 20.4884 18.2168 22.0229 17.2524 22.6709C18.0256 22.2773 18.9418 21.8432 19.9715 21.4121C19.9764 21.4101 19.9819 21.4077 19.987 21.4056C20.0917 21.3621 20.1984 21.318 20.3054 21.2743C20.3405 21.26 20.3749 21.2456 20.4101 21.2316C20.5026 21.194 20.5963 21.1573 20.6903 21.1197C20.7427 21.0994 20.7944 21.0787 20.8472 21.0583C20.9318 21.0252 21.0172 20.9922 21.1032 20.9593C21.1675 20.9349 21.2319 20.9103 21.297 20.8861C21.3757 20.856 21.4552 20.8263 21.5353 20.797C21.6099 20.7694 21.6856 20.7421 21.7608 20.7149C21.835 20.6879 21.9086 20.6614 21.9833 20.6348C22.0684 20.6049 22.1542 20.5752 22.2405 20.5451C22.3086 20.5217 22.3763 20.4981 22.4448 20.4746C22.5457 20.4406 22.6475 20.4069 22.7496 20.3733C22.8059 20.3548 22.8614 20.3363 22.9178 20.3178C23.0776 20.2661 23.2392 20.2149 23.4017 20.1651C23.7565 20.0561 24.1192 19.9522 24.4877 19.852C24.9683 19.7216 25.458 19.599 25.9584 19.4886C25.5686 19.4821 25.1784 19.4797 24.7884 19.4772Z" fill="#731B2A"/>
<path d="M17.192 19.6611C14.3344 20.2639 9.01787 21.8743 4.1687 26.0113C4.12246 26.065 4.07582 26.1186 4.03076 26.1731C6.49578 24.4595 10.733 21.9121 15.9712 20.3624C16.14 20.3127 16.3104 20.2639 16.4814 20.2156C17.3506 19.9716 18.2473 19.7587 19.1649 19.5804C18.5076 19.6039 17.8498 19.631 17.192 19.6611Z" fill="#731B2A"/>
<path d="M40.0745 36.218C40.058 36.2255 40.0415 36.2332 40.025 36.2408C39.9911 36.2566 39.9575 36.2723 39.9244 36.2881C39.8972 36.3005 39.8709 36.3131 39.8435 36.3254C39.8221 36.3357 39.8006 36.3459 39.7786 36.3563C39.7455 36.3721 39.7123 36.3878 39.6794 36.4036C39.6658 36.4105 39.6515 36.4169 39.6373 36.4242C39.5997 36.4421 39.5625 36.4595 39.5263 36.4774C39.5183 36.4815 39.51 36.4854 39.5017 36.4896C39.462 36.509 39.4224 36.5281 39.384 36.5472C39.3799 36.5494 39.376 36.5512 39.3718 36.5531C39.2866 36.5952 39.206 36.636 39.1306 36.6745C39.0515 36.902 38.9163 37.2438 38.7107 37.6252C38.7103 37.6256 38.7099 37.6263 38.7099 37.6267C38.7107 37.6256 38.7115 37.6244 38.7115 37.6244C38.7107 37.6256 38.7099 37.6263 38.7093 37.6277C38.3748 38.1769 37.972 38.682 37.4934 39.09C37.2557 39.2938 36.9973 39.4713 36.7197 39.6008C36.4468 39.7315 36.1416 39.8072 35.8366 39.8895C35.223 40.0439 34.6047 40.1892 33.9833 40.3206C33.3654 40.4582 32.7434 40.5859 32.1208 40.7049C31.4992 40.8299 30.8744 40.9418 30.2507 41.0388C29.9388 41.0876 29.6271 41.1325 29.3193 41.1538C29.243 41.1577 29.1674 41.1605 29.094 41.1597C29.0596 41.1577 29.0239 41.1555 28.9974 41.1516C28.9934 41.1516 28.9574 41.1461 28.9478 41.14C28.934 41.1382 28.9193 41.1351 28.9021 41.1284C28.7675 41.0845 28.6272 41.0131 28.4911 40.9375C27.946 40.6323 27.4188 40.2661 26.8982 39.9005C26.4952 39.6177 26.0758 39.2907 25.6707 38.9882L25.6353 39.0384L25.6378 39.041C25.663 39.0638 25.6884 39.0848 25.7136 39.1071C25.713 39.1067 25.7126 39.1063 25.7118 39.1059C25.6933 39.0921 25.6756 39.0786 25.6585 39.066L25.9981 39.4711C25.9991 39.4725 26.0119 39.488 26.0369 39.5172C26.2102 39.7208 26.9356 40.5624 27.797 41.4169C28.4527 42.067 29.2437 42.3952 30.1513 42.3952C30.461 42.3952 30.7867 42.3545 31.1157 42.2764C31.4199 42.2016 31.7511 42.1227 32.0903 42.0406C33.0962 41.8014 34.2106 41.5345 34.9503 41.3425C34.9995 41.3293 35.0475 41.3171 35.0935 41.3047C35.1982 41.2771 35.2931 41.2518 35.3779 41.2283C35.5113 41.1902 35.6585 41.1555 35.8149 41.1203C36.712 40.9123 37.9387 40.6276 38.5885 39.3253C38.7683 38.9662 38.9706 38.5687 39.1788 38.1633C39.4685 37.6 39.7695 37.0211 40.0372 36.5098C40.0797 36.4288 40.122 36.3481 40.1627 36.2707C40.1627 36.2704 40.1631 36.2703 40.1631 36.2703C40.1847 36.2288 40.2068 36.1869 40.2276 36.147C40.1773 36.1702 40.1257 36.1942 40.0745 36.218Z" fill="#731B2A"/>
<path d="M25.3837 39.0273L25.3254 38.972C24.9886 39.3471 24.69 39.7341 24.3425 40.0985C24.1357 40.3182 23.9293 40.5344 23.7176 40.7448C23.5062 40.9551 23.2927 41.1669 23.0717 41.3565C22.9635 41.4494 22.8405 41.547 22.7394 41.5952C22.6284 41.6454 22.482 41.682 22.3417 41.7151C22.0562 41.7784 21.7636 41.827 21.4692 41.8699C20.882 41.961 20.2893 42.036 19.6966 42.0994C19.1033 42.1714 18.5089 42.2308 17.9152 42.2841C17.3206 42.3418 16.7243 42.3871 16.1336 42.4178C15.9846 42.4246 15.8353 42.4292 15.6893 42.4292C15.545 42.4292 15.4065 42.4178 15.2642 42.3941C14.9817 42.3473 14.7038 42.2507 14.439 42.1263C13.908 41.8752 13.422 41.5183 12.9863 41.1057C12.9867 41.1058 12.9873 41.1066 12.9879 41.107C13.0468 41.1794 13.1115 41.2473 13.1733 41.3164C13.1583 41.3026 13.1442 41.289 13.1302 41.2761C13.0822 41.231 13.0416 41.1911 13.0123 41.1584C12.8024 40.9311 10.9117 39.2926 9.9247 38.4405C9.8509 38.4061 9.77672 38.3726 9.70312 38.3384C9.87806 38.5973 10.0695 38.8779 10.2685 39.1643C10.5575 39.5806 10.8619 40.0086 11.1599 40.411C11.2947 40.5929 11.4285 40.77 11.5579 40.9364C12.631 42.3172 13.9816 43.5931 16.5736 43.5931C16.8981 43.5931 17.2436 43.5732 17.598 43.5331C17.6807 43.524 17.7609 43.5148 17.8398 43.5053C17.9158 43.4969 17.9906 43.4884 18.063 43.48C20.3169 43.2208 20.9351 43.1102 21.2783 43.051C21.3671 43.0356 21.4428 43.0223 21.5249 43.0103C21.5568 43.0057 21.5894 43.0006 21.6241 42.9961C21.6367 42.9949 22.3988 42.8969 23.1438 42.5344C23.6574 42.2851 24.1623 41.9103 24.4094 41.3561C25.0332 39.9608 25.1599 39.6273 25.1649 39.6149L25.3837 39.0273Z" fill="#731B2A"/>
<path d="M31.4896 26.3571C31.7653 26.3512 31.9845 26.1243 31.9798 25.8486C31.9756 25.5727 31.7478 25.3523 31.4709 25.3584C31.1954 25.3633 30.9758 25.5912 30.9815 25.8669C30.9857 26.1418 31.2139 26.362 31.4896 26.3571ZM34.5607 28.6062C33.9013 28.2877 33.1805 28.691 31.8676 28.7156C30.89 28.7505 30.0706 28.7611 30.0169 27.2276C29.9628 25.6908 30.588 24.4208 31.5656 24.3869C32.5422 24.3525 33.434 25.57 33.554 27.1019C33.587 27.5245 33.5402 27.8325 33.4357 28.0608C34.3439 27.9523 34.5509 28.569 34.5607 28.6062Z" fill="#0E0F0D"/>
<path d="M17.4929 26.7274C17.7676 26.7205 17.9853 26.4905 17.9784 26.2158C17.9707 25.9389 17.7403 25.7217 17.4658 25.7294C17.1889 25.7353 16.9717 25.9663 16.9786 26.2412C16.986 26.5179 17.2159 26.7353 17.4929 26.7274ZM19.0022 27.5313C19.0168 29.0659 18.2041 28.9736 17.2259 28.9833C17.1265 28.9864 17.0331 28.9878 16.9392 28.9878C16.8302 28.9908 16.7249 28.9919 16.6238 28.99C15.6743 28.9878 15.0683 28.9453 14.5312 29.2354C14.5438 29.2023 14.7798 28.6753 15.6316 28.4606C15.5376 28.2532 15.4785 27.9646 15.463 27.5653C15.4043 26.0314 16.3506 24.7734 17.328 24.7646C18.3054 24.7549 18.9877 25.9964 19.0022 27.5313Z" fill="#0E0F0D"/>
<path d="M37.5119 16.978C37.5014 17.113 37.4914 17.209 37.4853 17.2609C37.0996 17.1561 36.7102 17.0602 36.318 16.9685C35.0268 16.685 33.72 16.4746 32.4065 16.3245C32.3612 16.3188 32.315 16.3156 32.2688 16.3099C32.2776 16.2904 32.2857 16.271 32.2916 16.2515C32.3307 16.1082 32.365 15.9646 32.3976 15.8209C32.7361 14.3229 32.7184 12.8309 32.6802 12.1089L37.3507 13.437C37.6051 15.0966 37.556 16.3987 37.5119 16.978ZM31.7026 16.0885C31.6871 16.1421 31.6891 16.1978 31.7026 16.2495C31.2136 16.1978 30.7243 16.1539 30.2353 16.1141C30.7837 14.9638 30.9035 13.739 30.9303 13.3073C31.352 13.0082 31.7709 12.6485 32.0789 12.3689C32.107 13.1932 32.0867 14.6891 31.7026 16.0885ZM17.3121 16.2466C17.3253 16.197 17.3263 16.1421 17.3121 16.0885C16.9288 14.691 16.9084 13.1953 16.9347 12.3689C17.2437 12.6485 17.6618 13.0082 18.0847 13.3073C18.1103 13.7388 18.2301 14.9608 18.7785 16.1112C18.2893 16.1497 17.8003 16.1948 17.3121 16.2466ZM16.6067 16.3235C15.9516 16.4034 15.2958 16.486 14.6431 16.5943C13.9921 16.7056 13.341 16.8241 12.6958 16.9675C12.3042 17.0585 11.9163 17.1549 11.5281 17.2598C11.5245 17.2291 11.5198 17.1818 11.5143 17.121C11.4693 16.6397 11.384 15.2528 11.6637 13.4364L16.333 12.1083C16.2978 12.8034 16.2787 14.2117 16.5788 15.6519C16.6205 15.8518 16.6679 16.0519 16.7226 16.2511C16.7285 16.2706 16.7364 16.29 16.745 16.3078C16.698 16.3137 16.6531 16.3176 16.6067 16.3235ZM40.0151 18.2092C39.9753 18.1901 39.9362 18.1706 39.8986 18.1521C39.8407 18.1244 39.7768 18.0925 39.7034 18.0569C39.6989 18.0547 39.6959 18.0532 39.6959 18.0532C39.6544 18.0329 39.6134 18.0095 39.5733 17.9837C39.1412 17.784 38.6882 17.6293 38.236 17.4809C38.1825 17.4634 38.1298 17.4477 38.0762 17.4321C38.0802 17.4188 38.0841 17.4048 38.0863 17.3912C38.093 17.34 38.2091 16.4811 38.139 15.1275C38.1093 14.5494 38.0453 13.8811 37.9243 13.1465C37.9048 13.0293 37.8192 12.9342 37.7063 12.9017L37.0406 12.7134C36.8973 7.5622 34.7765 5.14145 34.7102 5.06648C36.6047 8.11593 36.5882 11.7323 36.5551 12.5751L32.4279 11.4019C32.425 11.4019 32.4222 11.4019 32.4183 11.4001C32.4016 11.396 32.3829 11.394 32.3654 11.3923C32.3614 11.3923 32.3569 11.3915 32.3502 11.3915C32.3288 11.3903 32.3052 11.3923 32.2827 11.3972C32.2796 11.3972 32.276 11.4003 32.2717 11.4003C32.2534 11.4041 32.2367 11.41 32.2184 11.4186C32.2119 11.4216 32.206 11.4257 32.2001 11.4275C32.1861 11.4369 32.1725 11.4448 32.159 11.4546C32.156 11.4568 32.1521 11.4586 32.1491 11.4613C32.145 11.4643 32.1436 11.4672 32.1412 11.4692C32.1373 11.4733 32.1326 11.4761 32.1294 11.479C32.1255 11.4832 32.0143 11.592 31.8418 11.7549C31.854 11.3688 31.8569 10.7781 31.813 10.0567C31.8087 9.98826 31.8044 9.9188 31.7996 9.84855C31.67 8.03624 31.2416 5.49054 29.9614 3.26204C29.9724 3.29411 30.0989 3.66386 30.2626 4.28665C30.6747 5.85359 31.3234 9.02465 30.9698 12.4659C30.9681 12.4816 30.9669 12.4972 30.9653 12.5131C30.96 12.5174 30.9541 12.5216 30.9486 12.5259C30.7872 12.654 30.6225 12.779 30.4594 12.8891C30.3777 12.9458 30.3268 13.0381 30.3248 13.1377C30.3248 13.1532 30.2886 14.6916 29.6097 16.0016C29.5975 16.023 29.5912 16.0447 29.5843 16.0669C27.8944 15.9512 26.1998 15.9016 24.5069 15.9004C22.8152 15.9014 21.1194 15.948 19.4285 16.063C19.4218 16.0425 19.4149 16.021 19.4051 16.0016C18.725 14.6916 18.69 13.1532 18.689 13.1377C18.6872 13.0381 18.6372 12.9456 18.5556 12.8891C18.3869 12.775 18.2134 12.6457 18.0475 12.5129C17.7041 9.23933 18.2708 6.20582 18.6833 4.55525C18.8791 3.77169 19.0406 3.29805 19.0534 3.26184C17.1959 6.49429 17.1315 10.3944 17.1726 11.7547C16.9969 11.5918 16.8881 11.4832 16.8851 11.4788C16.882 11.4759 16.8763 11.4731 16.8723 11.469C16.8704 11.467 16.8684 11.4641 16.8657 11.4611C16.8625 11.4584 16.8588 11.4566 16.8548 11.4544C16.8413 11.4446 16.8273 11.4367 16.8137 11.4293C16.807 11.4255 16.8021 11.4214 16.7942 11.4184C16.7765 11.4098 16.7614 11.4039 16.7437 11.4019C16.7387 11.4001 16.735 11.397 16.7319 11.397C16.7084 11.3923 16.685 11.3901 16.6634 11.3913C16.6577 11.3913 16.6516 11.3921 16.6459 11.3921C16.6291 11.3938 16.6128 11.3958 16.5953 11.3999C16.5914 11.4017 16.5894 11.4017 16.5854 11.4017L12.4594 12.5749C12.4262 11.7319 12.4085 8.11554 14.303 5.06628C14.2373 5.14185 12.1168 7.5626 11.9726 12.7138L11.3101 12.9019C11.1942 12.9344 11.1092 13.0294 11.0901 13.1469C10.969 13.8805 10.9055 14.548 10.8752 15.1255C10.8051 16.4807 10.9214 17.3404 10.9289 17.3916C10.9321 17.4052 10.9358 17.4182 10.938 17.4317C10.885 17.4481 10.8307 17.4638 10.778 17.4803C10.325 17.6287 9.87044 17.7842 9.43792 17.9847C9.39818 18.0101 9.35744 18.0335 9.31592 18.0536C9.31592 18.0536 9.31317 18.0549 9.30923 18.0573C9.23564 18.0929 9.17149 18.1246 9.11383 18.1525C9.08097 18.1687 9.04634 18.1854 9.0123 18.2021C8.99085 18.2145 8.96881 18.2253 8.94775 18.2379C9.25394 18.1177 9.57055 18.0299 9.88697 17.9522C10.2048 17.8731 10.5245 17.8031 10.8439 17.7424C11.4864 17.623 12.1304 17.5193 12.7784 17.4404C13.4246 17.3556 14.0736 17.2855 14.7235 17.231C15.3739 17.1755 16.0229 17.1208 16.6746 17.0832C19.2805 16.929 21.8931 16.8804 24.5069 16.8794C27.1213 16.8814 29.7337 16.9221 32.3392 17.0823C32.9911 17.12 33.6401 17.1744 34.2912 17.2295C34.9424 17.2847 35.589 17.3558 36.2352 17.4406C36.8834 17.5185 37.5286 17.6218 38.1699 17.7419C38.4902 17.8035 38.8094 17.8713 39.1256 17.9522C39.4444 18.0301 39.7595 18.1179 40.0662 18.2381C40.0491 18.2277 40.0318 18.2188 40.0151 18.2092Z" fill="#0E0F0D"/>
<path d="M25.2377 6.23995V13.1191H26.1712V14.3958H23.0149V13.1191H23.9482V6.23995H21.681V7.37142H20.5847V5.14391H28.602V7.37122H27.5058V6.23976H25.2377V6.23995ZM29.4275 8.19493V4.31921H19.7612V8.19493H22.5063V7.06346H23.123V12.2938H22.1916V15.2183H26.9957V12.2938H26.0614V7.06346H26.6805V8.19493H29.4275Z" fill="#0E0F0D"/>
</svg>
