<svg width="64" height="66" viewBox="0 0 64 66" fill="none" xmlns="http://www.w3.org/2000/svg">
<path d="M0 32.4622V64.2083H63.4921V0.716187H0V32.4622ZM51.1644 29.9225C52.6851 30.2754 54.0673 31.0708 55.1365 32.2083C55.7251 32.8211 56.2368 33.5033 56.6603 34.24C56.6603 34.3213 53.9175 36.1752 52.2463 37.2114C52.1854 37.2521 51.9416 36.9879 51.6724 36.5867C51.3673 36.0603 50.9339 35.6197 50.4125 35.3062C49.8911 34.9927 49.2988 34.8163 48.6908 34.7936C46.7657 34.6616 45.5263 35.6724 45.5365 37.3333C45.5206 37.7469 45.6153 38.1572 45.8108 38.5219C46.2324 39.4006 47.0197 39.9238 49.4883 40.9905C54.0343 42.946 55.9797 44.2362 57.1886 46.0698C58.5397 48.1016 58.8394 51.3829 57.9251 53.8108C56.9092 56.4521 54.4203 58.2451 50.9003 58.8394C49.2926 59.0235 47.6682 59.0064 46.0648 58.7886C43.6176 58.3916 41.3602 57.2264 39.619 55.4616C39.0349 54.8165 37.8971 53.1352 37.9683 53.0133C38.1537 52.8757 38.3489 52.7518 38.5524 52.6425L40.8889 51.3016L42.7124 50.2451L43.0933 50.8089C43.7362 51.7286 44.5544 52.5122 45.5009 53.1149C47.5327 54.1816 50.306 54.0343 51.6775 52.8C52.1379 52.3477 52.4252 51.7483 52.4892 51.106C52.5533 50.4638 52.39 49.8194 52.0279 49.2851C51.52 48.579 50.5041 47.9848 47.6648 46.7454C44.3886 45.3333 42.9765 44.4597 41.6863 43.0679C40.8809 42.1495 40.2863 41.066 39.9441 39.8933C39.6889 38.5536 39.6512 37.1815 39.8324 35.8298C40.5079 32.6654 42.88 30.4559 46.3441 29.8006C47.9484 29.6021 49.5734 29.6467 51.1644 29.9327V29.9225ZM36.2616 32.5841V35.1848H28.0178V58.6667H22.1714V35.1797H13.9073V32.64C13.8851 31.7657 13.9089 30.8908 13.9784 30.019C14.0089 29.9784 19.0578 29.9581 25.153 29.9683H36.2311L36.2616 32.5841Z" fill="#007ACC"/>
</svg>
