<svg width="142" height="26" viewBox="0 0 142 26" fill="none" xmlns="http://www.w3.org/2000/svg">
<path d="M0.729492 0.506783H8.26629L13.2334 10.8825L18.158 0.506783H25.909L13.2759 26L0.729492 0.506783Z" fill="#B3272D"/>
<path d="M32.5429 13.0178C32.5429 16.4339 35.4545 19.2246 38.966 19.2246C42.5204 19.2246 45.3894 16.4339 45.3894 13.0178C45.3894 9.56042 42.5204 6.76888 38.966 6.76888C35.4545 6.76888 32.5429 9.56042 32.5429 13.0178ZM25.6055 12.9974C25.6055 5.83228 31.6004 0.000110626 38.9662 0.000110626C46.3315 0.000110626 52.327 5.83228 52.327 12.9974C52.327 20.162 46.3315 25.9934 38.9662 25.9934C31.6004 25.9934 25.6055 20.162 25.6055 12.9974Z" fill="#B3272D"/>
<path d="M65.8319 19.3197C64.5735 19.3197 63.5532 18.3273 63.5532 17.103V0.506763H56.6128V17.6084C56.6128 21.982 60.167 25.4814 64.4921 25.4814H74.5356L77.6813 19.3197H65.8319Z" fill="#B3272D"/>
<path d="M104.658 23.3903H110.357C112.082 23.3903 113.76 22.9688 115.209 22.1713C116.598 21.4063 117.797 20.3011 118.675 18.9748C120.501 16.216 120.945 12.5299 119.834 9.35491C118.74 6.23074 116.226 3.84261 113.11 2.96671C112.237 2.72143 111.311 2.59717 110.357 2.59717H104.658V23.3903ZM102.031 25.481V0.506462H110.799C112.462 0.506462 114.043 0.818348 115.499 1.43336C116.914 2.03163 118.186 2.85996 119.278 3.8959C121.529 6.03037 122.95 8.99831 123.177 12.0384C123.415 15.2305 122.488 18.34 120.566 20.7943C118.686 23.1963 115.878 24.8467 112.864 25.3224C112.197 25.4277 111.502 25.481 110.799 25.481H102.031Z" fill="#415464"/>
<path d="M127.293 11.3576H133.655C135.427 11.3576 136.989 10.3827 137.731 8.81359C138.412 7.3731 138.224 5.57049 137.263 4.32867C136.412 3.22841 135.096 2.59742 133.655 2.59742H127.293V11.3576ZM127.293 23.3903H133.839C135.546 23.3903 137.194 22.498 138.14 21.0615C139.122 19.5714 139.209 17.6797 138.369 16.1247C137.49 14.4989 135.712 13.4483 133.839 13.4483H127.293V23.3903ZM124.665 25.4812V0.506519H134.317C135.864 0.506519 137.377 1.05284 138.578 2.04463C139.734 2.99931 140.547 4.36787 140.81 5.79922C141.018 6.9341 140.904 8.05776 140.479 9.04841C140.066 10.0094 139.341 10.9399 138.382 11.7391L137.662 12.3404L138.494 12.7836C139.708 13.4289 140.675 14.4958 141.219 15.7877C141.792 17.1488 141.887 18.7659 141.481 20.2247C140.654 23.197 137.905 25.3562 134.796 25.4755C134.698 25.4791 134.599 25.4812 134.501 25.4812H124.665Z" fill="#415464"/>
<path d="M82.3433 25.4812V6.66846H72.8887V0.506901H98.8252V6.66846H89.3696V25.4812H82.3433Z" fill="#B3272D"/>
</svg>
